<svg viewBox="0 0 100 100" height="100" width="100" xmlns="http://www.w3.org/2000/svg"><path d="M5.613 50.000 A40.000 40.000 0 1 0 85.613 50.000 A40.000 40.000 0 1 0 5.613 50.000 Z" fill="#d9edff"/><path d="M21.108 76.466 A11.893 1.622 0 1 0 44.894 76.466 A11.893 1.622 0 1 0 21.108 76.466 Z" fill="#4cbcc3"/><path d="M47.226 64.473L42.668 67.733 42.668 39.553 54.882 30.817 54.882 57.992" fill="none" stroke="#004481" stroke-linecap="round" stroke-linejoin="round"/><path d="M14.488,39.553h28.18v28.18H16.651a2.162,2.162,0,0,1-2.163-2.162Z" fill="#ffffff" stroke="#004481" stroke-linecap="round" stroke-linejoin="round"/><path d="M26.192,31.182a1.952,1.952,0,0,1,1.137-.365H54.882L42.668,39.553H14.488Z" fill="#4cbcc3" stroke="#004481" stroke-linecap="round" stroke-linejoin="round"/><path d="M62.132 58.143L65.11 55.164 57.134 47.189 54.157 50.168 51.309 60.991 62.132 58.143z" fill="#ffffff"/><path d="M62.132 58.143L65.11 55.164 57.134 47.189 54.157 50.168 51.309 60.991 62.132 58.143z" fill="none" stroke="#004481" stroke-linecap="round" stroke-linejoin="round"/><path d="M51.309 60.99L49.87 62.43" fill="none" stroke="#004481" stroke-linecap="round" stroke-linejoin="round"/><path d="M78.494 25.83L86.469 33.805 62.484 57.79 61.344 54.372 58.497 53.802 57.927 50.954 54.509 49.815 78.494 25.83z" fill="#ffffff"/><path d="M91.026,29.248l1.709-1.709a5.639,5.639,0,1,0-7.975-7.974l-1.709,1.708Z" fill="#ffffff"/><path d="M91.026,29.248l1.709-1.709a5.639,5.639,0,1,0-7.975-7.974l-1.709,1.708Z" fill="none" stroke="#004481" stroke-linecap="round" stroke-linejoin="round"/><path d="M81.538 21.9H87.983V33.178H81.538z" fill="#4cbcc3" transform="translate(5.351 67.997) rotate(-44.998)"/><path d="M81.538 21.9H87.983V33.178H81.538z" fill="none" stroke="#004481" stroke-linecap="round" stroke-linejoin="round" transform="translate(5.351 67.997) rotate(-44.998)"/><path d="M80.773 23.552L88.747 31.527" fill="none" stroke="#004481" stroke-linecap="round" stroke-linejoin="round"/><path d="M61.344 54.372L84.191 31.527" fill="none" stroke="#004481" stroke-linecap="round" stroke-linejoin="round"/><path d="M57.927 50.954L80.773 28.109" fill="none" stroke="#004481" stroke-linecap="round" stroke-linejoin="round"/><path d="M78.494 25.83L86.469 33.805 62.484 57.79 61.344 54.372 58.497 53.802 57.927 50.954 54.509 49.815 78.494 25.83z" fill="none" stroke="#004481" stroke-linecap="round" stroke-linejoin="round"/></svg>