<svg viewBox="0 0 100 100" height="100" width="100" xmlns="http://www.w3.org/2000/svg"><path d="M2.667 50.000 A40.000 40.000 0 1 0 82.667 50.000 A40.000 40.000 0 1 0 2.667 50.000 Z" fill="#d9edff"/><path d="M26.126 23.621H65.126V45.620999999999995H26.126z" fill="#ffffff" stroke="#004481" stroke-linecap="round" stroke-linejoin="round"/><path d="M26.306,19.766l-4.755,1.427a2,2,0,0,0-1.425,1.915V31.62c0,.649,1.93,2.373,1.541,2.892l-1,2c1,1,3,1,2,3l-2,4c.412,2.269,1,4.109,2.441,4.109h5.473a.991.991,0,0,0,.972-1.207,17,17,0,1,1,33.145,0,.991.991,0,0,0,.974,1.2h6.454V20.915A39.862,39.862,0,0,0,42.667,10a40.372,40.372,0,0,0-4.984.308L32.808,15.67A14.356,14.356,0,0,1,26.306,19.766Z" fill="#4cbcc3"/><path d="M37.683,10.308,32.808,15.67a14.356,14.356,0,0,1-6.5,4.1l-4.755,1.427a2,2,0,0,0-1.425,1.915V31.62c0,.649,1.93,2.373,1.541,2.892l-1,2c1,1,3,1,2,3l-2,4c.412,2.269,1,4.109,2.441,4.109h5.473a.991.991,0,0,0,.972-1.207,17,17,0,1,1,33.145,0,.991.991,0,0,0,.974,1.2h6.454V20.915" fill="none" stroke="#004481" stroke-linecap="round" stroke-linejoin="round"/><path d="M21.667 36.621L26.126 36.621" fill="none" stroke="#004481" stroke-linecap="round" stroke-linejoin="round"/><path d="M20.126,23.109l9.78.455a1,1,0,0,1,.924,1.241l-.551,2.2a1,1,0,0,1-.774.738l-9.379,1.876Z" fill="#ffffff" stroke="#004481" stroke-linecap="round" stroke-linejoin="round"/><path d="M47.126,10.621l.4,8.04a1.964,1.964,0,0,0,1.6,1.96,21.733,21.733,0,0,1,16,11" fill="none" stroke="#004481" stroke-linecap="round" stroke-linejoin="round"/><path d="M20.126 27.096L23.896 25.971 25.667 26.533" fill="none" stroke="#004481" stroke-linecap="round" stroke-linejoin="round"/><path d="M23.896 25.971L26.126 23.621" fill="none" stroke="#004481" stroke-linecap="round" stroke-linejoin="round"/><path d="M22.896 38.901L27.042 40.621" fill="none" stroke="#004481" stroke-linecap="round" stroke-linejoin="round"/><path d="M25.011 42.075L25.045 39.792" fill="none" stroke="#004481" stroke-linecap="round" stroke-linejoin="round"/><path d="M24.479 36.621L26.167 34.2" fill="none" stroke="#004481" stroke-linecap="round" stroke-linejoin="round"/><path d="M21.403 33.621L24.354 31.621" fill="none" stroke="#004481" stroke-linecap="round" stroke-linejoin="round"/><path d="M20.667 43.512L26.792 44.621" fill="none" stroke="#004481" stroke-linecap="round" stroke-linejoin="round"/><path d="M25.011 42.075L22.223 43.794" fill="none" stroke="#004481" stroke-linecap="round" stroke-linejoin="round"/><path d="M32.126 42.621 A14.000 14.000 0 1 0 60.126 42.621 A14.000 14.000 0 1 0 32.126 42.621 Z" fill="#4cbcc3" stroke="#004481" stroke-linecap="round" stroke-linejoin="round"/><path d="M37.126 42.621 A9.000 9.000 0 1 0 55.126 42.621 A9.000 9.000 0 1 0 37.126 42.621 Z" fill="#ffffff" stroke="#004481" stroke-linecap="round" stroke-linejoin="round"/><path d="M44.126 42.621 A2.000 2.000 0 1 0 48.126 42.621 A2.000 2.000 0 1 0 44.126 42.621 Z" fill="#4cbcc3" stroke="#004481" stroke-linecap="round" stroke-linejoin="round"/><path d="M46.126,38.621l.826-4.959c-.272-.025-.547-.041-.826-.041s-.554.016-.826.041Z" fill="#004481" stroke="#004481" stroke-linecap="round" stroke-linejoin="round"/><path d="M46.126,46.621,45.3,51.579c.272.025.547.042.826.042s.554-.017.826-.042Z" fill="#004481" stroke="#004481" stroke-linecap="round" stroke-linejoin="round"/><path d="M43.3,39.792,40.376,35.7c-.211.175-.417.357-.614.555s-.38.4-.555.613Z" fill="#004481" stroke="#004481" stroke-linecap="round" stroke-linejoin="round"/><path d="M48.954,45.449l2.922,4.09c.211-.175.417-.357.614-.554s.38-.4.555-.614Z" fill="#004481" stroke="#004481" stroke-linecap="round" stroke-linejoin="round"/><path d="M42.126,42.621l-4.959-.827c-.024.273-.041.548-.041.827s.017.553.041.826Z" fill="#004481" stroke="#004481" stroke-linecap="round" stroke-linejoin="round"/><path d="M50.126,42.621l4.958.826c.025-.273.042-.547.042-.826s-.017-.554-.042-.827Z" fill="#004481" stroke="#004481" stroke-linecap="round" stroke-linejoin="round"/><path d="M43.3,45.449l-4.091,2.922c.175.21.358.416.555.614s.4.379.614.554Z" fill="#004481" stroke="#004481" stroke-linecap="round" stroke-linejoin="round"/><path d="M48.954,39.792l4.091-2.922c-.175-.21-.358-.416-.555-.613s-.4-.38-.614-.555Z" fill="#004481" stroke="#004481" stroke-linecap="round" stroke-linejoin="round"/><path d="M44.667 87.275 A14.5 1.725 0 1 0 73.667 87.275 A14.5 1.725 0 1 0 44.667 87.275 Z" fill="#4cbcc3"/><path d="M75.624,40.566a3.865,3.865,0,0,0-3.561-4.147L52.078,34.9a3.863,3.863,0,0,0-4.146,3.561L44.678,81.326a3.863,3.863,0,0,0,3.561,4.145l19.986,1.518a3.866,3.866,0,0,0,4.146-3.561Z" fill="#ffffff" stroke="#004481" stroke-linecap="round" stroke-linejoin="round"/><path d="M42.363 49.173H77.98400000000001V72.116H42.363z" fill="#4cbcc3" stroke="#004481" stroke-linecap="round" stroke-linejoin="round" transform="translate(-4.852 116.055) rotate(-85.659)"/><path d="M63 39.365L56.378 38.862" fill="none" stroke="#004481" stroke-linecap="round" stroke-linejoin="round"/><path d="M66.011,39.593a.6.6,0,1,0,.647-.556A.6.6,0,0,0,66.011,39.593Z" fill="#004481"/><path d="M56.416 82.317 A2.113 2.113 0 1 0 60.642 82.317 A2.113 2.113 0 1 0 56.416 82.317 Z" fill="#ffffff" stroke="#004481" stroke-linecap="round" stroke-linejoin="round"/><path d="M61.142,51l-.885,18.075c-.064,1.318-2.422,1.062-2.361-.186" fill="none" stroke="#004481" stroke-linecap="round" stroke-linejoin="round"/><path d="M52.135,61.364c.044-.9,1.321-1.57,2.852-1.495s2.736.866,2.692,1.767c.044-.9,1.394-1.567,3.015-1.487s2.9.873,2.855,1.774c.044-.9,1.321-1.57,2.852-1.5s2.736.865,2.692,1.766l.032-.652a8.489,8.489,0,1,0-16.958-.83Z" fill="#ffffff" stroke="#004481" stroke-linecap="round" stroke-linejoin="round"/><path d="M61.061,52.648s-3.02,1.6-3.382,8.988" fill="none" stroke="#004481" stroke-linecap="round" stroke-linejoin="round"/><path d="M61.061,52.648s2.85,1.887,2.488,9.275" fill="none" stroke="#004481" stroke-linecap="round" stroke-linejoin="round"/><path d="M79.558,13.968A16.954,16.954,0,0,0,70.78,44.881a12.757,12.757,0,0,1-3.691,6.473.569.569,0,0,0,.431.978C73.1,52,76.383,50.157,78.582,47.766a17.151,17.151,0,0,0,1.794.1,16.957,16.957,0,1,0-.818-33.895Z" fill="#ffffff" stroke="#004481" stroke-linecap="round" stroke-linejoin="round"/><path d="M85.6,37.365a1.289,1.289,0,0,0-1.778.419L82.8,39.433a1.3,1.3,0,0,0,.421,1.78l.905.559a1.934,1.934,0,0,0,2.429-.325A29.981,29.981,0,0,0,92.8,31.34a1.939,1.939,0,0,0-.8-2.317l-.9-.559a1.292,1.292,0,0,0-1.779.421L88.3,30.534a1.292,1.292,0,0,0,.421,1.779l.549.339A30.821,30.821,0,0,1,86.148,37.7Z" fill="#4cbcc3" stroke="#004481" stroke-linecap="round" stroke-linejoin="round"/><path d="M85.843,30.516a1.582,1.582,0,0,0-1.283-1.539V27.951a7.7,7.7,0,1,0-15.395,0v1.026a1.572,1.572,0,0,0,.162,3.111,7.7,7.7,0,0,0,15.071,0A1.589,1.589,0,0,0,85.843,30.516Z" fill="#ffffff" stroke="#004481" stroke-linecap="round" stroke-linejoin="round"/><path d="M71.731 31.478 A0.962 0.962 0 1 0 73.655 31.478 A0.962 0.962 0 1 0 71.731 31.478 Z" fill="#4cbcc3"/><path d="M80.070 31.478 A0.962 0.962 0 1 0 81.994 31.478 A0.962 0.962 0 1 0 80.070 31.478 Z" fill="#4cbcc3"/><path d="M74.94,34.365a3.468,3.468,0,0,0,3.848,0" fill="none" stroke="#004481" stroke-linecap="round" stroke-linejoin="round"/><path d="M82.937,20.954a.384.384,0,0,1-.079-.4,6.261,6.261,0,0,0,.4-1.7.384.384,0,0,0-.459-.41,17.689,17.689,0,0,1-4.879-.035,8.287,8.287,0,0,0-9.393,8.265v.93a1.378,1.378,0,0,0,.943,1.308.912.912,0,0,0,1.184-.687,6.29,6.29,0,0,1,2.67-4.284.384.384,0,0,1,.462.02,3.88,3.88,0,0,0,2.438.788,4.262,4.262,0,0,0,1.3-.2.386.386,0,0,1,.417.126,1.906,1.906,0,0,0,2.886.11.386.386,0,0,1,.559,0,6.32,6.32,0,0,1,1.691,3.444.913.913,0,0,0,1.185.687A1.378,1.378,0,0,0,85.2,27.6v-.93A8.311,8.311,0,0,0,82.937,20.954Z" fill="#4cbcc3" stroke="#004481" stroke-linecap="round" stroke-linejoin="round"/><path d="M75.581 28.592L78.147 28.592" fill="none" stroke="#004481" stroke-linecap="round" stroke-linejoin="round"/><path d="M74.581,31.158h-2.49a1,1,0,0,1-1-1V28.251a.3.3,0,0,1,.3-.3h3.89a.3.3,0,0,1,.3.3v1.907A1,1,0,0,1,74.581,31.158Z" fill="#4cbcc3" stroke="#004481" stroke-linecap="round" stroke-linejoin="round"/><path d="M81.637,31.158h-2.49a1,1,0,0,1-1-1V28.251a.3.3,0,0,1,.3-.3h3.89a.3.3,0,0,1,.3.3v1.907A1,1,0,0,1,81.637,31.158Z" fill="#4cbcc3" stroke="#004481" stroke-linecap="round" stroke-linejoin="round"/><path d="M10.823,35.085c0,1.013-2.92,2.085-4.49,2.085a2.085,2.085,0,0,1,0-4.17C7.9,33,10.823,34.072,10.823,35.085Z" fill="#4cbcc3" stroke="#004481" stroke-linecap="round" stroke-linejoin="round"/><path d="M13.415,44.8c0,1.123-1.769,3.056-2.924,3.723a2.085,2.085,0,0,1-2.084-3.612,8.116,8.116,0,0,1,2.831-.852c1.094-.125,1.878.029,2.1.413A.642.642,0,0,1,13.415,44.8Z" fill="#4cbcc3" stroke="#004481" stroke-linecap="round" stroke-linejoin="round"/><path d="M13.415,25.375a.63.63,0,0,1-.078.328c-.221.384-1,.538-2.1.413a8.116,8.116,0,0,1-2.831-.852,2.085,2.085,0,1,1,2.084-3.611C11.646,22.319,13.415,24.252,13.415,25.375Z" fill="#4cbcc3" stroke="#004481" stroke-linecap="round" stroke-linejoin="round"/></svg>