<svg viewBox="0 0 100 100" height="100" width="100" xmlns="http://www.w3.org/2000/svg"><path d="M7.226 51.857 A40.000 40.000 0 1 0 87.226 51.857 A40.000 40.000 0 1 0 7.226 51.857 Z" fill="#d9edff"/><path d="M39.932 82.879 A12.219 2.036 0 1 0 64.370 82.879 A12.219 2.036 0 1 0 39.932 82.879 Z" fill="#4cbcc3"/><path d="M39.932 82.879 A12.219 2.036 0 1 0 64.370 82.879 A12.219 2.036 0 1 0 39.932 82.879 Z" fill="#4cbcc3"/><path d="M39.932 82.879 A12.219 2.036 0 1 0 64.370 82.879 A12.219 2.036 0 1 0 39.932 82.879 Z" fill="#4cbcc3"/><path d="M21.485,33.242c-3.193,1.09-6.224.68-6.769-.917L26.89,67.979c.545,1.6,3.575,2.007,6.769.917S39,65.628,38.453,64.031L26.28,28.377C26.825,29.974,24.678,32.152,21.485,33.242Z" fill="#ffffff"/><path d="M21.485,33.242c-3.193,1.09-6.224.68-6.769-.917L26.89,67.979c.545,1.6,3.575,2.007,6.769.917S39,65.628,38.453,64.031L26.28,28.377C26.825,29.974,24.678,32.152,21.485,33.242Z" fill="none" stroke="#004481" stroke-linecap="round" stroke-linejoin="round"/><path d="M14.389 30.351 A6.109 3.055 0 1 0 26.607 30.351 A6.109 3.055 0 1 0 14.389 30.351 Z" fill="#4cbcc3" transform="translate(-8.707 8.251) rotate(-18.851)"/><path d="M17.608 31.341 A3.055 1.527 -18.91509279728293 1 0 23.388 29.360 A3.055 1.527 -18.91509279728293 1 0 17.608 31.341 Z" fill="#ffffff" transform="matrix(0.946, -0.323, 0.323, 0.946, -8.707, 8.251)"/><path d="M14.389 30.351 A6.109 3.055 0 1 0 26.607 30.351 A6.109 3.055 0 1 0 14.389 30.351 Z" fill="none" stroke="#004481" stroke-linecap="round" stroke-linejoin="round" transform="translate(-8.707 8.251) rotate(-18.851)"/><path d="M20.118,30.191a21.426,21.426,0,0,0-.871-3.469A7.182,7.182,0,0,0,17.3,23.758,10.71,10.71,0,0,0,15.526,22.6" fill="none" stroke="#004481" stroke-linecap="round" stroke-linejoin="round"/><path d="M33.049,29.294c-3.193,1.09-6.224.68-6.769-.917L38.453,64.031c.545,1.6,3.576,2.007,6.769.917s5.34-3.268,4.8-4.865L37.843,24.429C38.388,26.026,36.242,28.2,33.049,29.294Z" fill="#ffffff"/><path d="M33.049,29.294c-3.193,1.09-6.224.68-6.769-.917L38.453,64.031c.545,1.6,3.576,2.007,6.769.917s5.34-3.268,4.8-4.865L37.843,24.429C38.388,26.026,36.242,28.2,33.049,29.294Z" fill="none" stroke="#004481" stroke-linecap="round" stroke-linejoin="round"/><path d="M25.953 26.403 A6.109 3.055 0 1 0 38.171 26.403 A6.109 3.055 0 1 0 25.953 26.403 Z" fill="#4cbcc3" transform="translate(-6.811 11.776) rotate(-18.851)"/><path d="M29.007 26.403 A3.055 1.527 0 1 0 35.117 26.403 A3.055 1.527 0 1 0 29.007 26.403 Z" fill="#ffffff" transform="translate(-6.811 11.776) rotate(-18.851)"/><path d="M25.953 26.403 A6.109 3.055 0 1 0 38.171 26.403 A6.109 3.055 0 1 0 25.953 26.403 Z" fill="none" stroke="#004481" stroke-linecap="round" stroke-linejoin="round" transform="translate(-6.811 11.776) rotate(-18.851)"/><path d="M31.682,26.243a21.428,21.428,0,0,0-.872-3.469,7.172,7.172,0,0,0-1.944-2.964,10.647,10.647,0,0,0-1.777-1.161" fill="none" stroke="#004481" stroke-linecap="round" stroke-linejoin="round"/><path d="M44.612,25.346c-3.193,1.09-6.224.68-6.769-.917L50.017,60.083c.545,1.6,3.575,2.007,6.769.917s5.339-3.268,4.794-4.865L49.407,20.481C49.952,22.077,47.805,24.256,44.612,25.346Z" fill="#ffffff"/><path d="M44.612,25.346c-3.193,1.09-6.224.68-6.769-.917L50.017,60.083c.545,1.6,3.575,2.007,6.769.917s5.339-3.268,4.794-4.865L49.407,20.481C49.952,22.077,47.805,24.256,44.612,25.346Z" fill="none" stroke="#004481" stroke-linecap="round" stroke-linejoin="round"/><path d="M37.516 22.455 A6.109 3.055 0 1 0 49.734 22.455 A6.109 3.055 0 1 0 37.516 22.455 Z" fill="#4cbcc3" transform="translate(-4.915 15.3) rotate(-18.851)"/><path d="M40.570 22.455 A3.055 1.527 0 1 0 46.680 22.455 A3.055 1.527 0 1 0 40.570 22.455 Z" fill="#ffffff" transform="translate(-4.915 15.3) rotate(-18.851)"/><path d="M37.516 22.455 A6.109 3.055 0 1 0 49.734 22.455 A6.109 3.055 0 1 0 37.516 22.455 Z" fill="none" stroke="#004481" stroke-linecap="round" stroke-linejoin="round" transform="translate(-4.915 15.3) rotate(-18.851)"/><path d="M43.245,22.3a21.463,21.463,0,0,0-.871-3.47,7.178,7.178,0,0,0-1.944-2.963A10.647,10.647,0,0,0,38.653,14.7" fill="none" stroke="#004481" stroke-linecap="round" stroke-linejoin="round"/><path d="M55.647,36.582A90.916,90.916,0,0,1,19.42,48.951a1.063,1.063,0,0,1-1.127-.711l-1.842-5.4a1.045,1.045,0,0,1,.869-1.375A90.862,90.862,0,0,0,52.733,29.374a1.045,1.045,0,0,1,1.527.557l1.844,5.4A1.063,1.063,0,0,1,55.647,36.582Z" fill="#4cbcc3"/><path d="M55.647,36.582A90.916,90.916,0,0,1,19.42,48.951a1.063,1.063,0,0,1-1.127-.711l-1.842-5.4a1.045,1.045,0,0,1,.869-1.375A90.862,90.862,0,0,0,52.733,29.374a1.045,1.045,0,0,1,1.527.557l1.844,5.4A1.063,1.063,0,0,1,55.647,36.582Z" fill="none" stroke="#004481" stroke-linecap="round" stroke-linejoin="round"/><path d="M59.924,49.109A90.916,90.916,0,0,1,23.7,61.478a1.063,1.063,0,0,1-1.127-.711l-1.842-5.4A1.045,1.045,0,0,1,21.6,54,90.862,90.862,0,0,0,57.01,41.9a1.045,1.045,0,0,1,1.527.557l1.844,5.4A1.063,1.063,0,0,1,59.924,49.109Z" fill="#4cbcc3"/><path d="M59.924,49.109A90.916,90.916,0,0,1,23.7,61.478a1.063,1.063,0,0,1-1.127-.711l-1.842-5.4A1.045,1.045,0,0,1,21.6,54,90.862,90.862,0,0,0,57.01,41.9a1.045,1.045,0,0,1,1.527.557l1.844,5.4A1.063,1.063,0,0,1,59.924,49.109Z" fill="none" stroke="#004481" stroke-linecap="round" stroke-linejoin="round"/><path d="M34.446 56.678 A20.554 20.554 0 1 0 75.554 56.678 A20.554 20.554 0 1 0 34.446 56.678 Z" fill="#4cbcc3"/><path d="M55.725,43.885a10.149,10.149,0,0,0-13.437,13.8l-.89,1.841a2.031,2.031,0,1,0,3.658,1.768,2.032,2.032,0,1,0,3.659,1.768,2.031,2.031,0,1,0,3.658,1.768l.89-1.841a10.15,10.15,0,0,0,2.462-19.1Z" fill="#ffffff"/><path d="M48.715,63.062a2.031,2.031,0,1,0,3.658,1.768l.89-1.841a10.159,10.159,0,1,0-10.975-5.3l-.89,1.841a2.031,2.031,0,1,0,3.658,1.768" fill="none" stroke="#004481" stroke-linecap="round" stroke-linejoin="round"/><path d="M45.056,61.294a2.032,2.032,0,1,0,3.659,1.768" fill="none" stroke="#004481" stroke-linecap="round" stroke-linejoin="round"/><path d="M53.102 54.564 A2.540 2.540 0 1 0 58.182 54.564 A2.540 2.540 0 1 0 53.102 54.564 Z" fill="#4cbcc3"/><path d="M53.102 54.564 A2.540 2.540 0 1 0 58.182 54.564 A2.540 2.540 0 1 0 53.102 54.564 Z" fill="none" stroke="#004481" stroke-linecap="round" stroke-linejoin="round"/><path d="M44.871 50.586 A2.540 2.540 0 1 0 49.951 50.586 A2.540 2.540 0 1 0 44.871 50.586 Z" fill="#4cbcc3" stroke="#004481" stroke-linecap="round" stroke-linejoin="round"/><path d="M34.446 56.678 A20.554 20.554 0 1 0 75.554 56.678 A20.554 20.554 0 1 0 34.446 56.678 Z" fill="none" stroke="#004481" stroke-linecap="round" stroke-linejoin="round"/><path d="M57.768,34.46l-1.6,3.452c-.709,1.525,1.653,4.126,5.276,5.809s7.133,1.811,7.841.286l1.6-3.452Z" fill="#ffffff"/><path d="M57.768,34.46l-1.6,3.452c-.709,1.525,1.653,4.126,5.276,5.809s7.133,1.811,7.841.286l1.6-3.452Z" fill="none" stroke="#004481" stroke-linecap="round" stroke-linejoin="round"/><path d="M61.282 37.508 A3.045 7.232 0 1 0 67.372 37.508 A3.045 7.232 0 1 0 61.282 37.508 Z" fill="#4cbcc3" stroke="#004481" stroke-linecap="round" stroke-linejoin="round" transform="translate(3.206 80.04) rotate(-65.079)"/><path d="M63.345 37.162 A1.142 3.426 0 1 0 65.629 37.162 A1.142 3.426 0 1 0 63.345 37.162 Z" fill="#ffffff" stroke="#004481" stroke-linecap="round" stroke-linejoin="round" transform="translate(3.612 79.986) rotate(-65.079)"/><path d="M64.006,38.2a5.7,5.7,0,0,0,1.44.455c.3-.583.616-1.16.952-1.718.749-1.243,1.792-2.731,3.214-3.2a3.393,3.393,0,0,1,.427-.111,1.433,1.433,0,0,0-.545-2.814,6.36,6.36,0,0,0-.781.2c-2.316.765-3.766,2.777-4.77,4.445-.406.673-.781,1.37-1.141,2.075A9.6,9.6,0,0,0,64.006,38.2Z" fill="#ffffff"/><path d="M64.006,38.2a5.7,5.7,0,0,0,1.44.455c.3-.583.616-1.16.952-1.718.749-1.243,1.792-2.731,3.214-3.2a3.393,3.393,0,0,1,.427-.111,1.433,1.433,0,0,0-.545-2.814,6.36,6.36,0,0,0-.781.2c-2.316.765-3.766,2.777-4.77,4.445-.406.673-.781,1.37-1.141,2.075A9.6,9.6,0,0,0,64.006,38.2Z" fill="none" stroke="#004481" stroke-linecap="round" stroke-linejoin="round"/><path d="M67.615,16.734c-1,0-2.066-2.894-2.066-4.449a2.066,2.066,0,1,1,4.132,0C69.681,13.84,68.619,16.734,67.615,16.734Z" fill="#ffffff" stroke="#004481" stroke-linecap="round" stroke-linejoin="round"/><path d="M58.421,19.309c-.842.547-3.309-1.3-4.156-2.606a2.066,2.066,0,0,1,3.465-2.251C58.578,15.757,59.263,18.762,58.421,19.309Z" fill="#ffffff" stroke="#004481" stroke-linecap="round" stroke-linejoin="round"/><path d="M80.269,44.312c.632-.78,3.549.216,4.758,1.2a2.066,2.066,0,0,1-2.6,3.211C81.217,47.739,79.637,45.093,80.269,44.312Z" fill="#ffffff" stroke="#004481" stroke-linecap="round" stroke-linejoin="round"/><path d="M84.053,35.547c.105-1,3.094-1.753,4.641-1.59a2.066,2.066,0,1,1-.431,4.109C86.715,37.9,83.948,36.545,84.053,35.547Z" fill="#ffffff" stroke="#004481" stroke-linecap="round" stroke-linejoin="round"/><path d="M82.453,26.134c-.455-.895,1.641-3.155,3.027-3.861a2.066,2.066,0,0,1,1.876,3.682C85.97,26.661,82.909,27.028,82.453,26.134Z" fill="#ffffff" stroke="#004481" stroke-linecap="round" stroke-linejoin="round"/><path d="M75.985,19.111c-.87-.5-.343-3.539.435-4.886A2.066,2.066,0,0,1,80,16.291C79.221,17.638,76.855,19.613,75.985,19.111Z" fill="#ffffff" stroke="#004481" stroke-linecap="round" stroke-linejoin="round"/></svg>