<svg viewBox="0 0 100 100" height="100" width="100" xmlns="http://www.w3.org/2000/svg"><path d="M10.000 50.000 A40.000 40.000 0 1 0 90.000 50.000 A40.000 40.000 0 1 0 10.000 50.000 Z" fill="#ffffff"/><path d="M84.5,29.764A40,40,0,0,0,11.686,61.5H84.5Z" fill="#4cbcc3"/><path d="M84.5 61.5L84.5 29.764" fill="none" stroke="#004481" stroke-linecap="round" stroke-linejoin="round"/><path d="M10.031,48.788a109.243,109.243,0,0,0,13.953-3.731,3,3,0,0,0,1.975-3.325L22.512,20.957A39.865,39.865,0,0,0,10.031,48.788Z" fill="#ffffff"/><path d="M10.031,48.788a109.243,109.243,0,0,0,13.953-3.731,3,3,0,0,0,1.975-3.325L22.512,20.957" fill="none" stroke="#004481" stroke-linecap="round" stroke-linejoin="round"/><path d="M33.942,53.094l4.527-1.712A2.47,2.47,0,0,0,39.906,48.2h0a2.47,2.47,0,0,0-3.238-1.416l-6.927,2.807L21.8,52.352l-5.735-.224A2.471,2.471,0,0,0,13.5,54.5l0,.06a2.468,2.468,0,0,0,2.371,2.564l5.754.225a1,1,0,0,1,.938.791l1.2,5.629-2.107,4.549A3,3,0,0,0,23.119,72.3l.907.42a3,3,0,0,0,3.983-1.461l1.868-4.032a2.312,2.312,0,0,1,1.337-1.211h0a2.308,2.308,0,0,1,2.057.271l3.982,2.7a3,3,0,0,0,4.167-.8l.562-.827a3,3,0,0,0-.8-4.167l-5.222-3.545L33.4,54.472A1,1,0,0,1,33.942,53.094Z" fill="#ffffff" stroke="#004481" stroke-linecap="round" stroke-linejoin="round"/><path d="M31.476,40.513a2.5,2.5,0,1,1-3.183-1.539A2.5,2.5,0,0,1,31.476,40.513Z" fill="#ffffff" stroke="#004481" stroke-linecap="round" stroke-linejoin="round"/><path d="M19.528,45.731a2.5,2.5,0,1,1-3.183-1.539A2.5,2.5,0,0,1,19.528,45.731Z" fill="#ffffff" stroke="#004481" stroke-linecap="round" stroke-linejoin="round"/><path d="M31.4,46.365a6.5,6.5,0,1,1-8.276-4A6.5,6.5,0,0,1,31.4,46.365Z" fill="#ffffff" stroke="#004481" stroke-linecap="round" stroke-linejoin="round"/><path d="M29.713,50.657a3.278,3.278,0,0,1-2.319,3.983,3.036,3.036,0,1,1-1.972-5.666A3.278,3.278,0,0,1,29.713,50.657Z" fill="#4cbcc3" stroke="#004481" stroke-linecap="round" stroke-linejoin="round"/><path d="M25.75,48.918a.988.988,0,0,0-.328.056,1,1,0,1,0,.328-.056Z" fill="#004481"/><path d="M22.1,47.543a1,1,0,1,0,.945.672,1,1,0,0,0-.945-.672Z" fill="#004481"/><path d="M27.125,45.263a1,1,0,0,0,0,2,1.024,1.024,0,0,0,.329-.056,1,1,0,0,0-.329-1.945Z" fill="#004481"/><path d="M77.5,21.5a3,3,0,0,0-2.493-2.957A118.929,118.929,0,0,0,55,17.041,105.952,105.952,0,0,0,35.957,18.5,3,3,0,0,0,33.5,21.454V43.087a3,3,0,0,0,2.457,2.951A105.952,105.952,0,0,0,55,47.5,118.929,118.929,0,0,0,75.007,46,3,3,0,0,0,77.5,43.041Z" fill="#ffffff" stroke="#004481" stroke-linecap="round" stroke-linejoin="round"/><path d="M66 52.5L44.5 52.5 45 32 65.5 32 66 52.5z" fill="#ffffff" stroke="#004481" stroke-linecap="round" stroke-linejoin="round"/><path d="M50,90A39.915,39.915,0,0,0,80.817,75.5H19.183A39.915,39.915,0,0,0,50,90Z" fill="#4cbcc3"/><path d="M84,61.5H11.686a39.906,39.906,0,0,0,7.5,14H84a2,2,0,0,0,2-2v-10A2,2,0,0,0,84,61.5Z" fill="#ffffff"/><path d="M19.183,75.5H84a2,2,0,0,0,2-2v-10a2,2,0,0,0-2-2H11.686" fill="none" stroke="#004481" stroke-linecap="round" stroke-linejoin="round"/><path d="M40.5,78.5v2a2.5,2.5,0,1,0,5,0v-2Z" fill="#ffffff" stroke="#004481" stroke-linecap="round" stroke-linejoin="round"/><path d="M64.5,78.5v2a2.5,2.5,0,1,0,5,0v-2Z" fill="#ffffff" stroke="#004481" stroke-linecap="round" stroke-linejoin="round"/><path d="M70.5,62A15.5,15.5,0,0,0,54.251,46.518C45.914,46.91,39.5,54.092,39.5,62.438V77.5a1,1,0,0,0,1,1h5v-17h19v17h5a1,1,0,0,0,1-1Z" fill="#4cbcc3" stroke="#004481" stroke-linecap="round" stroke-linejoin="round"/><path d="M51.5,47V43.5h7V47a3.5,3.5,0,0,1-7,0Z" fill="#ffffff" stroke="#004481" stroke-linecap="round" stroke-linejoin="round"/><path d="M45.5 61.5L45.5 60.5" fill="none" stroke="#004481" stroke-linecap="round" stroke-linejoin="round"/><path d="M64.5 61.5L64.5 60.5" fill="none" stroke="#004481" stroke-linecap="round" stroke-linejoin="round"/><path d="M65,33V30.5a10,10,0,0,0-20,0V33a2,2,0,0,0,0,4c.042,0,.081-.01.123-.012a9.986,9.986,0,0,0,19.754,0c.042,0,.081.012.123.012a2,2,0,0,0,0-4Z" fill="#ffffff" stroke="#004481" stroke-linecap="round" stroke-linejoin="round"/><path d="M51.983,39.8A4.363,4.363,0,0,0,58,39.8" fill="none" stroke="#004481" stroke-linecap="round" stroke-linejoin="round"/><path d="M60.5,34a1.629,1.629,0,0,0-3.008,0" fill="none" stroke="#004481" stroke-linecap="round" stroke-linejoin="round"/><path d="M52.508,34A1.629,1.629,0,0,0,49.5,34" fill="none" stroke="#004481" stroke-linecap="round" stroke-linejoin="round"/><path d="M48.000 37.250 A1.250 1.250 0 1 0 50.500 37.250 A1.250 1.250 0 1 0 48.000 37.250 Z" fill="#4cbcc3"/><path d="M59.500 37.250 A1.250 1.250 0 1 0 62.000 37.250 A1.250 1.250 0 1 0 59.500 37.250 Z" fill="#4cbcc3"/><path d="M56.023,20.552a10.089,10.089,0,0,0-2.046,0A10,10,0,0,0,45,30.5V33a1.725,1.725,0,0,1,1.6,1.719,9.072,9.072,0,0,0,.212-4.065C47.867,31,49.6,29.5,49.6,29.5V27.1A23.9,23.9,0,0,0,55,28.3a23.919,23.919,0,0,0,5.4-1.2v2.4s1.733,1.5,2.787,1.151a9.08,9.08,0,0,0,.213,4.065A1.725,1.725,0,0,1,65,33V30.5A10,10,0,0,0,56.023,20.552Z" fill="#004481" stroke="#004481" stroke-linecap="round" stroke-linejoin="round"/><path d="M58,24.928V21.822A2.322,2.322,0,0,1,60.322,19.5h0a5.278,5.278,0,0,1,5.5,5.175,29.2,29.2,0,0,1-.346,8.387A2,2,0,0,0,65,33c-.011,0-.021,0-.032,0A1.721,1.721,0,0,0,63.4,34.71l-2.248-2.618C59.441,30.1,58,27.556,58,24.928Z" fill="#ffffff" stroke="#004481" stroke-linecap="round" stroke-linejoin="round"/><path d="M59.979,27.1h0C56.485,30.86,50.583,33,45.45,33H44a2.5,2.5,0,0,1-2.5-2.5h0A2.5,2.5,0,0,1,44,28h.5c0-5.247,5.253-9.5,10.5-9.5h0a6,6,0,0,1,6,6h0A3.819,3.819,0,0,1,59.979,27.1Z" fill="#ffffff" stroke="#004481" stroke-linecap="round" stroke-linejoin="round"/><path d="M44.5,28A2.5,2.5,0,0,1,47,30.5" fill="none" stroke="#004481" stroke-linecap="round" stroke-linejoin="round"/></svg>