<svg viewBox="0 0 100 100" height="100" width="100" xmlns="http://www.w3.org/2000/svg"><path d="M90,52.1A40,40,0,1,0,13.564,68.6H86.436A39.841,39.841,0,0,0,90,52.1Z" fill="#d9edff"/><path d="M11 68.596L89 68.596" fill="none" stroke="#004481" stroke-linecap="round" stroke-linejoin="round"/><path d="M6.5 68.596L9 68.596" fill="none" stroke="#004481" stroke-linecap="round" stroke-linejoin="round"/><path d="M91 68.596L93.5 68.596" fill="none" stroke="#004481" stroke-linecap="round" stroke-linejoin="round"/><path d="M31.231,25.446H43.769a1.223,1.223,0,0,0,1.223-1.223V24.07c.459-3.9-2.9-7.8-7.771-7.8h0a5.99,5.99,0,0,0-5.99,5.989Z" fill="#ffffff" stroke="#004481" stroke-linecap="round" stroke-linejoin="round"/><path d="M37.221,16.272h0a5.815,5.815,0,0,0-.638.064V19.8a2.589,2.589,0,0,0,2.589,2.589h5.777A7.6,7.6,0,0,0,37.221,16.272Z" fill="#4cbcc3"/><path d="M37.221,16.272h0a5.815,5.815,0,0,0-.638.064V19.8a2.584,2.584,0,0,0,1.129,2.136l4.2-4.2A8.126,8.126,0,0,0,37.221,16.272Z" fill="#ffffff"/><path d="M37.221,16.272h0a5.815,5.815,0,0,0-.638.064V19.8a2.589,2.589,0,0,0,2.589,2.589h5.777A7.6,7.6,0,0,0,37.221,16.272Z" fill="none" stroke="#004481" stroke-linecap="round" stroke-linejoin="round"/><path d="M23.586 21.623L31.231 21.623 31.231 25.446 23.586 23.917 23.586 21.623z" fill="#ffffff" stroke="#004481" stroke-linecap="round" stroke-linejoin="round"/><path d="M41.17 25.446L42.699 28.504" fill="none" stroke="#004481" stroke-linecap="round" stroke-linejoin="round"/><path d="M34.289 25.446L32.76 28.504" fill="none" stroke="#004481" stroke-linecap="round" stroke-linejoin="round"/><path d="M37.347 16.272L37.347 13.978" fill="none" stroke="#004481" stroke-linecap="round" stroke-linejoin="round"/><path d="M45.757 13.978L28.938 13.978" fill="none" stroke="#004481" stroke-linecap="round" stroke-linejoin="round"/><path d="M21.293 21.623 A2.293 2.293 0 1 0 25.879 21.623 A2.293 2.293 0 1 0 21.293 21.623 Z" fill="#4cbcc3" stroke="#004481" stroke-linecap="round" stroke-linejoin="round"/><path d="M21.293 61.377H57.224V66.72800000000001H21.293z" fill="#ffffff" stroke="#004481" stroke-linecap="round" stroke-linejoin="round"/><path d="M21.293 48.381H57.224V53.732H21.293z" fill="#ffffff" stroke="#004481" stroke-linecap="round" stroke-linejoin="round"/><path d="M21.293 35.384H57.224V40.735H21.293z" fill="#ffffff" stroke="#004481" stroke-linecap="round" stroke-linejoin="round"/><path d="M15.941,76.667h5.352V35.384h-4.1a1.25,1.25,0,0,0-1.25,1.25Z" fill="#ffffff"/><path d="M15.941,76.667h5.352V35.384h-4.1a1.25,1.25,0,0,0-1.25,1.25Z" fill="none" stroke="#004481" stroke-linecap="round" stroke-linejoin="round"/><path d="M21.293 40.736H57.224V48.381H21.293z" fill="#4cbcc3"/><path d="M42.699 40.736L21.293 40.736 21.293 48.381 35.054 48.381 42.699 40.736z" fill="#ffffff"/><path d="M21.293 40.736H57.224V48.381H21.293z" fill="none" stroke="#004481" stroke-linecap="round" stroke-linejoin="round"/><path d="M21.293 53.732H57.224V61.376999999999995H21.293z" fill="#4cbcc3"/><path d="M29.702 53.732L21.293 53.732 21.293 61.377 22.057 61.377 29.702 53.732z" fill="#ffffff"/><path d="M21.293 53.732H57.224V61.376999999999995H21.293z" fill="none" stroke="#004481" stroke-linecap="round" stroke-linejoin="round"/><path d="M21.293 66.729H31.231V76.667H21.293z" fill="#ffffff" stroke="#004481" stroke-linecap="round" stroke-linejoin="round"/><path d="M31.231 66.729H57.224000000000004V76.667H31.231z" fill="#4cbcc3"/><path d="M31.231 66.729H57.224000000000004V76.667H31.231z" fill="none" stroke="#004481" stroke-linecap="round" stroke-linejoin="round"/><path d="M52.637,31.562H21.528a1,1,0,0,1-1-1V29.5a1,1,0,0,1,1-1H52.637Z" fill="#ffffff"/><path d="M52.637,31.562H21.528a1,1,0,0,1-1-1V29.5a1,1,0,0,1,1-1H52.637Z" fill="none" stroke="#004481" stroke-linecap="round" stroke-linejoin="round"/><path d="M60.129,35.384H52.637V27.2a.625.625,0,0,1,.625-.625H59.5a.625.625,0,0,1,.625.625Z" fill="#ffffff"/><path d="M60.129,35.384H52.637V27.2a.625.625,0,0,1,.625-.625H59.5a.625.625,0,0,1,.625.625Z" fill="none" stroke="#004481" stroke-linecap="round" stroke-linejoin="round"/><path d="M80.159,76.667H57.224V23.791a1.25,1.25,0,0,1,1.25-1.25H78.909a1.25,1.25,0,0,1,1.25,1.25Z" fill="#ffffff"/><path d="M22.822 35.384L22.822 31.562 26.644 35.384 30.467 31.562 34.289 35.384 38.112 31.562 41.934 35.384 45.757 31.562 49.579 35.384 52.637 32.326" fill="none" stroke="#004481" stroke-linecap="round" stroke-linejoin="round"/><path d="M25.115,74.374V69.787h1.529a1.528,1.528,0,0,1,1.529,1.529h0a1.529,1.529,0,0,1-1.529,1.529H25.115" fill="none" stroke="#004481" stroke-linecap="round" stroke-linejoin="round"/><path d="M29.702 40.736L29.702 48.381" fill="none" stroke="#004481" stroke-linecap="round" stroke-linejoin="round"/><path d="M38.876 40.736L38.876 48.381" fill="none" stroke="#004481" stroke-linecap="round" stroke-linejoin="round"/><path d="M48.05 40.736L48.05 48.381" fill="none" stroke="#004481" stroke-linecap="round" stroke-linejoin="round"/><path d="M29.702 53.732L29.702 61.377" fill="none" stroke="#004481" stroke-linecap="round" stroke-linejoin="round"/><path d="M38.876 53.732L38.876 61.377" fill="none" stroke="#004481" stroke-linecap="round" stroke-linejoin="round"/><path d="M48.05 53.732L48.05 61.377" fill="none" stroke="#004481" stroke-linecap="round" stroke-linejoin="round"/><path d="M68.182,71.061a2.8,2.8,0,1,0-5.606,0,2.8,2.8,0,0,0-.561,5.55v.056h6.167a2.8,2.8,0,0,0,0-5.606Z" fill="#4cbcc3" stroke="#004481" stroke-linecap="round" stroke-linejoin="round"/><path d="M80.159,76.667H57.224V23.791a1.25,1.25,0,0,1,1.25-1.25H78.909a1.25,1.25,0,0,1,1.25,1.25Z" fill="none" stroke="#004481"/><path d="M81.943,71.061a2.8,2.8,0,1,0-5.606,0,2.8,2.8,0,0,0-.561,5.55v.056h6.167a2.8,2.8,0,1,0,0-5.606Z" fill="#4cbcc3" stroke="#004481" stroke-linecap="round" stroke-linejoin="round"/><path d="M55.237 22.235 A13.455 13.455 0 1 0 82.147 22.235 A13.455 13.455 0 1 0 55.237 22.235 Z" fill="#ffffff"/><path d="M73.585,19.789H71.138V17.342a1.223,1.223,0,0,0-1.223-1.223H67.469a1.224,1.224,0,0,0-1.224,1.223v2.447H63.8a1.222,1.222,0,0,0-1.223,1.223v2.446A1.223,1.223,0,0,0,63.8,24.682h2.446v2.446a1.224,1.224,0,0,0,1.224,1.223h2.446a1.223,1.223,0,0,0,1.223-1.223V24.682h2.447a1.224,1.224,0,0,0,1.223-1.224V21.012A1.223,1.223,0,0,0,73.585,19.789Z" fill="#4cbcc3" stroke="#004481" stroke-linecap="round" stroke-linejoin="round"/><path d="M55.237 22.235 A13.455 13.455 0 1 0 82.147 22.235 A13.455 13.455 0 1 0 55.237 22.235 Z" fill="none" stroke="#004481" stroke-linecap="round" stroke-linejoin="round"/></svg>