<svg viewBox="0 0 100 100" height="100" width="100" xmlns="http://www.w3.org/2000/svg"><path d="M10.000 50.000 A40.000 40.000 0 1 0 90.000 50.000 A40.000 40.000 0 1 0 10.000 50.000 Z" fill="#d9edff"/><path d="M26.253 30.027 L63.738 30.027 L63.738 65.307 L26.253 65.307 Z" fill="#ffffff"/><path d="M26.253 30.027 L63.738 30.027 L63.738 65.307 L26.253 65.307 Z" fill="none" stroke="#004481" stroke-linecap="round" stroke-linejoin="round"/><path d="M35.624,33.886a1.654,1.654,0,0,1-3.308,0V25.617a1.654,1.654,0,0,1,3.308,0Z" fill="#4cbcc3"/><path d="M35.624,33.886a1.654,1.654,0,0,1-3.308,0V25.617a1.654,1.654,0,0,1,3.308,0Z" fill="#4cbcc3" stroke="#004481" stroke-linecap="round" stroke-linejoin="round"/><path d="M46.649,33.886a1.654,1.654,0,0,1-3.308,0V25.617a1.654,1.654,0,0,1,3.308,0Z" fill="#4cbcc3"/><path d="M46.649,33.886a1.654,1.654,0,0,1-3.308,0V25.617a1.654,1.654,0,0,1,3.308,0Z" fill="#4cbcc3" stroke="#004481" stroke-linecap="round" stroke-linejoin="round"/><path d="M57.674,33.886a1.654,1.654,0,1,1-3.308,0V25.617a1.654,1.654,0,0,1,3.308,0Z" fill="#4cbcc3"/><path d="M57.674,33.886a1.654,1.654,0,1,1-3.308,0V25.617a1.654,1.654,0,0,1,3.308,0Z" fill="#4cbcc3" stroke="#004481" stroke-linecap="round" stroke-linejoin="round"/><path d="M27.002 74.167 A18.191 2.205 0 1 0 63.384 74.167 A18.191 2.205 0 1 0 27.002 74.167 Z" fill="#4cbcc3"/><path d="M80.034,52.337V45.061a1.323,1.323,0,0,0-1.323-1.323H76.065a1.323,1.323,0,0,0-1.323,1.323v7.276Z" fill="#4cbcc3" stroke="#004481" stroke-linecap="round" stroke-linejoin="round"/><path d="M81.3,58.459,68.127,47,55.25,58.2V73.064a1.1,1.1,0,0,0,1.1,1.1H80.195a1.1,1.1,0,0,0,1.1-1.1Z" fill="#ffffff"/><path d="M81.3,58.459,68.127,47,55.25,58.2V73.064a1.1,1.1,0,0,0,1.1,1.1H80.195a1.1,1.1,0,0,0,1.1-1.1Z" fill="none" stroke="#004481" stroke-linecap="round" stroke-linejoin="round"/><path d="M71.866,74.167H63.928V63.914a3.969,3.969,0,1,1,7.938,0Z" fill="#4cbcc3" stroke="#004481" stroke-linejoin="round"/><path d="M69.22 68.213L69.22 66.89" fill="none" stroke="#004481" stroke-linecap="round" stroke-linejoin="round"/><path d="M69.858,43.289a2.647,2.647,0,0,0-3.463,0L52.342,55.446a1.994,1.994,0,1,0,2.614,3.013L68.127,47,81.3,58.459a1.994,1.994,0,1,0,2.613-3.013Z" fill="#4cbcc3"/><path d="M69.858,43.289a2.647,2.647,0,0,0-3.463,0L52.342,55.446a1.994,1.994,0,1,0,2.614,3.013L68.127,47,81.3,58.459a1.994,1.994,0,1,0,2.613-3.013Z" fill="none" stroke="#004481" stroke-linejoin="round"/></svg>