<svg viewBox="0 0 100 100" height="100" width="100" xmlns="http://www.w3.org/2000/svg"><path d="M10.000 50.000 A40.000 40.000 0 1 0 90.000 50.000 A40.000 40.000 0 1 0 10.000 50.000 Z" fill="#d9edff"/><path d="M50,90A40,40,0,0,0,90,50a42.356,42.356,0,0,0-.54-6.536,5.291,5.291,0,0,1-2.869-.917.945.945,0,0,0-1.182,0,6.574,6.574,0,0,1-6.818,0,.945.945,0,0,0-1.182,0,6.574,6.574,0,0,1-6.818,0,.945.945,0,0,0-1.182,0,6.574,6.574,0,0,1-6.818,0,.945.945,0,0,0-1.182,0,6.574,6.574,0,0,1-6.818,0,.945.945,0,0,0-1.182,0A5.641,5.641,0,0,1,50,43.5a5.639,5.639,0,0,1-3.409-.953.945.945,0,0,0-1.182,0A5.641,5.641,0,0,1,42,43.5a5.639,5.639,0,0,1-3.409-.953.945.945,0,0,0-1.182,0A5.641,5.641,0,0,1,34,43.5a5.639,5.639,0,0,1-3.409-.953.945.945,0,0,0-1.182,0A5.641,5.641,0,0,1,26,43.5a5.639,5.639,0,0,1-3.409-.953.945.945,0,0,0-1.182,0A5.641,5.641,0,0,1,18,43.5a5.639,5.639,0,0,1-3.409-.953.945.945,0,0,0-1.182,0,5.291,5.291,0,0,1-2.869.917A42.376,42.376,0,0,0,10,49.97V50A40,40,0,0,0,50,90Z" fill="#4cbcc3"/><path d="M57.5,19.5v2.692a17.333,17.333,0,0,1,2.372,1.25,16.305,16.305,0,0,1,1.628,1.28v-.35a3.5,3.5,0,0,0,.671-5.133A2.486,2.486,0,0,0,62.5,18V17a2.5,2.5,0,0,0-5,0v.5h-4a1,1,0,0,0,0,2Z" fill="#ffffff" stroke="#004481" stroke-linecap="round" stroke-linejoin="round"/><path d="M57.5,18a2.5,2.5,0,0,0,5,0V17a2.5,2.5,0,0,0-5,0Z" fill="#ffffff" stroke="#004481" stroke-linecap="round" stroke-linejoin="round"/><path d="M63.472,26.516a3.345,3.345,0,0,1-2.15,3.392,37.828,37.828,0,0,1-4.316-1.942,16.33,16.33,0,0,1-3.6-3.074,3.348,3.348,0,0,1,2.15-3.392,16.326,16.326,0,0,1,4.316,1.942A37.785,37.785,0,0,1,63.472,26.516Z" fill="#4cbcc3" stroke="#004481" stroke-linecap="round" stroke-linejoin="round"/><path d="M60.5,22a1,1,0,0,1-1,1H59a1,1,0,0,0,0,2h.5A3.5,3.5,0,0,0,63,21.5" fill="#ffffff" stroke="#004481" stroke-linecap="round" stroke-linejoin="round"/><path d="M62.161,15.744a2.5,2.5,0,0,0-4.323,0l.009.005a2.479,2.479,0,0,0,4.306,0Z" fill="#ffffff" stroke="#004481" stroke-linecap="round" stroke-linejoin="round"/><path d="M61.409,42.547a.945.945,0,0,1,1.182,0,6.574,6.574,0,0,0,6.818,0,.945.945,0,0,1,1.182,0A5.639,5.639,0,0,0,74,43.5a6.666,6.666,0,0,0,2.673-.512,31.1,31.1,0,0,1-14.489-8.255.993.993,0,0,0-1.646.46l-2.148,8.3A5.376,5.376,0,0,0,61.409,42.547Z" fill="#ffffff" stroke="#004481" stroke-linecap="round" stroke-linejoin="round"/><path d="M89.46,43.464a5.291,5.291,0,0,1-2.869-.917.945.945,0,0,0-1.182,0,6.574,6.574,0,0,1-6.818,0,.945.945,0,0,0-1.182,0,6.574,6.574,0,0,1-6.818,0,.945.945,0,0,0-1.182,0,6.574,6.574,0,0,1-6.818,0,.945.945,0,0,0-1.182,0,6.574,6.574,0,0,1-6.818,0,.945.945,0,0,0-1.182,0A5.641,5.641,0,0,1,50,43.5a5.639,5.639,0,0,1-3.409-.953.945.945,0,0,0-1.182,0A5.641,5.641,0,0,1,42,43.5a5.639,5.639,0,0,1-3.409-.953.945.945,0,0,0-1.182,0A5.641,5.641,0,0,1,34,43.5a5.639,5.639,0,0,1-3.409-.953.945.945,0,0,0-1.182,0A5.641,5.641,0,0,1,26,43.5a5.639,5.639,0,0,1-3.409-.953.945.945,0,0,0-1.182,0A5.641,5.641,0,0,1,18,43.5a5.639,5.639,0,0,1-3.409-.953.945.945,0,0,0-1.182,0,5.291,5.291,0,0,1-2.869.917" fill="none" stroke="#004481" stroke-linecap="round" stroke-linejoin="round"/><path d="M25.074,50.5H74.926a5.121,5.121,0,0,1,4.554,3.155L84.05,63.5H15.95l4.57-9.845A5.121,5.121,0,0,1,25.074,50.5Z" fill="#ffffff"/><path d="M25.074,50.5H74.926a5.121,5.121,0,0,1,4.554,3.155L84.05,63.5H15.95l4.57-9.845A5.121,5.121,0,0,1,25.074,50.5Z" fill="none" stroke="#004481" stroke-linecap="round" stroke-linejoin="round"/><path d="M11.826,66.742A3.83,3.83,0,0,1,15.52,63.5H84.48a3.829,3.829,0,0,1,3.693,3.242L90.125,77.5H9.875Z" fill="#4cbcc3"/><path d="M51.164,60.5H26.835a6,6,0,0,0-5.959,5.3L19.5,77.5h39L57.123,65.8A6,6,0,0,0,51.164,60.5Z" fill="#ffffff"/><path d="M51.164,60.5H26.835a6,6,0,0,0-5.959,5.3L19.5,77.5h39L57.123,65.8A6,6,0,0,0,51.164,60.5Z" fill="none" stroke="#004481" stroke-linecap="round" stroke-linejoin="round"/><path d="M56.5 50.5L43.5 50.5 48.5 42.5 51.5 42.5 56.5 50.5z" fill="#ffffff" stroke="#004481" stroke-linecap="round" stroke-linejoin="round"/><path d="M48.000 42.000 A2.000 2.000 0 1 0 52.000 42.000 A2.000 2.000 0 1 0 48.000 42.000 Z" fill="#ffffff" stroke="#004481" stroke-linecap="round" stroke-linejoin="round"/><path d="M52.5,18.557c-2.126.2-7.064,1.069-9,4.943-2.5,5,14.158,8.228,8.5,12a5.4,5.4,0,0,0-2.156,4.506" fill="none" stroke="#004481" stroke-linecap="round" stroke-linejoin="round"/><path d="M54.5,75a15.5,15.5,0,0,0-31,0v7.5h31Z" fill="#ffffff" stroke="#004481" stroke-linecap="round" stroke-linejoin="round"/><path d="M35.5,60a3.5,3.5,0,0,0,7,0V56.5h-7Z" fill="#ffffff"/><path d="M35.5,59.986a12.173,12.173,0,0,0,7,0V56.5h-7Z" fill="#4cbcc3"/><path d="M35.5,60V56.5h7V60a3.5,3.5,0,0,1-7,0Z" fill="none" stroke="#004481" stroke-linecap="round" stroke-linejoin="round"/><path d="M48.847,63.029a15.5,15.5,0,0,0-4.418-2.551L39,70.5,33.571,60.478a15.5,15.5,0,0,0-4.418,2.551c.617,2.769,1.315,7.244.347,10.471v9h19v-9C47.532,70.273,48.23,65.8,48.847,63.029Z" fill="#4cbcc3" stroke="#004481" stroke-linecap="round" stroke-linejoin="round"/><path d="M29.5 75.5H48.5V78.5H29.5z" fill="#ffffff" stroke="#004481" stroke-linecap="round" stroke-linejoin="round"/><path d="M39 70.5L39 82.5" fill="none" stroke="#004481" stroke-linecap="round" stroke-linejoin="round"/><path d="M33.5,79.5h0a1,1,0,0,1-1-1v-6a1,1,0,0,1,1-1h0a1,1,0,0,1,1,1v6A1,1,0,0,1,33.5,79.5Z" fill="#ffffff" stroke="#004481" stroke-linecap="round" stroke-linejoin="round"/><path d="M44.5,79.5h0a1,1,0,0,1-1-1v-6a1,1,0,0,1,1-1h0a1,1,0,0,1,1,1v6A1,1,0,0,1,44.5,79.5Z" fill="#ffffff" stroke="#004481" stroke-linecap="round" stroke-linejoin="round"/><path d="M32.5,66.5h0a1,1,0,0,1-1-1v-1a1,1,0,0,1,1-1h0a1,1,0,0,1,1,1v1A1,1,0,0,1,32.5,66.5Z" fill="#ffffff" stroke="#004481" stroke-linecap="round" stroke-linejoin="round"/><path d="M45.5,66.5h0a1,1,0,0,1-1-1v-1a1,1,0,0,1,1-1h0a1,1,0,0,1,1,1v1A1,1,0,0,1,45.5,66.5Z" fill="#ffffff" stroke="#004481" stroke-linecap="round" stroke-linejoin="round"/><path d="M49,46V43.5a10,10,0,0,0-20,0V46a2,2,0,0,0,0,4c.042,0,.081-.01.122-.012a9.987,9.987,0,0,0,19.755,0c.042,0,.081.012.123.012a2,2,0,0,0,0-4Z" fill="#ffffff" stroke="#004481" stroke-linecap="round" stroke-linejoin="round"/><path d="M44.5,47a1.63,1.63,0,0,0-3.009,0" fill="none" stroke="#004481" stroke-linecap="round" stroke-linejoin="round"/><path d="M36.508,47A1.629,1.629,0,0,0,33.5,47" fill="none" stroke="#004481" stroke-linecap="round" stroke-linejoin="round"/><path d="M32.000 50.250 A1.250 1.250 0 1 0 34.500 50.250 A1.250 1.250 0 1 0 32.000 50.250 Z" fill="#4cbcc3"/><path d="M43.500 50.250 A1.250 1.250 0 1 0 46.000 50.250 A1.250 1.250 0 1 0 43.500 50.250 Z" fill="#4cbcc3"/><path d="M39,62a12.744,12.744,0,0,0,4.42-.725,7.831,7.831,0,0,0,4.942-6.285l.5-4.99h-.439S47,53.5,45,53.5c-2.062,0-3.5-2-6-2s-3.938,2-6,2c-2,0-3.428-3.5-3.428-3.5h-.439l.5,4.99a7.834,7.834,0,0,0,4.942,6.285A12.746,12.746,0,0,0,39,62Z" fill="#ffffff" stroke="#004481" stroke-linecap="round" stroke-linejoin="round"/><path d="M39,57.056c-1.5,0-2.5,1-3,0-.806-1.613,1-3.5,3-3.5s3.806,1.887,3,3.5C41.5,58.056,40.5,57.056,39,57.056Z" fill="#ffffff" stroke="#004481" stroke-linecap="round" stroke-linejoin="round"/><path d="M40.022,33.552a10.079,10.079,0,0,0-2.045,0A10,10,0,0,0,29,43.5V46a1.726,1.726,0,0,1,1.6,1.719,9.072,9.072,0,0,0,.212-4.065C31.867,44,33.6,42.5,33.6,42.5V40.1A23.9,23.9,0,0,0,39,41.3a23.919,23.919,0,0,0,5.4-1.2v2.4s1.733,1.5,2.787,1.151a9.08,9.08,0,0,0,.213,4.065A1.725,1.725,0,0,1,49,46V43.5A10,10,0,0,0,40.022,33.552Z" fill="#ffffff" stroke="#004481" stroke-linecap="round" stroke-linejoin="round"/><path d="M35.906,42.1a3.5,3.5,0,0,0,4.645-1.71,7,7,0,0,0-3.419-9.29,6.5,6.5,0,0,0-8.627,3.174L27.247,37c-.629,1.361-2.727.943-4.016.347a2.5,2.5,0,0,0,2.217,3.546l-.3.645a6.5,6.5,0,0,0,9.406,8.2l.019.01A3.5,3.5,0,0,1,32.866,45.1l1.049-2.27A1.5,1.5,0,0,1,35.906,42.1Z" fill="#ffffff"/><path d="M35.906,42.1a3.5,3.5,0,0,0,4.645-1.71,7,7,0,0,0-3.419-9.29,6.5,6.5,0,0,0-8.627,3.174L27.247,37c-.629,1.361-2.727.943-4.016.347a2.5,2.5,0,0,0,2.217,3.546l-.3.645a6.5,6.5,0,0,0,9.406,8.2l.019.01A3.5,3.5,0,0,1,32.866,45.1l1.049-2.27A1.5,1.5,0,0,1,35.906,42.1Z" fill="none" stroke="#004481" stroke-linecap="round" stroke-linejoin="round"/><path d="M28.184,84.962a11,11,0,1,1,21.631,0h3.537a14.5,14.5,0,1,0-28.7,0Z" fill="#ffffff" stroke="#004481" stroke-linecap="round" stroke-linejoin="round"/><path d="M51.273,73.371a1,1,0,0,0-1.161-.294l-2.135.889A2.4,2.4,0,0,0,46.685,77.1l.461,1.108A2.4,2.4,0,0,0,50.284,79.5l2.135-.889a1,1,0,0,0,.609-1.031A8.075,8.075,0,0,0,51.273,73.371Z" fill="#ffffff"/><path d="M51.273,73.371a1,1,0,0,0-1.161-.294l-2.135.889A2.4,2.4,0,0,0,46.685,77.1l.461,1.108A2.4,2.4,0,0,0,50.284,79.5l2.135-.889a1,1,0,0,0,.609-1.031A8.075,8.075,0,0,0,51.273,73.371Z" fill="none" stroke="#004481" stroke-linecap="round" stroke-linejoin="round"/><path d="M7.335,83.25l2.54-5.75h80.25l2.54,5.75C65.915,92.25,34.085,92.25,7.335,83.25Z" fill="#ffffff"/><path d="M70,24.9a1.5,1.5,0,0,1-1.4,1.6c-.827.055-1.6-1.4-2.595-1.329.9-1.564,1.567-1.609,2.393-1.665A1.5,1.5,0,0,1,70,24.9Z" fill="#4cbcc3" stroke="#004481" stroke-linecap="round" stroke-linejoin="round"/><path d="M68.162,31.772a1.5,1.5,0,0,1-2.11.214c-.642-.523-.215-2.11-.99-2.742,1.723-.531,2.243-.106,2.886.417A1.5,1.5,0,0,1,68.162,31.772Z" fill="#4cbcc3" stroke="#004481" stroke-linecap="round" stroke-linejoin="round"/><path d="M7.335 83.25L9.875 77.5 90.125 77.5 92.664 83.25" fill="none" stroke="#004481" stroke-linecap="round" stroke-linejoin="round"/><path d="M11.826,66.742A3.83,3.83,0,0,1,15.52,63.5H84.48a3.829,3.829,0,0,1,3.693,3.242L90.125,77.5H9.875Z" fill="none" stroke="#004481" stroke-linecap="round" stroke-linejoin="round"/><path d="M60.666 63.5H64.729V77.5H60.666z" fill="#ffffff" stroke="#004481" stroke-linecap="round" stroke-linejoin="round"/></svg>