<svg viewBox="0 0 100 100" height="100" width="100" xmlns="http://www.w3.org/2000/svg"><path d="M10.000 50.000 A40.000 40.000 0 1 0 90.000 50.000 A40.000 40.000 0 1 0 10.000 50.000 Z" fill="#d9edff"/><path d="M32.838 78.989 A17.179 1.982 0 1 0 67.196 78.989 A17.179 1.982 0 1 0 32.838 78.989 Z" fill="#4cbcc3"/><path d="M81.383,49.268a1.519,1.519,0,0,1,0,1.7c-2.491,3.706-13.439,18.3-31.366,18.3S21.142,54.67,18.65,50.964a1.523,1.523,0,0,1,0-1.7c2.492-3.707,13.439-18.3,31.367-18.3S78.892,45.561,81.383,49.268Z" fill="#ffffff"/><path d="M33.738 35.287L34.358 40.96 36.858 40.96 44.241 49.042" fill="none" stroke="#004481" stroke-linecap="round" stroke-linejoin="round"/><path d="M66.295 35.287L65.676 40.96 63.175 40.96 55.792 49.042" fill="none" stroke="#004481" stroke-linecap="round" stroke-linejoin="round"/><path d="M33.738 64.944L34.358 59.271 36.858 59.271 44.241 51.189" fill="none" stroke="#004481" stroke-linecap="round" stroke-linejoin="round"/><path d="M66.295 64.944L65.676 59.271 63.175 59.271 55.792 51.189" fill="none" stroke="#004481" stroke-linecap="round" stroke-linejoin="round"/><path d="M36.340 50.116 A13.677 13.677 0 1 0 63.694 50.116 A13.677 13.677 0 1 0 36.340 50.116 Z" fill="#4cbcc3"/><path d="M81.383,49.268a1.519,1.519,0,0,1,0,1.7c-2.491,3.706-13.439,18.3-31.366,18.3S21.142,54.67,18.65,50.964a1.523,1.523,0,0,1,0-1.7c2.492-3.707,13.439-18.3,31.367-18.3S78.892,45.561,81.383,49.268Z" fill="none" stroke="#004481" stroke-linecap="round" stroke-linejoin="round"/><path d="M36.340 50.116 A13.677 13.677 0 1 0 63.694 50.116 A13.677 13.677 0 1 0 36.340 50.116 Z" fill="none" stroke="#004481" stroke-linecap="round" stroke-linejoin="round"/><path d="M40.179 50.116 A9.838 9.838 0 1 0 59.855 50.116 A9.838 9.838 0 1 0 40.179 50.116 Z" fill="#ffffff"/><path d="M44.143 50.116 A5.874 5.874 0 1 0 55.891 50.116 A5.874 5.874 0 1 0 44.143 50.116 Z" fill="#4cbcc3" stroke="#004481" stroke-linecap="round" stroke-linejoin="round"/><path d="M77.825,22.385a1.98,1.98,0,0,0-2.8,0l-6.485,6.484a1.32,1.32,0,0,1-1.754.1A27.076,27.076,0,0,0,28.749,67a1.319,1.319,0,0,1-.1,1.753l-6.485,6.485a1.982,1.982,0,1,0,2.8,2.8l6.485-6.485a1.319,1.319,0,0,1,1.754-.1A27.076,27.076,0,0,0,71.24,33.426a1.321,1.321,0,0,1,.1-1.754l6.485-6.485A1.981,1.981,0,0,0,77.825,22.385ZM50,73.34A23.125,23.125,0,1,1,73.12,50.215,23.151,23.151,0,0,1,50,73.34Z" fill="#4cbcc3" stroke="#004481" stroke-linecap="round" stroke-linejoin="round"/></svg>