<svg viewBox="0 0 100 100" height="100" width="100" xmlns="http://www.w3.org/2000/svg"><path d="M90.5,51.352a40,40,0,1,0-76.436,16.5H86.936A39.829,39.829,0,0,0,90.5,51.352Z" fill="#d9edff"/><path d="M11 67.852L89 67.852" fill="none" stroke="#004481" stroke-linecap="round" stroke-linejoin="round"/><path d="M6.5 67.852L9 67.852" fill="none" stroke="#004481" stroke-linecap="round" stroke-linejoin="round"/><path d="M91 67.852L93.5 67.852" fill="none" stroke="#004481" stroke-linecap="round" stroke-linejoin="round"/><path d="M48.432,71.718A1.489,1.489,0,0,0,47,69.831H25.014a1.487,1.487,0,0,0-1.052.436L13.543,80.686A1.488,1.488,0,0,0,14.6,83.227H44.1a1.489,1.489,0,0,0,1.434-1.09Z" fill="#4cbcc3" stroke="#004481" stroke-linecap="round" stroke-linejoin="round"/><path d="M18.996 79.878L25.694 72.808 44.158 72.808 42.05 79.878 18.996 79.878z" fill="#ffffff" stroke="#004481" stroke-linecap="round" stroke-linejoin="round"/><path d="M46.619,67.852a12.637,12.637,0,0,0-23.116,0Z" fill="#ffffff" stroke="#004481" stroke-linecap="round" stroke-linejoin="round"/><path d="M30.993 64.889L35.026 63.206 39.059 64.862 39.038 58.525 30.971 58.552 30.993 64.889z" fill="#ffffff" stroke="#004481" stroke-linecap="round" stroke-linejoin="round"/><path d="M30.993 64.889L35.026 63.206 39.059 64.862 39.038 58.525 30.971 58.552 30.993 64.889z" fill="none" stroke="#004481" stroke-linecap="round" stroke-linejoin="round"/><path d="M37.447,65.73a1.153,1.153,0,0,0,1.8-.228L41.3,62.066a1.153,1.153,0,0,0-.478-1.622l-.556-.275a1.151,1.151,0,0,0-1.206.112l-4.029,3.044Z" fill="#4cbcc3" stroke="#004481" stroke-linecap="round" stroke-linejoin="round"/><path d="M32.621,65.746a1.153,1.153,0,0,1-1.8-.216l-2.069-3.422a1.153,1.153,0,0,1,.467-1.625l.554-.279a1.15,1.15,0,0,1,1.207.1l4.05,3.016Z" fill="#4cbcc3" stroke="#004481" stroke-linecap="round" stroke-linejoin="round"/><path d="M46.584,45.345V42.464a11.523,11.523,0,0,0-23.046,0v2.881a2.3,2.3,0,1,0,0,4.609c.048,0,.093-.011.141-.014a11.508,11.508,0,0,0,22.764,0c.047,0,.092.014.141.014a2.3,2.3,0,0,0,0-4.609Z" fill="#ffffff"/><path d="M46.584,45.345V42.464a11.523,11.523,0,0,0-23.046,0v2.881a2.3,2.3,0,1,0,0,4.609c.048,0,.093-.011.141-.014a11.508,11.508,0,0,0,22.764,0c.047,0,.092.014.141.014a2.3,2.3,0,0,0,0-4.609Z" fill="none" stroke="#004481" stroke-linecap="round" stroke-linejoin="round"/><path d="M26.995 50.242 A1.440 1.440 0 1 0 29.875 50.242 A1.440 1.440 0 1 0 26.995 50.242 Z" fill="#4cbcc3"/><path d="M40.247 50.242 A1.440 1.440 0 1 0 43.127 50.242 A1.440 1.440 0 1 0 40.247 50.242 Z" fill="#4cbcc3"/><path d="M31.594,53.168a5.026,5.026,0,0,0,6.933,0" fill="none" stroke="#004481" stroke-linecap="round" stroke-linejoin="round"/><path d="M47.737,39.056v5.151A1.144,1.144,0,0,1,46.6,45.348a1.173,1.173,0,0,1-1.163-1.187,7.472,7.472,0,0,0-4.425-6.8,11.027,11.027,0,0,1-4.218,1.072h-.08a2.84,2.84,0,0,1-1.072,2.3,3.151,3.151,0,0,1-2.581.876.572.572,0,0,1-.392-.876,2.072,2.072,0,0,0,.092-1.729c-.576-1.682-2.881-1.728-2.881-1.728l-.76.08a7.472,7.472,0,0,0-4.425,6.8,1.173,1.173,0,0,1-1.164,1.187,1.144,1.144,0,0,1-1.14-1.141V39.056a7.54,7.54,0,0,1,2.546-5.646,1.273,1.273,0,0,0,.4-.726c.518-2.592,4.678-4.621,9.725-4.621s9.2,2.029,9.725,4.621a1.273,1.273,0,0,0,.4.726A7.543,7.543,0,0,1,47.737,39.056Z" fill="#ffffff"/><path d="M36.71,38.434c-.035-.956-.588-1.728-1.072-1.728" fill="none" stroke="#004481" stroke-linecap="round" stroke-linejoin="round"/><path d="M47.737,39.056v5.151A1.144,1.144,0,0,1,46.6,45.348a1.173,1.173,0,0,1-1.163-1.187,7.472,7.472,0,0,0-4.425-6.8,11.027,11.027,0,0,1-4.218,1.072h-.08a2.84,2.84,0,0,1-1.072,2.3,3.151,3.151,0,0,1-2.581.876.572.572,0,0,1-.392-.876,2.072,2.072,0,0,0,.092-1.729c-.576-1.682-2.881-1.728-2.881-1.728l-.76.08a7.472,7.472,0,0,0-4.425,6.8,1.173,1.173,0,0,1-1.164,1.187,1.144,1.144,0,0,1-1.14-1.141V39.056a7.54,7.54,0,0,1,2.546-5.646,1.273,1.273,0,0,0,.4-.726c.518-2.592,4.678-4.621,9.725-4.621s9.2,2.029,9.725,4.621a1.273,1.273,0,0,0,.4.726A7.543,7.543,0,0,1,47.737,39.056Z" fill="none" stroke="#004481" stroke-linecap="round" stroke-linejoin="round"/><path d="M28.788,46.459a1.878,1.878,0,0,1,3.467-.011" fill="none" stroke="#004481" stroke-linecap="round" stroke-linejoin="round"/><path d="M38,46.428a1.877,1.877,0,0,1,3.466-.011" fill="none" stroke="#004481" stroke-linecap="round" stroke-linejoin="round"/><path d="M51.789 61.549H57.32V67.852H51.789z" fill="#ffffff" stroke="#004481" stroke-linecap="round" stroke-linejoin="round"/><path d="M79.444 61.549H85.119V67.852H79.444z" fill="#ffffff" stroke="#004481" stroke-linecap="round" stroke-linejoin="round"/><path d="M79.444,61.549h5.761A1.153,1.153,0,0,0,86.358,60.4v-.881c0-9.679-7.439-18.007-17.107-18.463A17.977,17.977,0,0,0,50.406,59.008V60.4a1.153,1.153,0,0,0,1.152,1.153H57.32v6.3H79.444Z" fill="#ffffff"/><path d="M79.444,61.549h5.761A1.153,1.153,0,0,0,86.358,60.4v-.881c0-9.679-7.439-18.007-17.107-18.463A17.977,17.977,0,0,0,50.406,59.008V60.4a1.153,1.153,0,0,0,1.152,1.153H57.32v6.3H79.444Z" fill="none" stroke="#004481" stroke-linecap="round" stroke-linejoin="round"/><path d="M75.228,42.389a6.875,6.875,0,0,1-13.693,0l0-.006a17.971,17.971,0,0,1,7.719-1.331,17.33,17.33,0,0,1,5.968,1.36" fill="#4cbcc3" stroke="#004481" stroke-linecap="round" stroke-linejoin="round"/><path d="M79.444 57.867L79.444 57.176" fill="none" stroke="#004481" stroke-linecap="round" stroke-linejoin="round"/><path d="M57.32 61.549L57.32 57.176" fill="none" stroke="#004481" stroke-linecap="round" stroke-linejoin="round"/><path d="M79.444 61.549L79.444 57.176" fill="none" stroke="#004481" stroke-linecap="round" stroke-linejoin="round"/><path d="M72.53,41.352a4.148,4.148,0,1,1-8.3,0V35.276h8.3Z" fill="#ffffff" stroke="#004481" stroke-linecap="round" stroke-linejoin="round"/><path d="M72.53,41.352a4.148,4.148,0,1,1-8.3,0V35.276h8.3Z" fill="none" stroke="#004481" stroke-linecap="round" stroke-linejoin="round"/><path d="M75.576,10.385c-15.145-5.99-21.483,1.649-21.483,11.87,0,7.459,6.4,13.538,14.4,13.818,8.006-.28,14.4-6.359,14.4-13.818C82.9,12.034,78.667,9.279,75.576,10.385Z" fill="#ffffff"/><path d="M75.576,10.385c-15.145-5.99-21.483,1.649-21.483,11.87,0,7.459,6.4,13.538,14.4,13.818,8.006-.28,14.4-6.359,14.4-13.818C82.9,12.034,78.667,9.279,75.576,10.385Z" fill="none" stroke="#004481" stroke-linecap="round" stroke-linejoin="round"/><path d="M82.325,28.017a2.311,2.311,0,0,1-2.305,2.3c-.046,0-.092-.011-.138-.011a11.512,11.512,0,0,1-22.77,0c-.046,0-.092.011-.138.011a2.3,2.3,0,0,1,0-4.609s12.706-.158,15.187-11.1c-.352,7.094,7.859,11.1,7.859,11.1A2.311,2.311,0,0,1,82.325,28.017Z" fill="#ffffff" stroke="#004481" stroke-linecap="round" stroke-linejoin="round"/><path d="M74.834,26.864a1.878,1.878,0,0,0-3.466,0" fill="none" stroke="#004481" stroke-linecap="round" stroke-linejoin="round"/><path d="M65.626,26.864a1.878,1.878,0,0,0-3.467,0" fill="none" stroke="#004481" stroke-linecap="round" stroke-linejoin="round"/><path d="M60.431 31.192 A1.44 1.28 0 1 0 63.311 31.192 A1.44 1.28 0 1 0 60.431 31.192 Z" fill="#4cbcc3"/><path d="M73.683 31.192 A1.44 1.28 0 1 0 76.563 31.192 A1.44 1.28 0 1 0 73.683 31.192 Z" fill="#4cbcc3"/><path d="M65.04,22.255v2.881a12.4,12.4,0,0,0,7.121-11.523" fill="#ffffff" stroke="#004481" stroke-linecap="round" stroke-linejoin="round"/><path d="M65,33.588a5.028,5.028,0,0,0,6.933,0" fill="none" stroke="#004481" stroke-linecap="round" stroke-linejoin="round"/><path d="M27.183,68.492l-4.032.059L23.1,65.094l4.033-.059a1.729,1.729,0,0,1,1.753,1.7h0A1.728,1.728,0,0,1,27.183,68.492Z" fill="#ffffff" stroke="#004481" stroke-linecap="round" stroke-linejoin="round"/><path d="M25.355,65.063a1.151,1.151,0,0,0-1.572-.429l-4,2.287a1.153,1.153,0,0,0-.429,1.572l1.716,3a2.3,2.3,0,0,0,3.144.857l1-.572.858,1.5a1.728,1.728,0,1,0,3-1.715Z" fill="#ffffff" stroke="#004481" stroke-linecap="round" stroke-linejoin="round"/><path d="M42.971,68.492,47,68.551l.05-3.457-4.032-.059a1.73,1.73,0,0,0-1.754,1.7h0A1.729,1.729,0,0,0,42.971,68.492Z" fill="#ffffff" stroke="#004481" stroke-linecap="round" stroke-linejoin="round"/><path d="M44.766,65.063a1.153,1.153,0,0,1,1.573-.429l4,2.287a1.152,1.152,0,0,1,.428,1.572l-1.715,3a2.3,2.3,0,0,1-3.144.857l-1-.572-.857,1.5a1.729,1.729,0,0,1-3-1.715Z" fill="#ffffff" stroke="#004481" stroke-linecap="round" stroke-linejoin="round"/></svg>