<svg viewBox="0 0 100 100" height="100" width="100" xmlns="http://www.w3.org/2000/svg"><path d="M10.000 50.000 A40.000 40.000 0 1 0 90.000 50.000 A40.000 40.000 0 1 0 10.000 50.000 Z" fill="#d9edff"/><path d="M28.787 15.530 L65.397 15.530 L65.397 66.784 L28.787 66.784 Z" fill="#ffffff"/><path d="M28.787 15.530 L65.397 15.530 L65.397 66.784 L28.787 66.784 Z" fill="none" stroke="#004481" stroke-linecap="round" stroke-linejoin="round"/><path d="M49.421,58.131H44.1a1.335,1.335,0,0,0-1.331,1.331v1.331h1.424a2.652,2.652,0,0,1,5.139,0h1.425V59.462a1.336,1.336,0,0,0-1.332-1.331Z" fill="#004481"/><path d="M50.753,62.125H49.328a2.652,2.652,0,0,1-5.139,0H42.765v1.331A1.335,1.335,0,0,0,44.1,64.787h5.325a1.336,1.336,0,0,0,1.332-1.331V62.125Z" fill="#004481"/><path d="M46.759,61.128a.321.321,0,0,1,.288.181.283.283,0,0,1,.043.15.321.321,0,0,1-.057.173.308.308,0,0,1-.274.158.321.321,0,0,1-.288-.182.283.283,0,0,1-.044-.149.327.327,0,0,1,.057-.173.308.308,0,0,1,.275-.158m0-1a1.309,1.309,0,0,0-1.145.665,1.279,1.279,0,0,0,0,1.332,1.318,1.318,0,0,0,2.29,0,1.285,1.285,0,0,0,0-1.332,1.31,1.31,0,0,0-1.145-.665Z" fill="#004481"/><path d="M33.687,20.771a.385.385,0,0,1,.416-.418h.946a1.272,1.272,0,0,1,1.368,1.277A1.257,1.257,0,0,1,35.08,22.9h-.592v.877a.4.4,0,1,1-.8,0Zm.8,1.421h.544a.567.567,0,0,0,0-1.133h-.544Z" fill="#004481"/><path d="M37.565,20.733a.628.628,0,0,1,.572-.443.6.6,0,0,1,.571.443l1.048,2.906a.649.649,0,0,1,.042.2.356.356,0,0,1-.369.354.376.376,0,0,1-.39-.278l-.16-.5H37.393l-.16.5a.37.37,0,0,1-.384.284.384.384,0,0,1-.4-.375.47.47,0,0,1,.038-.176Zm.058,1.94h1.016l-.5-1.55h-.01Z" fill="#004481"/><path d="M42.718,20.824a.37.37,0,0,1-.357.395c-.22,0-.39-.16-.711-.16-.23,0-.438.122-.438.347,0,.55,1.785.2,1.785,1.576a1.268,1.268,0,0,1-1.368,1.239c-.412,0-1.3-.1-1.3-.6a.357.357,0,0,1,.358-.38c.252,0,.551.21.9.21s.545-.2.545-.46c0-.631-1.785-.251-1.785-1.49a1.236,1.236,0,0,1,1.326-1.213C41.971,20.29,42.718,20.4,42.718,20.824Z" fill="#004481"/><path d="M46.008,20.824a.37.37,0,0,1-.358.395c-.22,0-.39-.16-.711-.16-.23,0-.438.122-.438.347,0,.55,1.785.2,1.785,1.576a1.268,1.268,0,0,1-1.368,1.239c-.412,0-1.3-.1-1.3-.6a.357.357,0,0,1,.358-.38c.252,0,.551.21.9.21s.545-.2.545-.46c0-.631-1.785-.251-1.785-1.49a1.236,1.236,0,0,1,1.326-1.213C45.26,20.29,46.008,20.4,46.008,20.824Z" fill="#004481"/><path d="M47.049,20.771a.385.385,0,0,1,.416-.418h.946a1.272,1.272,0,0,1,1.368,1.277A1.257,1.257,0,0,1,48.443,22.9H47.85v.877a.4.4,0,1,1-.8,0Zm.8,1.421h.544a.567.567,0,0,0,0-1.133H47.85Z" fill="#004481"/><path d="M50.29,22.255a1.843,1.843,0,0,1,1.837-1.965,1.868,1.868,0,0,1,1.838,1.965,1.842,1.842,0,1,1-3.675,0Zm2.842,0c0-.646-.337-1.228-1-1.228s-1,.582-1,1.228.327,1.229,1,1.229S53.132,22.907,53.132,22.255Z" fill="#004481"/><path d="M54.715,20.771a.379.379,0,0,1,.411-.418h.942c.821,0,1.329.37,1.329,1.208a1.037,1.037,0,0,1-.988,1.01l.908.972a.345.345,0,0,1,.106.235.4.4,0,0,1-.709.273l-1.186-1.438h-.012v1.16a.4.4,0,1,1-.8,0Zm.8,1.266h.552a.455.455,0,0,0,.5-.476.448.448,0,0,0-.5-.47h-.552Z" fill="#004481"/><path d="M58.651,21.091h-.583a.345.345,0,0,1-.362-.368.357.357,0,0,1,.362-.37h1.966a.359.359,0,0,1,.364.37.346.346,0,0,1-.364.368h-.582v2.682a.4.4,0,1,1-.8,0Z" fill="#004481"/><path d="M49.155,43.354,48.623,37.5h-1.6c-2.663,0-2.663,1.065-2.663,1.065s-2.13,0-2.13,1.065v1.6s.533-.533,2.663-.533l-.533,2.663L43.3,47.081l-2.662,2.13,1.065,1.6,3.2-1.065-1.6,2.662a3.994,3.994,0,0,0,3.2,1.6,4.145,4.145,0,0,0,3.2-1.6l-1.6-2.662,3.195,1.065,1.065-1.6-2.13-2.13Z" fill="none" stroke="#004481" stroke-linecap="round" stroke-linejoin="round"/><path d="M44.437,50.506a3.925,3.925,0,0,0,2.055.569,4.69,4.69,0,0,0,2.06-.561" fill="none" stroke="#004481" stroke-linecap="round" stroke-linejoin="round"/><path d="M42.764 32.703 A3.728 3.728 0 1 0 50.220 32.703 A3.728 3.728 0 1 0 42.764 32.703 Z" fill="none" stroke="#004481" stroke-linecap="round" stroke-linejoin="round"/><path d="M44.363 43.354L49.155 43.354" fill="none" stroke="#004481" stroke-linecap="round" stroke-linejoin="round"/><path d="M41.127 49.948L38.033 52.011" fill="none" stroke="#004481" stroke-linecap="round" stroke-linejoin="round"/><path d="M51.859 49.948L54.963 52.018" fill="none" stroke="#004481" stroke-linecap="round" stroke-linejoin="round"/><path d="M36.375,46.549a12.648,12.648,0,0,1,1.658,5.462s-.061-3.865.472-4.4" fill="none" stroke="#004481" stroke-linecap="round" stroke-linejoin="round"/><path d="M53.948,47.614a17.794,17.794,0,0,1,1.015,4.4s.582-5.469,1.647-6" fill="none" stroke="#004481" stroke-linecap="round" stroke-linejoin="round"/><path d="M46.492,31.905a.8.8,0,1,0,.8.8.8.8,0,0,0-.8-.8Z" fill="#004481"/><path d="M49.155,43.354s3.2-1.6,3.728-3.728,5.325-1.6,5.325-1.6-1.6,7.455-7.988,9.052" fill="none" stroke="#004481" stroke-linecap="round" stroke-linejoin="round"/><path d="M44.362,43.354s-3.195-1.6-3.727-3.728-5.325-1.6-5.325-1.6,1.6,7.455,7.987,9.052" fill="none" stroke="#004481" stroke-linecap="round" stroke-linejoin="round"/><path d="M62.29,82.759c0,1.1-7.152,2-15.975,2s-15.975-.894-15.975-2,7.152-2,15.975-2S62.29,81.656,62.29,82.759Z" fill="#4cbcc3"/><path d="M40.984,67.674a1.447,1.447,0,0,0-.782,1.889l.433,1.039A23.273,23.273,0,0,0,59.371,71l24.35-10.109a3.5,3.5,0,0,0,.83-5.968,9.512,9.512,0,0,0-9.528-1.376L48.747,64.45a1.6,1.6,0,0,1-1.721-.325L42.858,60.11a1.6,1.6,0,0,0-1.721-.325l-1.448.6a1.6,1.6,0,0,0-.863,2.088Z" fill="#4cbcc3"/><path d="M46.515,72.437A23.27,23.27,0,0,0,59.371,71l21.925-9.1a9.468,9.468,0,0,0-8.193-.505Z" fill="#ffffff" stroke="#004481" stroke-linecap="round" stroke-linejoin="round"/><path d="M56.408,61.269l-7.965-4.905a1.6,1.6,0,0,1,.224-2.836l2.51-1.041a1.6,1.6,0,0,1,1.224,0L65.012,57.7Z" fill="#ffffff" stroke="#004481" stroke-linecap="round" stroke-linejoin="round"/><path d="M40.984,67.674a1.447,1.447,0,0,0-.782,1.889l.433,1.039A23.273,23.273,0,0,0,59.371,71l24.35-10.109a3.5,3.5,0,0,0,.83-5.968,9.512,9.512,0,0,0-9.528-1.376L48.747,64.45a1.6,1.6,0,0,1-1.721-.325L42.858,60.11a1.6,1.6,0,0,0-1.721-.325l-1.448.6a1.6,1.6,0,0,0-.863,2.088Z" fill="none" stroke="#004481" stroke-linecap="round" stroke-linejoin="round"/><path d="M56.916,79.457A1.6,1.6,0,0,0,59.084,81.3l2.509-1.042a1.6,1.6,0,0,0,.864-.866L69.231,63l-9.345,3.879Z" fill="#ffffff" stroke="#004481" stroke-linecap="round" stroke-linejoin="round"/><path d="M78.563,56.863a4.4,4.4,0,0,1-5.738-2.408l.875-.364,1.44-.588a9.485,9.485,0,0,1,8.954,1.1Z" fill="#ffffff"/><path d="M78.563,56.863a4.4,4.4,0,0,1-5.738-2.408l.875-.364,1.44-.588a9.485,9.485,0,0,1,8.954,1.1Z" fill="none" stroke="#004481" stroke-linecap="round" stroke-linejoin="round"/></svg>