<svg id="SvgjsSvg1001" width="288" height="288" xmlns="http://www.w3.org/2000/svg" version="1.1" xmlns:xlink="http://www.w3.org/1999/xlink" xmlns:svgjs="http://svgjs.com/svgjs"><defs id="SvgjsDefs1002"></defs><g id="SvgjsG1008"><svg xmlns="http://www.w3.org/2000/svg" width="288" height="288" viewBox="0 0 193.125 49.92"><g transform="translate(0 .004)" fill="#009696" class="color000 svgShape"><path fill="#addfdf" d="M17.475,41.5H10.41l3.755-12.232ZM7.1,53.885l2.231-7.473H18.4l2.231,7.473h7.51L20.152,25.554c-.446-1.859-1.338-2.454-3.309-2.454H5.763v2.565h.892c1.338,0,2.008.409,2.008,1.45a5.278,5.278,0,0,1-.669,2.6L0,53.885" data-name="Path 920" transform="translate(0 -14.514)" class="colorb1b8ba svgShape"></path><path fill="#addfdf" d="M85.5,53.885V25.368A2.119,2.119,0,0,0,83.078,23.1H76.2v2.565h.446c1.338,0,2.008.558,2.008,1.747V53.885m19.222,0V25.368A2.119,2.119,0,0,0,95.459,23.1H88.581v2.565h.446c1.338,0,2.008.558,2.008,1.747V53.885" data-name="Path 921" transform="translate(-47.869 -14.514)" class="colorb1b8ba svgShape"></path><g data-name="Group 578" transform="translate(53.316 -.004)" fill="#009696" class="color000 svgShape"><path fill="#addfdf" d="M152.732,24.935c0-2.045-1.562-3.235-3.978-3.235-2.64,0-3.978,1.19-3.978,3.235,0,2.082,1.339,3.309,3.978,3.309,2.417,0,3.978-1.227,3.978-3.309m-.223,28.071V32.222a2.081,2.081,0,0,0-2.231-2.268H143.4v2.491h.446c1.338,0,1.785.558,1.785,1.822V53.006m23.238-11.191v4.61a6.285,6.285,0,0,1-4.2,2.082c-1.339,0-2.008-.632-2.008-2.38,0-1.9.446-2.64,2.008-3.235a19.248,19.248,0,0,1,4.2-1.078m-9.741-5.5.669-.26a20.929,20.929,0,0,1,4.2-1.227c.669-.074,1.562-.186,2.008-.186,2.231,0,2.863.744,2.863,2.751v.558c-3.086.521-3.978.669-5.763,1.078a16.967,16.967,0,0,0-2.64.892c-2.863,1.153-4.2,3.346-4.2,6.841,0,4.35,1.785,6.432,5.763,6.432a8.021,8.021,0,0,0,4.2-1.078,8.609,8.609,0,0,0,2.863-2.008v.706c0,1.45.669,2.119,2.008,2.119h6.655v-2.38h-.223q-2.008,0-2.008-1.785V37.5c0-5.874-2.008-7.882-7.734-7.882a24.077,24.077,0,0,0-5.54.632,16.223,16.223,0,0,0-4.648,1.785m30.525,20.97V37.39c1.562-1.45,2.64-2.008,4.2-2.008s2.008.669,2.008,3.012V53.006h6.878V37.279c0-3.235-.446-4.61-1.339-5.837a5.51,5.51,0,0,0-4.424-1.747c-2.64,0-4.648.967-7.733,3.644V32.11c0-1.45-.669-2.156-2.008-2.156h-6.655v2.491h.223c1.338,0,2.008.558,2.008,1.822V53.006" data-name="Path 922" transform="translate(-143.4 -13.63)" class="colorb1b8ba svgShape"></path><g data-name="Group 577" transform="translate(61.4)" fill="#009696" class="color000 svgShape"><path fill="#addfdf" d="M10206.674-5102.3h-10.084l9.832-13.866v-4.79H10191.8c-1.764,0-2.521.756-2.521,2.521v4.287h2.521v-.5c0-1.26.756-1.765,2.018-1.765h5.293l-10.084,13.867v4.79h17.648" data-name="Path 923" transform="translate(-10189.025 5137.346)" class="colorb1b8ba svgShape"></path><path fill="#addfdf" d="M10293.887-5126.965v-25.969c0-2.017-1.009-2.772-2.773-2.772h-6.051v2.772h.757c1.008,0,1.512.5,1.512,1.766v24.2Zm3.53,0h6.3v-19.665c0-2.018-1.008-2.773-2.772-2.773h-3.529Zm-13.615,0V-5149.4h-3.529c-2.018,0-2.773.756-2.773,2.773v19.665Zm27.732-13.11c0,12.1-8.823,21.178-20.926,21.178s-20.925-8.824-20.925-21.178c0-12.1,8.823-21.178,20.925-21.178s20.926,9.076,20.926,21.178m4.034,0c0-14.371-10.589-24.96-24.96-24.96-14.118,0-24.959,10.589-24.959,24.96s10.841,24.96,24.959,24.96c14.371,0,24.96-10.589,24.96-24.96" data-name="Path 924" transform="translate(-10237.16 5165.035)" class="colorb1b8ba svgShape"></path></g></g></g></svg></g></svg>