<svg viewBox="0 0 100 100" height="100" width="100" xmlns="http://www.w3.org/2000/svg"><path d="M9.782 50.204 A40.000 40.000 0 1 0 89.782 50.204 A40.000 40.000 0 1 0 9.782 50.204 Z" fill="#d9edff"/><path d="M33.510 21.631 L86.221 21.631 L86.221 55.374 L33.510 55.374 Z" fill="#4cbcc3" stroke="#004481" stroke-linecap="round" stroke-linejoin="round" transform="translate(-11.019 44.961) rotate(-37.953)"/><path d="M39.084,45.344a1.211,1.211,0,0,0-.033,1.532l7.624,9.775a1.213,1.213,0,0,0,1.494.342,4.8,4.8,0,0,1,5.229.645,1.211,1.211,0,0,0,1.532.033L79.66,38.382A1.213,1.213,0,0,0,80,36.888a4.8,4.8,0,0,1,.646-5.228,1.21,1.21,0,0,0,.032-1.532l-7.624-9.775a1.211,1.211,0,0,0-1.493-.341,4.8,4.8,0,0,1-5.229-.646,1.211,1.211,0,0,0-1.532-.033L40.072,38.622a1.213,1.213,0,0,0-.341,1.494A4.8,4.8,0,0,1,39.084,45.344Z" fill="#ffffff" stroke="#004481" stroke-linecap="round" stroke-linejoin="round"/><path d="M56.087,41.449a4.792,4.792,0,1,1,6.726.832A4.792,4.792,0,0,1,56.087,41.449Z" fill="#4cbcc3" stroke="#004481" stroke-linecap="round" stroke-linejoin="round"/><path d="M42.9,33.241a1.335,1.335,0,0,0-1.731,1.4,17.789,17.789,0,0,1-.23,4.587.636.636,0,0,1-1.245.036,17.511,17.511,0,0,0-.873-2.663,23.3,23.3,0,0,0-2.631-4.674,26,26,0,0,0-6.455-5.729,1.334,1.334,0,0,0-1.986,1.446c2.854,13.108-9.689,17.545-3.42,32.5a17.846,17.846,0,0,0,24.217,9.123c9.679-4.7,12.6-16.994,6.947-26.147A23.26,23.26,0,0,0,42.9,33.241Z" fill="#4cbcc3" stroke="#004481" stroke-linecap="round" stroke-linejoin="round"/><path d="M49.6,50.4a9.961,9.961,0,0,1-1.139,11.269,9.658,9.658,0,0,1-13.743.728A9.551,9.551,0,0,1,32.305,59c-1.644-3.919-1.361-6.178-.175-9.2a1.348,1.348,0,0,1,2.3-.346,8.142,8.142,0,0,0,12.5-.16,1.319,1.319,0,0,1,2.123.148Q49.342,49.912,49.6,50.4Z" fill="#ffffff" stroke="#004481" stroke-linecap="round" stroke-linejoin="round"/><path d="M33.997 81.462 A12.925 1.819 0 1 0 59.847 81.462 A12.925 1.819 0 1 0 33.997 81.462 Z" fill="#4cbcc3"/></svg>