<svg xmlns="http://www.w3.org/2000/svg" fill="none" viewBox="0 0 100 100"><path fill="#d9edff" d="M52.083 89.017C74.1744 89.017 92.083 71.1084 92.083 49.017C92.083 26.9256 74.1744 9.01697 52.083 9.01697C29.9916 9.01697 12.083 26.9256 12.083 49.017C12.083 71.1084 29.9916 89.017 52.083 89.017Z"/><path fill="#4cbcc3" d="M74.749 86.382H58.266V93.043H74.749V86.382Z"/><path stroke="#004481" stroke-linecap="round" stroke-linejoin="round" d="M58.266 93.043V86.382H74.749V93.043"/><path fill="#4cbcc3" stroke="#004481" stroke-linecap="round" stroke-linejoin="round" d="M58.265 70.576V89.263H62.405C63.2567 89.2636 64.0916 89.0265 64.816 88.5785C65.5403 88.1305 66.1252 87.4893 66.505 86.727C66.8876 87.489 67.4744 88.1296 68.2 88.5774C68.9256 89.0253 69.7614 89.2626 70.614 89.263H74.751V86.727H79.188C79.3562 86.727 79.5174 86.6602 79.6363 86.5413C79.7552 86.4224 79.822 86.2611 79.822 86.093V75.316C79.8224 73.5673 79.4783 71.8356 78.8093 70.2199C78.1403 68.6042 77.1596 67.1362 75.9231 65.8996C74.6866 64.663 73.2186 63.6822 71.603 63.0131C69.9874 62.344 68.2557 61.9997 66.507 62H58.27C58.27 62 50.411 60.347 50.411 55.275H45.339C45.339 55.275 45.439 65.475 56.722 67.375C58.56 67.684 58.265 70.576 58.265 70.576Z"/><path stroke="#004481" stroke-linecap="round" stroke-linejoin="round" d="M74.749 72.146V86.727"/><path fill="#ffffff" stroke="#004481" stroke-linecap="round" stroke-linejoin="round" d="M79.186 88.9459C79.1923 89.2412 79.1395 89.5348 79.0308 89.8095C78.9222 90.0841 78.7598 90.3343 78.5531 90.5454C78.3465 90.7564 78.0998 90.9241 77.8275 91.0386C77.5553 91.1531 77.2629 91.212 76.9675 91.212C76.6721 91.212 76.3797 91.1531 76.1075 91.0386C75.8352 90.9241 75.5885 90.7564 75.3819 90.5454C75.1752 90.3343 75.0128 90.0841 74.9042 89.8095C74.7955 89.5348 74.7427 89.2412 74.749 88.9459V86.7269H79.186V88.9459Z"/><path fill="#ffffff" stroke="#004481" stroke-linecap="round" stroke-linejoin="round" d="M66.507 62.0029L70.527 66.5969L66.507 77.8519L62.465 66.6229L66.507 62.0029Z"/><path fill="#ffffff" stroke="#004481" stroke-linecap="round" stroke-linejoin="round" d="M66.507 77.8519L59.534 69.6109L60.8 67.0749L58.264 65.1749C58.264 65.1749 60.022 62.3399 60.8 61.9999L66.507 77.8519Z"/><path fill="#4cbcc3" stroke="#004481" stroke-linecap="round" stroke-linejoin="round" d="M66.507 62.0029L68.678 71.7729L66.507 77.8519L64.33 71.8029L66.507 62.0029Z"/><path stroke="#004481" stroke-linecap="round" stroke-linejoin="round" d="M66.507 77.8519V86.7269"/><path fill="#ffffff" stroke="#004481" stroke-linecap="round" stroke-linejoin="round" d="M71.78 63.088C72.5547 63.4233 73.296 63.8311 73.994 64.306L74.749 67.0749H72.213L73.481 69.611L66.507 77.8519L71.78 63.088Z"/><path fill="#ffffff" stroke="#004481" stroke-linecap="round" stroke-linejoin="round" d="M60.802 62.0029H64.047L66.027 64.1629L62.465 66.6229L60.802 62.0029Z"/><path fill="#ffffff" d="M71.78 63.0879C70.8752 62.6977 69.9297 62.4096 68.961 62.2289L66.993 64.1909L70.527 66.5999L71.779 63.0999"/><path stroke="#004481" stroke-linecap="round" stroke-linejoin="round" d="M71.78 63.0879C70.8752 62.6977 69.9297 62.4096 68.961 62.2289L66.993 64.1909L70.527 66.5999L71.779 63.0999"/><path stroke="#004481" stroke-linecap="round" stroke-linejoin="round" d="M66.507 91.366V93.043"/><path fill="#ffffff" stroke="#004481" stroke-linecap="round" stroke-linejoin="round" d="M68.956 62.239L66.501 64.68L64.047 62.003L64.053 56.993H68.961L68.956 62.239Z"/><path fill="#ffffff" stroke="#004481" stroke-linecap="round" stroke-linejoin="round" d="M57.632 53.238C57.6353 52.8772 57.7634 52.5286 57.9945 52.2515C58.2257 51.9744 58.5456 51.7859 58.9 51.718V50.7C58.8885 49.6936 59.0767 48.695 59.4539 47.7619C59.831 46.8287 60.3895 45.9797 61.0971 45.264C61.8047 44.5483 62.6472 43.9801 63.5759 43.5923C64.5046 43.2045 65.5011 43.0048 66.5075 43.0048C67.514 43.0048 68.5104 43.2045 69.4391 43.5923C70.3678 43.9801 71.2104 44.5483 71.9179 45.264C72.6255 45.9797 73.184 46.8287 73.5612 47.7619C73.9383 48.695 74.1266 49.6936 74.115 50.7V51.715C74.4845 51.7845 74.8162 51.9857 75.0486 52.2812C75.281 52.5767 75.3983 52.9465 75.3787 53.3219C75.3592 53.6974 75.2041 54.053 74.9423 54.3228C74.6805 54.5925 74.3297 54.7582 73.955 54.789C73.5979 56.5 72.6625 58.0358 71.3062 59.1382C69.9499 60.2407 68.2554 60.8425 66.5075 60.8425C64.7597 60.8425 63.0651 60.2407 61.7088 59.1382C60.3525 58.0358 59.4171 56.5 59.06 54.789C58.672 54.7538 58.3109 54.5755 58.047 54.2888C57.783 54.0022 57.6351 53.6276 57.632 53.238V53.238Z"/><path fill="#004481" d="M69.36 52.6049C69.8853 52.6049 70.311 52.1792 70.311 51.6539C70.311 51.1287 69.8853 50.7029 69.36 50.7029C68.8348 50.7029 68.409 51.1287 68.409 51.6539C68.409 52.1792 68.8348 52.6049 69.36 52.6049Z"/><path fill="#004481" d="M63.655 52.6049C64.1802 52.6049 64.606 52.1792 64.606 51.6539C64.606 51.1287 64.1802 50.7029 63.655 50.7029C63.1298 50.7029 62.704 51.1287 62.704 51.6539C62.704 52.1792 63.1298 52.6049 63.655 52.6049Z"/><path fill="#4cbcc3" d="M70.628 55.14C71.1533 55.14 71.579 54.7142 71.579 54.189C71.579 53.6638 71.1533 53.238 70.628 53.238C70.1028 53.238 69.677 53.6638 69.677 54.189C69.677 54.7142 70.1028 55.14 70.628 55.14Z"/><path fill="#4cbcc3" d="M62.387 55.14C62.9123 55.14 63.338 54.7142 63.338 54.189C63.338 53.6638 62.9123 53.238 62.387 53.238C61.8618 53.238 61.436 53.6638 61.436 54.189C61.436 54.7142 61.8618 55.14 62.387 55.14Z"/><path stroke="#004481" stroke-linecap="round" stroke-linejoin="round" d="M68.409 56.4659C67.8463 56.8408 67.1852 57.0409 66.509 57.0409C65.8328 57.0409 65.1718 56.8408 64.609 56.4659"/><path fill="#ffffff" stroke="#004481" stroke-linecap="round" stroke-linejoin="round" d="M58.266 48.8C58.2899 46.6299 59.1688 44.5568 60.7117 43.0308C62.2547 41.5047 64.3373 40.6487 66.5075 40.6487C68.6777 40.6487 70.7603 41.5047 72.3033 43.0308C73.8463 44.5568 74.7251 46.6299 74.749 48.8V51.336C73.7656 51.0895 72.8528 50.6179 72.0826 49.9585C71.3125 49.299 70.706 48.4697 70.311 47.536C66.759 49.924 62.07 49.435 58.266 48.8Z"/><path stroke="#004481" stroke-linecap="round" stroke-linejoin="round" d="M71.579 46.265C71.2562 46.7769 70.8229 47.2101 70.311 47.533"/><path fill="#4cbcc3" stroke="#004481" stroke-linecap="round" stroke-linejoin="round" d="M35.465 60.815C35.3757 60.6005 35.2411 60.4078 35.0705 60.2502C34.8999 60.0925 34.6972 59.9735 34.4764 59.9014C34.2555 59.8292 34.0217 59.8056 33.7909 59.8321C33.5601 59.8586 33.3377 59.9346 33.139 60.055C29.5875 62.2081 25.7271 63.8043 21.692 64.788C21.4663 64.8431 21.2552 64.9463 21.073 65.0906C20.8909 65.2348 20.7421 65.4167 20.6368 65.6238C20.5315 65.8309 20.4721 66.0584 20.4629 66.2905C20.4536 66.5227 20.4946 66.7541 20.583 66.969L21.083 68.169L22.414 71.4C22.5593 71.7516 22.8247 72.0403 23.163 72.2146C23.5012 72.389 23.8903 72.4376 24.261 72.352C28.65 71.3428 32.8406 69.6105 36.661 67.226C36.9842 67.0248 37.2255 66.7156 37.3423 66.3533C37.4591 65.991 37.4438 65.599 37.299 65.247L35.96 62.016L35.465 60.815Z"/><path fill="#ffffff" d="M30.623 65.9649C30.7454 66.2594 30.7776 66.5836 30.7156 66.8964C30.6535 67.2092 30.5001 67.4966 30.2746 67.7221C30.0491 67.9476 29.7618 68.1011 29.449 68.1632C29.1362 68.2253 28.812 68.1932 28.5175 68.0709C28.223 67.9486 27.9714 67.7416 27.7946 67.4762C27.6178 67.2109 27.5237 66.899 27.5243 66.5801C27.5249 66.2612 27.6201 65.9496 27.7979 65.6849C27.9757 65.4202 28.2281 65.2141 28.523 65.0929C28.9172 64.931 29.3595 64.9318 29.7531 65.0952C30.1467 65.2586 30.4595 65.5714 30.623 65.9649Z"/><path fill="#4cbcc3" stroke="#004481" stroke-linecap="round" stroke-linejoin="round" d="M68.651 8.96298C68.6582 8.73855 68.6167 8.51523 68.5294 8.30836C68.4421 8.10149 68.311 7.91596 68.1452 7.76452C67.9795 7.61308 67.7829 7.49931 67.5689 7.43104C67.355 7.36276 67.1289 7.34159 66.906 7.36898C64.9178 7.61103 62.9139 7.69962 60.912 7.63398C58.9096 7.57072 56.915 7.35307 54.946 6.98298C54.7253 6.94167 54.4982 6.94851 54.2803 7.00304C54.0625 7.05756 53.8589 7.15849 53.6837 7.29891C53.5084 7.43934 53.3655 7.61595 53.2648 7.81668C53.1641 8.01741 53.1078 8.23753 53.1 8.46198L53.06 9.71698L52.951 13.089C52.9388 13.4567 53.0577 13.8168 53.2865 14.105C53.5153 14.3931 53.8391 14.5905 54.2 14.662C56.3289 15.0897 58.4897 15.3396 60.66 15.409C62.8301 15.4798 65.0022 15.3698 67.154 15.08C67.5184 15.0306 67.8535 14.8537 68.0998 14.5808C68.3462 14.3078 68.488 13.9565 68.5 13.589L68.609 10.217L68.651 8.96298Z"/><path fill="#ffffff" d="M62.341 11.571C62.332 11.8786 62.2319 12.1765 62.0534 12.4272C61.8749 12.6778 61.6261 12.8699 61.3384 12.9791C61.0507 13.0882 60.7371 13.1096 60.4373 13.0404C60.1374 12.9713 59.8649 12.8148 59.654 12.5906C59.4432 12.3665 59.3036 12.0849 59.2529 11.7814C59.2022 11.4779 59.2427 11.1662 59.3693 10.8857C59.4958 10.6052 59.7028 10.3686 59.9639 10.2058C60.2249 10.0429 60.5285 9.96124 60.836 9.971C61.2476 9.98406 61.6372 10.1599 61.9194 10.4598C62.2015 10.7598 62.3531 11.1594 62.341 11.571V11.571Z"/><path fill="#4cbcc3" stroke="#004481" stroke-linecap="round" stroke-linejoin="round" d="M43.413 78.088C43.4181 77.9259 43.3881 77.7647 43.325 77.6154C43.262 77.466 43.1673 77.3321 43.0477 77.2228C42.928 77.1134 42.786 77.0313 42.6316 76.982C42.4772 76.9326 42.3139 76.9173 42.153 76.937C39.2764 77.2862 36.3632 77.1924 33.515 76.659C33.3556 76.629 33.1917 76.6339 33.0344 76.6733C32.8771 76.7126 32.7301 76.7855 32.6036 76.8869C32.4771 76.9884 32.374 77.116 32.3014 77.261C32.2288 77.4059 32.1884 77.5649 32.183 77.727L32.154 78.633L32.075 81.068C32.0662 81.3333 32.1519 81.5932 32.3167 81.8014C32.4814 82.0096 32.7147 82.1526 32.975 82.205C36.0556 82.8223 39.2172 82.9236 42.331 82.505C42.5941 82.4696 42.8362 82.3421 43.0142 82.1451C43.1922 81.9481 43.2945 81.6943 43.303 81.429L43.382 78.993L43.413 78.088Z"/><path fill="#ffffff" d="M38.856 79.973C38.849 80.1952 38.7762 80.4104 38.6468 80.5912C38.5175 80.7721 38.3374 80.9105 38.1294 80.989C37.9214 81.0675 37.6948 81.0826 37.4782 81.0322C37.2616 80.9819 37.0648 80.8685 36.9127 80.7063C36.7606 80.5441 36.66 80.3405 36.6237 80.1212C36.5874 79.9018 36.6169 79.6766 36.7085 79.474C36.8002 79.2715 36.9499 79.1006 37.1387 78.9831C37.3274 78.8657 37.5468 78.8068 37.769 78.814C37.9165 78.8187 38.0616 78.8523 38.1961 78.9131C38.3306 78.9739 38.4518 79.0606 38.5527 79.1682C38.6537 79.2759 38.7324 79.4023 38.7845 79.5404C38.8365 79.6785 38.8608 79.8255 38.856 79.973Z"/><path fill="#4cbcc3" stroke="#004481" stroke-linecap="round" stroke-linejoin="round" d="M51.854 20.476C51.9711 20.2865 52.0458 20.074 52.073 19.8529C52.1001 19.6319 52.0791 19.4076 52.0114 19.1954C51.9436 18.9833 51.8308 18.7883 51.6805 18.6239C51.5303 18.4595 51.3462 18.3295 51.141 18.243C49.3113 17.4683 47.5438 16.5543 45.854 15.509C44.1632 14.4647 42.5554 13.2916 41.045 12C40.8755 11.8556 40.6769 11.7496 40.4627 11.689C40.2485 11.6285 40.0237 11.6148 39.8037 11.6491C39.5838 11.6834 39.3738 11.7647 39.1881 11.8876C39.0025 12.0104 38.8455 12.1719 38.728 12.361L38.074 13.42L36.314 16.267C36.1225 16.5775 36.0476 16.9459 36.1026 17.3066C36.1575 17.6672 36.3388 17.9966 36.614 18.236C38.2333 19.6566 39.9679 20.9401 41.8 22.073C43.6309 23.2063 45.5529 24.1853 47.546 25C47.8844 25.1388 48.261 25.1531 48.6089 25.0403C48.9569 24.9275 49.2535 24.6949 49.446 24.384L51.2 21.535L51.854 20.476Z"/><path fill="#ffffff" d="M45.138 19.6C44.9775 19.8596 44.7436 20.0658 44.4659 20.1925C44.1882 20.3192 43.8792 20.3607 43.5779 20.3117C43.2766 20.2628 42.9966 20.1255 42.7734 19.9174C42.5501 19.7092 42.3936 19.4396 42.3236 19.1425C42.2536 18.8453 42.2733 18.5342 42.3803 18.2482C42.4872 17.9623 42.6765 17.7146 42.9242 17.5363C43.172 17.358 43.4671 17.2572 43.7721 17.2467C44.0772 17.2361 44.3785 17.3163 44.638 17.477C44.9857 17.6923 45.2337 18.0369 45.3274 18.435C45.4212 18.8331 45.353 19.2521 45.138 19.6V19.6Z"/><path fill="#4cbcc3" stroke="#004481" stroke-linecap="round" stroke-linejoin="round" d="M44.24 63.07C43.3631 63.0689 42.5224 62.7201 41.9024 62.0999C41.2824 61.4797 40.9338 60.6389 40.933 59.762V58.662C40.933 58.3703 41.0489 58.0905 41.2552 57.8842C41.4615 57.6779 41.7413 57.562 42.033 57.562C42.3248 57.562 42.6045 57.6779 42.8108 57.8842C43.0171 58.0905 43.133 58.3703 43.133 58.662V59.762C43.133 60.0544 43.2492 60.3348 43.4559 60.5416C43.6627 60.7483 43.9431 60.8645 44.2355 60.8645C44.5279 60.8645 44.8083 60.7483 45.0151 60.5416C45.2219 60.3348 45.338 60.0544 45.338 59.762V32.751C45.338 32.4593 45.4539 32.1795 45.6602 31.9732C45.8665 31.7669 46.1463 31.651 46.438 31.651C46.7298 31.651 47.0095 31.7669 47.2158 31.9732C47.4221 32.1795 47.538 32.4593 47.538 32.751V59.762C47.537 60.6373 47.1895 61.4766 46.5715 62.0964C45.9535 62.7163 45.1153 63.0663 44.24 63.07V63.07Z"/><path fill="#ffffff" d="M46.445 16.214C46.445 16.214 18.859 21.041 18.859 38.282C21.4414 36.9909 24.2811 36.2972 27.1679 36.2522C30.0547 36.2072 32.9146 36.8121 35.536 38.022L36.1 38.282L36.873 37.973C43.0386 35.6263 49.8514 35.6263 56.017 37.973L56.79 38.282L57.354 38.022C59.9754 36.8121 62.8353 36.2072 65.7221 36.2522C68.6089 36.2972 71.4486 36.9909 74.031 38.282C74.031 21.041 46.445 16.214 46.445 16.214Z"/><path fill="#4cbcc3" d="M46.445 16.214C43.1988 18.9008 40.5876 22.273 38.799 26.0884C37.0103 29.9039 36.0886 34.0681 36.1 38.282L36.874 37.973C43.0389 35.626 49.8512 35.626 56.016 37.973L56.79 38.282C56.8014 34.0681 55.8797 29.9039 54.0911 26.0884C52.3025 22.273 49.6913 18.9008 46.445 16.214V16.214Z"/><path stroke="#004481" stroke-linecap="round" stroke-linejoin="round" d="M46.445 16.214C46.445 16.214 18.859 21.041 18.859 38.282C21.4414 36.9909 24.2811 36.2972 27.1679 36.2522C30.0547 36.2072 32.9146 36.8121 35.536 38.022L36.1 38.282L36.873 37.973C43.0386 35.6263 49.8514 35.6263 56.017 37.973L56.79 38.282L57.354 38.022C59.9754 36.8121 62.8353 36.2072 65.7221 36.2522C68.6089 36.2972 71.4486 36.9909 74.031 38.282C74.031 21.041 46.445 16.214 46.445 16.214Z"/><path stroke="#004481" stroke-linecap="round" stroke-linejoin="round" d="M46.445 16.214C43.1988 18.9008 40.5876 22.273 38.799 26.0884C37.0103 29.9039 36.0886 34.0681 36.1 38.282L36.874 37.973C43.0389 35.626 49.8512 35.626 56.016 37.973L56.79 38.282C56.8014 34.0681 55.8797 29.9039 54.0911 26.0884C52.3025 22.273 49.6913 18.9008 46.445 16.214V16.214Z"/><path fill="#ffffff" stroke="#004481" stroke-linecap="round" stroke-linejoin="round" d="M50.5 53.568C50.4997 54.1632 50.2631 54.734 49.8421 55.1548C49.4211 55.5756 48.8502 55.812 48.255 55.812H46.755C46.3572 55.812 45.9756 55.6539 45.6943 55.3726C45.413 55.0913 45.255 54.7098 45.255 54.312V52.072C45.255 51.6741 45.413 51.2926 45.6943 51.0113C45.9756 50.73 46.3572 50.572 46.755 50.572H48.255C48.5501 50.572 48.8423 50.6301 49.1148 50.7431C49.3874 50.8561 49.635 51.0218 49.8435 51.2306C50.052 51.4394 50.2173 51.6872 50.33 51.9599C50.4426 52.2326 50.5004 52.5249 50.5 52.82V53.568Z"/><path fill="#4cbcc3" stroke="#004481" stroke-linecap="round" stroke-linejoin="round" d="M36.068 32.9429C36.2552 32.7562 36.3996 32.531 36.4913 32.283C36.583 32.035 36.6199 31.77 36.5992 31.5064C36.5786 31.2428 36.501 30.9868 36.3718 30.756C36.2427 30.5253 36.065 30.3253 35.851 30.1699C33.9484 28.7789 32.1555 27.2437 30.488 25.5779C28.8196 23.9132 27.2818 22.1226 25.888 20.2219C25.7316 20.009 25.5311 19.8324 25.3001 19.7042C25.0691 19.576 24.8131 19.4992 24.5497 19.479C24.2863 19.4589 24.0216 19.4959 23.7738 19.5875C23.526 19.6792 23.301 19.8233 23.114 20.0099L22.07 21.0549L19.27 23.8639C18.9638 24.17 18.7762 24.5748 18.7406 25.0063C18.7051 25.4378 18.824 25.8679 19.076 26.2199C20.5605 28.2995 22.216 30.2516 24.025 32.0559C25.8323 33.8617 27.787 35.5134 29.869 36.9939C30.222 37.2445 30.6523 37.3618 31.0836 37.3252C31.5149 37.2886 31.9193 37.1004 32.225 36.7939L35.025 33.9849L36.068 32.9429Z"/><path fill="#ffffff" d="M28.549 30.1099C28.293 30.3661 27.9667 30.5405 27.6115 30.6112C27.2563 30.6819 26.8881 30.6457 26.5535 30.5071C26.2189 30.3686 25.9329 30.1339 25.7317 29.8327C25.5305 29.5316 25.4231 29.1776 25.4231 28.8154C25.4231 28.4533 25.5305 28.0992 25.7317 27.7981C25.9329 27.497 26.2189 27.2623 26.5535 27.1238C26.8881 26.9852 27.2563 26.949 27.6115 27.0197C27.9667 27.0904 28.293 27.2648 28.549 27.5209C28.8923 27.8643 29.0851 28.3299 29.0851 28.8154C29.0851 29.3009 28.8923 29.7666 28.549 30.1099V30.1099Z"/><path fill="#4cbcc3" stroke="#004481" stroke-linecap="round" stroke-linejoin="round" d="M75.119 19.965C74.9286 19.7817 74.7006 19.642 74.451 19.5553C74.2013 19.4687 73.9358 19.4372 73.6728 19.4631C73.4098 19.4889 73.1555 19.5715 72.9275 19.7051C72.6995 19.8387 72.5031 20.0202 72.352 20.237C70.9998 22.167 69.5014 23.9904 67.87 25.691C66.2398 27.3933 64.4809 28.9676 62.609 30.4C62.3993 30.5606 62.2268 30.7645 62.1033 30.998C61.9797 31.2314 61.908 31.4887 61.8931 31.7524C61.8782 32.0161 61.9204 32.2799 62.0169 32.5258C62.1133 32.7716 62.2618 32.9938 62.452 33.177L63.519 34.2L66.383 36.947C66.6953 37.2466 67.1039 37.4257 67.5359 37.4523C67.9679 37.4788 68.3953 37.3511 68.742 37.092C70.7912 35.5665 72.7093 33.8723 74.476 32.027C76.2462 30.1834 77.8598 28.1955 79.3 26.084C79.5436 25.7262 79.6527 25.2937 79.6078 24.8631C79.563 24.4326 79.3671 24.0319 79.055 23.732L76.191 20.986L75.119 19.965Z"/><path fill="#ffffff" d="M72.439 27.5379C72.7001 27.7885 72.8811 28.1109 72.959 28.4643C73.037 28.8177 73.0084 29.1863 72.8769 29.5235C72.7453 29.8606 72.5168 30.1512 72.2201 30.3585C71.9235 30.5658 71.572 30.6804 71.2102 30.688C70.8483 30.6955 70.4924 30.5956 70.1873 30.4009C69.8823 30.2062 69.6418 29.9254 69.4963 29.594C69.3509 29.2626 69.3069 28.8955 69.37 28.5392C69.4332 28.1828 69.6005 27.8532 69.851 27.5919C70.1871 27.2417 70.6485 27.0393 71.1338 27.0292C71.6191 27.0191 72.0886 27.2021 72.439 27.5379V27.5379Z"/><path fill="#4cbcc3" stroke="#004481" stroke-linecap="round" stroke-linejoin="round" d="M27.769 46.0849C27.7782 45.7907 27.7237 45.4979 27.6092 45.2267C27.4947 44.9555 27.3229 44.7122 27.1056 44.5136C26.8883 44.315 26.6306 44.1657 26.3502 44.076C26.0697 43.9863 25.7733 43.9583 25.481 43.9939C22.8718 44.3115 20.2421 44.4279 17.615 44.3419C14.9879 44.2591 12.3712 43.9736 9.78801 43.4879C9.49862 43.4341 9.20101 43.4433 8.91551 43.515C8.63001 43.5867 8.36334 43.7192 8.13371 43.9033C7.90407 44.0875 7.71688 44.319 7.58491 44.5821C7.45294 44.8453 7.3793 45.1338 7.36901 45.428L7.31601 47.074L7.17301 51.5C7.15732 51.9823 7.31336 52.4545 7.61334 52.8325C7.91332 53.2105 8.33775 53.4697 8.81101 53.5639C11.6043 54.125 14.4394 54.4528 17.287 54.5439C20.1341 54.6366 22.9839 54.4921 25.807 54.1119C26.2852 54.0472 26.7249 53.8153 27.0484 53.4572C27.3718 53.0992 27.5581 52.6382 27.574 52.1559L27.717 47.7319L27.769 46.0849Z"/><path fill="#ffffff" d="M19.491 49.5079C19.4776 49.9113 19.3448 50.3016 19.1096 50.6295C18.8744 50.9575 18.5472 51.2083 18.1694 51.3503C17.7916 51.4923 17.3803 51.5192 16.9872 51.4274C16.5942 51.3357 16.2372 51.1295 15.9614 50.8349C15.6855 50.5404 15.5032 50.1706 15.4374 49.7724C15.3717 49.3742 15.4254 48.9655 15.5919 48.5979C15.7584 48.2302 16.0302 47.9202 16.3728 47.707C16.7155 47.4938 17.1137 47.3869 17.517 47.3999C17.7851 47.4085 18.0489 47.4698 18.2933 47.5804C18.5377 47.691 18.7579 47.8487 18.9412 48.0445C19.1246 48.2403 19.2675 48.4703 19.3619 48.7215C19.4562 48.9726 19.5001 49.2398 19.491 49.5079Z"/><path fill="#4cbcc3" stroke="#004481" stroke-linecap="round" stroke-linejoin="round" d="M92.468 50.571C92.6072 50.4107 92.7099 50.2221 92.7693 50.0183C92.8287 49.8145 92.8432 49.6003 92.812 49.3903C92.7807 49.1803 92.7044 48.9796 92.5882 48.8019C92.4721 48.6243 92.3188 48.4738 92.139 48.361C88.9309 46.3401 86.0512 43.8398 83.6 40.947C83.463 40.7852 83.2926 40.6548 83.1006 40.565C82.9085 40.4751 82.6993 40.4278 82.4872 40.4262C82.2752 40.4247 82.0653 40.469 81.8719 40.5562C81.6786 40.6433 81.5064 40.7711 81.367 40.931L80.59 41.831L78.5 44.233C78.2713 44.4954 78.1432 44.8305 78.1389 45.1786C78.1345 45.5266 78.254 45.8649 78.476 46.133C81.0911 49.3034 84.215 52.0171 87.72 54.163C88.0164 54.3445 88.3675 54.4151 88.711 54.3622C89.0545 54.3093 89.368 54.1363 89.596 53.874L91.687 51.469L92.468 50.571Z"/><path fill="#ffffff" d="M86.288 48.719C86.0975 48.9383 85.8462 49.0961 85.5659 49.1726C85.2857 49.2491 84.9891 49.2408 84.7135 49.1487C84.438 49.0566 84.196 48.8849 84.018 48.6553C83.8401 48.4257 83.7342 48.1484 83.7138 47.8586C83.6934 47.5689 83.7594 47.2795 83.9034 47.0272C84.0474 46.7749 84.263 46.571 84.5228 46.4412C84.7827 46.3114 85.0753 46.2616 85.3635 46.298C85.6517 46.3345 85.9226 46.4556 86.142 46.646C86.4362 46.9016 86.6168 47.2635 86.6441 47.6523C86.6715 48.041 86.5434 48.4247 86.288 48.719V48.719Z"/></svg>