<svg viewBox="0 0 200 200" height="200" width="200" xmlns="http://www.w3.org/2000/svg"><path d="M22.366,159.676c-.3.121-.061.544.182.484a158.689,158.689,0,0,0,15.616-5.2,22.26,22.26,0,0,0,4.842-2c.816-.563-2.472-4.839,1.089-13.68,1.756-4.357,4.974-7.981,7.869-11.621,4.38-5.506,8.869-11.518,14.527-17.613,1.024-1.1,3.212-4.219,4.176-.908,1.606,5.516-1.106,10.87-2.724,15.979-.19.6.8,1.034,1.09.484,2.436-4.56,4.247-10.11,3.329-15.374a6.469,6.469,0,0,0-1.09-2.966c-1.77-2.17-3.825-.339-5.447,1.453-3.768,4.162-20.04,23.6-22.4,28.69-2.1,4.546-3.027,9.927-1.271,14.708a37.006,37.006,0,0,0-4.6,1.635C31.6,155.986,26.481,157.771,22.366,159.676Z" fill="#004481"/><path d="M109.768,121.665c-2.194-.686-6.651-.726-8.958-.605-11.139.58-22.209,5.863-35.833,11.56a.288.288,0,1,0,.182.545c13.059-3.948,24.945-11.23,39.4-10.713,1.694.06,3.329.363,5.023.484C110.373,123.057,110.5,121.893,109.768,121.665Z" fill="#004481"/><path d="M114.308,125.841c-8.552.713-17.7,4.061-25.543,7.385-.3.127-.061.664.242.544,11.41-4.5,23.038-6.182,25.482-6.658C115.155,126.931,115.034,125.781,114.308,125.841Z" fill="#004481"/><path d="M118.847,152.11c-4.076.338-10.358,2.685-14.1,4.358a85.769,85.769,0,0,0-13.013,7.385c-8.051,5.447-17,11.943-27.3,10.713-9.19-1.1-12.439-7.092-13.2-6.84a13.694,13.694,0,0,0-2.6.848c-.79.293-14.063,5.577-17.432,6.961a.345.345,0,0,0,.182.665c3.45-1.21,19.308-7.021,20.034-7.324,5.474,6.69,14.416,9.394,24.877,5.569,13.011-4.757,19.2-14.566,38.556-20.035,1.4-.4,2.79-.709,4.177-1.21C119.515,153.024,119.513,152.055,118.847,152.11Z" fill="#004481"/><path d="M40.4,185.4a10.443,10.443,0,0,1-9.442,7.808c-4.9.458-9.49-1.651-13.256-4.661A29.24,29.24,0,0,1,8.081,174.2c-1.89-6.109-2.45-13.332.666-19.187a16.807,16.807,0,0,1,10.169-8.293c-4.639,3.936-6.45,20.344,3.208,32.5,3.028,3.812,7.753,7.782,12.892,6.9,3.067-.527,4.855-2.758,4.54-6.113a9.109,9.109,0,0,0-1.453-4.54.56.56,0,0,0-1.029.424c.368,2.081,2.808,7.269-1.755,8.534-7.457,2.068-19.8-11.2-18.7-27.661.181-2.724.625-5.737,2.118-7.99,3.346-5.048,8.775-1.578,11.561,4,.121.3.669.059.545-.242a13.514,13.514,0,0,0-4.6-6.234c-3.375-2.335-11.976-1.5-17.432,5.81-4.191,5.619-4.491,13.2-2.966,19.793,3.405,14.727,14.972,22.863,23.727,22.758,4.721-.056,9.563-2.421,11.258-7.081a11.363,11.363,0,0,0,.484-1.937A.471.471,0,1,0,40.4,185.4Z" fill="#004481"/><path d="M145.116,80.99c.077.907,1.561.97,1.453,0-.738-6.614-2.912-17.531-5.327-20.882a.266.266,0,0,0-.484.182C142.038,67.713,144.523,74.018,145.116,80.99Z" fill="#004481"/><path d="M78.838,56.174c-8.788,6.172-19.515,5.765-25.845,11.8.978,3.095.832,4.161,2,3.995,7.869-2.058,15.667-4.278,23.546-6.174,2.055-.5,4.119-.954,6.173-1.453a1.019,1.019,0,0,0,.666-1.15c-.847-3.45-1.755-6.9-2.784-10.35A20.06,20.06,0,0,1,78.838,56.174Z" fill="#4cbcc3"/><path d="M70.062,52.966c3.456-2.115,7.415-4,10.047-7.506-.562-1.349-1.038-3.267-2.421-3.026-27.506,4.792-16.153,2.746-30.566,5.205-1.3.222-.377.588,4.479,15.738C55.625,59.085,64.288,56.5,70.062,52.966Z" fill="#4cbcc3"/><path d="M64.312,82.14c2.967.354,5.1,2.8,7.929,3.632a5.769,5.769,0,0,0,4.781-.545c1.771-1.188,1.993-3.453,3.027-5.145,1.445-2.365,3.8-3.608,6.476-2.3a14.735,14.735,0,0,1,3.39,2.785.659.659,0,0,0,1.029-.787c-1.1-1.994-4.155-4.258-6.961-4.056a6.7,6.7,0,0,0-4.963,3.269c-1.016,1.522-1.339,4.284-3.027,5.2a4.479,4.479,0,0,1-3.51.121c-2.963-.977-5.386-3.679-8.716-3.45-2.784.192-5.266,3.027-4.358,5.811.121.3.605.242.545-.061A4.014,4.014,0,0,1,64.312,82.14Z" fill="#004481"/><path d="M99.72,81.353c.242.3.787.121.908-.242.585-2.145-7.425-29.725-11.8-42.611a.316.316,0,0,0-.605.181C100.278,81.41,98.481,80.114,99.72,81.353Z" fill="#004481"/><path d="M100.931,43.766c3.45.665,7.747-.428,11.2-.969,2.723-.427,5.447-.968,8.171-1.573,1.089-.243,2.9-.375,3.813-.969,1.141-.74.422-1.459-.666-1.21-8.259,1.887-21.245,3.6-22.456,4.055A.341.341,0,0,0,100.931,43.766Z" fill="#004481"/><path d="M106.378,67.916c4.992-.589,23.089-4.389,25.3-5.568.358-.191.666-.9,0-.908-3.176-.023-24.472,5.447-25.422,5.75C105.893,67.306,105.894,67.973,106.378,67.916Z" fill="#004481"/><path d="M108.315,76.087c8.355-.09,17.053-2.842,25-5.023.906-.249,2.6-1.191.908-1.453-1.1-.17-1.754.356-7.99,1.816-6,1.4-12.166,2.3-18.1,3.995C107.831,75.482,107.892,76.092,108.315,76.087Z" fill="#004481"/><path d="M174.956,13.26a.318.318,0,0,0,.485.121c.4-.269.045-.424-1.09-3.45a.217.217,0,0,0-.424.06A10.733,10.733,0,0,0,174.956,13.26Z" fill="#004481"/><path d="M178.285,12.775a.278.278,0,0,0,.424-.181c.091-.456-.1.08-.908-3.39a.217.217,0,0,0-.424.061C177.377,10.24,177.813,12.421,178.285,12.775Z" fill="#004481"/><path d="M180.4,11.625a.3.3,0,1,0,.6,0,26.8,26.8,0,0,0-.363-3.086c0-.243-.424-.3-.424,0C180.343,9.568,180.283,10.6,180.4,11.625Z" fill="#004481"/><path d="M183.914,11.928c.68,0,.418-1.235.243-3.511a.243.243,0,0,0-.485,0c0,.727-.06,1.453-.121,2.179C183.491,10.96,183.309,11.928,183.914,11.928Z" fill="#004481"/><path d="M185.367,12.654a12.175,12.175,0,0,0,1.392-.605,30.548,30.548,0,0,0,.061-6.295c-.412-.793-2.117-.229-2.785-.121a66.209,66.209,0,0,0-9.684,2.119c-.665.184-3.632.665-3.632,1.695A7.646,7.646,0,0,0,171,11.413c-.086-.424-1.23-.262-1.676-.151a1.723,1.723,0,0,0-1.089,1.453c0,2.678,4.064.509,2.905.06-.3-.117-.6.243-.787.364-.363.242-.838.417-1.15,0-.825-1.107,1.09-1.332,1.574-1.453.178-.059.237-.161.225-.258a20.415,20.415,0,0,0,1.175,3.768c-14.532,2.339-29.163-1.183-40.251-2.784-12.168-1.756-15.7-.068-21.548,4.3-4.152,3.1-11.135,9.165-14.8,12.648C59.586,36.686,44.47,40.769,34.9,42.979,43.309,62.65,47.182,83.835,51.056,104.9a914.764,914.764,0,0,1,92.486-22.456c.485-.606-.91-1.106-1.755-.968-30.429,4.965-60.285,12.953-89.7,22.092C48.574,83.23,45,62.529,36.045,43.887q46.667-10.532,93.637-19.611c1.271,3.753,3.209,11.33,3.813,11.258,1.759-.21-.873-7.279-2.361-10.593a3.373,3.373,0,0,0-1.573-1.936c-.988-.387-1.583-.027-9.867,1.573-7.617,1.472-14.524,2.838-20.839,4.114,1.047-1.077,3.247-3.309,4.5-4.356,9.905-8.291,12.732-10.874,19.853-11.137,10.757-.4,30.742,7.091,49.875,2.724,3.153,0,7.825,30.05,7.929,30.082a13.6,13.6,0,0,0,7.808-.121,5.462,5.462,0,0,1-1.634,2.845,5.163,5.163,0,0,1-6.961-.666,7.406,7.406,0,0,1-1.7-3.45c-.121-.3-.6-.242-.6.06,0,4.572,5.991,7.888,9.866,4.661a5.206,5.206,0,0,0,2-3.813,37.816,37.816,0,0,0,5.205-2.058C195.3,43.319,187.834,18.821,185.367,12.654Zm-12.529,2c-.182-.848-1.211-4.54-1.211-4.843,0-.362.061-.3.424-.423,2.122-.717,14.042-3.087,14.042-3.208,0,.121-.06,4.116-.06,5.145A56.313,56.313,0,0,1,172.838,14.652Z" fill="#004481"/><path d="M135.492,142.123c9.008.126,18.987,2.437,28.448,3.632,5.306.67,2.695.618,18.159-11.985a.585.585,0,0,0-.243-.968c-3.516-.534-18.2-2.868-30.506-4.237-2.7-.3-3.8,1.169-7.687,4.782C135.348,141.074,134.083,142.1,135.492,142.123Zm15.253-12.65c5.084.2,29.3,4.6,29.659,4.3-2.24,1.877-12.171,10.694-13.377,11.016a6.975,6.975,0,0,1-2.663-.121c-4.777-.643-27.419-3.873-27.782-3.571C145.485,133.251,147.835,129.358,150.745,129.473Z" fill="#4cbcc3"/><path d="M133.676,151.323c32.233,2.528,31.711,2.716,33.775,1.816,2.484-1.083,4.1-3.527,6.113-5.266a86.371,86.371,0,0,1,7.566-5.75c.609-.418.068-1.382-.545-.968-11.868,8.012-11.492,10.736-14.889,11.318-2.06.354-4.3-.181-6.356-.3-4.539,0-9.259-.751-13.8-1.09-3.509-.261-7.021-.484-10.471-.726a41.068,41.068,0,0,0,4.418-3.995c.182-.181-.06-.484-.242-.3-2.014,1.51-1.721,1.046-5.871,4.418C132.89,150.718,133.253,151.263,133.676,151.323Z" fill="#4cbcc3"/><path d="M132.829,160.766c5.524.838,24.474,1.583,30.082,1.634a5.946,5.946,0,0,0,4-1.271c2.323-1.832,10.7-9.16,11.924-10.714.905-1.152-1.088-.3-1.332-.121-12.425,9.146-7.647,10.973-18.763,10.774-1.7-.03-23.122-1.15-24.635-1.21a41.288,41.288,0,0,0,3.329-3.208c.182-.242-.06-.605-.3-.424a56.275,56.275,0,0,0-4.418,3.632C132.4,160.1,132.347,160.693,132.829,160.766Z" fill="#4cbcc3"/><path d="M179.98,153.321c-1.145.263.242,1.21.726,1.271a111.5,111.5,0,0,1-8.9,7.2c-2.479,1.879-5.206,4.827-8.474,4.963-2.483.1-10.328-.535-16.585-.666a.535.535,0,0,0-.544.545,3.8,3.8,0,0,1-4.116,3.632,4.748,4.748,0,0,1-3.935-4.419c0-.3-.242-.484-.544-.545-4.6-.3-9.14-.665-13.74-1.089.289-.434,6.794-4.979,7.2-5.266.6-.424.009-1.38-.545-.968-2.264,1.683-4.715,3.215-6.961,5.023-1.658,1.336-.825,2.057-.121,13.68a.542.542,0,0,0,.545.544c10.774.787,37.772,2.8,40.433,3.027a3.711,3.711,0,0,0,3.207-.848c.469-.358,10.353-8.514,13.922-11.5.428-.358,1.21-.787,1.331-1.332.126-.815,1.193-12.08.727-13.013C182.907,152.717,181.055,153.074,179.98,153.321Z" fill="#004481"/><path d="M10.26,112.949c.666.545,10.68,7.009,15.132,10.047a.9.9,0,0,0,1.332-.726c-.121-2.3-.593-19.695-2.058-20.458-.36-.188-2.482,3.087-6.174,4.842-3-13.082,2.013-24.9,12.106-33.351.484-.363-.128-1.1-.606-.847C17.877,78.9,12.277,95.865,16.132,108.712a15.84,15.84,0,0,1-5.872,2.966C9.171,111.8,9.6,112.4,10.26,112.949Z" fill="#4cbcc3"/><path d="M149.777,136.373c2.36.245,5.084,1.024,7.505,1.15,2.24.117,4.6-3.55,2.724-3.874-8.388-1.449-8.456-2.364-10.834.848C148.631,135.226,148.627,136.254,149.777,136.373Z" fill="#4cbcc3"/><path d="M165.03,136.434c.668.108,4.5,1.517,4.66.544.21-1.266-3.873-1.331-4.539-1.392C164.727,135.586,164.607,136.365,165.03,136.434Z" fill="#4cbcc3"/><path d="M161.338,139.944c.818.819,3.261,1.094,4.418.969s-.06-.848-.363-1.029c-1.15-.606-2.724-.424-4-.606C160.611,139.218,161.035,139.642,161.338,139.944Z" fill="#4cbcc3"/><path d="M144.087,139.339c3.167-1.629,4.9,2.251,9.261,1.332a4.408,4.408,0,0,0,1.876-1.029c.606-1.272-2-.3-2.663-.243a5.345,5.345,0,0,1-3.329-.665,4.849,4.849,0,0,0-5.387.121C143.542,139.1,143.785,139.46,144.087,139.339Z" fill="#4cbcc3"/><path d="M156.374,53.934c7.965-.513,15.445-4.164,19.188-10.713.242-.363-.3-.787-.606-.484a25,25,0,0,1-17.008,9.442c-6.017.763-12.277-.849-18.643.424s-11.761,5.531-18.158,6.234c-7.569.832-8.918-5.349-1.634-10.471,11.7-8.23,28.161-10.482,37.89-21.185a.171.171,0,0,0-.242-.242C148.353,35.474,135.6,38.353,124.9,43.705c-19.57,9.785-12.845,21.666,4.963,13.922,4.227-1.839,8.347-3.873,13.014-4.056C147.413,53.394,151.894,54.223,156.374,53.934Z" fill="#004481"/><path d="M120.058,142.063c-3.177-.375-19.393,5.507-24.454,7.687-.181.06-.061.421.122.363,12.01-3.793,23.389-6.322,24.453-7.082C120.481,142.789,120.542,142.12,120.058,142.063Z" fill="#004481"/><path d="M93.3,140.792c-.3.121-.181.6.121.544,12.9-4.3,22.31-4.924,23.727-5.447a.588.588,0,0,0-.181-1.15C115.58,134.589,105.1,136.037,93.3,140.792Z" fill="#004481"/><path d="M58.138,152.413a.287.287,0,0,0,.181.545,26.245,26.245,0,0,1,10.411-.848c5.586.583,8.81,2.746,9.927,2.906.423.06.488-.487.3-.727C78.094,153.172,68.63,148.824,58.138,152.413Z" fill="#004481"/></svg>