<svg viewBox="0 0 100 100" height="100" width="100" xmlns="http://www.w3.org/2000/svg"><path d="M3.758 50.000 A40.000 40.000 0 1 0 83.758 50.000 A40.000 40.000 0 1 0 3.758 50.000 Z" fill="#d9edff"/><path d="M15.962 71.366 A24.2 1.902 0 1 0 64.362 71.366 A24.2 1.902 0 1 0 15.962 71.366 Z" fill="#4cbcc3"/><path d="M62.509,30.882l-1.018-4.071a1.256,1.256,0,0,0-1.218-.951h-10.6a1.256,1.256,0,0,0-1.219.951l-1.017,4.071H14.8a1.256,1.256,0,0,0-1.255,1.256V68.551a2.511,2.511,0,0,0,2.511,2.511H63.765a2.511,2.511,0,0,0,2.511-2.511V32.138a1.256,1.256,0,0,0-1.256-1.256Z" fill="#4cbcc3" stroke="#004481" stroke-linecap="round" stroke-linejoin="round"/><path d="M64.149,71.062H15.667a2.511,2.511,0,0,1-2.477-2.1L8.761,42.39A1.256,1.256,0,0,1,10,40.927H69.816a1.257,1.257,0,0,1,1.239,1.463L66.626,68.964A2.511,2.511,0,0,1,64.149,71.062Z" fill="#ffffff" stroke="#004481" stroke-linecap="round" stroke-linejoin="round"/><path d="M80.619,51.507l-4.653-4.653A21.093,21.093,0,0,1,73.7,49.531q-.752.75-1.557,1.409l4.521,4.521Z" fill="#ffffff" stroke="#004481" stroke-linecap="round" stroke-linejoin="round"/><path d="M95.049,69.705l-.189.189a4.076,4.076,0,0,1-5.744,0L76.631,57.409a1.358,1.358,0,0,1,0-1.914l4.018-4.018a1.359,1.359,0,0,1,1.915,0L95.049,63.962A4.052,4.052,0,0,1,95.049,69.705Z" fill="#4cbcc3" stroke="#004481" stroke-linecap="round" stroke-linejoin="round"/><path d="M42.096 34.703 A16.776 16.776 0 1 0 75.648 34.703 A16.776 16.776 0 1 0 42.096 34.703 Z" fill="#ffffff" stroke="#004481" stroke-linecap="round" stroke-linejoin="round"/><path d="M58.872,51.479a16.7,16.7,0,0,0,10.592-3.768,12.2,12.2,0,0,0-21.184,0A16.7,16.7,0,0,0,58.872,51.479Z" fill="#4cbcc3" stroke="#004481" stroke-linecap="round" stroke-linejoin="round"/><path d="M58.872 47.666L58.872 51.479" fill="none" stroke="#004481" stroke-linecap="round" stroke-linejoin="round"/><path d="M61.807,41.923a1,1,0,0,1-.76-.971V39.041H56.7v1.911a1,1,0,0,1-.759.971,12.13,12.13,0,0,0-3.472,1.461l6.407,4.282,6.406-4.282A12.113,12.113,0,0,0,61.807,41.923Z" fill="#ffffff" stroke="#004481" stroke-linecap="round" stroke-linejoin="round"/><path d="M58.872,21.394a8.526,8.526,0,0,0-8.5,8.511V40.564a.564.564,0,0,0,.594.568,3.465,3.465,0,0,0,3.5-3.386V33.117a2.727,2.727,0,0,1,2.727-2.727h3.362a2.727,2.727,0,0,1,2.727,2.727v4.629a3.465,3.465,0,0,0,3.5,3.386.564.564,0,0,0,.594-.568V29.905A8.526,8.526,0,0,0,58.872,21.394Z" fill="#ffffff" stroke="#004481" stroke-linecap="round" stroke-linejoin="round"/><path d="M65.671,32.409V31.5a6.766,6.766,0,0,0-1.133-3.759v1.514a1.133,1.133,0,0,1-1.133,1.133H54.339a1.133,1.133,0,0,1-1.133-1.133V27.743A6.766,6.766,0,0,0,52.073,31.5v.907a1.388,1.388,0,0,0,.143,2.747,6.8,6.8,0,0,0,13.312,0,1.388,1.388,0,0,0,.143-2.747Z" fill="#ffffff" stroke="#004481" stroke-linecap="round" stroke-linejoin="round"/><path d="M56.039 30.39L56.039 27.743" fill="none" stroke="#004481" stroke-linecap="round" stroke-linejoin="round"/><path d="M58.872 30.39L58.872 27.743" fill="none" stroke="#004481" stroke-linecap="round" stroke-linejoin="round"/><path d="M61.705 30.39L61.705 27.743" fill="none" stroke="#004481" stroke-linecap="round" stroke-linejoin="round"/><path d="M55.472 32.352 A0.850 0.850 0 1 0 57.172 32.352 A0.850 0.850 0 1 0 55.472 32.352 Z" fill="#004481"/><path d="M60.571 32.352 A0.850 0.850 0 1 0 62.271 32.352 A0.850 0.850 0 1 0 60.571 32.352 Z" fill="#004481"/><path d="M54.339 34.618 A0.850 0.850 0 1 0 56.039 34.618 A0.850 0.850 0 1 0 54.339 34.618 Z" fill="#4cbcc3"/><path d="M61.705 34.618 A0.850 0.850 0 1 0 63.405 34.618 A0.850 0.850 0 1 0 61.705 34.618 Z" fill="#4cbcc3"/><path d="M60.572,36.6a2.832,2.832,0,0,1-3.4,0" fill="none" stroke="#004481" stroke-linecap="round" stroke-linejoin="round"/><path d="M73.7,19.875a20.97,20.97,0,1,0,0,29.656A20.969,20.969,0,0,0,73.7,19.875Zm-14.828,31.6A16.776,16.776,0,1,1,75.648,34.7,16.776,16.776,0,0,1,58.872,51.479Z" fill="#ffffff" stroke="#004481" stroke-linecap="round" stroke-linejoin="round"/></svg>