<svg viewBox="0 0 200 200" height="200" width="200" xmlns="http://www.w3.org/2000/svg"><path d="M70.555,48.918c-6.785-1.657-9.056-9.464-4.8-14.973a.9.9,0,0,0,0-1.127c-.818-1.029-1.631.5-5.2.839-3.469.33-5.956-.939-6.579-4.41A5.513,5.513,0,0,1,55,24.65a.89.89,0,0,0-1.2-1.306c-7.618,5.709-15.173,2.533-16.344-2.8a.844.844,0,0,0-1.667.137c-.626,9.348-11.2,10.548-15.233,5.749a.75.75,0,0,0-1.257.785,10.838,10.838,0,0,1,.848,5.923c-.487,3.734-2.5,6.2-5.556,8.13-3.118,1.911-4.084,1.6-4.181,2.349a.638.638,0,0,0,.234.586,22.394,22.394,0,0,1,3.918,3.917c1.478,2.021,1.662,3.231.907,5.469a9.052,9.052,0,0,1-2.486,3.76C11.7,58.536,10.771,58.632,11,59.416a.752.752,0,0,0,.7.529c5.644.2,9.547,7.089,5,11.5a.82.82,0,0,0,.877,1.347c4.913-1.915,10.224,2,11.4,6.976a.818.818,0,0,0,.672.655c1.006.209,1.105-1.114,2.865-2.9,3.881-3.838,11.832-1.9,15.263,2.923a.907.907,0,0,0,1.637-.628c-.731-6.172,7.346-11.246,13.216-10.764a.926.926,0,0,0,.936-1.293c-3.073-7.29.15-14.274,7.1-17.086A.921.921,0,0,0,70.555,48.918ZM57.78,50.727a18,18,0,0,1-36,0A18.034,18.034,0,0,1,39.8,32.851C49.465,32.855,57.9,40.786,57.78,50.727Z" fill="#4cbcc3"/><path d="M120.435,98.783c2.378-.987,3.131-2.9,4.707-4.021a4.693,4.693,0,0,1,2.047-.839.625.625,0,0,0,.029-1.249c-3.988-.572-5.615,3.7-7.4,5.049A.613.613,0,0,0,120.435,98.783Z" fill="#004481"/><path d="M126.633,97.39c.088-.007,1.011.007,1.141,0a12.047,12.047,0,0,1,2.163.019,9.511,9.511,0,0,1,1.111.053.625.625,0,1,0,.468-1.159,4.63,4.63,0,0,0-1.257-.624,6.064,6.064,0,0,0-2.749-.038,3.818,3.818,0,0,0-1.257.582.646.646,0,0,0-.409.78A.63.63,0,0,0,126.633,97.39Z" fill="#004481"/><path d="M126.6,99.991c1.245.274.025.154,3.245.349a6.859,6.859,0,0,1,.731.025.622.622,0,0,0,.5-1.141,3.944,3.944,0,0,0-1.053-.6,5.716,5.716,0,0,0-2.953-.039c-.176.053-.322.115-.5.175A.615.615,0,0,0,126.6,99.991Z" fill="#004481"/><path d="M126.312,103.005a8.456,8.456,0,0,0,1.257.2c.263.018,1.374.112,1.667.138.424.036.88,0,1.14.017a.623.623,0,1,0,.38-1.187,4.167,4.167,0,0,0-2.251-.756,4.04,4.04,0,0,0-2.339.365A.614.614,0,0,0,126.312,103.005Z" fill="#004481"/><path d="M119.119,106.233a21.454,21.454,0,0,0,3.216.231c.705,0,6.435-.108,7.281-.08a.624.624,0,0,0,.175-1.236,15.89,15.89,0,0,0-4.3-.56,36.885,36.885,0,0,0-6.374.415A.615.615,0,0,0,119.119,106.233Z" fill="#004481"/><path d="M31.609 46.189 A1.17 2.631 0 1 0 33.949 46.189 A1.17 2.631 0 1 0 31.609 46.189 Z" fill="#004481" transform="translate(-9.964 9.029) rotate(-13.635)"/><path d="M40.840 43.616 A1.17 2.631 0 1 0 43.180 43.616 A1.17 2.631 0 1 0 40.840 43.616 Z" fill="#004481" transform="translate(-9.098 11.132) rotate(-13.635)"/><path d="M33.51,55.425c4.169,2.611,11.262.646,13.654-4.391a.622.622,0,0,0-.234-.851.606.606,0,0,0-.848.235c-2.2,3.28-8.158,5.486-12.017,3.912a.606.606,0,0,0-.819.267A.631.631,0,0,0,33.51,55.425Z" fill="#004481"/><path d="M39.8,31.706a19.172,19.172,0,1,0,0,38.332A19.5,19.5,0,0,0,59.459,50.726,19.3,19.3,0,0,0,39.8,31.706Zm0,1.171a17.712,17.712,0,1,1-18,17.849A17.935,17.935,0,0,1,39.8,32.877Z" fill="#004481"/><path d="M107.365,56.368a8.531,8.531,0,0,0,.03,2.682,7.568,7.568,0,0,0,.351,1.81.622.622,0,0,0,.613.617.646.646,0,0,0,.644-.631,7.125,7.125,0,0,0,.2-2.377,4.772,4.772,0,0,0-.643-2.356A.613.613,0,0,0,107.365,56.368Z" fill="#004481"/><path d="M103.389,62.517c0,3.025,4.059,3.218,5.292.629a.624.624,0,0,0-.994-.754c-.288.266-1.829,1.017-2.456.549a2.314,2.314,0,0,1-.643-.678A.613.613,0,0,0,103.389,62.517Z" fill="#004481"/><path d="M132.422,89.508c-.6-.051-1.129.043-1.374-.449-.41-.638-1.292-.657-2.076-.722-9.106-.763-8.985-16.916-18.1-19.6a.614.614,0,1,1,.322-1.186c8.461,2.19,9.736,12.176,14,16.876a5.54,5.54,0,0,0,4.268,2.164,3.8,3.8,0,0,1,2.778,1.23,6.581,6.581,0,0,1,2.076.5.79.79,0,0,1,.2,1.33c-1.257,1.029-2.438,2.1-2.6,3.818a.615.615,0,1,1-1.227-.078A5.888,5.888,0,0,1,132.422,89.508Z" fill="#004481"/><path d="M111.049,82.164c-.272-3.7-.9-8.13-3.83-10.4a.669.669,0,0,1-.146-.871.634.634,0,0,1,.877-.141c4.047,2.675,4.537,7.391,5,12.175a.9.9,0,0,1-.819.984c-3.174.274-6.5.886-9.824.44a.879.879,0,0,1-.76-.82,27.291,27.291,0,0,0-1.082-6.884.609.609,0,1,1,1.141-.428,21.964,21.964,0,0,1,1.608,6.449A50.956,50.956,0,0,0,111.049,82.164Z" fill="#004481"/><path d="M118.885,99.33a2.507,2.507,0,0,0-1.424-2.266c-.025-.011.108-.551.108-.862.055-3.687.492-9.929-.76-16.184-.8-3.9-2-7.006-4.853-9.868a.61.61,0,0,0-.878.846c2.038,2.236,3.354,6.317,3.919,9.376a69.266,69.266,0,0,1,.964,9.439c.4,7.753.522,6.8.029,6.706a3.307,3.307,0,0,0-1.724-2.859c-2.891-1.773-8.827-.435-16.007-9.644a.681.681,0,0,0,.042-.3,38.685,38.685,0,0,0-.467-5.985c-.952-4.925-3.92-8.786-8.45-6.842-1.055.451-.468-.079-.468-.079a16.794,16.794,0,0,1,2.164-1.993s-.039.553,1.1.46c.1.021.853.211,1.143.261.382.056.7.117,1.065.2.321.087,1.777.663,2,.782.25.23.829.4,1.058.139.194-.221,1.326,3.777,5.567,5.039,2.785.8,4.028-1.988,2.748-4.11.044-.1.528-1.145.785-1.84,2.746-.983,4.257-4.019,4.77-6.814a21.807,21.807,0,0,0,.234-4.565.608.608,0,0,0-.584-.641.616.616,0,0,0-.644.606c-.391,3.348-1.16,8.329-4.279,9.66.1-.719.038-2.007-.662-2.095s-1.222,1.469-1.211,2.281a4.164,4.164,0,0,1-2.327-1.767.623.623,0,0,0-1.023.711c1.032,1.68,2.07,2.825,4.067,2.9q-.367.648-.734,1.285a.772.772,0,0,0,.059.828,1.913,1.913,0,0,1,.2,1.581c-.087.3-.409.373-.877.224-3.212-.936-5.5-5.106-5.672-8.067a15.283,15.283,0,0,1,1.345-5.1,3.186,3.186,0,0,1-2.339-1.144c-1.141-1.911.789-3.96,2.748-3.662a5.959,5.959,0,0,1,.2-2.034c1.286-4.228,5.994-3.645,9.415-3.09,5.187.836,2.933,1.094,4.3.907a2.265,2.265,0,0,0-.146-3.968,2.791,2.791,0,0,0-1.229-3.248c.907-1.774-.7-3.6-2.192-3.845a2.586,2.586,0,0,0-2.9.986c-.643-2.167-3.216-1.359-4.123.183-1.374-3.043-7.514-.944-6.432,2.632A3.092,3.092,0,0,0,93.3,47.71c-2.719.95-3.129,4.081-1.637,6.214-1.082.852-1.667,3.208.2,3.609a1.846,1.846,0,0,0,1.55,2.6,2.327,2.327,0,0,0,2.193,3.305,2.021,2.021,0,0,0,1.023,2.419,9.471,9.471,0,0,0,.427,3.536c-.164-.2-.333-.385-.5-.563a4.8,4.8,0,0,0-3.528-1.021c-1.027.185-2.114.842,1.791-1.586a.617.617,0,0,0-.643-1.054c-1.4.781-2.749,1.519-4.035,2.4-6.271,4.3-10.072,13.123-11.228,20.963a65.78,65.78,0,0,0-.672,8.915.621.621,0,0,0,.585.651c1.188.052.252-1.175,1.813-9.268,1.153-6.245,3.326-12.289,7.44-17.095a.611.611,0,0,0,.863.765,5.349,5.349,0,0,1,.877-.306,3.7,3.7,0,0,1,3.334.406c2.575,1.759,3.139,6.522,3.6,9.331A41.69,41.69,0,0,1,93.8,76.744a.64.64,0,0,0-.848-.305.631.631,0,0,0-.293.828c3,6.709,7.807,13.282,14.649,16.056,3.18,1.305,7.377,1.027,6.783,3.807a1.052,1.052,0,0,0,.176.725c.373.527.911.251,1.9.6.758.265.893.535.877,1.242a12.643,12.643,0,0,1-.263,1.849c-.464,3.04-1,4.85-3.976,3.951a.927.927,0,0,0-1.024.359c-2.075,3.1-6.691.895-10.087-.656C93.4,101.536,87.249,94.69,85.7,90.524c-.206-.753-1.409-.39-1.141.4,1.638,4.852,6.64,9.674,10.76,12.714a28.049,28.049,0,0,0,5.614,3.192c4.148,1.893,8.99,4.06,11.988.588a7.118,7.118,0,0,0,1.111.139c3.171.132,4.115-2.6,4.561-5.727A12.97,12.97,0,0,0,118.885,99.33Z" fill="#004481"/><path d="M92.425,82.524s-3.655,3.169-4.971,5.382c-.76-.86-1.462-1.785-2.251-2.642a17.576,17.576,0,0,1,5.789-5.447C91.43,80.746,91.9,81.645,92.425,82.524Z" fill="#4cbcc3"/><path d="M92.805,82.988a.627.627,0,0,0,.146-.783c-1.123-2.06-1.038-2.923-1.725-3.14a.806.806,0,0,0-.643.085,16.509,16.509,0,0,0-6.17,5.638.908.908,0,0,0,.117,1.1l2.252,2.626a.91.91,0,0,0,1.462-.149A36.731,36.731,0,0,1,92.805,82.988Zm-2.076-2.015a18.734,18.734,0,0,0-4.386,4.216L87.4,86.424a24.865,24.865,0,0,1,4.181-4.03C90.863,81.216,90.859,81.176,90.729,80.973Z" fill="#4cbcc3"/><path d="M138.182,91.369c-1.75-.736-3.35.7-4.21,2.4a21,21,0,0,0-1.754,7.588,4.873,4.873,0,0,0,1.432,3.731.624.624,0,0,0,.848-.916c-.9-.992-.544-3.406-.292-4.725.407-2.131,1.518-7.349,3.625-6.9A.613.613,0,1,0,138.182,91.369Z" fill="#004481"/><path d="M157.3,76.918c-18.27.006-27.157,34.239-13.654,53.125,7.679,10.741,19.621,10.753,27.309,0,8.874-12.411,8.557-33.363-.146-45.277C167.209,79.835,162.479,76.916,157.3,76.918Zm12.31,8.721c3.8,5.372,6.14,13.118,6.111,21.717-.084,24.68-18.707,38.177-30.584,21.618-8.219-11.46-8.416-31.642-.146-43.336C152.07,75.633,162.579,75.69,169.613,85.639Z" fill="#004481"/><path d="M160.111,103.351a.656.656,0,0,0-.468-.018c-3.926,1.126-4.875,6.5-2.28,8.854,1.45,1.341,3.972.976,5-1.776C163.417,107.566,162.735,103.52,160.111,103.351Z" fill="#004481"/><path d="M149.614,94.644a19.828,19.828,0,0,1,2.339-4.149c1.818-2.477,4.134-4.347,7.193-4.216A7.112,7.112,0,0,1,162.07,87c1.62.813,2.051,1.637,2.632.961a.647.647,0,0,0-.118-.876A20.2,20.2,0,0,0,162.83,85.7c-4.674-3.114-11.964-.389-14.385,8.568A.614.614,0,0,0,149.614,94.644Z" fill="#4cbcc3"/><path d="M152.977,98.254a8.875,8.875,0,0,1,1.111-1.478,9.25,9.25,0,0,1,2.924-2.243,16.6,16.6,0,0,1,1.725-.913.625.625,0,1,0-.351-1.2,10.468,10.468,0,0,0-2.134.52,8.16,8.16,0,0,0-3.568,2.758,5.845,5.845,0,0,0-.877,2.126.623.623,0,0,0,1.17.43Z" fill="#4cbcc3"/><path d="M155.287,102.873c.74-.492.025.189,1.637-1.41.106-.1.371-.514.5-.642a.647.647,0,0,0,.263-.842c-.347-.6-1.508-.107-1.783.036a4.141,4.141,0,0,0-1.287,1.288,3.836,3.836,0,0,0-.321.833A.619.619,0,0,0,155.287,102.873Z" fill="#4cbcc3"/><path d="M158.854,118.669a3.673,3.673,0,0,0,1.082-.105,5.14,5.14,0,0,0,1.842-1.181,6.2,6.2,0,0,0,.555-.928.623.623,0,0,0-.935-.825c-.234.136-.41.211-.615.335-.322.171-.613.42-1.169.742a6.652,6.652,0,0,0-1.111.784.618.618,0,0,0-.439.765A.651.651,0,0,0,158.854,118.669Z" fill="#4cbcc3"/><path d="M155.491,124.269a5.861,5.861,0,0,0,2.369.34,7.89,7.89,0,0,0,4.3-1.95,9.01,9.01,0,0,0,1.433-1.787.627.627,0,0,0-.966-.8,14,14,0,0,1-1.578,1.222,8.9,8.9,0,0,1-5.293,1.768A.618.618,0,0,0,155.491,124.269Z" fill="#4cbcc3"/><path d="M146.808,123.449a10.644,10.644,0,0,0,17.367,3.136.631.631,0,0,0-.848-.933,10.021,10.021,0,0,1-4,1.931,10.285,10.285,0,0,1-11.4-4.689A.621.621,0,0,0,146.808,123.449Z" fill="#4cbcc3"/><path d="M107.95,56.981a6.258,6.258,0,0,1-4.269,2.634c-3.162.262-5.24-3.375-4.181-6.289,1.379-3.792,5.517-3.8,9.5-3.65,2.52.1,4.594.539,5.379,2.949a7.047,7.047,0,0,1,.147,4.1C113.451,59.826,110.139,59.23,107.95,56.981Zm.029-1.352a.609.609,0,0,1,.614.2,5.108,5.108,0,0,0,2.6,1.483,1.319,1.319,0,0,0,1.754-1.077,5.794,5.794,0,0,0,.088-1.324,4.862,4.862,0,0,0-.322-1.685c-.575-1.616-2.054-1.653-3.772-1.713-2.945-.1-6.729-.336-7.748,2.435-.66,1.795.574,4.155,2.4,4.1a5.259,5.259,0,0,0,3.684-2.221A.631.631,0,0,1,107.979,55.629Z" fill="#4cbcc3"/><path d="M134.323,115.537s-57.892,19.557-60.406,20.432c-.176-1.888-1.71-18.467-1.865-20.093,6.528-.433,62.5-4.389,62.5-4.389a.624.624,0,0,0-.058-1.246s-95.113,5.937-101.837,6.381c5.146-2.279,37.483-16.65,38.8-17.247L90.553,102.7a.616.616,0,1,0,.234-1.21L71.519,97.835c-.348-.065,2.622-1.283-44.383,19.207a.923.923,0,0,0,.438,1.755L70.8,115.959c.1,1.617,1.448,21.29,1.448,21.29a.879.879,0,0,0,1.17.768l61.312-21.3A.625.625,0,0,0,134.323,115.537Z" fill="#004481"/><path d="M146.733,44.4c1.492-10.991,16.374-16.38,22.263-6a7.7,7.7,0,0,1,9.622,6.835c5.257-1.331,6.024,4.276,5.175,9.66a50.349,50.349,0,0,1,6.936-.014c8.768.944,10.157,7.327,3.932,8.983a19.481,19.481,0,0,1-4.131.492c-29.83.894-18.57.431-39.014.338-5.607-.025-13.923.78-19.216-1.04-5.144-1.769-6.186-5.524-1.276-8.387a13.093,13.093,0,0,1,4.2-1.562C134.83,48,141.226,42.949,146.733,44.4Zm35.984,10.926a.507.507,0,0,0,.509.6c4.195-.042,8.167-.6,11.9,1.423,1.794.971,3,2.9,1.4,4.267-1.513,1.285-4.079,1.383-6.051,1.444-31.323.694-19.094.262-38.954.144-5.88-.035-15.279.9-19.995-1.517-1.507-.772-2.757-1.772-1.893-3.21,1.063-1.767,4.378-3.232,6.484-3.377a.728.728,0,0,0,.676-.878c-.886-5.235,5.53-10.136,10.316-8.152a.744.744,0,0,0,1.018-.64c.642-10.437,14.809-15.874,19.947-5.945a.675.675,0,0,0,.814.321,6.442,6.442,0,0,1,8.566,6.2.6.6,0,0,0,.8.571,3.991,3.991,0,0,1,2.8-.219C183.507,47.341,183.231,52.729,182.717,55.322Z" fill="#4cbcc3"/><path d="M17.635,153.9c1.1-12.137,15.112-22.387,26.373-15.287,2.863,1.806,4.8,5.267,6.052,8.391,4.995-1.178,10,2.1,9.824,7.238,7.779.221,14.063,5.446,11.842,13.018,2.018-.1,5.723-.127,7.485.88,3.771,2.154,3.031,6.7-.38,9-3.7,2.493-10.057,1.938-14.123,2.143-18.456.928-35.25,1.041-51.546.52-3.458-.111-7.4-.3-10.088-2.5a3.577,3.577,0,0,1-.964-4.941,9.644,9.644,0,0,1,4.912-3.684C6.162,162,11.02,155.68,17.635,153.9ZM70.293,167.73a.613.613,0,0,0,.614.833c1.8-.13,6.065-.178,7.6.74,2.9,1.735,2,4.988-.5,6.631-3.3,2.172-9.526,1.592-13.391,1.752-16.659.692-34.671.846-51.4.289-2.9-.1-6.75-.225-8.976-2.086a1.817,1.817,0,0,1-.555-2.595,7.556,7.556,0,0,1,4.531-3.025.893.893,0,0,0,.731-1.086c-1.306-6.032,3.439-12.282,9.737-13.652a.93.93,0,0,0,.731-.852c.669-11.288,13.42-20.9,23.653-14.587,2.766,1.708,4.507,5.2,5.731,8.209a.836.836,0,0,0,1.052.485c4.509-1.5,9.068,1.529,8.48,6.109a.734.734,0,0,0,.76.847C66.684,155.532,72.891,160.36,70.293,167.73Z" fill="#4cbcc3"/></svg>