<svg width="244" height="244" viewBox="0 0 244 244" fill="none" xmlns="http://www.w3.org/2000/svg">
<path d="M95.8823 121.316C95.7105 120.709 95.4161 120.143 95.0175 119.654C94.6188 119.166 94.1243 118.763 93.5643 118.473C89.4932 115.921 85.1463 116.724 83.0003 119.638C81.5119 115.168 78.2021 111.158 73.294 110.532C69.512 110.044 63.9854 112.247 60.29 117.486C58.7094 119.732 57.7598 122.361 57.5401 125.099C57.5084 125.44 58.0574 125.503 58.1306 125.176C59.9143 117.209 66.7853 111.973 71.9422 111.94C76.1256 111.912 80.5945 115.081 82.056 122.022C82.1039 122.18 82.2015 122.319 82.3345 122.418C82.4674 122.517 82.6286 122.57 82.7941 122.57C82.9597 122.57 83.1209 122.517 83.2538 122.418C83.3867 122.319 83.4844 122.18 83.5322 122.022C83.8689 120.899 84.5833 119.927 85.5544 119.27C86.5255 118.613 87.6936 118.312 88.8612 118.418C90.7078 118.577 92.4552 119.322 93.8473 120.546C94.1471 120.933 94.4074 121.35 94.6245 121.789C94.7049 121.929 94.8326 122.036 94.9847 122.091C95.1369 122.146 95.3035 122.144 95.4548 122.087C95.6061 122.03 95.7321 121.922 95.8105 121.78C95.8888 121.639 95.9143 121.474 95.8823 121.316Z" fill="#4CBCC3"/>
<path d="M141.465 110.177C140.692 108.898 139.698 107.767 138.529 106.837C136.265 105.201 133.521 104.365 130.729 104.46C129.302 104.372 127.872 104.54 126.504 104.957C125.943 105.154 125.975 106.101 126.659 106.055C131.817 105.746 133.385 105.85 136.198 107.153C137.298 107.731 138.275 108.518 139.073 109.471C134.62 106.71 127.323 106.909 123.847 112.05C120.169 117.484 122.453 125.645 127.28 128.398C128.966 129.328 130.871 129.79 132.796 129.734C131.808 129.995 130.788 130.11 129.767 130.076C127.127 130.199 124.543 129.284 122.569 127.528C120.626 125.577 119.297 123.1 118.748 120.402C118.198 117.704 118.452 114.905 119.477 112.35C120.673 109.847 122.623 107.783 125.054 106.446C125.412 106.278 125.162 105.698 124.79 105.809C119.265 107.455 116.592 113.53 117.115 118.937C117.648 124.436 121.124 130.336 126.95 131.304C129.624 131.831 132.394 131.564 134.919 130.535C137.443 129.506 139.611 127.761 141.155 125.514C142.699 123.267 143.551 120.617 143.606 117.892C143.661 115.166 142.917 112.484 141.465 110.177ZM136.341 128.121C135.255 128.592 134.074 128.805 132.892 128.742C130.788 128.733 128.747 128.023 127.092 126.723C125.437 125.422 124.264 123.607 123.758 121.564C122.05 115.839 124.829 110.289 130.453 109.042C133.685 108.327 137.068 108.884 139.9 110.597C140.828 111.978 141.473 113.529 141.796 115.161C142.119 116.793 142.115 118.473 141.784 120.104C141.452 121.734 140.8 123.283 139.865 124.659C138.93 126.035 137.731 127.212 136.337 128.121H136.341Z" fill="#004481"/>
<path d="M124.578 150.508C123.804 149.229 122.81 148.098 121.641 147.167C119.377 145.531 116.633 144.695 113.842 144.791C112.415 144.702 110.984 144.871 109.617 145.287C109.056 145.485 109.088 146.432 109.772 146.385C114.617 146.096 118.678 145.875 122.061 149.663C122.097 149.715 122.137 149.762 122.183 149.804C119.794 148.393 117.009 147.803 114.253 148.126C107.621 148.835 104.036 154.878 105.413 161.269C106.562 166.598 110.142 170.063 115.905 170.063C114.917 170.323 113.897 170.438 112.876 170.405C110.236 170.527 107.652 169.612 105.678 167.856C101.106 163.415 99.6399 154.714 104.946 149.276C105.867 148.258 106.961 147.411 108.177 146.775C108.536 146.606 108.286 146.027 107.913 146.138C102.389 147.783 99.7143 153.858 100.239 159.265C100.771 164.765 104.248 170.665 110.073 171.632C112.748 172.161 115.518 171.894 118.042 170.865C120.567 169.836 122.734 168.09 124.277 165.843C125.82 163.596 126.671 160.946 126.725 158.22C126.778 155.495 126.032 152.814 124.578 150.508ZM119.454 168.451C118.368 168.923 117.187 169.136 116.005 169.074C113.901 169.064 111.86 168.353 110.205 167.053C108.551 165.752 107.378 163.937 106.872 161.894C105.164 156.169 107.943 150.619 113.567 149.372C116.8 148.743 120.152 149.295 123.013 150.926C123.941 152.307 124.586 153.859 124.909 155.491C125.233 157.123 125.229 158.803 124.897 160.434C124.566 162.065 123.914 163.613 122.979 164.989C122.043 166.366 120.844 167.543 119.45 168.451H119.454Z" fill="#004481"/>
<path d="M155.074 36.7854C155.009 36.3639 154.91 35.9482 154.779 35.5423C154.747 35.4412 154.684 35.3529 154.599 35.2902C154.514 35.2275 154.411 35.1937 154.305 35.1937C154.199 35.1937 154.096 35.2275 154.011 35.2902C153.926 35.3529 153.863 35.4412 153.831 35.5423C153.609 36.2452 153.509 36.9809 153.536 37.7175C153.189 45.6878 147.643 43.4942 144.525 49.1989C142.18 53.4909 144.202 55.7186 143.687 58.1635C143.213 60.4083 140.474 61.4965 138.824 63.6633C137.909 64.8547 137.421 66.3199 137.441 67.8222C137.461 69.3245 137.986 70.7763 138.932 71.9434C139.198 72.2838 139.724 71.8507 139.523 71.4932C138.87 70.3134 138.602 68.9594 138.755 67.6198C138.908 66.2802 139.475 65.0217 140.377 64.0195C142.01 62.3115 144.47 61.1122 145.085 58.6442C145.484 57.0435 144.876 55.4722 144.852 53.8435C144.848 52.4285 145.212 51.0369 145.91 49.8057C146.607 48.5745 147.613 47.5463 148.829 46.8224C151.32 45.2242 153.77 44.3141 154.717 40.3283C154.971 39.1649 155.091 37.9762 155.074 36.7854Z" fill="#004481"/>
<path d="M171.744 24.2011C171.678 24.0984 171.578 24.0224 171.461 23.987C171.344 23.9515 171.218 23.9587 171.106 24.0074C170.994 24.0561 170.903 24.1431 170.849 24.2528C170.795 24.3625 170.782 24.4877 170.812 24.6062C171.338 26.2243 171.564 27.9248 171.48 29.624C171.093 34.2979 167.877 35.9681 166.291 37.8883C163.438 41.3556 165.644 44.5764 164.722 48.8878C163.559 54.3254 158.419 55.399 154.872 58.6295C153.473 60.0118 152.476 61.7475 151.987 63.6517C151.497 65.5558 151.533 67.5571 152.091 69.4424C152.115 69.5249 152.167 69.5963 152.239 69.6434C152.31 69.6905 152.397 69.7101 152.482 69.6987C152.567 69.6872 152.645 69.6455 152.701 69.5812C152.758 69.5169 152.79 69.4342 152.79 69.3485C152.94 65.5604 152.529 62.5372 155.898 59.5458C160.399 55.5478 167.31 55.0488 166.369 44.1652C166.174 41.9143 166.019 40.4955 167.534 38.7582C168.642 37.4882 170.009 36.467 171.013 35.0982C173.183 32.1238 173.983 27.328 171.744 24.2011Z" fill="#004481"/>
<path d="M185.229 49.1367C182.789 52.2001 177.92 51.8427 175.103 54.5743C171.746 57.8268 173.677 62.941 172.09 66.8011C170.818 69.8938 167.149 70.1244 164.43 71.2907C161.245 72.6571 158.496 75.4997 158.185 79.0584C158.152 79.4318 158.699 79.4635 158.806 79.1524C159.335 77.6469 160.186 76.2749 161.3 75.1319C162.414 73.9888 163.763 73.1023 165.254 72.5339C168.083 71.4822 171.42 71.0882 173.084 68.2297C174.559 65.697 174.182 62.5921 174.498 59.7788C174.864 56.547 176.084 55.1733 178.941 54.0924C182.428 52.776 184.957 52.5064 186.118 49.6333C186.303 49.166 185.552 48.7305 185.229 49.1367Z" fill="#004481"/>
<path d="M83.7335 155.945C82.4818 152.449 80.3736 150.145 76.6965 149.638C73.5123 149.199 69.0996 149.156 67.0012 152.2C66.1692 149.173 64.4286 146.475 62.0143 144.469C59.6001 142.463 56.6284 141.247 53.5007 140.983C47.3946 140.382 38.0433 144.433 35.3397 151.081C34.2773 149.031 32.724 147.276 30.8183 145.972C28.9127 144.668 26.714 143.856 24.4183 143.609C16.0369 142.685 7.30415 149.134 6.10001 159.332C6.06341 159.642 6.57703 159.704 6.64413 159.41C7.1883 156.829 8.25817 154.388 9.78705 152.239C11.3159 150.09 13.2711 148.279 15.5306 146.919C23.7302 142.373 32.6265 146.379 34.7322 153.522C34.9201 154.158 35.9998 154.267 36.1303 153.522C36.5135 151.841 37.2489 150.259 38.2879 148.883C39.327 147.506 40.6461 146.366 42.1583 145.536C45.1387 143.592 48.5918 142.496 52.1477 142.364C54.1516 142.375 56.1296 142.817 57.9475 143.66C59.7654 144.504 61.3805 145.728 62.6832 147.251C63.9859 148.774 64.9456 150.559 65.4972 152.485C66.0489 154.412 66.1794 156.434 65.88 158.416C65.6283 160.275 65.0883 162.083 64.2794 163.775C64.2286 163.87 64.2165 163.98 64.2454 164.084C64.2744 164.187 64.3423 164.275 64.4348 164.329C64.5273 164.384 64.6373 164.4 64.7416 164.375C64.8459 164.35 64.9365 164.285 64.9943 164.195C66.0732 162.777 66.8233 161.137 67.1903 159.394C67.583 157.496 67.6095 155.54 67.2684 153.631C68.8544 150.675 73.5087 150.422 76.6831 150.99C78.3518 151.249 79.852 152.153 80.8616 153.507C81.9279 154.907 82.7819 157.197 83.3785 157.484C83.4265 157.51 83.4799 157.526 83.5348 157.529C83.5896 157.532 83.6444 157.522 83.6951 157.501C83.7458 157.481 83.7912 157.448 83.8278 157.408C83.8644 157.367 83.8914 157.318 83.9067 157.265C84.1227 156.847 83.8775 156.348 83.7335 155.945Z" fill="#4CBCC3"/>
<path d="M150.926 144.526C150.382 144.464 149.854 144.387 149.357 144.293C138.621 169.406 131.137 178.498 128.648 183.821C128.404 184.351 129.065 184.985 129.502 184.49C131.503 182.038 133.282 179.412 134.816 176.644C140.991 166.361 146.377 155.624 150.926 144.526Z" fill="#004481"/>
<path d="M85.117 181.424C86.0295 175.743 86.2394 150.143 101.072 119.483C111.869 97.1571 123.839 86.0173 126.659 82.3683C126.649 82.4585 126.674 82.549 126.729 82.6213C126.784 82.6935 126.865 82.7418 126.954 82.7563C136.521 84.2679 145.708 87.601 154.018 92.5748C156.017 93.9042 157.871 95.4405 159.548 97.1584C159.066 103.073 159.389 110.621 156.317 123.585C157.979 123.149 159.642 122.731 161.273 122.342C161.493 121.995 161.784 121.698 162.127 121.472C161.732 120.83 161.473 120.115 161.366 119.369C161.259 118.623 161.307 117.864 161.506 117.137C162.056 115.734 163 114.52 164.225 113.642C164.984 112.988 165.73 112.15 166.757 112.15C167.091 112.155 167.416 112.256 167.694 112.44C167.972 112.625 168.191 112.885 168.326 113.19C168.68 113.175 169.028 113.282 169.311 113.495C169.595 113.707 169.796 114.011 169.88 114.355C169.895 114.362 170.142 114.434 170.16 114.434C170.372 114.169 170.346 114.305 170.346 114.122C170.379 113.759 170.544 113.42 170.81 113.171C171.077 112.922 171.426 112.78 171.791 112.772C172.819 112.738 173.84 112.949 174.77 113.39C175.7 113.83 176.511 114.486 177.135 115.303C177.646 115.932 177.978 116.686 178.095 117.488C178.213 118.289 178.112 119.107 177.803 119.855C178.191 119.997 178.517 120.272 178.72 120.632L179.33 120.726C193.508 109.596 199.569 91.9929 201.546 74.1492C201.967 70.3586 202.487 66.5315 201.703 62.8861C201.683 62.8262 201.642 62.7756 201.588 62.7441C201.533 62.7126 201.469 62.7023 201.407 62.7153C200.75 62.9115 200.156 63.2756 199.682 63.7718C188.686 72.1057 175.798 82.6074 166.637 92.9945C164.851 95.0197 161.157 99.4666 160.454 100.591C160.424 99.3946 160.362 98.199 160.237 97.0181C160.27 96.9544 160.284 96.8829 160.278 96.8117C160.273 96.7404 160.248 96.6721 160.206 96.6142C160.281 96.6149 160.355 96.599 160.424 96.5679C162.278 95.77 163.26 92.11 161.774 89.67C160.472 87.5289 156.866 85.278 154.675 84.0458C150.145 81.5759 145.35 79.6266 140.382 78.2349C136.736 77.1284 132.553 75.823 129.056 77.5029C127.862 78.0579 126.924 79.0462 126.431 80.2675C126.329 80.6844 126.288 81.1137 126.309 81.5424C126.31 81.6238 126.341 81.702 126.395 81.7629C126.449 81.8239 126.523 81.8635 126.604 81.8747C126.684 81.8859 126.766 81.8679 126.835 81.8239C126.903 81.78 126.954 81.713 126.978 81.6351C127.241 80.9983 127.586 80.398 128.002 79.849C129.454 78.1105 131.932 77.7591 134.201 78.0312C133.127 79.2292 132.497 80.7592 132.415 82.3659C130.609 81.9362 128.737 81.8534 126.9 82.1219C126.841 82.1314 126.787 82.1587 126.745 82.1999C126.807 81.9352 126.387 81.718 126.154 81.9193C124.911 82.9155 123.757 84.0177 122.705 85.2133C122.821 84.5155 123.277 82.4378 123.497 81.2825C126.285 66.6096 125.515 52.0562 125.004 37.0063C125.112 36.2561 125.004 35.4907 124.694 34.7993C124.658 34.7446 124.604 34.7049 124.541 34.6878C124.478 34.6707 124.411 34.6774 124.352 34.7066C121.676 36.27 119.259 38.2408 117.19 40.5479C110.662 46.8437 105.118 54.0857 100.745 62.0309C93.4386 75.8169 91.4415 92.3064 98.027 105.858C99.2231 108.497 100.816 110.937 102.75 113.094C95.291 126.965 89.8951 141.849 86.7323 157.278C85.4647 163.585 83.5737 175.152 83.8897 181.249L85.117 181.424ZM138.513 83.936C136.865 83.4248 134.719 82.8648 133.294 82.522C133.824 81.4594 133.815 80.3431 135.064 78.995C135.313 78.7882 135.506 78.5211 135.624 78.2191C137.002 78.4875 140.289 79.4928 140.533 79.5696C140.057 80.1832 139.645 80.8448 139.306 81.5436C138.863 82.2704 138.592 83.0886 138.513 83.936ZM139.336 84.18C139.732 83.5412 140.085 82.8769 140.393 82.1914C140.805 81.4191 141.403 80.7274 141.837 79.971C142.969 80.337 144.114 80.6725 146.762 81.6949C146.665 81.8425 146.837 81.5729 145.786 83.559C145.28 84.3584 144.869 85.2136 144.559 86.1076C142.817 85.4 141.092 84.7607 139.336 84.18ZM145.147 86.3406C145.816 85.6538 146.381 84.8729 146.825 84.0226C147.251 83.4405 147.596 82.8031 147.851 82.128C149.357 82.7489 150.834 83.4175 152.278 84.1629C152.164 85.1209 151.83 86.0394 151.302 86.8469C150.861 87.3992 150.467 87.9863 150.121 88.6025C149.622 88.3158 146.888 87.0714 145.147 86.3455V86.3406ZM155.432 91.6537C153.997 90.6722 152.497 89.7897 150.942 89.0124C151.568 88.5036 152.099 87.8882 152.511 87.1946C152.987 86.4648 153.29 85.6356 153.397 84.7705C154.9 85.5636 156.348 86.4566 157.731 87.4435C156.993 88.9221 157.323 90.0738 155.428 91.6586L155.432 91.6537ZM159.75 95.7554C158.799 94.3723 157.604 93.1735 156.223 92.2174C157.468 91.7294 158.515 89.5102 158.694 88.2097C159.388 88.6448 159.976 89.2286 160.417 89.919C160.858 90.6093 161.14 91.3889 161.243 92.2015C161.268 92.8675 161.147 93.531 160.889 94.1456C160.632 94.7602 160.243 95.3112 159.75 95.7602V95.7554Z" fill="#004481"/>
<path d="M237.662 159.86C236.718 153.381 233.646 149.152 226.306 146.639C223.057 145.615 219.662 145.127 216.255 145.195C209.636 145.195 204.074 148.847 200.128 154.159C197.723 149.989 188.932 146.731 180.024 150.182C179.962 150.291 179.916 150.399 179.838 150.524C179.915 150.638 180.401 151.658 180.49 151.844C183.035 150.795 185.778 150.313 188.528 150.431C191.278 150.549 193.97 151.265 196.415 152.528C197.553 153.236 198.625 154.047 199.615 154.951C198.708 156.273 197.899 157.66 197.192 159.099C196.239 160.595 195.757 162.343 195.809 164.117C195.862 164.504 196.419 164.504 196.419 164.117C196.543 162.56 197.067 161.062 197.941 159.768C198.673 158.428 199.488 157.136 200.381 155.899C204.629 149.949 209.767 147.237 214.223 146.717C217.468 146.496 220.727 146.737 223.903 147.432C226.788 148.075 229.491 149.36 231.811 151.191C238.981 157.04 238.745 173.979 226.264 179.917C222.172 181.869 220.415 181.004 216.943 182.294C216.84 182.329 216.753 182.399 216.697 182.492C216.641 182.585 216.62 182.695 216.636 182.802C216.653 182.91 216.706 183.008 216.788 183.08C216.869 183.151 216.973 183.192 217.082 183.195C217.718 183.079 218.363 183.011 219.01 182.993C221.544 182.965 224.05 182.448 226.388 181.47C234.702 177.954 238.998 169.008 237.662 159.86Z" fill="#4CBCC3"/>
<path d="M187.669 206.747C187.126 202.397 185.817 182.758 182.525 162.921C181.861 158.773 180.584 154.746 178.735 150.974C178.665 150.857 178.555 150.77 178.425 150.729C178.295 150.688 178.155 150.695 178.031 150.751C177.906 150.806 177.807 150.906 177.75 151.03C177.694 151.154 177.686 151.294 177.726 151.424C180.131 157.19 180.748 158.673 182.774 173.206C184.088 182.746 186.265 205.92 186.285 206.189C186.337 206.921 186.328 207.76 186.393 208.616C185.795 208.737 185.205 208.891 184.624 209.077C183.574 209.273 182.54 209.549 181.531 209.901C181.454 209.921 181.386 209.969 181.341 210.035C181.296 210.102 181.277 210.182 181.286 210.261C181.296 210.341 181.334 210.414 181.393 210.468C181.452 210.522 181.529 210.552 181.609 210.554C182.626 210.54 183.637 210.41 184.624 210.166C187.354 209.653 187.532 209.623 187.605 209.202C187.766 208.393 187.788 207.563 187.669 206.747Z" fill="#004481"/>
<path d="M181.547 209.777C181.654 209.752 181.748 209.69 181.814 209.602C181.879 209.514 181.911 209.405 181.904 209.296C181.807 208.302 181.62 207.319 181.346 206.359C180.971 205.984 170.8 171.2 170.766 171.077C171.415 168.475 172.208 166.929 172.397 164.977C172.484 164.11 171.742 163.94 171.403 164.619C170.807 165.741 170.949 165.595 168.606 173.474C167.763 176.26 166.712 178.942 165.515 182.624C163.279 190.325 160.538 197.871 157.312 205.213C156.638 206.799 155.832 208.058 155.36 209.502C154.627 209.341 153.883 209.242 153.134 209.206C152.251 209.084 151.356 208.946 150.469 208.877C150.582 207.413 151.492 198.607 151.644 197.43C152.413 191.744 155.86 172.266 159.831 160.081C161.455 154.829 162.225 153.829 162.658 151.552C162.681 151.439 162.662 151.321 162.607 151.22C162.551 151.118 162.461 151.04 162.352 150.999C162.244 150.958 162.125 150.957 162.016 150.996C161.907 151.034 161.815 151.11 161.757 151.21C160.007 154.475 152.527 175.488 149.452 204.079C149.135 205.832 149.072 207.621 149.266 209.392C149.282 209.473 149.315 209.549 149.363 209.616C149.411 209.684 149.472 209.74 149.543 209.782C149.614 209.823 149.693 209.85 149.775 209.859C149.857 209.868 149.94 209.86 150.018 209.835C151.858 210.24 153.723 210.515 155.601 210.659C155.698 210.676 155.797 210.663 155.887 210.623C155.976 210.583 156.051 210.517 156.103 210.433C157.749 207.751 159.108 204.903 160.157 201.936C163.855 192.794 167.014 183.209 169.929 173.597C171.622 179.812 173.564 186.041 175.445 192.069C180.804 209.39 180.706 210.001 181.547 209.777Z" fill="#004481"/>
<path d="M198.187 126.636C195.684 124.117 190.271 123.446 186.736 122.953C177.586 121.679 178.375 121.733 178.13 121.788C177.583 122.848 177.094 123.937 176.666 125.051C178.436 126.185 180.192 127.303 181.979 128.438L182.134 128.904C173.543 128.748 165.138 131.344 156.577 132.011C155.788 132.232 155.544 132.893 162.947 125.911V125.741C162.439 124.655 161.911 123.61 161.86 123.457C155.339 125.057 148.39 126.703 145.065 129.469C140.527 133.245 141.137 138.835 145.734 141.618C149.564 143.936 155.528 143.733 159.809 142.55L160.026 143.001C160.711 145.906 161.41 148.811 162.077 151.717C167.313 151.607 172.569 149.666 177.675 150.799L178.016 150.582C179.936 147.115 181.498 143.461 182.678 139.677C188.261 138.741 194.611 137.664 198.431 132.949C198.898 132.415 199.261 131.799 199.503 131.132C199.706 130.333 199.691 129.495 199.46 128.704C199.228 127.913 198.788 127.199 198.187 126.636Z" fill="#4CBCC3"/>
<path d="M164.925 116.173C165.636 115.425 166.755 114.781 167.146 113.813C167.258 113.534 166.928 113.253 166.664 113.331C166.172 113.536 165.731 113.849 165.375 114.247C163.357 116.023 161.824 117.37 162.982 120.182C163.181 120.67 163.676 121.268 163.448 121.829C163.258 122.294 162.726 122.46 162.438 122.838C162.316 123.006 162.36 123.351 162.641 123.32C163.025 123.255 163.389 123.099 163.7 122.863C164.011 122.628 164.26 122.321 164.427 121.968C165.165 120.207 162.33 118.899 164.925 116.173Z" fill="#004481"/>
<path d="M165.219 117.914C165.204 117.973 165.209 118.036 165.233 118.092C165.257 118.148 165.299 118.194 165.352 118.224C165.405 118.254 165.466 118.266 165.527 118.257C165.587 118.249 165.643 118.221 165.686 118.178C166.245 117.525 166.696 116.797 167.285 116.189C167.722 115.74 168.637 115.257 168.667 114.62C168.667 114.563 168.649 114.506 168.616 114.459C168.583 114.412 168.536 114.376 168.482 114.355C167.75 114.201 167.035 115.178 166.618 115.661C166.001 116.308 165.525 117.075 165.219 117.914Z" fill="#004481"/>
<path d="M168.078 116.376C167.584 116.87 167.147 117.417 166.773 118.007C166.742 118.061 166.732 118.124 166.744 118.185C166.757 118.246 166.79 118.3 166.84 118.338C166.889 118.376 166.95 118.395 167.012 118.391C167.074 118.387 167.132 118.361 167.177 118.318C168.802 116.573 169.823 116.488 169.834 115.756C169.832 115.696 169.812 115.638 169.775 115.591C169.739 115.543 169.689 115.508 169.631 115.491C169.092 115.29 168.431 116.029 168.078 116.376Z" fill="#004481"/>
<path d="M175.908 124.346C175.458 124.234 173.291 124.236 172.847 123.475C172.567 122.994 172.847 122.187 173.018 121.719C173.264 121.238 173.447 120.727 173.562 120.198C173.569 119.856 173.473 119.519 173.288 119.231C173.102 118.944 172.836 118.717 172.521 118.582C171.948 118.299 170.796 117.867 170.284 118.338C169.947 118.302 169.607 118.312 169.274 118.369C169.632 118.072 169.97 117.75 170.284 117.405C170.325 117.361 170.349 117.303 170.352 117.242C170.355 117.181 170.336 117.121 170.298 117.073C170.261 117.024 170.208 116.991 170.149 116.978C170.089 116.965 170.027 116.973 169.973 117.002C168.575 117.587 167.239 118.851 167.643 120.466C167.823 121.191 168.344 121.883 167.223 122.813C166.485 123.423 165.549 123.687 164.783 124.226C164.707 124.275 164.652 124.348 164.625 124.434C164.599 124.519 164.604 124.612 164.64 124.694C164.675 124.776 164.739 124.843 164.819 124.882C164.9 124.922 164.991 124.932 165.078 124.91C165.368 124.856 165.649 124.767 165.918 124.646C165.918 126 166.471 127.835 167.766 128.184C167.766 129.411 167.549 129.553 167.75 129.892C167.787 129.95 167.844 129.992 167.91 130.009C167.977 130.026 168.047 130.018 168.107 129.985C168.605 129.741 168.636 128.852 168.652 128.323C169.365 128.348 170.079 128.29 170.779 128.151C170.797 128.496 170.865 128.836 170.982 129.161C170.995 129.221 171.03 129.273 171.08 129.308C171.13 129.343 171.191 129.358 171.251 129.35C171.311 129.342 171.367 129.312 171.406 129.266C171.445 129.219 171.466 129.16 171.464 129.099C171.448 128.425 171.597 128.001 171.478 127.825C172.337 126.918 172.863 125.746 172.97 124.501C173.883 124.945 174.924 125.05 175.907 124.796C175.962 124.789 176.012 124.763 176.049 124.721C176.085 124.68 176.106 124.627 176.106 124.572C176.106 124.516 176.086 124.463 176.049 124.422C176.013 124.38 175.963 124.353 175.908 124.346Z" fill="#004481"/>
<path d="M170.766 117.137C171.247 117.326 171.776 117.381 172.273 117.587C172.747 117.812 173.203 118.072 173.639 118.364C174.039 118.608 174.506 118.025 174.153 117.696C173.694 117.29 173.157 116.982 172.574 116.793C171.991 116.605 171.376 116.538 170.766 116.598C170.471 116.643 170.532 117.046 170.766 117.137Z" fill="#004481"/>
<path d="M173.438 116.469C173.631 116.654 173.865 116.793 174.121 116.872C174.292 116.906 174.511 116.795 174.494 116.593C174.438 115.956 173.746 115.617 173.22 115.397C172.646 115.084 171.992 114.948 171.34 115.008C171.294 115.022 171.252 115.049 171.219 115.084C171.186 115.119 171.163 115.163 171.152 115.21C171.141 115.257 171.143 115.306 171.157 115.353C171.171 115.399 171.197 115.441 171.232 115.474C171.776 115.935 172.488 115.805 173.438 116.469Z" fill="#004481"/>
<path d="M177.306 120.912C175.875 120.751 176.752 118.96 176.84 118.1C176.871 117.716 176.825 117.331 176.705 116.965C176.585 116.6 176.393 116.262 176.141 115.972C175.641 115.31 174.989 114.778 174.24 114.421C173.49 114.064 172.666 113.892 171.837 113.921C171.791 113.924 171.747 113.944 171.714 113.975C171.68 114.007 171.659 114.05 171.653 114.096C171.648 114.142 171.658 114.188 171.684 114.227C171.709 114.266 171.747 114.295 171.791 114.309C173.578 114.695 176.443 116.128 175.985 118.364C175.817 119.188 175.432 120.11 175.892 120.926C176.023 121.22 176.264 121.452 176.563 121.571C176.862 121.69 177.196 121.687 177.493 121.563C177.836 121.413 177.6 120.945 177.306 120.912Z" fill="#004481"/>
<path d="M197.549 215.059C196.451 213.839 194.662 214.478 192.904 213.77C192.438 213.582 191.988 213.366 191.522 213.16C191.556 213.128 191.578 213.084 191.584 213.038C191.679 211.966 191.845 210.903 192.081 209.853C192.325 210.432 192.342 211.081 192.127 211.671C191.932 212.258 192.811 212.603 193.121 212.075C193.34 211.703 193.558 211.33 193.774 210.956C193.836 210.848 193.987 210.368 194.178 210.631C194.269 210.753 194.085 211.159 194.039 211.267C193.732 211.968 192.911 212.29 192.697 213.038C192.681 213.098 192.68 213.16 192.692 213.221C192.704 213.282 192.73 213.339 192.768 213.388C192.805 213.437 192.853 213.478 192.908 213.506C192.963 213.534 193.024 213.55 193.086 213.551C194.532 213.454 195.621 211.344 195.167 210.04C194.878 209.209 193.907 208.925 193.148 209.822C192.991 209.36 192.731 208.94 192.387 208.594C192.296 208.509 192.177 208.462 192.052 208.462C191.928 208.462 191.809 208.509 191.718 208.594C190.742 209.796 190.986 211.593 191.19 213.023C190.67 212.759 190.101 212.604 189.519 212.567C188.937 212.529 188.353 212.61 187.803 212.805C186.511 213.341 185.147 215.088 183.733 213.893C183.676 213.842 183.603 213.812 183.526 213.809C183.45 213.806 183.374 213.83 183.314 213.877C182.622 213.284 181.401 216.344 182.521 218.304C182.858 218.942 183.408 219.44 184.076 219.713C184.743 219.986 185.485 220.015 186.172 219.796C187.046 219.442 187.967 219.217 188.906 219.128C191.122 219.061 194.257 220.014 196.426 218.518C196.457 218.502 196.503 218.502 196.535 218.486C196.876 218.386 197.186 218.202 197.438 217.951C197.69 217.7 197.875 217.39 197.975 217.049C198.076 216.708 198.09 216.347 198.015 216C197.941 215.652 197.78 215.329 197.549 215.059ZM196.213 217.343C196.133 217.369 196.06 217.411 195.999 217.467C195.937 217.523 195.888 217.592 195.855 217.669C192.992 219.174 190.41 217.594 187.466 218.279C186.813 218.43 186.225 218.78 185.571 218.916C184.132 219.213 183.009 217.799 182.992 216.244C183.029 215.662 183.144 215.087 183.334 214.536C183.568 214.883 183.907 215.146 184.3 215.289C184.694 215.431 185.122 215.445 185.524 215.328C186.955 215.073 187.842 213.62 189.361 213.728C190.992 213.85 192.329 215.063 193.945 215.314C194.664 215.325 195.381 215.397 196.088 215.531C196.289 215.574 196.47 215.681 196.605 215.836C196.739 215.991 196.82 216.185 196.834 216.39C196.848 216.595 196.795 216.799 196.683 216.971C196.571 217.143 196.406 217.273 196.213 217.343Z" fill="#004481"/>
<path d="M153.459 213.91C153.403 213.86 153.331 213.833 153.257 213.833C153.183 213.833 153.111 213.86 153.055 213.91C152.994 213.863 152.919 213.839 152.843 213.841C152.766 213.844 152.693 213.873 152.635 213.925C151.206 215.121 149.84 213.362 148.564 212.838C148.014 212.644 147.431 212.563 146.849 212.6C146.267 212.638 145.698 212.792 145.178 213.055C145.396 211.641 145.627 209.828 144.649 208.627C144.56 208.541 144.44 208.493 144.316 208.493C144.191 208.493 144.072 208.541 143.982 208.627C143.643 208.983 143.383 209.407 143.221 209.87C143.114 209.683 142.954 209.531 142.762 209.433C142.57 209.335 142.354 209.295 142.14 209.318C141.925 209.341 141.722 209.427 141.555 209.563C141.389 209.7 141.265 209.882 141.2 210.088C141.019 210.829 141.136 211.612 141.525 212.268C141.915 212.924 142.546 213.402 143.283 213.599C143.345 213.599 143.407 213.585 143.463 213.557C143.519 213.53 143.567 213.489 143.605 213.44C143.643 213.39 143.668 213.332 143.68 213.271C143.691 213.21 143.688 213.146 143.671 213.086C143.468 212.336 142.648 212.013 142.335 211.315C142.181 210.972 142.147 210.228 142.536 210.865C142.78 211.269 143.018 211.688 143.251 212.092C143.546 212.605 144.435 212.278 144.245 211.688C144.044 211.101 144.06 210.461 144.292 209.885C144.524 210.935 144.691 211.999 144.79 213.071C144.791 213.094 144.797 213.117 144.807 213.138C144.818 213.159 144.833 213.178 144.852 213.193C144.386 213.379 143.922 213.604 143.468 213.803C141.696 214.564 139.957 213.844 138.824 215.092C138.591 215.364 138.43 215.69 138.354 216.04C138.279 216.39 138.292 216.754 138.392 217.098C138.493 217.441 138.677 217.755 138.929 218.01C139.18 218.264 139.491 218.452 139.834 218.557C139.868 218.575 139.905 218.586 139.943 218.589C142.095 220.068 145.037 219.16 147.337 219.199C148.32 219.271 149.286 219.502 150.195 219.883C150.883 220.102 151.626 220.071 152.293 219.796C152.96 219.521 153.509 219.02 153.842 218.38C154.205 217.674 154.361 216.881 154.294 216.09C154.226 215.299 153.937 214.544 153.459 213.91ZM152.712 218.229C151.402 219.756 150.054 218.57 148.891 218.306C145.944 217.637 143.36 219.177 140.517 217.685C140.483 217.609 140.434 217.541 140.372 217.485C140.311 217.429 140.238 217.386 140.16 217.359C139.967 217.289 139.802 217.159 139.689 216.988C139.576 216.817 139.522 216.614 139.534 216.409C139.546 216.205 139.624 216.01 139.757 215.853C139.889 215.697 140.069 215.587 140.268 215.541C140.95 215.411 141.641 215.343 142.335 215.339C143.982 215.107 145.348 213.86 146.995 213.739C148.502 213.627 149.356 215.046 150.755 215.339C151.169 215.468 151.614 215.463 152.024 215.323C152.435 215.183 152.79 214.917 153.039 214.561C153.199 215.084 153.313 215.62 153.381 216.162C153.422 216.91 153.184 217.647 152.712 218.229Z" fill="#004481"/>
<path d="M151.237 185.196C148.961 184.464 146.509 184.482 144.243 185.248C141.977 186.015 140.018 187.488 138.653 189.453C137.635 187.957 136.329 186.68 134.811 185.695C133.293 184.71 131.594 184.038 129.813 183.719C127.541 183.328 125.219 183.328 122.947 183.719C122.082 183.849 122.246 183.946 122.246 183.734C121.904 180.126 117.745 176.841 114.137 175.889C111.153 175.146 107.997 175.567 105.312 177.065C102.626 178.563 100.61 181.027 99.674 183.956C92.4248 177.427 81.3472 179.263 77.0064 185.867C77.0064 185.989 76.8259 185.545 75.8877 184.501C70.8076 178.837 61.2001 175.953 49.6797 180.508C46.9164 181.606 43.5223 183.257 42.6415 186.349C42.5756 186.581 42.9014 186.811 43.0612 186.593C44.7008 184.434 46.945 182.812 49.5089 181.931C60.2644 177.589 69.1984 179.785 74.2102 184.743C77.6799 188.176 77.9129 191.568 79.4464 193.211C79.4835 193.248 79.5305 193.272 79.5815 193.282C79.6325 193.292 79.6853 193.287 79.7333 193.267C79.7813 193.247 79.8224 193.214 79.8514 193.17C79.8805 193.127 79.8962 193.077 79.8966 193.025C79.8252 191.379 79.3329 189.78 78.4668 188.379C77.1101 185.695 77.187 186.671 77.5664 186.298C80.4016 183.275 84.2756 181.438 88.4098 181.155C90.4927 181.094 92.5649 181.477 94.4882 182.279C96.4116 183.08 98.142 184.283 99.5642 185.806C99.6619 185.898 99.7841 185.961 99.9163 185.986C100.048 186.01 100.185 185.997 100.309 185.946C100.434 185.895 100.541 185.81 100.619 185.7C100.696 185.59 100.74 185.46 100.745 185.325C101.505 178.599 111.081 173.829 117.835 179.297C119.277 180.697 120.549 182.261 121.626 183.958C119.892 184.305 118.251 185.014 116.81 186.039C114.782 187.523 113.176 189.51 112.149 191.804C112.109 191.87 112.098 191.948 112.117 192.023C112.136 192.097 112.184 192.161 112.25 192.2C112.316 192.239 112.395 192.25 112.469 192.231C112.543 192.213 112.607 192.165 112.646 192.099C113.768 190.349 115.169 188.795 116.794 187.499C120.321 184.643 128.522 183.34 133.996 186.767C135.706 187.822 137.092 189.327 138.004 191.117C138.066 191.22 138.154 191.306 138.259 191.365C138.363 191.424 138.482 191.455 138.602 191.455C138.723 191.455 138.841 191.424 138.946 191.365C139.051 191.306 139.139 191.22 139.201 191.117C140.31 189.1 142.09 187.535 144.232 186.692C146.374 185.85 148.744 185.783 150.93 186.503C151.051 186.085 151.128 185.65 151.237 185.196Z" fill="#4CBCC3"/>
<path d="M135.515 113.564C134.755 113.715 134.048 114.063 133.464 114.574C131.324 115.91 129.329 117.467 127.513 119.218C127.478 119.261 127.459 119.315 127.459 119.37C127.459 119.426 127.477 119.48 127.512 119.523C127.546 119.566 127.594 119.597 127.648 119.609C127.702 119.622 127.759 119.616 127.808 119.592C129.97 118.391 131.082 117.396 134.039 115.536C134.735 115.202 135.35 114.719 135.841 114.122C135.872 114.065 135.888 114.001 135.887 113.936C135.886 113.871 135.868 113.808 135.835 113.751C135.803 113.695 135.756 113.648 135.7 113.616C135.644 113.583 135.58 113.565 135.515 113.564Z" fill="#004481"/>
<path d="M135.405 118.828C134.491 119.141 133.628 119.585 132.843 120.148C131.976 120.695 131.101 121.246 130.281 121.856C130.197 121.906 130.136 121.987 130.111 122.081C130.086 122.176 130.1 122.277 130.15 122.361C130.199 122.446 130.28 122.507 130.375 122.532C130.47 122.556 130.57 122.542 130.655 122.493C132.443 121.62 134.127 120.546 135.673 119.293C135.716 119.25 135.745 119.194 135.753 119.133C135.761 119.072 135.749 119.01 135.719 118.957C135.688 118.904 135.641 118.862 135.584 118.839C135.527 118.816 135.464 118.812 135.405 118.828Z" fill="#004481"/>
<path d="M119 156.707C119.031 156.658 119.049 156.601 119.05 156.543C119.051 156.485 119.037 156.428 119.008 156.378C118.979 156.328 118.937 156.286 118.887 156.258C118.836 156.23 118.779 156.216 118.721 156.219C117.945 156.333 117.215 156.655 116.608 157.151C114.461 158.428 112.553 160.068 110.968 161.998C110.798 162.232 111.136 162.585 111.373 162.403C112.662 161.404 113.855 160.317 115.178 159.353C117.826 157.443 118.5 157.491 119 156.707Z" fill="#004481"/>
<path d="M122.17 158.074C121.345 158.363 120.6 158.842 119.994 159.472C119.24 160.074 118.538 160.739 117.897 161.461C117.869 161.482 117.846 161.509 117.829 161.539C117.813 161.57 117.803 161.604 117.8 161.639C117.798 161.674 117.803 161.709 117.815 161.741C117.827 161.774 117.846 161.804 117.871 161.829C117.896 161.853 117.925 161.872 117.958 161.885C117.991 161.897 118.026 161.902 118.061 161.899C118.096 161.897 118.13 161.887 118.16 161.87C118.191 161.854 118.218 161.83 118.239 161.802C118.971 161.228 119.681 160.634 120.435 160.063C121.069 159.575 122.034 159.099 122.423 158.4C122.542 158.234 122.356 158.045 122.17 158.074Z" fill="#004481"/>
</svg>
