<svg width="1106" height="811" viewBox="0 0 1106 811" fill="none" xmlns="http://www.w3.org/2000/svg">
<path d="M196.099 98.8656C191.04 111.912 186.26 134.19 194.184 145.537C201.464 156.19 219.691 152.003 225.865 142.3C226.379 141.586 225.422 140.871 224.764 141.2C219.814 144.901 214.079 147.414 208.002 148.545C204.993 148.754 202.009 147.875 199.595 146.067C197.18 144.26 195.496 141.645 194.848 138.699C191.176 125.617 195.513 112.262 198.156 99.4515C198.215 99.1849 198.17 98.906 198.03 98.6716C197.89 98.4373 197.666 98.2651 197.403 98.1904C197.141 98.1156 196.859 98.1439 196.617 98.2694C196.375 98.3948 196.189 98.6081 196.099 98.8656Z" fill="#004481"/>
<path d="M192.276 85.0473C200.135 108.933 189.689 89.0271 228.437 97.1009C230.495 97.4653 231.595 97.4653 232.259 98.8657C233.688 105.346 233.853 108.033 234.81 111.634C235.982 116.021 239.097 114.956 240.355 115.171C246.421 116.178 243.927 128.746 237.625 125.688C237.431 125.579 237.211 125.522 236.988 125.524C236.765 125.525 236.546 125.585 236.353 125.697C236.159 125.808 235.999 125.968 235.886 126.161C235.773 126.354 235.713 126.572 235.71 126.796C235.71 131.94 235.71 140.828 239.826 144.579C239.917 144.665 240.031 144.724 240.154 144.747C240.277 144.77 240.405 144.758 240.521 144.712C240.638 144.665 240.738 144.586 240.811 144.484C240.884 144.382 240.927 144.262 240.933 144.136C240.852 141.567 240.328 139.032 239.383 136.641C238.838 134.023 238.47 131.371 238.283 128.703C239.381 128.876 240.504 128.807 241.573 128.501C242.641 128.195 243.63 127.659 244.471 126.931C245.311 126.203 245.982 125.3 246.438 124.286C246.893 123.271 247.121 122.17 247.107 121.058C247.327 119.276 246.965 117.471 246.075 115.912C245.186 114.352 243.815 113.122 242.169 112.406C248.278 102.595 250.966 91.0378 249.815 79.5385C247.828 69.3283 236.732 65.2128 227.622 63.3694C217.519 61.3439 207.044 62.315 197.485 66.1631C185.331 71.0717 188.532 73.7082 192.276 85.0473Z" fill="#004481"/>
<path d="M218.069 114.663C219.548 114.856 219.834 116.357 220.213 117.521C220.577 118.843 222.857 118.693 222.714 117.15C222.601 115.855 221.981 114.658 220.989 113.819C219.998 112.98 218.714 112.567 217.419 112.67C216.854 112.749 216.316 112.958 215.845 113.281C215.375 113.604 214.986 114.032 214.709 114.53C214.432 115.029 214.275 115.585 214.249 116.155C214.223 116.725 214.33 117.293 214.561 117.814C214.997 118.622 216.397 118.036 215.99 117.15C215.906 116.843 215.897 116.519 215.965 116.208C216.032 115.897 216.175 115.607 216.379 115.362C216.583 115.118 216.844 114.927 217.138 114.805C217.433 114.683 217.752 114.635 218.069 114.663Z" fill="#004481"/>
<path d="M199.7 110.841C199.134 110.921 198.596 111.131 198.126 111.455C197.655 111.779 197.267 112.207 196.99 112.706C196.713 113.205 196.555 113.761 196.53 114.332C196.504 114.902 196.611 115.47 196.842 115.992C197.277 116.8 198.678 116.207 198.271 115.328C198.161 115.023 198.131 114.696 198.181 114.376C198.232 114.056 198.362 113.754 198.56 113.498C198.758 113.242 199.017 113.04 199.313 112.91C199.61 112.78 199.934 112.727 200.257 112.756C201.729 112.977 202.022 114.442 202.4 115.614C202.772 116.935 205.051 116.792 204.901 115.249C204.787 113.979 204.177 112.804 203.204 111.979C202.23 111.154 200.972 110.745 199.7 110.841Z" fill="#004481"/>
<path d="M204.48 134.655C203.972 133.941 202.565 134.362 202.929 135.32C205.751 143.372 216.505 138.678 214.983 134.219C214.218 132.297 212.346 136.363 210.138 137.077C209.061 137.286 207.946 137.166 206.937 136.734C205.929 136.303 205.073 135.578 204.48 134.655Z" fill="#004481"/>
<path d="M209.917 112.756C210.117 111.72 208.488 111.212 208.295 112.313C205.116 125.052 204.608 126.274 205.287 127.967C206.609 131.347 211.532 130.54 212.925 127.674C213 127.543 213.034 127.391 213.023 127.24C213.011 127.089 212.954 126.944 212.859 126.826C212.765 126.707 212.636 126.62 212.491 126.575C212.346 126.53 212.191 126.53 212.046 126.574C210.131 126.903 206.294 130.64 208.295 121.28C208.809 118.486 209.352 115.614 209.917 112.756Z" fill="#004481"/>
<path d="M382.483 30.3664C384.588 28.4644 386.907 26.8125 389.392 25.4435C390.948 24.5987 392.695 24.1681 394.465 24.1932C396.959 24.7076 396.887 27.7228 396.444 29.702C395.051 35.1465 388.878 37.933 387.699 43.156C387.556 43.8705 388.213 44.7708 389.021 44.4778C393.008 42.1508 396.208 38.6847 398.209 34.5248C403.632 25.0363 396.387 13.1756 381.011 28.866C380.812 29.0612 380.699 29.3274 380.696 29.6061C380.694 29.8848 380.802 30.1532 380.997 30.3522C381.192 30.5511 381.458 30.6644 381.737 30.6671C382.016 30.6698 382.284 30.5616 382.483 30.3664Z" fill="#004481"/>
<path d="M406.883 30.0738C406.413 29.2769 405.667 28.6799 404.786 28.3956C403.905 28.1112 402.951 28.1592 402.103 28.5305C401.814 28.6207 401.571 28.8188 401.424 29.0836C401.277 29.3484 401.237 29.6596 401.313 29.9528C401.39 30.2459 401.576 30.4984 401.833 30.658C402.091 30.8176 402.4 30.8719 402.696 30.8098C408.884 35.8113 393.979 46.8503 393.358 47.5648C393.183 47.756 393.075 47.9981 393.049 48.2555C393.023 48.5129 393.08 48.7719 393.212 48.9943C393.344 49.2168 393.544 49.391 393.782 49.4912C394.021 49.5915 394.285 49.6124 394.537 49.5511C402.139 48.5365 409.755 34.6109 406.883 30.0738Z" fill="#004481"/>
<path d="M405.34 48.0077C403.139 49.9941 399.624 51.3159 398.138 53.8881C398.052 54.0311 398.005 54.1944 398.003 54.3613C398.001 54.5281 398.043 54.6926 398.125 54.8379C398.207 54.9832 398.326 55.1041 398.47 55.1883C398.614 55.2724 398.778 55.3169 398.945 55.3171C404.661 55.3885 417.686 42.5275 410.927 37.1616C410.12 36.5043 408.719 37.3117 409.384 38.3406C411.585 41.6701 407.698 45.8785 405.34 48.0077Z" fill="#004481"/>
<path d="M416.658 46.0925C416.136 45.2137 414.6 45.7996 414.964 46.8071C416.443 51.1369 406.39 58.4391 401.667 59.961C400.295 60.2446 399.01 60.8494 397.916 61.7258C396.109 63.5406 402.282 66.1557 411.492 57.3888C414.085 54.9166 418.915 49.9294 416.658 46.0925Z" fill="#004481"/>
<path d="M47.4182 48.1007C47.6007 48.1454 47.7916 48.1422 47.9726 48.0917C48.1535 48.0411 48.3184 47.9447 48.4513 47.8118C48.5841 47.679 48.6805 47.5141 48.7311 47.3332C48.7817 47.1523 48.7847 46.9613 48.7401 46.7788C47.3111 41.5558 41.0949 39.1337 39.4015 33.7678C37.894 28.5877 40.4161 26.2298 46.6823 29.3593C49.0726 30.6722 51.3564 32.17 53.5129 33.8392C54.4703 34.5537 55.6564 32.9604 54.7633 32.153C51.0193 28.6234 39.916 20.3924 36.465 28.4805C35.8902 30.1413 35.7201 31.9152 35.9686 33.655C36.2172 35.3947 36.8772 37.0501 37.8939 38.4835C39.965 42.6206 43.3014 45.9896 47.4182 48.1007Z" fill="#004481"/>
<path d="M43.2241 51.4587C40.1089 48.2292 37.0937 48.222 33.3068 41.9058C30.8918 38.1118 31.2348 36.0898 33.0854 35.1467C33.38 35.2033 33.6852 35.1454 33.9387 34.9848C34.1922 34.8243 34.3749 34.573 34.4496 34.2824C34.5243 33.9918 34.4854 33.6836 34.3408 33.4207C34.1962 33.1578 33.9567 32.9599 33.6712 32.8674C32.8178 32.5173 31.8649 32.4959 30.9966 32.8074C30.1283 33.1188 29.4062 33.7409 28.9698 34.5536C26.1761 39.2122 34.5572 52.7019 42.4167 53.5165C43.4456 53.5879 43.8743 52.1303 43.2241 51.4587Z" fill="#004481"/>
<path d="M38.8157 57.9248C37.2723 55.4312 33.6713 54.3523 31.4706 52.4874C29.0413 50.4296 24.7757 46.3856 26.9121 42.9345C27.0317 42.7285 27.072 42.4859 27.0255 42.2523C26.9791 42.0186 26.849 41.81 26.6597 41.6654C26.4704 41.5207 26.2348 41.4501 25.9972 41.4667C25.7595 41.4834 25.5361 41.5861 25.3688 41.7556C22.1321 44.5493 24.2613 48.9578 26.4691 51.68C33.6212 60.9114 40.0303 60.104 38.8157 57.9248Z" fill="#004481"/>
<path d="M29.963 61.526C27.5409 60.0398 20.6245 55.2098 21.6534 51.6087C21.9463 50.6513 20.4816 49.9154 19.9671 50.8942C17.9094 54.8597 22.8252 59.5682 25.5474 61.9189C28.5626 64.5626 34.8859 68.8996 39.0729 67.2848C39.6588 67.0633 40.1018 66.1774 39.5159 65.7415C36.8293 63.5837 32.8782 63.3479 29.963 61.526Z" fill="#004481"/>
<path d="M58.1429 74.1728C55.6493 73.2154 52.9985 72.6295 50.5764 71.4506C48.5785 70.1052 46.6692 68.6327 44.8604 67.0421C44.67 66.9361 44.4527 66.8883 44.2354 66.9045C44.0181 66.9207 43.8103 67.0002 43.6377 67.1332C43.4651 67.2663 43.3353 67.447 43.2644 67.653C43.1934 67.8591 43.1844 68.0814 43.2384 68.2925C44.4888 73.5083 53.4558 75.6376 57.9429 76.0805C59.0289 76.2306 59.1004 74.5372 58.1429 74.1728Z" fill="#004481"/>
<path d="M1025.98 427.907C1023.75 398.513 1017.92 238.9 1013.62 216.529C1013.26 214.543 1009.88 214.986 1010.05 217.044C1022.2 426.285 1021.48 433.759 1023.87 442.747C988.858 444.591 953.904 447.599 918.915 449.892C768.713 459.617 777.83 456.987 752.966 460.11C752.527 460.138 752.116 460.332 751.815 460.652C751.515 460.973 751.348 461.396 751.348 461.835C751.348 462.274 751.515 462.697 751.815 463.018C752.116 463.338 752.527 463.532 752.966 463.561C775.415 464.032 1014.8 448.406 1024.6 447.542C1026.81 447.377 1027.03 445.298 1027.03 442.983C1026.94 437.943 1026.58 432.911 1025.98 427.907Z" fill="#004481"/>
<path d="M830.289 444.441C826.794 406.971 827.139 369.242 831.318 331.843C832.31 320.043 835.818 308.592 841.606 298.261C854.282 277.769 876.846 272.539 895.115 289.294C922.209 314.302 928.039 401.621 929.361 438.418C929.388 438.819 929.567 439.195 929.861 439.47C930.154 439.745 930.542 439.897 930.944 439.897C931.346 439.897 931.733 439.745 932.027 439.47C932.321 439.195 932.5 438.819 932.527 438.418C933.64 397.933 928.357 357.526 916.872 318.689C913.841 307.481 908.313 297.105 900.703 288.337C885.32 272.146 864.185 269.546 846.972 284.879C828.895 300.976 826.966 327.291 825.294 349.855C822.881 381.353 823.599 413.013 827.438 444.369C827.717 446.206 830.446 446.277 830.289 444.441Z" fill="#004481"/>
<path d="M836.169 374.105C835.409 375.006 835.013 376.159 835.06 377.338C835.106 378.516 835.592 379.634 836.421 380.472C837.251 381.31 838.364 381.808 839.541 381.867C840.719 381.927 841.876 381.543 842.785 380.793C843.343 380.35 843.803 379.796 844.137 379.167C844.471 378.538 844.672 377.847 844.727 377.137C844.782 376.427 844.69 375.713 844.457 375.04C844.224 374.368 843.854 373.75 843.371 373.226C842.857 372.773 842.253 372.433 841.598 372.23C840.944 372.027 840.253 371.964 839.573 372.047C838.892 372.13 838.237 372.357 837.65 372.711C837.064 373.066 836.559 373.541 836.169 374.105Z" fill="#004481"/>
<path d="M761.282 231.891C682.687 138.649 589.924 66.2488 574.891 58.7322C569.244 55.318 562.604 53.9243 556.061 54.7799C549.517 55.6354 543.459 58.6894 538.88 63.4408C511.886 86.2047 401.56 195.502 369.329 237.622C364.699 243.723 347.937 266.73 344.043 273.268C342.793 275.326 345.958 277.162 347.28 275.183C385.041 217.201 482.913 122.044 533.514 74.687C538.393 69.4584 544.014 64.9758 550.198 61.383C564.973 54.1808 579.892 66.8204 590.988 75.3443C648.866 120.172 702.144 170.642 750.036 226.011C763.133 241.094 774.143 252.54 772.186 262.686C769.463 276.433 750.036 274.004 740.362 271.139C698.921 258.835 683.352 214.693 559.858 112.52C559.391 112.078 558.772 111.831 558.129 111.831C557.485 111.831 556.867 112.078 556.399 112.52C553.541 115.492 424.367 248.053 385.82 294.646C383.762 297.068 387.292 300.598 389.342 298.168C429.576 249.761 484.256 194.294 558.386 117.593C678.015 216.544 691.683 254.591 730.923 272.239C764.919 287.558 784.968 270.51 774.065 249.018C770.438 242.862 766.152 237.119 761.282 231.891Z" fill="#4CBCC3"/>
<path d="M1058.28 160.013C1047.81 143.515 1043.2 138.056 1006.38 85.1974C992.466 65.1914 990.544 55.417 967.437 56.6746C957.955 57.189 621.712 77.3951 611.423 78.2882C609.215 78.5025 609.144 81.8607 611.423 81.8107C655.593 80.7461 925.474 64.2483 957.955 62.119C966.529 61.526 977.962 59.1039 985.292 64.9771C989.301 68.2352 987.107 66.4489 1036.66 137.142C1046.88 151.839 1060.11 167.201 1064.89 184.763C1067.57 194.673 1059.02 195.609 1048.13 196.817C1003.83 201.597 778.502 212.164 765.984 213.207C762.897 213.5 762.897 218.352 765.984 217.987C813.141 213.272 1043.72 206.412 1062.61 198.803C1079.37 192.201 1064.32 169.566 1058.28 160.013Z" fill="#4CBCC3"/>
<path d="M91.953 473.228C91.1812 477.842 92.2038 482.576 94.811 486.461C95.9185 488.954 97.3832 493.148 94.9611 495.428C92.9033 497.407 89.0093 496.528 86.58 496.085C68.1673 492.662 49.5188 495.285 33.8141 490.576C32.1208 490.062 30.356 490.133 30.1345 488.297C29.913 486.461 30.606 486.203 40.852 481.609C63.9375 471.22 65.0092 474.521 76.7913 471.685C77.5058 471.542 77.3772 470.584 76.7913 470.291C64.9449 465.861 43.71 475.293 33.0639 480.43C29.4914 482.124 22.1106 486.018 25.5688 491.148C27.7123 494.499 39.8588 496.456 43.7957 497.028C55.735 498.607 68.6889 497.943 79.435 499.307C83.0432 499.75 86.58 500.779 90.2454 501.001C91.4447 501.188 92.6695 501.131 93.8465 500.834C95.0235 500.537 96.1285 500.006 97.0956 499.272C98.0627 498.539 98.8719 497.618 99.475 496.564C100.078 495.511 100.463 494.347 100.606 493.141C101.32 485.996 95.1682 480.644 95.3897 473.664C95.3548 473.26 95.1827 472.881 94.9021 472.589C94.6214 472.297 94.2491 472.11 93.8473 472.059C93.4455 472.008 93.0383 472.096 92.6936 472.309C92.3489 472.521 92.0875 472.846 91.953 473.228Z" fill="#004481"/>
<path d="M170.812 490.669C167.24 485.46 160.302 484.131 157.144 478.472C156.186 476.708 153.614 477.958 153.986 479.794C155.086 484.496 159.059 486.704 162.874 489.276C165.668 491.112 170.376 494.935 167.361 498.757C165.155 500.709 162.506 502.094 159.645 502.794C143.776 509.125 123.377 524.293 111.28 525.658C106.136 526.251 109.665 521.764 111.209 519.342C130.25 490.762 129.579 497.192 140.317 486.475C140.417 486.364 140.479 486.224 140.496 486.076C140.512 485.927 140.481 485.777 140.408 485.647C140.334 485.517 140.222 485.413 140.087 485.35C139.951 485.287 139.8 485.268 139.653 485.296C129.436 487.282 120.84 498.236 115.031 506.095C109.873 513.047 99.1123 526.194 106.872 529.838C115.088 533.66 142.983 515.448 154.5 509.832C159.709 508.046 164.711 505.706 169.419 502.851C171.207 501.412 172.356 499.326 172.617 497.046C172.878 494.766 172.229 492.475 170.812 490.669Z" fill="#004481"/>
<path d="M392.622 63.2908C390.814 64.5268 391.093 65.7272 386.749 68.1422C385.119 69.0068 381.033 70.5572 379.246 71.2288C373.451 68.0381 368.275 63.8347 363.963 58.818C369.158 51.3729 363.813 40.1052 368.522 34.3392C373.294 28.3874 377.703 38.8977 380.275 42.2773C381.604 43.9707 384.391 46.3214 384.834 48.4506C385.42 51.0228 383.583 52.7876 381.976 54.4095C381.773 54.6199 381.645 54.8915 381.611 55.1821C381.578 55.4727 381.642 55.7661 381.793 56.0168C381.943 56.2675 382.172 56.4615 382.444 56.5688C382.716 56.6761 383.016 56.6906 383.297 56.6102C384.332 56.2823 385.283 55.735 386.086 55.0057C386.89 54.2763 387.526 53.3822 387.952 52.3843C388.378 51.3865 388.584 50.3084 388.555 49.2238C388.526 48.1392 388.263 47.0736 387.785 46.0999C385.503 42.6068 382.997 39.2655 380.282 36.0969C378.739 33.6747 377.489 30.5166 374.702 29.1876C369.994 26.987 365.585 30.9525 364.113 35.1466C361.62 42.1273 364.042 49.6938 362.205 56.8245V56.7531C361.922 56.4884 361.564 56.3181 361.18 56.2656C360.796 56.2131 360.406 56.2811 360.062 56.4601C308.111 83.7755 261.111 145.272 225.793 155.161C218.815 156.822 211.471 155.882 205.137 152.518C204.992 152.494 204.843 152.515 204.711 152.578C204.579 152.642 204.469 152.745 204.397 152.873C204.326 153.001 204.295 153.148 204.31 153.294C204.324 153.44 204.384 153.578 204.48 153.689C212.411 161.263 224.321 159.205 233.431 155.454C266.17 141.779 312.555 85.2473 360.612 60.1327C365.665 66.3784 372 71.4661 379.189 75.0514C358.962 97.401 339.484 120.322 319.714 143.129C279.488 189.471 271.607 211.006 263.983 250.876C250.76 245.483 236.593 242.785 222.314 242.937C207.626 242.014 192.88 242.974 178.436 245.795C175.457 236.871 177.422 224.046 176.528 213.829C175.278 200.082 166.825 190.75 158.223 180.676C138.824 157.812 117.496 136.656 96.4186 115.414C84.2721 103.138 72.6758 90.2774 60.3292 78.2238C66.0452 72.2006 71.7969 66.0773 77.5272 60.0755C95.8256 71.7576 112.588 85.726 130.736 97.7011C164.761 120.301 180.951 135.877 188.289 140.843C189.611 141.8 191.076 139.742 189.975 138.642C171.875 123.02 152.802 108.56 132.872 95.3504C114.295 83.0038 97.0045 68.821 77.9702 57.2032C76.7127 56.4887 76.134 57.7891 74.805 59.1181C72.7472 52.5733 74.3692 45.8855 72.5329 39.2764C71.2825 34.6464 66.874 29.4949 61.5796 31.7742C59.4752 32.9563 57.8406 34.8254 56.9496 37.0686C54.8919 40.8912 52.2482 44.0493 49.8904 47.5789C47.1753 51.623 47.9827 58.8251 53.7129 59.7254C54.8919 59.9469 56.1423 58.475 55.0348 57.5247C48.5257 51.6373 53.6058 49.0722 56.9496 44.0707C60.2935 39.0692 61.3652 33.7533 65.5236 35.3967C66.2995 35.7065 66.9944 36.1893 67.5553 36.8085C68.1162 37.4276 68.5284 38.1666 68.7603 38.9692C71.4826 46.0284 68.3959 54.5524 73.1688 60.8757C58.3501 77.0449 57.0425 77.9523 58.1643 79.2455C76.877 102.61 148.127 168.558 167.304 197.352C178.3 213.486 169.398 231.177 175.021 246.967H175.006C174.793 247.051 174.6 247.18 174.441 247.345C174.281 247.509 174.159 247.707 174.083 247.923C174.006 248.139 173.977 248.369 173.997 248.597C174.017 248.826 174.086 249.047 174.199 249.247C128.378 285.15 112.166 296.632 100.334 313.18C70.6037 354.721 74.1334 411.552 66.9669 457.966C66.8568 458.476 66.9427 459.008 67.2076 459.457C67.4724 459.906 67.8967 460.238 68.3959 460.388C75.5313 463.233 82.9597 465.28 90.5454 466.49C92.3888 466.783 93.5606 467.148 95.0325 466.126C96.7185 464.587 97.941 462.607 98.5621 460.41C116.889 419.762 125.041 378.771 141.425 348.519C152.371 328.556 170.105 296.804 202.686 279.005C204.079 278.191 205.108 280.177 203.937 281.149C184.712 293.98 168.449 310.769 156.237 330.392C140.382 362.23 141.646 401.028 139.917 430.422C139.039 444.905 138.01 459.381 137.345 473.864C137.347 474.409 137.564 474.931 137.95 475.317C138.335 475.702 138.858 475.92 139.403 475.922C162.231 477.779 164.953 479.901 168.362 472.349C178.786 448.492 203.515 377.235 200.843 361.223C208.631 356 232.767 346.547 248.6 331.757C271.6 310.258 278.28 291.03 269.178 253.262C269.092 252.92 268.913 252.609 268.661 252.363C268.408 252.117 268.093 251.946 267.749 251.869C267.568 251.856 267.393 251.804 267.234 251.719C269.352 239.653 272.374 227.764 276.273 216.151C292.513 170.573 331.218 137.141 382.733 75.8445C383.022 75.6315 383.25 75.3468 383.394 75.0186C383.539 74.6904 383.595 74.33 383.558 73.9733C383.52 73.6166 383.39 73.2759 383.18 72.985C382.97 72.6941 382.688 72.4631 382.362 72.3149C384.637 71.7552 386.835 70.9176 388.906 69.8213C390.964 68.7138 393.979 66.8061 394.415 64.3053C394.358 63.6623 393.501 62.6977 392.622 63.2908Z" fill="#004481"/>
<path d="M130.243 479.716C129.16 477.983 128.648 475.954 128.778 473.914C129.214 464.361 132.815 399.535 133.33 392.333C127.821 407.116 108.901 462.461 103.128 470.163C104.4 473.571 102.635 473.092 105.7 479.644C108.138 484.067 109.284 489.085 109.008 494.127C108.723 497.4 107.474 500.514 105.421 503.078C103.367 505.641 100.6 507.539 97.469 508.532C97.469 508.653 99.0481 514.362 99.0838 514.483C101.55 510.253 104.3 506.195 107.315 502.337C113.124 493.14 120.969 485.4 130.243 479.716Z" fill="#4CBCC3"/>
<path d="M443 692C443.021 687.88 380.204 760.471 380.204 760.471L392.5 749.5L411.592 727.5L443 692L450 681L457.677 666.686C476.758 632.45 492.463 596.439 504.57 559.161C520.766 507.258 527.39 452.843 524.118 398.57C523.232 386.152 522.689 372.405 515.737 361.602C497.375 333.4 442.794 337.516 404.761 328.313C364.878 318.682 356.954 303.52 342.657 288.844C323.808 269.595 305.503 272.568 289.591 293.546C284.994 300.534 279.91 307.191 274.379 313.466C259.039 342.953 227.351 357.143 209.36 366.675C207.073 397.548 179.136 473.85 173.349 481.18C175.658 482.705 177.58 484.748 178.96 487.147C180.339 489.546 181.14 492.234 181.297 494.997C181.453 497.76 180.963 500.522 179.863 503.061C178.763 505.601 177.086 507.848 174.964 509.625C167.483 515.791 165.675 512.79 146.226 524.25C137.974 529.109 119.561 539.098 109.994 539.098C108.794 539.086 107.598 538.961 106.422 538.726C134.287 626.824 180.187 708.427 249.15 768.795C268.334 785.557 290.748 800.405 317.135 800.769C336.146 800.938 354.776 795.436 370.644 784.964C377.5 780.44 441 703 443 692ZM446.495 353.456C476.404 349.091 500.083 358.372 504.705 388.36C508.414 412.295 507.413 455.773 498.682 478.322C498.239 479.573 496.031 479.501 496.181 477.958C497.939 457.059 504.42 436.181 500.225 395.126C498.975 382.779 495.888 370.504 484.642 363.595C473.032 356.45 459.506 356.979 446.424 355.657C446.132 355.645 445.857 355.517 445.659 355.302C445.462 355.087 445.357 354.802 445.37 354.51C445.382 354.218 445.51 353.943 445.725 353.746C445.94 353.548 446.225 353.444 446.516 353.456H446.495ZM238.061 740.558C226.793 732.592 164.289 645.594 147.813 602.238C147.148 600.545 149.72 599.666 150.671 601.059C163.796 621.265 179.015 656.169 227.694 721.095C232.456 726.412 236.667 732.198 240.262 738.365C240.855 739.672 239.533 741.587 238.061 740.558ZM310.676 647.88C309.917 649.146 308.882 650.223 307.647 651.032C306.413 651.841 305.012 652.36 303.549 652.55C302.085 652.74 300.598 652.597 299.198 652.131C297.798 651.665 296.521 650.889 295.464 649.86C249.022 595.422 220.306 576.923 207.488 561.076C204.401 557.26 207.123 549.537 212.925 551.744C240.39 562.14 282.024 603.36 301.709 626.931C318.392 603.046 335.29 579.381 353.303 556.446C365.406 540.977 396.887 502.573 409.97 489.79C423.938 475.822 437.978 483.988 422.609 502.43C413.649 513.404 353.796 579.324 310.676 647.88Z" fill="#4CBCC3"/>
<path d="M665.296 254.82C665.152 254.342 664.861 253.922 664.465 253.619C664.069 253.317 663.587 253.147 663.089 253.133C595.768 257.611 528.446 262.093 461.121 266.58C460.541 266.595 459.988 266.832 459.578 267.243C459.169 267.654 458.933 268.208 458.92 268.788C459.87 281.578 460.313 294.51 462.493 307.149C462.786 308.764 465.208 308.328 465.286 306.785C465.296 294.781 464.681 282.785 463.443 270.846C529.298 266.559 595.225 262.1 661.074 257.763C663.351 273.639 665.482 289.563 667.468 305.535C647.405 306.635 627.271 307.814 607.2 309.107C605.879 296.961 604.557 284.929 603.013 272.796C602.792 270.817 599.705 270.653 599.784 272.796C600.498 285 601.47 297.204 602.57 309.4C594.711 309.915 548.333 312.858 533.05 313.959C531.759 300.004 529.647 286.138 526.726 272.432C526.283 270.596 523.154 270.889 523.275 272.875C524.147 283.121 527.941 309.379 528.341 314.252C515.259 315.209 502.255 316.238 489.172 317.488C487.257 317.703 487.186 320.575 489.172 320.496C502.397 320.132 515.609 319.546 528.855 318.882C530.034 329.756 533.707 370.326 534.514 379.664C533.192 379.807 531.871 379.886 530.549 379.957C530.77 381.572 530.992 383.194 531.213 384.88L534.957 384.658C538.251 419.812 536.922 423.341 539.444 429.672C539.959 431.001 542.159 431.365 542.531 429.672C543.151 423.4 542.928 417.072 541.866 410.859C541.352 404.464 539.959 386.831 539.723 384.423C563.494 382.772 583.986 379.814 608.586 377.442C610.108 394.697 609.687 407.387 611.602 420.583C611.895 422.863 615.174 422.055 615.424 420.069C616.024 412.074 613.502 378.049 613.438 376.999C633.723 375.163 653.936 373.912 674.292 373.469C675.464 389.639 676.278 405.886 676.571 422.055C628.871 426.535 581.028 429.479 533.178 432.266C533.178 433.816 533.107 435.281 533.107 436.824C581.693 433.816 630.279 430.508 678.7 425.949C679.239 425.928 679.751 425.705 680.132 425.323C680.513 424.942 680.737 424.431 680.758 423.892C682.859 399.684 671.105 292.609 665.296 254.82ZM539.473 379.321C538.658 369.84 534.914 329.42 533.664 318.689C548.804 317.881 595.111 315.116 603.192 314.573C604.149 325.448 607.672 363.595 608.336 371.826C599.491 372.798 562.851 377.199 539.473 379.321ZM613.109 371.312C612.452 363.009 608.994 325.012 607.822 314.352C627.957 313.18 648.02 311.93 668.161 310.458C670.515 329.711 672.475 348.991 674.042 368.296C653.684 367.766 633.315 368.774 613.109 371.312Z" fill="#004481"/>
<path d="M739.462 297.082C739.09 294.438 734.532 295.024 734.753 297.747C747.214 450.235 744.563 465.29 749.45 533.153C683.395 538.74 530.184 546.443 518.667 547.264C518.133 549.134 517.497 550.974 516.759 552.773C536.972 551.894 736.661 539.841 752.315 538.44C753.051 538.424 753.752 538.124 754.273 537.604C754.793 537.083 755.093 536.382 755.109 535.647C750.022 463.368 746.799 350.884 739.462 297.082Z" fill="#004481"/>
</svg>
