<svg viewBox="0 0 100 100" height="100" width="100" xmlns="http://www.w3.org/2000/svg"><path d="M10.000 50.084 A40.000 40.000 0 1 0 90.000 50.084 A40.000 40.000 0 1 0 10.000 50.084 Z" fill="#d9edff"/><path d="M26.854 78.295 A24.927 2.649 0 1 0 76.708 78.295 A24.927 2.649 0 1 0 26.854 78.295 Z" fill="#4cbcc3"/><path d="M35.585 38.766L29.285 26.691 22.985 38.766" fill="none" stroke="#004481" stroke-linecap="round" stroke-linejoin="round"/><path d="M36.485,38.766a1.051,1.051,0,0,1,1.009,1.342c-.82,2.835-4.184,4.958-8.209,4.958s-7.389-2.123-8.209-4.958a1.05,1.05,0,0,1,1.009-1.342Z" fill="#4cbcc3"/><path d="M36.485,38.766a1.051,1.051,0,0,1,1.009,1.342c-.82,2.835-4.184,4.958-8.209,4.958s-7.389-2.123-8.209-4.958a1.05,1.05,0,0,1,1.009-1.342Z" fill="none" stroke="#004481" stroke-linecap="round" stroke-linejoin="round"/><path d="M62.885 38.766L69.185 26.691 75.485 38.766" fill="none" stroke="#004481" stroke-linecap="round" stroke-linejoin="round"/><path d="M61.985,38.766a1.051,1.051,0,0,0-1.009,1.342c.82,2.835,4.184,4.958,8.209,4.958s7.389-2.123,8.209-4.958a1.05,1.05,0,0,0-1.009-1.342Z" fill="#4cbcc3"/><path d="M61.985,38.766a1.051,1.051,0,0,0-1.009,1.342c.82,2.835,4.184,4.958,8.209,4.958s7.389-2.123,8.209-4.958a1.05,1.05,0,0,0-1.009-1.342Z" fill="none" stroke="#004481" stroke-linecap="round" stroke-linejoin="round"/><path d="M50.076,10.338a1.049,1.049,0,0,0-1.682,0A8.963,8.963,0,0,0,46.61,15.7v2.062h5.25V15.7A8.963,8.963,0,0,0,50.076,10.338Z" fill="#ffffff"/><path d="M50.076,10.338a1.049,1.049,0,0,0-1.682,0A8.963,8.963,0,0,0,46.61,15.7v2.062h5.25V15.7A8.963,8.963,0,0,0,50.076,10.338Z" fill="none" stroke="#004481" stroke-linecap="round" stroke-linejoin="round"/><path d="M52.385 52.416L50.81 19.866 47.66 19.866 46.085 52.416 52.385 52.416z" fill="#ffffff"/><path d="M52.385 52.416L50.81 19.866 47.66 19.866 46.085 52.416 52.385 52.416z" fill="none" stroke="#004481" stroke-linecap="round" stroke-linejoin="round"/><path d="M62.125,57.2l-1.519-3.039a3.152,3.152,0,0,0-2.818-1.742H40.682a3.152,3.152,0,0,0-2.818,1.742L36.345,57.2a1.05,1.05,0,0,0,.939,1.519h23.9a1.05,1.05,0,0,0,.939-1.519Z" fill="#ffffff"/><path d="M62.125,57.2l-1.519-3.039a3.152,3.152,0,0,0-2.818-1.742H40.682a3.152,3.152,0,0,0-2.818,1.742L36.345,57.2a1.05,1.05,0,0,0,.939,1.519h23.9a1.05,1.05,0,0,0,.939-1.519Z" fill="none" stroke="#004481" stroke-linecap="round" stroke-linejoin="round"/><path d="M73.17,22.9a1.4,1.4,0,0,0-1.859.223l-.143.166a2.932,2.932,0,0,1-.3.3,3.075,3.075,0,0,1-.416.307,2.7,2.7,0,0,1-.947.351,5,5,0,0,1-2.4-.431,60.4,60.4,0,0,1-5.521-2.8c-2.91-1.558-7.093-4.3-12.343-4.3s-9.435,2.739-12.343,4.3a60.4,60.4,0,0,1-5.521,2.805,5,5,0,0,1-2.4.431,2.7,2.7,0,0,1-.947-.351,3.075,3.075,0,0,1-.416-.307,2.932,2.932,0,0,1-.3-.3l-.143-.166a1.4,1.4,0,0,0-2.191,1.722,4.809,4.809,0,0,0,.77.861,5.142,5.142,0,0,0,2.9,1.266,7.34,7.34,0,0,0,3.728-.844,60.6,60.6,0,0,0,5.554-3.348c5.942-3.774,9.212-3.963,11.312-3.963S54.6,19,60.547,22.779A60.6,60.6,0,0,0,66.1,26.127a7.34,7.34,0,0,0,3.728.844,5.142,5.142,0,0,0,2.9-1.266,4.847,4.847,0,0,0,.77-.861A1.4,1.4,0,0,0,73.17,22.9Z" fill="#ffffff"/><path d="M73.17,22.9a1.4,1.4,0,0,0-1.859.223l-.143.166a2.932,2.932,0,0,1-.3.3,3.075,3.075,0,0,1-.416.307,2.7,2.7,0,0,1-.947.351,5,5,0,0,1-2.4-.431,60.4,60.4,0,0,1-5.521-2.8c-2.91-1.558-7.093-4.3-12.343-4.3s-9.435,2.739-12.343,4.3a60.4,60.4,0,0,1-5.521,2.805,5,5,0,0,1-2.4.431,2.7,2.7,0,0,1-.947-.351,3.075,3.075,0,0,1-.416-.307,2.932,2.932,0,0,1-.3-.3l-.143-.166a1.4,1.4,0,0,0-2.191,1.722,4.809,4.809,0,0,0,.77.861,5.142,5.142,0,0,0,2.9,1.266,7.34,7.34,0,0,0,3.728-.844,60.6,60.6,0,0,0,5.554-3.348c5.942-3.774,9.212-3.963,11.312-3.963S54.6,19,60.547,22.779A60.6,60.6,0,0,0,66.1,26.127a7.34,7.34,0,0,0,3.728.844,5.142,5.142,0,0,0,2.9-1.266,4.847,4.847,0,0,0,.77-.861A1.4,1.4,0,0,0,73.17,22.9Z" fill="none" stroke="#004481" stroke-linecap="round" stroke-linejoin="round"/><path d="M46.085 17.766 A3.150 3.150 0 1 0 52.385 17.766 A3.150 3.150 0 1 0 46.085 17.766 Z" fill="#4cbcc3" stroke="#004481" stroke-linecap="round" stroke-linejoin="round"/><path d="M24.472,68.272a7.063,7.063,0,0,1,7.063-7.063H76.819a1.247,1.247,0,1,0,0-2.493H31.535a9.556,9.556,0,1,0,0,19.111H76.819a1.246,1.246,0,1,0,0-2.492H31.535A7.063,7.063,0,0,1,24.472,68.272Z" fill="#4cbcc3"/><path d="M24.472,68.272a7.063,7.063,0,0,1,7.063-7.063H76.819a1.247,1.247,0,1,0,0-2.493H31.535a9.556,9.556,0,1,0,0,19.111H76.819a1.246,1.246,0,1,0,0-2.492H31.535A7.063,7.063,0,0,1,24.472,68.272Z" fill="none" stroke="#004481" stroke-linecap="round" stroke-linejoin="round"/><path d="M76.819,61.209a7.063,7.063,0,0,0,0,14.126H31.535a7.063,7.063,0,0,1,0-14.126Z" fill="#ffffff"/><path d="M76.819,61.209a7.063,7.063,0,0,0,0,14.126H31.535a7.063,7.063,0,0,1,0-14.126Z" fill="none" stroke="#004481" stroke-linecap="round" stroke-linejoin="round"/><path d="M27.796 67.025L66.433 67.025" fill="none" stroke="#004481" stroke-linecap="round" stroke-linejoin="round"/><path d="M29.873 64.117L68.51 64.117" fill="none" stroke="#004481" stroke-linecap="round" stroke-linejoin="round"/><path d="M27.796 69.518L66.433 69.518" fill="none" stroke="#004481" stroke-linecap="round" stroke-linejoin="round"/><path d="M29.873 72.426L68.51 72.426" fill="none" stroke="#004481" stroke-linecap="round" stroke-linejoin="round"/></svg>