<svg id="SvgjsSvg1025" width="288" height="288" xmlns="http://www.w3.org/2000/svg" version="1.1" xmlns:xlink="http://www.w3.org/1999/xlink" xmlns:svgjs="http://svgjs.com/svgjs"><defs id="SvgjsDefs1026"></defs><g id="SvgjsG1027"><svg xmlns="http://www.w3.org/2000/svg" enable-background="new 0 0 88.5 46.3" viewBox="0 0 88.5 46.3" width="288" height="288"><path fill="#addfdf" d="M37.5 21.5c0 .8.3 1 1.6 1 1.2 0 1.8-.4 2.5-2h.3l-.3 2.5h-7.5v-.3c1.1-.3 1.2-.5 1.2-1.6v-6.3c0-.9-.2-1.1-1.2-1.4v-.3h4.7v.3c-1 .3-1.3.4-1.3 1.3V21.5zM45 21.7c0 .6.3 1 1 1.1v.3h-4v-.3c.9-.2 1.1-.4 1.1-1.2v-3.4c0-.8-.2-1-1.2-1.2v-.3l2.8-.2H45V21.7zM44.1 12.6c.6 0 1.1.5 1.1 1.1 0 .6-.5 1.1-1.1 1.1-.6 0-1.1-.5-1.1-1.1C43 13.1 43.5 12.6 44.1 12.6M50.8 17.4c1 .1 1.7 1.2 1.7 2.6 0 1.7-.7 2.6-1.7 2.8v.5c2.7-.2 3.8-1.7 3.8-3.5 0-1.8-1.3-3.3-3-3.3-.3 0-.5 0-.8.1V17.4z" class="color003b74 svgShape"></path><path fill="#addfdf" d="M49.2 18.1c.7-.6 1-.8 1.5-.8.1 0 .1 0 .2 0v-.8c-.6.1-1.1.5-1.7 1v-5.1h-.3l-2.6.2v.3c.6.1.9.4.9.9v9.1c1 .2 1.9.3 3.1.3h.5v-.5c-.2.1-.4.1-.7.1-.8 0-1-.3-1-1.1V18.1zM58.8 17c.8 0 1.3.9 1.3 2h-1.3v.4h3.4c-.3-1.7-1.5-2.9-3.3-2.9h-.1V17zM58.8 23.3v-1c.3.1.6.2.9.2.9 0 1.6-.4 2.2-1.4h.3C61.6 22.5 60.3 23.3 58.8 23.3L58.8 23.3zM57.4 19c.1-1.2.6-2 1.3-2h0v-.5c-2 .1-3.4 1.5-3.4 3.5 0 1.9 1.4 3.3 3.4 3.4v-1c-.8-.4-1.4-1.4-1.4-2.9h1.4V19H57.4zM44 33.3c.7 0 1.3.8 1.3 2H44v.4h3.3c-.2-1.7-1.5-2.8-3.3-2.8H44V33.3zM44 39.5v-1c.3.1.5.2.8.2.9 0 1.6-.4 2.2-1.3h.3C46.8 38.7 45.5 39.5 44 39.5L44 39.5zM42.6 35.2c.1-1.2.6-2 1.3-2h0v-.4c-1.9 0-3.4 1.5-3.4 3.4 0 1.9 1.4 3.3 3.4 3.3v-1c-.8-.4-1.4-1.4-1.4-2.9H44v-.4H42.6zM68.2 19c-.6-.5-1-.8-1.4-.8-.6 0-.9.2-1.4.9v2.6c0 .8.1 1 1.1 1.2v.3h-4v-.3c.8-.2 1-.5 1-1.2v-3.3c0-.8-.3-1.2-1.2-1.2v-.3l2.8-.3h.3v2h0c.6-1.4 1.3-2 2.1-2 .4 0 .8.2 1.1.5L68.2 19zM70.1 35.2c-.6-.5-1-.8-1.4-.8-.6 0-.9.2-1.4.9v2.6c0 .8.1 1 1.1 1.2v.3h-4V39c.8-.2 1-.4 1-1.2v-3.3c0-.8-.3-1.2-1.2-1.2V33l2.8-.3h.3v2h0c.6-1.4 1.3-2 2.1-2 .4 0 .8.2 1.1.5L70.1 35.2zM78.9 16.7V17c.8.2 1 .7.4 2l-.9 2-1.3-2.8c-.4-.8-.4-1.2.3-1.3v-.3h-3.7-.1-1.8v-2.4h-.3c-.9 1.1-1.9 2.1-2.7 2.6v.3h1.1v4.1c0 1.4 1 2 2.2 2 .9 0 1.6-.3 2-1.1L73.9 22c-.3.4-.6.5-.9.5-.9 0-1.2-.6-1.2-1.6v-3.7h1.7c.9 0 1.2.3 1.6 1.2l2.3 4.9c-.8 2.1-1.4 2.9-2.6 2.9-.3 0-.5 0-.9-.1L73.6 28c.2 0 .4 0 .5 0 1.3 0 2-.6 2.7-2.1l3.2-7.3c.5-1.2.7-1.4 1.5-1.6v-.3H78.9zM30.9 17.8c-.1-.1-.3 0-.3 0l-3.7 1.4c-.3-.7-.6-1.4-1-2l1.2-3.3c0 0 .1-.3 0-.4-.1-.1-.4.1-.4.1l-2.2 1.8c-.9-.9-1.8-1.7-3-2.2-.4-.2-.9-.3-1.3-.5l-.7-2.6c0 0-.1-.3-.2-.3-.2 0-.2.2-.2.2l-.4 2.3c-.5-.1-1-.1-1.5-.1-1.6 0-3.1.3-4.4.9-.5.2-1 .5-1.5.9-.1.1-.2.1-.2.2-.5-1.2-.8-2.1-.9-2.4.3-.2.8-1 .9-1.6.2-.8.1-1.2-.1-1.8-.1-.4-.4-.8-.4-1.1 0-.2.1-.3.2-.4-.1-.3-.3-.4-.5-.4-.2 0-.4 0-.5 0C9.6 6.4 9.6 6.5 9.6 6.1c.1-.4 1-.7 1.7-.9.9-.4 1.4-1 1.4-2 0-.8-.4-1.3-.9-1.6-.1.3-.5.7-.8.9-.3.2-.7.2-1 .1.1-.5-.2-1-.6-1.2C9.2 1.7 8.7 2 8 2 7.3 2 7.2 1.8 6.2 1.8 4.7 1.8 3.5 2.7 3.4 4 3.3 4.8 3.6 5.5 3.8 5.9 3.6 6 3.2 6.4 3.1 6.6 3 6.4 2.8 6.3 2.4 6.5c.1.2.1.4 0 .6C2.4 7.3 1.8 8.4 1.8 9.2c-.1 1.4.7 2.4 1.4 2.6C3 12.1 3 12.3 3.1 12.5c.1.1.2.3.5.3-.2.2-.2.5-.1.7.1.3.5.8.8.8 0 .3.1.9.2 1.1-.1.2-.2.3-.2.7 0 .4.3.7.6.8C4.9 17 4.9 17.2 5 17.3c.1.1.2.3.4.4C5.7 17.9 6 18 6.3 18c.3 0 .6 0 .7 0 0 .1 0 .9.1 1.8-.8 2.1-1.2 4.6-1.2 7.3 0 4.7 1.3 9 3.9 11.7 0 0 .1.2.6.5 0 0 .8-1.4 2-3 .3-.4.7-.8 1-1.2.6-.5 1.2-1 1.8-1.4 1.6-1.1 3.4-1.9 5.1-2.3-2 1-3.1 1.6-4.9 3.1-1.2 1-3 2.8-4.3 5.2.3.2.6.4 1.1.5.3-.3 1.6-2.8 3.7-4.9 4.3-4 9.3-4.9 11.9-4.9.1-1.1.2-2.2.2-3.4 0-1.9-.2-3.7-.6-5.4l3.1-3.5C30.7 18.2 31 17.9 30.9 17.8" class="color003b74 svgShape"></path><path fill="#ffffff" d="M7.5 16.2c-.2-.1-.7-.4-1.1-.3-.4 0-.8.1-1.1.3-.1-.1-.2-.3-.1-.5.1-.2.2-.2.2-.2l-.1-2c0 0 .6-.4.7-.4.1 0 .2-.2.2-.3.3.2.6.5.8.8.2.3.3.5.3.9 0 .3 0 .7-.1 1.1.1.1.3.2.3.4C7.6 16 7.5 16.1 7.5 16.2M25.7 22.4c0-.4-.5-1.4-.8-1.7l4.7-2.1L25.7 22.4zM12.7 14.6l4 3.7c-.4.2-1 .8-1.1 1.3L12.7 14.6zM15 21.8c-.1.2-.2.4-.2.6-.1.3 0 .4 0 .6l-1.2-.8c0-.3-.1-.8-.1-1 0 0 0-.1 0-.1L15 21.8z" class="colorfff svgShape"></path><path fill="#ffffff" d="M8.2 22.1c-.1-.1-.4-7.5-.4-7.8l.4-.3V14c-.3 0-.6-.1-.7-.3l-.1-2.3c-.4 0-.8-.2-1-.3-.2-.2-.3-.4-.1-.8.2.1.8.3 1.3.3.1 0 .3.2.5.3.1 0 .4.2.5.2.1 0 .2.3.2.4 0 .1 3.7 9.6 3.8 9.7 0 .1.3 1.7.3 1.8 0 .1.6 1.4.7 1.5-.5 0-1.3.3-1.9.9-.7.6-1.2 2-1.3 2.6C10.1 27.8 8.3 22.3 8.2 22.1M12.9 31.3c-.2 1.5-.5 2.7-1 3.6-.4.6-1.3 1.8-1.7 2.2.4-.7.7-2.5.6-3.9 0-.9-.3-2.9 0-4.2.3-1.4.7-2.2 1.6-3 .5-.4 1.4-1 2.9-.6l1.1 2.1c-.6-.1-1.4 0-1.9.4C13.4 28.7 13.1 29.7 12.9 31.3" class="colorfff svgShape"></path><path fill="#ffffff" d="M13 34.1c.3-.6.6-2.4.7-3 .1-.8.3-1.8 1.2-2.6.4-.4 1.2-.4 1.4-.3l1.3 2.6c.1.3.5.4.7.4C17.2 31.6 14.1 33 13 34.1M23.8 25.8c-.2.3-.1.6 0 .9.1.2.8 1.5.8 1.5.2.6.4.9.6 1.2h1.2c-.4-1-1.5-2.9-1.5-2.9l-.1-1.6C24.6 25.1 24.1 25.5 23.8 25.8M18.4 17.6c.5-.1 1.6 0 2 .2l-1.2-6.6L18.4 17.6z" class="colorfff svgShape"></path><path fill="#ffffff" d="M15.9 20.4c-.1.4-.1.9 0 1.2-.3.3-.4.5-.5.8 0 .2 0 .5.2.7 0-.3.2-.6.4-.9.2-.3.5-.3.8-.5l0 .5c-.3.1-.6.5-.6.6l0 .9.7-.4.1.3-.3 1.6.4-.1.7.3L17.2 26v.2c0 0 .1-.1.4-.1.2 0 .9.3.9.3l0 .1h-.3-.9c0 .2.1.3.2.4.2 0 .3-.1.4-.1.1 0 .3 0 .5.1l-.2.3c0 0-.1.1-.3 0-.1 0-.2.1-.2.3 0 .1.1.5.1.5.1.5.6.4.7.4.3 0 1.4-.4 1.4-.4l-1 1.5.5 1.6c.7-.3 2.8-1 5-1.4-.3-.4-.3-.6-.6-1.2l-1.2-2.6.2-.4c.3.1.6-.1.9-.3.3-.2.6-.6.7-.8-.2-.1-.3-.1-.4 0-.1.1-.2.3-.4.2-.2-.1-.1-.3-.1-.5 0-.2-.3-.2-.4 0-.2.1-.6.1-.8-.2-.3-.3-1.5-1.3-1.9-1.5-.6-.4-1.4-.5-2.1-.4-.4.1-.6.2-.8.2l-.4-.7.1 0c.2.1.3.2.5.1.2-.1.9-.2 1.4-.2.9 0 2 .3 2.5.5 0 .6 1.2 1.3 1.8 1.4.5.1.7-.1 1-.2l-1.2-1 .6-.8c0 0 1 .9 1.1 1.1 0-.1 0-.3 0-.4-.1-.3-.8-1.2-2.1-2.1-1-.8-2.4-1.5-3.6-1.5C16.9 18.3 16.1 19.6 15.9 20.4M8.7 11.5c0-.1-.1-.3-.2-.4-.1 0-.4-.2-.5-.2-.1-.1-.4-.3-.5-.3-.5 0-1.1-.2-1.3-.3-.2.4-.1.7.1.8.2.1.6.3 1 .3l.1 2.3C7.6 13.9 7.9 14 8.2 14v.1l-.4.3c0 .3.4 7.7.4 7.8.1.1 1.9 5.6 1.9 6 .1-.6.7-2 1.3-2.6.7-.7 1.4-.9 1.9-.9-.1-.1-.7-1.4-.7-1.5 0-.1-.2-1.7-.3-1.8C12.4 21.1 8.7 11.6 8.7 11.5" class="colorfff svgShape"></path><path fill="#ffffff" d="M6.4 9.7c1 0 1.5.4 1.8.7 0-.3 0-.7-.3-.9C7.5 9.2 7 9 6.3 9 5.8 9 5.3 9.2 5 9.4c-.3.2-.3.5-.3.9C4.8 10 5.5 9.7 6.4 9.7M4.5 4.3c0 .4.1.8.3 1 .1.1.4.4.5.4.3 0 .5-.5 1.1-.5.4 0 .7.6 1 .6.3 0 .4-.2.7-.3.2 0 .3.1.4.2.1-.2.2-.4.6-.6.4-.3 1.8-.6 2.4-1.1.3-.3.4-.8.3-1.1-.2.3-.8.7-1.4.7-.3 0-1-.1-1.3-.3C9.1 3.1 9.2 2.9 9 2.6 8.9 2.8 8 2.9 7.7 2.9c-.3 0-1-.1-1.5-.1C5.1 2.8 4.6 3.6 4.5 4.3" class="colorfff svgShape"></path><path fill="#ffffff" d="M6.4 7.7c2.4 0 3.5 1.2 3.5 2.1C10.1 9.5 10.1 9.3 10 9 10 8.7 9.7 8 9.6 7.8c0-.2.1-.4.1-.6C9.6 7.2 9 7.4 8.8 7.3 8.6 7.1 8.8 6.6 8.4 6.5 8.1 6.3 7.6 6.7 7.3 6.7 7 6.6 6.7 6.2 6.4 6.2 6 6.2 5.9 6.6 5.4 6.7 5.1 6.8 4.7 6.6 4.6 6.6c-.2 0-.3.2-.4.4C4 7.2 4 7.2 3.7 7.3c-.2 0-.5-.1-.6-.1C3.2 7.3 3.3 7.7 3.2 8 3 8.3 2.8 8.6 2.8 9c0 .4.1.5.2.8C2.9 8.5 4.3 7.7 6.4 7.7M4.9 12.3c-.2 0-.5.3-.7.6 0 .2.3.6.4.7 0-.2.3-.5.4-.6.1-.1.3-.2.4-.3.1-.1.2-.1.2-.3 0-.1 0-.2-.1-.3.1 0 .4 0 .4-.1C6 12 6.1 11.9 6.1 11.7c0-.1-.1-.1-.2-.2-.1 0-.5 0-.7 0 0 0 .3-.1.4-.2.1 0 .1-.1.1-.2 0-.1 0-.3 0-.5-.4 0-1.3.4-1.5.6l.2.4H4c-.1.2 0 .5.1.7C4.4 12.3 4.7 12.3 4.9 12.3" class="colorfff svgShape"></path><path fill="#addfdf" d="M16.4 21.3c.2-.2.7-.6 1-.7L17 19.6C16.8 19.9 16.2 20.6 16.4 21.3M17.9 20.4c.5-.1 1.7-.1 2.1.1l.2-1.2c-.4-.2-.9-.3-1.4-.3-.5 0-1 .1-1.3.3L17.9 20.4zM22.4 21.6l.6-.8c-.2-.2-1.6-1-1.9-1.2l-.4 1.1C20.9 20.8 21.9 21.2 22.4 21.6M17.6 23.5c.2.1.5.3.6.5l.4-.1-.2-.3c0 0 .2-.1.5-.1.3 0 .6 0 .8.2l.8-.2.1-.2c-.5-.4-1.3-.8-2-.7-.5.1-1 .4-1 .4V23.5z" class="color003b74 svgShape"></path><path fill="#ffffff" d="M22.2,18.6c0.4,0.2,1.4,1,1.6,1.2l2.4-5.2L22.2,18.6z" class="colorfff svgShape"></path><path fill="none" stroke="#addfdf" stroke-miterlimit="3.864" stroke-width=".42" d="M77.7,26.4h8 M34.2,26.4h38.4" class="colorStroke003b74 svgStroke"></path><path fill="#addfdf" d="M36.7 39.4c-.6 0-1.5-.2-2-.3-.1.1-.2.2-.3.3-.2 0-.4 0-.4 0v-2.8h.4c.3 1 1.1 2.2 2.4 2.2 1.1 0 1.8-.4 1.8-1.2 0-1.2-1.3-1.9-2.2-2.3-1.1-.5-2.2-1.4-2.3-3 0-1.7 1.3-3 3.4-2.8.5.1.8.2 1.5.2.2 0 .3-.2.3-.2h.4v2.5c0 0-.2 0-.4 0-.3-.8-.9-1.9-2-1.9-1 0-1.7.5-1.7 1.3 0 .7 1 1.5 1.8 1.9l1 .6c.9.7 1.7 1.1 1.7 2.9C40.1 38.5 38.9 39.4 36.7 39.4M80.9 39.4c-.9 0-.8-.2-1.5-.2-.2 0-.3.1-.4.2h-.4V37h.4c.2.7.8 1.7 1.7 1.9.9.1 1.4-.2 1.4-.8 0-.8-1-1.1-1.7-1.4-.8-.4-1.8-.7-1.8-2 0-1.2 1-1.9 2.6-1.7.4 0 .6.1 1.1.1.2 0 .2-.1.2-.1H83l0 1.9h-.3c-.2-.5-.6-1.4-1.6-1.5-.8 0-1.1.2-1.1.8 0 .4.5.7 1.4 1 1.2.4 2.2 1 1.9 2.6C83.2 38.7 82.6 39.4 80.9 39.4M62.9 37.6c0 1.4 1 1.2 1 1.2l0 .4c0 0-1.6 0-2.9.2 0-.3 0-.9 0-1.1 0-.1 0-.1-.1-.1-.2.3-.7 1.3-2.4 1.2-1.3 0-1.9-.7-1.9-2 0 0 0-1.1 0-2.7 0-1.4-1-1.2-1-1.2v-.4c0 0 1.2-.1 1.8-.1.6 0 1-.1 1.1-.1 0 .6 0 1 0 1.6V37c0 .8.2 1.4 1.2 1.4.4 0 .7-.3.8-.4.1-.1.4-.5.4-.7v-3c0-.9-.9-.9-.9-.9l0-.4c0 0 2 0 2.7-.2C62.9 33.6 62.9 37.6 62.9 37.6M74.5 33.4c1.2.1 1.6 1.5 1.6 3.1C75.9 38 75.5 39 74.3 39v.5c2 0 3.8-1.1 3.8-3.3 0-2.2-1.8-3.3-3.7-3.3h-.1v.6H74.5zM74.3 39L74.3 39c-1.3-.1-1.8-1.4-1.7-3.2.1-1.7.8-2.4 1.7-2.4v-.6c-1.9 0-3.8 1.3-3.8 3.4 0 2.1 1.7 3.2 3.7 3.2h0V39zM52.5 39c-.3 0-.8 0-1.3-.1v1.6c.2 0 .4 0 .5 0 1.4.2 2.4.9 2.3 1.5-.1.6-1.3 1-2.6.8-.1 0-.1 0-.2 0V44h0c.9 0 2.4-.3 3.1-.9.5-.5.8-1 .8-1.5V41C55 40 53.9 39.2 52.5 39M51.2 37.8c2.3 0 3.2-1.2 3.2-2.4-.1-1-.6-1.1-.7-1.3h1.4V33c0 0-2.2 0-2.6 0-.4-.1-.9-.2-1.3-.2v.6c.7 0 1.3.7 1.3 2 0 1.3-.6 1.8-1.2 1.8 0 0-.1 0-.1 0V37.8z" class="color003b74 svgShape"></path><path fill="#addfdf" d="M51.2,38.9c-0.8,0-1.6-0.2-1.6-0.6c-0.1-0.4,1-0.6,1.2-0.6c0.1,0,0.3,0,0.4,0v-0.6c-0.8-0.1-1.3-0.9-1.3-2.1
		c0-1.2,0.7-1.7,1.3-1.7h0v-0.6h-0.1C49,32.8,48,34,48,35.4c0,1.4,1,1.8,1.8,2.1c0.1,0.1-0.1,0.1-0.3,0.2c-0.1,0-1.5,0.1-1.5,1.3
		c0,1.1,1,1.1,1.6,1.3c0.1,0,0.1,0.1-0.1,0.2c-0.2,0-0.8,0.2-1.1,0.4c-0.7,0.4-0.8,0.9-0.8,1.3c0,1,1.4,1.8,3.6,1.8v-1.1
		c-1.2-0.2-2.1-0.9-2.1-1.5c0.1-0.5,0.9-0.9,2.1-0.9V38.9z" class="color003b74 svgShape"></path></svg></g></svg>