<svg id="SvgjsSvg1047" width="288" height="288" xmlns="http://www.w3.org/2000/svg" version="1.1" xmlns:xlink="http://www.w3.org/1999/xlink" xmlns:svgjs="http://svgjs.com/svgjs"><defs id="SvgjsDefs1048"></defs><g id="SvgjsG1049"><svg xmlns="http://www.w3.org/2000/svg" xmlns:svgjs="http://svgjs.com/svgjs" xmlns:xlink="http://www.w3.org/1999/xlink" width="288" height="288"><svg xmlns="http://www.w3.org/2000/svg" width="288" height="288" viewBox="0 0 192.689 23.374"><path fill="#addfdf" d="M43.14,11.687,37.434.005H28.807V23.369h8.628V11.687L43.14,23.369l5.7-11.682V23.369h8.628V0H48.844ZM66.952.005,60.241,23.369h8.628l1.1-3.834h9.207l1.1,3.834h8.628L82.2.005Zm4.119,15.7,3.5-12.2,3.5,12.2ZM107.8.015H91.656V23.368h8.625V13.638H107.8a6.811,6.811,0,0,0,0-13.622m-5.5,9.666h-1.871V2.69H102.3c1.944,0,3.834,1.042,3.834,3.159A3.8,3.8,0,0,1,102.3,9.681m15.3,13.687h8.626V13.616h14.309V9.78H126.23V3.839h14.309V.005H117.6Zm75.085-19.53V.005H169.751V23.369h22.938V19.534H178.378V13.616h14.311V9.78H178.378V3.839ZM166.513,5.851A5.84,5.84,0,0,0,160.674.012H143.559V23.368h8.771V13.7H154.2a3.835,3.835,0,0,1,3.834,3.832c0,.063,0,.126-.005.189v5.65h8.485V17.529c0-.064,0-.127,0-.192a5.844,5.844,0,0,0-5.839-5.647,5.839,5.839,0,0,0,5.839-5.839M154.2,9.685H152.33V2.7H154.2c1.9,0,3.834,1.038,3.834,3.156A3.834,3.834,0,0,1,154.2,9.685M11.687,0A11.687,11.687,0,0,0,0,11.687,11.874,11.874,0,0,0,.092,13.15a11.687,11.687,0,0,0,23.19,0l-1.123,0a10.574,10.574,0,0,1-20.943,0h0a10.575,10.575,0,1,1,20.945,0h1.123a11.528,11.528,0,0,0,.092-1.463A11.687,11.687,0,0,0,11.687,0m7.722,12.152a1.281,1.281,0,0,0-.022-.236A6.825,6.825,0,0,0,18.58,9.71a7.407,7.407,0,0,0-1.6-1.874,1.677,1.677,0,0,0-1.394-.3,2.121,2.121,0,0,0-1.128-1.21,8.123,8.123,0,0,0-5.526,0,1.5,1.5,0,0,0-.228.1A1.871,1.871,0,0,0,7.776,7.55,1.96,1.96,0,0,0,6.31,7.9a6.832,6.832,0,0,0-2.323,4.016,1.281,1.281,0,0,0-.022.236,1.757,1.757,0,0,0,.267,1h0a1.727,1.727,0,0,0,1.546.8l3.8-.01c.27.01.986.012,1.533.012v3.581h1.145V13.952c.549,0,1.263,0,1.533-.012l3.8.01a1.737,1.737,0,0,0,.952-.229,1.718,1.718,0,0,0,.6-.571h0a1.757,1.757,0,0,0,.267-1m-9.523.5a.291.291,0,0,1-.277.143l-3.868.01a.569.569,0,0,1-.34-.076.581.581,0,0,1-.289-.552,5.58,5.58,0,0,1,.675-1.892,5.664,5.664,0,0,1,1.261-1.5l.019-.015a.585.585,0,0,1,.884.224l1.926,3.356a.291.291,0,0,1,.01.306m1.8.156a.357.357,0,0,1-.323-.206L8.975,8.488a.726.726,0,0,1-.128-.41.718.718,0,0,1,.411-.649,6.871,6.871,0,0,1,2.429-.444,6.972,6.972,0,0,1,2.377.416l.027.012a.718.718,0,0,1,.3,1.079l-2.389,4.114a.36.36,0,0,1-.319.2m6.286-.08a.569.569,0,0,1-.34.077l-3.868-.01a.289.289,0,0,1-.267-.449l1.925-3.356a.589.589,0,0,1,.24-.263.58.58,0,0,1,.644.039l.019.015a5.619,5.619,0,0,1,1.936,3.4.581.581,0,0,1-.289.552" class="colorb1b8ba svgShape coloraddfdf"></path></svg></svg></g></svg>