<svg xmlns="http://www.w3.org/2000/svg" viewBox="0 0 100 100"><path d="M90.38 50.31a40 40 0 1 0-76.436 16.5h72.872a39.829 39.829 0 0 0 3.564-16.5z" fill="#d9edff"/><path d="M10.88 66.81h78m-82.5 0h2.5m82 0h2.5" stroke-linecap="round" stroke="#004481" stroke-linejoin="round" fill="none"/><path d="M21.382 57.849c0-8.474 7.643-19.954 16.045-24.067h8.751c8.4 4.113 16.046 15.593 16.046 24.067 0 10.356-9.146 15.316-20.422 15.316s-20.42-4.96-20.42-15.316z" fill="#ffffff"/><path d="M21.382 57.849c0-8.474 7.643-19.954 16.045-24.067h8.751c8.4 4.113 16.046 15.593 16.046 24.067 0 10.356-9.146 15.316-20.422 15.316s-20.42-4.96-20.42-15.316z" stroke-linecap="round" stroke="#004481" stroke-linejoin="round" fill="none"/><path d="M41.8 33.782s-1.851-2-3.822-4.04a181.228 181.228 0 0 0-4.133-4.165 1.459 1.459 0 0 1 1.227-2.488 47.094 47.094 0 0 0 6.728.483 47.084 47.084 0 0 0 6.728-.483 1.459 1.459 0 0 1 1.228 2.488 183.285 183.285 0 0 0-4.133 4.165c-1.968 2.042-3.823 4.04-3.823 4.04z" fill="#ffffff"/><path d="M41.8 33.782s-1.851-2-3.822-4.04a181.228 181.228 0 0 0-4.133-4.165 1.459 1.459 0 0 1 1.227-2.488 47.094 47.094 0 0 0 6.728.483 47.084 47.084 0 0 0 6.728-.483 1.459 1.459 0 0 1 1.228 2.488 183.285 183.285 0 0 0-4.133 4.165c-1.968 2.042-3.823 4.04-3.823 4.04z" stroke-linecap="round" stroke="#004481" stroke-linejoin="round" fill="none"/><path d="M41.8 67.33a1.683 1.683 0 0 1-1.681-1.68v-.909a5.117 5.117 0 0 1-3.423-4.8 1.68 1.68 0 0 1 3.359 0A1.745 1.745 0 1 0 41.8 58.2a5.091 5.091 0 0 1-1.679-9.9v-.907a1.676 1.676 0 0 1 1.679-1.687 1.683 1.683 0 0 1 1.683 1.678v.908a4.984 4.984 0 0 1 1.93 1.194 5.065 5.065 0 0 1 1.5 3.606 1.68 1.68 0 1 1-3.36 0 1.747 1.747 0 1 0-1.753 1.746 5.088 5.088 0 0 1 1.684 9.9v.908a1.678 1.678 0 0 1-1.68 1.68z" fill="#ffffff" stroke-linecap="round" stroke="#004481" stroke-linejoin="round"/><path d="M45.017 30.379a15.749 15.749 0 0 1 1.847-1.4c2.552-1.182 3.72-.626 4.216.468.511 1.093.159 2.333-2.393 3.5a13.211 13.211 0 0 1-5.076.831H41.8s2.661-2.817 3.217-3.399zM41.8 33.782c.584.511 4.682 4.3 4.347 8.782m-7.559-12.185a15.833 15.833 0 0 0-1.847-1.4c-2.552-1.182-3.72-.626-4.216.468s-.159 2.333 2.393 3.5a13.206 13.206 0 0 0 5.075.831H41.8s-2.657-2.817-3.212-3.399zm3.212 3.403c-.584.511-4.681 4.3-4.346 8.782" stroke-linecap="round" stroke="#004481" stroke-linejoin="round" fill="none"/><ellipse cx="75.396" cy="76.811" rx="8.752" ry="1.458" fill="#d9edff"/><ellipse cx="24.345" cy="76.811" rx="12.398" ry="2.188" fill="#d9edff"/><path d="M65.915 76.811c0 1.209-5.878 2.189-13.128 2.189s-13.127-.98-13.127-2.189 5.877-2.188 13.127-2.188 13.128.977 13.128 2.188z" fill="#d9edff"/><path d="M82.681 47.639a2.188 2.188 0 0 0-2.188-2.188H73.2a2.188 2.188 0 1 0 0 4.376h7.293a2.188 2.188 0 0 0 2.188-2.188z" fill="#ffffff"/><path d="M82.681 47.639a2.188 2.188 0 0 0-2.188-2.188H73.2a2.188 2.188 0 1 0 0 4.376h7.293a2.188 2.188 0 0 0 2.188-2.188z" stroke-linecap="round" stroke="#004481" stroke-linejoin="round" fill="none"/><path d="M85.813 15.866A1.662 1.662 0 0 0 83.1 15.3a15.744 15.744 0 0 1-8.714 4.109 1.666 1.666 0 0 0-1.4 2.268l1.269 3.223a1.663 1.663 0 0 0 1.789 1.034 24.487 24.487 0 0 0 9.8-4.03 2.918 2.918 0 0 0 1.009-3.452z" fill="#4cbcc3" stroke="#004481" stroke-linejoin="round"/><path d="M81.387 21.071a1.248 1.248 0 1 1-1.248-1.248 1.248 1.248 0 0 1 1.248 1.248z" fill="#ffffff"/><path d="M79.085 34.768a1.663 1.663 0 0 0 1.3 2.451 15.746 15.746 0 0 1 8.72 4.094 1.664 1.664 0 0 0 2.638-.368l1.67-3.028a1.661 1.661 0 0 0-.343-2.038 24.484 24.484 0 0 0-9.348-4.979 2.918 2.918 0 0 0-3.3 1.422z" fill="#4cbcc3" stroke="#004481" stroke-linejoin="round"/><path d="M85.918 34.861a1.248 1.248 0 1 1-.166 1.757 1.247 1.247 0 0 1 .166-1.757z" fill="#ffffff"/><path d="M14.331 53.744a2.894 2.894 0 0 0 1.49 3.694C42.16 69.126 63.572 45.694 70.068 37.612l2.947 2.588a.73.73 0 0 0 1.21-.516l.389-8.783a.728.728 0 0 0-.775-.76l-9.328.607a.729.729 0 0 0-.445 1.266l3.368 3.078C57.408 45.244 39.513 59.529 19.444 49.6a2.926 2.926 0 0 0-4.03 1.489z" fill="#4cbcc3" stroke-linecap="round" stroke="#004481" stroke-linejoin="round"/><path d="M21.052 41.072a2.434 2.434 0 0 1 1.823-1.822l3.656-.844a.3.3 0 0 0 0-.592l-3.656-.843a2.433 2.433 0 0 1-1.823-1.822l-.843-3.655a.3.3 0 0 0-.593 0l-.843 3.655a2.432 2.432 0 0 1-1.822 1.822l-3.655.843a.3.3 0 0 0 0 .592l3.655.844a2.432 2.432 0 0 1 1.822 1.822l.843 3.657a.3.3 0 0 0 .593 0z" fill="#ffffff" stroke-linecap="round" stroke="#004481" stroke-linejoin="round"/><path d="M79.763 52.015a2.188 2.188 0 0 0-2.188-2.188h-7.293a2.188 2.188 0 0 0 0 4.376h7.293a2.188 2.188 0 0 0 2.188-2.188z" fill="#ffffff"/><path d="M79.763 52.015a2.188 2.188 0 0 0-2.188-2.188h-7.293a2.188 2.188 0 0 0 0 4.376h7.293a2.188 2.188 0 0 0 2.188-2.188z" stroke-linecap="round" stroke="#004481" stroke-linejoin="round" fill="none"/><path d="M82.681 56.39a2.188 2.188 0 0 0-2.188-2.19H73.2a2.189 2.189 0 1 0 0 4.377h7.293a2.189 2.189 0 0 0 2.188-2.187z" fill="#ffffff"/><path d="M82.681 56.39a2.188 2.188 0 0 0-2.188-2.19H73.2a2.189 2.189 0 1 0 0 4.377h7.293a2.189 2.189 0 0 0 2.188-2.187z" stroke-linecap="round" stroke="#004481" stroke-linejoin="round" fill="none"/><path d="M79.763 60.767a2.188 2.188 0 0 0-2.188-2.188h-7.293a2.188 2.188 0 0 0 0 4.376h7.293a2.188 2.188 0 0 0 2.188-2.188z" fill="#ffffff"/><path d="M79.763 60.767a2.188 2.188 0 0 0-2.188-2.188h-7.293a2.188 2.188 0 0 0 0 4.376h7.293a2.188 2.188 0 0 0 2.188-2.188z" stroke-linecap="round" stroke="#004481" stroke-linejoin="round" fill="none"/><path d="M62.261 60.767a2.189 2.189 0 0 0-2.188-2.188H52.78a2.188 2.188 0 1 0 0 4.376h7.293a2.189 2.189 0 0 0 2.188-2.188z" fill="#ffffff"/><path d="M62.261 60.767a2.189 2.189 0 0 0-2.188-2.188H52.78a2.188 2.188 0 1 0 0 4.376h7.293a2.189 2.189 0 0 0 2.188-2.188z" stroke-linecap="round" stroke="#004481" stroke-linejoin="round" fill="none"/><path d="M63.718 65.142a2.188 2.188 0 0 0-2.187-2.188h-7.293a2.188 2.188 0 1 0 0 4.376h7.293a2.188 2.188 0 0 0 2.187-2.188z" fill="#ffffff"/><path d="M63.718 65.142a2.188 2.188 0 0 0-2.187-2.188h-7.293a2.188 2.188 0 1 0 0 4.376h7.293a2.188 2.188 0 0 0 2.187-2.188z" stroke-linecap="round" stroke="#004481" stroke-linejoin="round" fill="none"/><path d="M52.05 65.142a2.188 2.188 0 0 0-2.188-2.188h-7.293a2.188 2.188 0 1 0 0 4.376h7.293a2.188 2.188 0 0 0 2.188-2.188z" fill="#ffffff"/><path d="M52.05 65.142a2.188 2.188 0 0 0-2.188-2.188h-7.293a2.188 2.188 0 1 0 0 4.376h7.293a2.188 2.188 0 0 0 2.188-2.188z" stroke-linecap="round" stroke="#004481" stroke-linejoin="round" fill="none"/><path d="M54.968 69.518a2.189 2.189 0 0 0-2.188-2.188h-7.293a2.188 2.188 0 1 0 0 4.376h7.293a2.189 2.189 0 0 0 2.188-2.188z" fill="#ffffff"/><path d="M54.968 69.518a2.189 2.189 0 0 0-2.188-2.188h-7.293a2.188 2.188 0 1 0 0 4.376h7.293a2.189 2.189 0 0 0 2.188-2.188z" stroke-linecap="round" stroke="#004481" stroke-linejoin="round" fill="none"/><path d="M52.051 73.894a2.188 2.188 0 0 0-2.188-2.188H42.57a2.188 2.188 0 1 0 0 4.376h7.293a2.188 2.188 0 0 0 2.188-2.188z" fill="#ffffff"/><path d="M52.051 73.894a2.188 2.188 0 0 0-2.188-2.188H42.57a2.188 2.188 0 1 0 0 4.376h7.293a2.188 2.188 0 0 0 2.188-2.188z" stroke-linecap="round" stroke="#004481" stroke-linejoin="round" fill="none"/><path d="M66.636 69.518a2.188 2.188 0 0 0-2.188-2.188h-7.293a2.188 2.188 0 1 0 0 4.376h7.293a2.188 2.188 0 0 0 2.188-2.188z" fill="#ffffff"/><path d="M66.636 69.518a2.188 2.188 0 0 0-2.188-2.188h-7.293a2.188 2.188 0 1 0 0 4.376h7.293a2.188 2.188 0 0 0 2.188-2.188z" stroke-linecap="round" stroke="#004481" stroke-linejoin="round" fill="none"/><path d="M63.718 73.894a2.188 2.188 0 0 0-2.187-2.188h-7.293a2.188 2.188 0 1 0 0 4.376h7.293a2.188 2.188 0 0 0 2.187-2.188z" fill="#ffffff"/><path d="M63.718 73.894a2.188 2.188 0 0 0-2.187-2.188h-7.293a2.188 2.188 0 1 0 0 4.376h7.293a2.188 2.188 0 0 0 2.187-2.188z" stroke-linecap="round" stroke="#004481" stroke-linejoin="round" fill="none"/><path d="M82.681 65.142a2.188 2.188 0 0 0-2.188-2.188H73.2a2.188 2.188 0 1 0 0 4.376h7.293a2.188 2.188 0 0 0 2.188-2.188z" fill="#ffffff"/><path d="M82.681 65.142a2.188 2.188 0 0 0-2.188-2.188H73.2a2.188 2.188 0 1 0 0 4.376h7.293a2.188 2.188 0 0 0 2.188-2.188z" stroke-linecap="round" stroke="#004481" stroke-linejoin="round" fill="none"/><path d="M79.763 69.518a2.188 2.188 0 0 0-2.188-2.188h-7.293a2.188 2.188 0 1 0 0 4.376h7.293a2.188 2.188 0 0 0 2.188-2.188z" fill="#ffffff"/><path d="M79.763 69.518a2.188 2.188 0 0 0-2.188-2.188h-7.293a2.188 2.188 0 1 0 0 4.376h7.293a2.188 2.188 0 0 0 2.188-2.188z" stroke-linecap="round" stroke="#004481" stroke-linejoin="round" fill="none"/><path d="M81.222 73.894a2.188 2.188 0 0 0-2.188-2.188h-7.293a2.188 2.188 0 1 0 0 4.376h7.293a2.188 2.188 0 0 0 2.188-2.188z" fill="#ffffff"/><path d="M81.222 73.894a2.188 2.188 0 0 0-2.188-2.188h-7.293a2.188 2.188 0 1 0 0 4.376h7.293a2.188 2.188 0 0 0 2.188-2.188z" stroke-linecap="round" stroke="#004481" stroke-linejoin="round" fill="none"/><path d="M33.088 69.518A2.188 2.188 0 0 0 30.9 67.33h-7.292a2.188 2.188 0 1 0 0 4.376H30.9a2.188 2.188 0 0 0 2.188-2.188z" fill="#ffffff"/><path d="M33.088 69.518A2.188 2.188 0 0 0 30.9 67.33h-7.292a2.188 2.188 0 1 0 0 4.376H30.9a2.188 2.188 0 0 0 2.188-2.188z" stroke-linecap="round" stroke="#004481" stroke-linejoin="round" fill="none"/><path d="M36.005 73.894a2.188 2.188 0 0 0-2.188-2.188h-7.293a2.188 2.188 0 1 0 0 4.376h7.293a2.188 2.188 0 0 0 2.188-2.188z" fill="#ffffff"/><path d="M36.005 73.894a2.188 2.188 0 0 0-2.188-2.188h-7.293a2.188 2.188 0 1 0 0 4.376h7.293a2.188 2.188 0 0 0 2.188-2.188z" stroke-linecap="round" stroke="#004481" stroke-linejoin="round" fill="none"/><path d="M24.337 73.894a2.189 2.189 0 0 0-2.188-2.188h-7.293a2.188 2.188 0 1 0 0 4.376h7.293a2.189 2.189 0 0 0 2.188-2.188z" fill="#ffffff"/><path d="M24.337 73.894a2.189 2.189 0 0 0-2.188-2.188h-7.293a2.188 2.188 0 1 0 0 4.376h7.293a2.189 2.189 0 0 0 2.188-2.188z" stroke-linecap="round" stroke="#004481" stroke-linejoin="round" fill="none"/><path d="m63.621 25.109 3.236-1.079a.3.3 0 0 0 0-.576l-2.66-.887a1.216 1.216 0 0 1-.769-.769l-.887-2.66a.3.3 0 0 0-.576 0l-.887 2.66a1.216 1.216 0 0 1-.769.769l-2.662.887a.3.3 0 0 0 0 .576l2.662.887a1.216 1.216 0 0 1 .769.769l.887 2.662a.3.3 0 0 0 .576 0z" fill="#ffffff" stroke-linecap="round" stroke="#004481" stroke-linejoin="round"/></svg>