<svg viewBox="0 0 200 200" height="200" width="200" xmlns="http://www.w3.org/2000/svg"><path d="M57.315,148.473c-1.97,2.008-4.072,3.882-6.23,5.685-2.13,1.78-4.18,3.7-6.434,5.327-.526.38-1.074-.435-.663-.865,1.937-2.03,4.159-3.8,6.225-5.691A80.914,80.914,0,0,1,56.65,147.6C57.169,147.219,57.735,148.044,57.315,148.473ZM39.155,120.2c-14.036,5.11-17.83,4.716-24.437,6.481a.532.532,0,0,0,.166,1.036c4.229.117,8.632-.967,12.7-2.021a69.448,69.448,0,0,0,12.087-4.355C40.316,121.033,39.824,119.951,39.155,120.2Zm3.6-26.739c-5.905-3.5-15.176-6.934-17.7-7.975-.519-.214-.934.65-.425.9C27.085,87.6,35.89,92.358,42.287,94.46A.562.562,0,0,0,42.759,93.456Zm20.686,8.49c.2-.776-.915-1.1-1.286-.451a18.834,18.834,0,0,0-2.035,8.474c-.113,2.779.057,6.036,1.489,8.493.3.511,1.215.211,1.083-.352a27.965,27.965,0,0,1-.8-8.1A37.7,37.7,0,0,1,63.445,101.946Zm4.306-10.492a12.133,12.133,0,0,0-3.857,5.971.714.714,0,0,0,1.332.5,26.991,26.991,0,0,1,3.221-5.43C69.075,91.734,68.287,91.1,67.751,91.454Zm-1.043,46.1A34.238,34.238,0,0,1,54.5,110.587,35.077,35.077,0,0,1,68.234,83.812a.605.605,0,0,0-.7-.984,35.357,35.357,0,0,0-14.768,29.108c.168,13,6.637,22.6,16.779,29.887,5.572,4,11.924,8.228,13.346,15.44.126.637,1.1.593,1.031-.085C83.009,147.742,73.16,142.962,66.708,137.554Zm79.739-37.26c-.285-.576-1.291-.138-1.044.465a28.04,28.04,0,0,1-.434,22.416c-4,8.476-11.449,11.615-17.146,18.225-2.87,3.329-5.242,7.536-4.825,12.075a.541.541,0,0,0,1.082-.017c.277-5.415,3.213-9.444,6.847-12.976,5.738-5.578,11.911-9,15.479-16.667A27.389,27.389,0,0,0,146.447,100.294Zm5.656,49.3a75.205,75.205,0,0,0-8.793-4.805c-.618-.248-.877.618-.448.972a75.589,75.589,0,0,0,8.441,5.417c2.871,1.722,5.731,3.462,8.729,4.958a.69.69,0,0,0,.735-1.167C157.978,153.022,155.034,151.318,152.1,149.6Zm31.255-35a93.38,93.38,0,0,0-10.339-.45c-3.493-.056-6.985-.087-10.477.007-.6.017-.659,1.035-.043,1.079,3.44.246,6.887.371,10.335.468a94.657,94.657,0,0,0,10.479.014A.567.567,0,0,0,183.358,114.6ZM165.151,86.551a55.478,55.478,0,0,0,8.484-3.128,43.29,43.29,0,0,0,7.873-4.469c.618-.474-.089-1.385-.745-1.082-2.684,1.242-5.228,2.778-7.9,4.047-2.562,1.216-5.453,2.629-8.049,3.7A.5.5,0,0,0,165.151,86.551ZM125.8,58.966c-7.778-5.859-14.21-8.207-23.77-10.258-.551-.118-.388-.976.152-.956a35.132,35.132,0,0,1,10.488,2.2c-2.375-5.342-6.92-9.223-10.778-10.168-4.338,1.782-10.585,6.974-12.474,9.249,2.412,7.075-4.805,12.941-13.338,9.527a48.34,48.34,0,0,0-13.795,8.6C65.91,68.8,69.694,75.2,70.86,80.6c5.148-1.92,11.12-3.982,16.738-3.413s22.968,9.243,30.647,10.95C114.489,82.187,117.259,68.058,125.8,58.966Z" fill="#4cbcc3"/><path d="M81.105,159.583c5.973,8.631,2.818,21.535,9.665,29.862,7.856,9.554,24.038,5.689,28.655-3.318s1.546-15.264,5.859-29.956C111.68,164.226,90.158,162.709,81.105,159.583Zm35.636,21.549c-2.481,3.162-6.5,5.295-10.244,6.537a22.922,22.922,0,0,1-12.05.916.512.512,0,0,1,.136-1A29.132,29.132,0,0,0,106.065,186a29.745,29.745,0,0,0,10.016-5.723C116.6,179.853,117.082,180.7,116.741,181.132Zm1.59-8.29a19.5,19.5,0,0,1-10.82,6.969c-2.995.839-11.976,2.148-15.157,1.257-.512-.143-.457-.971.019-.967a65.608,65.608,0,0,0,14.339-1.87,23.9,23.9,0,0,0,10.716-6.1C117.88,171.671,118.721,172.309,118.331,172.842Zm.022-8.814c.471-.294,1.158.3.713.775-2.946,3.149-9.051,5.766-13.2,6.86a34.522,34.522,0,0,1-14.9.77c-.667-.117-.459-1.066.189-1.013a41.169,41.169,0,0,0,14.311-1.275C110.981,168.6,113.923,166.792,118.353,164.028Zm-1.847-62.516c-3.76-1.59-5.433-.183-6.436,3.439a93.721,93.721,0,0,0-3.285,20.934,46.337,46.337,0,0,1-12.311.513c-.825-3.7-3.617-15.55-5.7-18.508a3.567,3.567,0,0,0-5.389-.8c-2,1.5-5.306,7.511-6.459,10.009-1.637,3.546-.7,5.411,2.72,6.956A45.807,45.807,0,0,0,93.134,127.8c2.367,10.814,2.893,17.759,3.736,28.548a.5.5,0,0,0,.991-.025c.257-9.145-1.164-19.469-3.049-28.358a48.2,48.2,0,0,0,11.918-.471,93.379,93.379,0,0,0,2.934,26.075c.236.9,1.6.492,1.378-.4a96.916,96.916,0,0,1-2.781-25.938c5.042-1.006,14.043-4.034,17.431-8.233C130.6,112.907,123.566,104.5,116.506,101.512Zm-34.837,21.8c-3.9-1.591-5.161-2.146-2.961-6.4,1.172-2.265,3.415-6.469,5.155-8.187.962-.951,2.269-1.445,3.305-.323,1.836,1.986,4.935,14.828,5.618,17.8A44.507,44.507,0,0,1,81.669,123.309Zm42.868-5.373c-2.828,3.808-11.546,6.666-16.217,7.655.273-5.81,1.471-15.606,3.546-21.3.653-1.791,1.607-2.129,3.4-1.54,3.784,1.241,8.246,5.062,9.857,8.641A6.25,6.25,0,0,1,124.537,117.936ZM84.319,32c-1.9.707-2.169,2.868-1.724,4.677a2.2,2.2,0,0,0-1.811.653c-.887-1.8-2.938-3.366-4.919-2.242-1.669.948-1.745,3.464-1.28,5.1-.79.314-1.752.482-2.585.807a.473.473,0,0,0,.275.893c.826-.152,1.841-.459,2.684-.687.882,1.923,2.678,3.75,4.951,2.593s2.024-3.392,1.305-5.426a1.6,1.6,0,0,1,1.725-.623c.681,1.732,2.319,4.058,4.465,3.02s1.753-3.867,1.148-5.688S86.426,31.219,84.319,32ZM79.508,42.828c-3.193,1.685-5.515-5.257-3.161-6.8C78,34.94,79.6,37.06,80.118,38.414,80.7,39.924,81.23,41.919,79.508,42.828ZM86.99,39.82c-1.783.749-2.764-1.365-3.288-2.684-.545-1.371-.7-3.614.965-4.175,1.652-.555,2.652,1.5,3.04,2.753C88.111,37.016,88.381,39.235,86.99,39.82ZM78.224,41.6c-.83.7-1.784-1.216-.983-1.714C77.954,39.439,78.965,40.975,78.224,41.6Zm8.025-3.921a1.068,1.068,0,0,1-.263,1.072c-.42.276-.879-.2-1.005-.6-.153-.491-.125-1.026.2-1.239C85.687,36.571,86.138,37.261,86.249,37.675Zm-2.092,5c.268-.252.361-.437.123-.744a7.712,7.712,0,0,0-1.536-1.3c-.438-.308.038-1.032.5-.784a6.72,6.72,0,0,1,1.421,1.047c1.139,1.081.99,2.067-.271,2.955a3.192,3.192,0,0,1-1.748.669.511.511,0,0,1-.2-.909C82.848,43.278,83.585,43.21,84.157,42.671Zm-3.625,4.095a4.326,4.326,0,0,0,2.537-.529c.606-.336.913.429.478.767a5.351,5.351,0,0,1-3.073.773,5.032,5.032,0,0,1-2.958-.989c-.406-.339-.018-1.1.484-.831A5.161,5.161,0,0,0,80.532,46.766Zm-2.187,4.105c2.764.288,5.921.6,8.258-1.226,2.854-2.234,1.761-5.141.738-7.479-.277-.635.6-.887.848-.387,1.446,2.929,2.047,6.145-.756,8.482-2.592,2.161-6.068,1.975-9.212,1.526C77.7,51.713,77.828,50.817,78.345,50.871ZM104.5,38.323c2.566-1.84,5.254-3.548,6.772-6.426,1.659-3.142,1.784-6.8,1.883-10.281a4.5,4.5,0,0,1-4.916-3.953.478.478,0,0,1,.934-.208,3.526,3.526,0,0,0,3.663,3.063c1.068-.062,1.455.038,1.43.916-.261,9.238-1.449,12.988-9.211,17.7C104.58,39.422,104.052,38.646,104.5,38.323Zm9.533-31.591c-.38-.4.2-1.049.633-.723a8.869,8.869,0,0,1,2.693,3.6,8.809,8.809,0,0,1,.708,4.476.567.567,0,0,1-1.088-.075,11.571,11.571,0,0,0-.67-3.961A10.3,10.3,0,0,0,114.035,6.732Zm5.361,7.355a12.834,12.834,0,0,0,1.009-4.214,12.534,12.534,0,0,0-.617-4.293c-.153-.54.633-.811.91-.332a10.415,10.415,0,0,1,.838,4.667,10.165,10.165,0,0,1-1.143,4.621A.554.554,0,0,1,119.4,14.087Zm1.614,1.984a10.524,10.524,0,0,0,3.673-5.877.482.482,0,0,1,.949.168,10.827,10.827,0,0,1-3.881,6.588c.2,3.035.311,6.08.448,9.118.462,10.3-.155,14.121-9.031,21-.591.458-1.245-.5-.66-.951,10.919-8.485,8.541-12.007,8.2-29.261A1.1,1.1,0,0,1,121.01,16.071ZM68.226,49.939C63.2,56.054,60.3,62.07,60.675,70.156a.494.494,0,0,1-.98.12c-1.046-7.622,2.742-15.427,7.641-21.033C67.812,48.7,68.691,49.373,68.226,49.939Zm.5,30.42A42.6,42.6,0,0,1,57.265,83.99c-16.933,2.5-11.917-15.955-6.644-24.439a90.123,90.123,0,0,1,9.5-12.639,19.82,19.82,0,0,1-.357-12.736c.218-.678,1.294-.887,1.028.351a20.925,20.925,0,0,0,.27,11.741,1.538,1.538,0,0,1-.3,1.662A59.049,59.049,0,0,0,50.019,63.059C45.959,71.57,43.444,85.071,57.6,82.75c3.967-.65,6.964-2.1,10.669-3.225C68.749,79.378,69.226,80.081,68.723,80.359Zm89.4,15.7c.994,2.186,4.466,8.987,4.474,10.963.011,2.657-2.54,4.187-4.66,2.127-2.575-2.5-3.69-5.278-6.989-7.971-2.043-1.668-4.74-2.9-6.186-5.117a5.764,5.764,0,0,1-.6-5.489c.242-.6,1.243-.3,1.088.332a5.534,5.534,0,0,0,.737,4.6c1.151,1.587,4.061,3.092,5.759,4.483,3.415,2.8,4.33,4.912,6.935,7.847,1.284,1.446,2.534.847,2.539-.829.006-2.135-6.392-13.222-7.15-16.385-.157-.656.793-1.462,1.168-.45C156.058,92.369,157.246,94.115,158.127,96.054Zm27.511-54.745c-.3,3.376-3.8,16.774-4.606,19.313-1.489,4.712-6.009,4.237-9.654,2.511-.644-.3-.224-1.319.442-1.149,2.738.7,6.6,1.854,7.7-1.811,1.118-3.706,4.635-15.592,4.723-18.893.026-1.007-.61-1.374-1.386-.773-2.617,2.031-6.218,8.406-8,11.362-.282.468-1.142.2-.938-.36,1.013-2.774,5.836-10.749,8.418-12.3A2.136,2.136,0,0,1,185.638,41.309ZM142.493,88.994a90.68,90.68,0,0,0,.616-10.42,170.292,170.292,0,0,0,7.148-21.247A51.13,51.13,0,0,1,158.92,60.9c-.022,5.594-1.248,25.1-2.277,26.812C153.164,89.563,144.768,89.208,142.493,88.994Zm29.58-38.824c-.071,4.337-3.2,12.033-4.2,14.194-2.868-2.153-12.3-6.8-17.886-8.6a.714.714,0,0,0-.9.458c-1.493,5.439-3.053,10.877-5.011,16.168-3.392,9.166-8.559,17.542-23.562,14.478-8.455-16.425,21.365-48.113,25.811-49.041C151.878,36.666,168.66,47.326,172.073,50.17ZM77.605,56.851c-.562-1.94-4.322-7.222-5.618-8.606a2.135,2.135,0,0,0,.908-1.833c-.05-.533-.88-.694-.987-.1a1.66,1.66,0,0,1-2.621,1.224,4.254,4.254,0,0,1-1.573-4.684,1.342,1.342,0,0,1,1.977-.477.537.537,0,0,0,.656-.065,10.89,10.89,0,0,0,2.12-8.509,26.241,26.241,0,0,0,10.054-2.759c3.765-1.905,6.571-4.032,5.471-9.407-.658-3.21-3.285-6.645-7.45-5.669-5.252,1.231-14.666,9.874-15.111,15.086-1.78.4-3.259,1.255-3.584,3.173-.583,3.445,2.08,7.477,4.644,9.511-.079,2.515,1.588,5.712,4.6,5a70.829,70.829,0,0,1,5.685,8.623C77.07,57.881,77.747,57.341,77.605,56.851ZM73.656,22.774a15.5,15.5,0,0,1,5.855-4.24c1.92-.812,5.137-.913,5.386,1.758a.576.576,0,0,1-1.07.283c-1.483-3.315-6.815.43-9.511,2.873A.472.472,0,0,1,73.656,22.774Zm35.373-8.522a3.584,3.584,0,0,1,5.648-1.643,3.485,3.485,0,0,1,1.041,4.137.544.544,0,0,1-1.043-.267c.893-3.719-3.493-4.688-4.723-1.859A.5.5,0,0,1,109.029,14.252Z" fill="#004481"/></svg>