<svg viewBox="0 0 100 100" height="100" width="100" xmlns="http://www.w3.org/2000/svg"><path d="M90,50.6A40,40,0,1,0,13.564,67.1H86.436A39.844,39.844,0,0,0,90,50.6Z" fill="#d9edff"/><path d="M11 67.098L89 67.098" fill="none" stroke="#004481" stroke-linecap="round" stroke-linejoin="round"/><path d="M6.5 67.098L9 67.098" fill="none" stroke="#004481" stroke-linecap="round" stroke-linejoin="round"/><path d="M91 67.098L93.5 67.098" fill="none" stroke="#004481" stroke-linecap="round" stroke-linejoin="round"/><path d="M44.064 58.191H65.33500000000001V70.346H44.064z" fill="#4cbcc3"/><path d="M37.379 53.329H72.021V58.191H37.379z" fill="#ffffff"/><path d="M36.771 50.291 L72.628 50.291 L72.628 53.330 L36.771 53.330 Z" fill="#4cbcc3" stroke="#004481" stroke-linecap="round" stroke-linejoin="round"/><path d="M37.379 58.191H44.064V70.346H37.379z" fill="#ffffff" stroke="#004481" stroke-linecap="round" stroke-linejoin="round"/><path d="M65.336 58.191H72.021V70.346H65.336z" fill="#ffffff" stroke="#004481" stroke-linecap="round" stroke-linejoin="round"/><path d="M37.379 53.329H72.021V58.191H37.379z" fill="none" stroke="#004481" stroke-linecap="round" stroke-linejoin="round"/><path d="M44.064 58.191H65.33500000000001V70.346H44.064z" fill="none" stroke="#004481" stroke-linecap="round" stroke-linejoin="round"/><path d="M89.078,53.112,87.437,63.335a1.214,1.214,0,0,1-1.182.934H75.667v-1.68a1.217,1.217,0,0,1,.672-1.087l1.759-.88.439-2.63a1.215,1.215,0,0,1,1.2-1.016h0a4.723,4.723,0,0,0,4-2.219l.345-.554a5.463,5.463,0,0,1,3.738-2.492h0A1.145,1.145,0,0,1,89.078,53.112Z" fill="#4cbcc3"/><path d="M89.078,53.112,87.437,63.335a1.214,1.214,0,0,1-1.182.934H75.667v-1.68a1.217,1.217,0,0,1,.672-1.087l1.759-.88.439-2.63a1.215,1.215,0,0,1,1.2-1.016h0a4.723,4.723,0,0,0,4-2.219l.345-.554a5.463,5.463,0,0,1,3.738-2.492h0A1.145,1.145,0,0,1,89.078,53.112Z" fill="none" stroke="#004481" stroke-linecap="round" stroke-linejoin="round"/><path d="M75.667 64.269H85.999V66.7H75.667z" fill="#ffffff" stroke="#004481" stroke-linecap="round" stroke-linejoin="round"/><path d="M78.1,66.7H75.667v2.662a.984.984,0,0,0,.985.984h0a.985.985,0,0,0,.971-.822Z" fill="#ffffff" stroke="#004481" stroke-linecap="round" stroke-linejoin="round"/><path d="M86,66.7H83.568l.471,2.824A.987.987,0,0,0,86,69.362Z" fill="#ffffff" stroke="#004481" stroke-linecap="round" stroke-linejoin="round"/><path d="M47.711 61.230 L61.689 61.230 L61.689 67.915 L47.711 67.915 Z" fill="#ffffff" stroke="#004481" stroke-linecap="round" stroke-linejoin="round"/><path d="M39.202 61.230 L42.241 61.230 L42.241 67.915 L39.202 67.915 Z" fill="#4cbcc3" stroke="#004481" stroke-linecap="round" stroke-linejoin="round"/><path d="M67.159 61.230 L70.198 61.230 L70.198 67.915 L67.159 67.915 Z" fill="#4cbcc3" stroke="#004481" stroke-linecap="round" stroke-linejoin="round"/><path d="M68.832,43H63.055a.608.608,0,0,1-.594-.74l.84-3.778a1.214,1.214,0,0,1,1.186-.952H67.4a1.215,1.215,0,0,1,1.187.952l.84,3.778A.608.608,0,0,1,68.832,43Z" fill="#ffffff"/><path d="M68.832,43H63.055a.608.608,0,0,1-.594-.74l.84-3.778a1.214,1.214,0,0,1,1.186-.952H67.4a1.215,1.215,0,0,1,1.187.952l.84,3.778A.608.608,0,0,1,68.832,43Z" fill="none" stroke="#004481" stroke-linecap="round" stroke-linejoin="round"/><path d="M68.59,47.86H63.3a1,1,0,0,0-1,1v1.431H69.59V48.86A1,1,0,0,0,68.59,47.86Z" fill="#ffffff" stroke="#004481" stroke-linecap="round" stroke-linejoin="round"/><path d="M65.943 42.998L65.943 47.86" fill="none" stroke="#004481" stroke-linecap="round" stroke-linejoin="round"/><path d="M40.418 44.213 L46.496 44.213 L46.496 50.291 L40.418 50.291 Z" fill="#4cbcc3" stroke="#004481" stroke-linecap="round" stroke-linejoin="round"/><path d="M41.634 47.252 A1.823 1.823 0 1 0 45.280 47.252 A1.823 1.823 0 1 0 41.634 47.252 Z" fill="#ffffff" stroke="#004481" stroke-linecap="round" stroke-linejoin="round"/><path d="M78.098 60.622L78.098 64.269" fill="none" stroke="#004481" stroke-linecap="round" stroke-linejoin="round"/><path d="M43.457 45.429L43.457 47.252" fill="none" stroke="#004481" stroke-linecap="round" stroke-linejoin="round"/><path d="M14.773 87.306 A13 2.097 0 1 0 40.773 87.306 A13 2.097 0 1 0 14.773 87.306 Z" fill="#4cbcc3"/><path d="M40.734,59.079a8.58,8.58,0,0,1-8.59-8.564V46.849a2.436,2.436,0,0,1,4.872,0v3.666a3.7,3.7,0,0,0,3.692,3.692,2.436,2.436,0,0,1,.026,4.872Z" fill="#ffffff" stroke="#004481" stroke-linecap="round" stroke-linejoin="round"/><path d="M37.009,47.163a11.829,11.829,0,0,0-23.658,0V49.6h4.874l0,11.481H33.53V49.587h3.479Z" fill="#ffffff"/><path d="M29.872,36.3A11.79,11.79,0,0,1,32.3,37.719a1.2,1.2,0,0,1-.057,1.949,1.267,1.267,0,0,0-.5,1.454l.107.32a1.266,1.266,0,0,1-.424,1.4l-5.555,4.321Z" fill="#4cbcc3" stroke="#004481" stroke-linecap="round" stroke-linejoin="round"/><path d="M37.009,47.163a11.829,11.829,0,0,0-23.658,0V49.6h4.874l0,11.481H33.53V49.587h3.479Z" fill="none" stroke="#004481" stroke-linecap="round" stroke-linejoin="round"/><path d="M18.222 46.467L18.222 49.946" fill="none" stroke="#004481" stroke-linecap="round" stroke-linejoin="round"/><path d="M23.317 40.204L25.876 47.163 28.436 40.204 23.317 40.204z" fill="#ffffff" stroke="#004481" stroke-linecap="round" stroke-linejoin="round"/><path d="M25.876 46.467L25.876 61.079" fill="none" stroke="#004481" stroke-linecap="round" stroke-linejoin="round"/><path d="M18.222,49.6v2.087a1.741,1.741,0,0,0,1.739,1.74h9.046a2.436,2.436,0,0,1,0,4.871H19.961a6.619,6.619,0,0,1-6.61-6.611V49.6Z" fill="#ffffff" stroke="#004481" stroke-linecap="round" stroke-linejoin="round"/><path d="M19.328,36.88l-.518.906a1.266,1.266,0,0,0,.4,1.683l.3.2a1.265,1.265,0,0,1,.5,1.454l-.106.32a1.266,1.266,0,0,0,.424,1.4l5.555,4.321L21.715,35.849A11.764,11.764,0,0,0,19.328,36.88Z" fill="#4cbcc3" stroke="#004481" stroke-linecap="round" stroke-linejoin="round"/><path d="M29.13,36.01a1.151,1.151,0,0,1-.767-1.087l0-2.783H23.227l0,2.418a1.152,1.152,0,0,1-.876,1.117c-.214.052-.425.111-.634.174l1.6,4.355h5.119l1.434-3.9,0-.007Q29.508,36.143,29.13,36.01Z" fill="#ffffff" stroke="#004481" stroke-linecap="round" stroke-linejoin="round"/><path d="M30.989 82.649L31.44 74.995 20.307 74.995 20.757 82.649 30.989 82.649z" fill="#ffffff"/><path d="M30.989 82.649L31.44 74.995 20.307 74.995 20.757 82.649 30.989 82.649z" fill="none" stroke="#004481" stroke-linecap="round" stroke-linejoin="round"/><path d="M25.873 74.995L25.873 82.649" fill="none" stroke="#004481" stroke-linecap="round" stroke-linejoin="round"/><path d="M31.456,75a1.392,1.392,0,0,0,1.39-1.317l.681-12.6H18.219l.681,12.6A1.392,1.392,0,0,0,20.29,75Z" fill="#4cbcc3"/><path d="M31.456,75a1.392,1.392,0,0,0,1.39-1.317l.681-12.6H18.219l.681,12.6A1.392,1.392,0,0,0,20.29,75Z" fill="none" stroke="#004481" stroke-linecap="round" stroke-linejoin="round"/><path d="M35.615,86.824a4.175,4.175,0,0,0-4.175-4.175H25.873v4.175Z" fill="#4cbcc3" stroke="#004481" stroke-linecap="round" stroke-linejoin="round"/><path d="M30.482,86.824a4.175,4.175,0,0,0-4.175-4.175H20.74v2.783a1.392,1.392,0,0,0,1.392,1.392Z" fill="#4cbcc3" stroke="#004481" stroke-linecap="round" stroke-linejoin="round"/><path d="M42.575,56.793l-5.928-1.634a1.4,1.4,0,0,1-.979-1.709l1.908-7.119a1.4,1.4,0,0,1,1.712-.989l6.124,1.641Z" fill="#ffffff" stroke="#004481" stroke-linecap="round" stroke-linejoin="round"/><path d="M45.412,46.983l3.615-1.022a.7.7,0,0,1,.858.878l-2.037,6.62a2.8,2.8,0,0,1-1.571,1.748l-3.7,1.586Z" fill="#ffffff" stroke="#004481" stroke-linecap="round" stroke-linejoin="round"/><path d="M33.53 51.337L33.53 47.163" fill="none" stroke="#004481" stroke-linecap="round" stroke-linejoin="round"/><path d="M12.367 15.203 A4.175 4.175 0 1 0 20.717 15.203 A4.175 4.175 0 1 0 12.367 15.203 Z" fill="#ffffff"/><path d="M12.367 15.203 A4.175 4.175 0 1 0 20.717 15.203 A4.175 4.175 0 1 0 12.367 15.203 Z" fill="none" stroke="#004481" stroke-linecap="round" stroke-linejoin="round"/><path d="M25.588,14.507a8.35,8.35,0,0,0-8.35,8.349V23.97a1.7,1.7,0,0,0,.175,3.375,8.351,8.351,0,0,0,16.525-1.7V22.856A8.349,8.349,0,0,0,25.588,14.507Z" fill="#ffffff" stroke="#004481" stroke-linecap="round" stroke-linejoin="round"/><path d="M23.500 23.900 A1.044 1.044 0 1 0 25.588 23.900 A1.044 1.044 0 1 0 23.500 23.900 Z" fill="#004481"/><path d="M29.067 23.900 A1.044 1.044 0 1 0 31.155 23.900 A1.044 1.044 0 1 0 29.067 23.900 Z" fill="#004481"/><path d="M20.717 26.683 A1.044 1.044 0 1 0 22.805 26.683 A1.044 1.044 0 1 0 20.717 26.683 Z" fill="#4cbcc3"/><path d="M24.892,29.182a3.762,3.762,0,0,0,4.175,0" fill="none" stroke="#004481" stroke-linecap="round" stroke-linejoin="round"/><path d="M15.9,25.217a9.746,9.746,0,1,1,18.038-.151v-2.21c-9.046-1.391-13.916-4.87-13.916-4.87s-.7,4.175-2.784,5.984A1.738,1.738,0,0,0,15.9,25.217Z" fill="#ffffff"/><path d="M15.9,25.217a9.746,9.746,0,1,1,18.038-.151v-2.21c-9.046-1.391-13.916-4.87-13.916-4.87s-.7,4.175-2.784,5.984A1.738,1.738,0,0,0,15.9,25.217Z" fill="none" stroke="#004481" stroke-linecap="round" stroke-linejoin="round"/><path d="M51.357 24.765 A7.901 7.901 0 1 0 67.159 24.765 A7.901 7.901 0 1 0 51.357 24.765 Z" fill="#4cbcc3"/><path d="M51.357 24.765 A7.901 7.901 0 1 0 67.159 24.765 A7.901 7.901 0 1 0 51.357 24.765 Z" fill="none" stroke="#004481" stroke-linecap="round" stroke-linejoin="round"/><path d="M55,20.511h0a4.15,4.15,0,0,1,1.215,2.934v.49a2.045,2.045,0,0,0,2.046,2.045h1.986A2.045,2.045,0,0,0,62.3,23.935v-.49a4.15,4.15,0,0,1,1.215-2.934h0" fill="none" stroke="#004481" stroke-linecap="round" stroke-linejoin="round"/><path d="M59.258 20.511L59.258 29.627" fill="none" stroke="#004481" stroke-linecap="round" stroke-linejoin="round"/><path d="M57.435 29.627L61.081 29.627" fill="none" stroke="#004481" stroke-linecap="round" stroke-linejoin="round"/><path d="M58.043 20.511L60.474 20.511" fill="none" stroke="#004481" stroke-linecap="round" stroke-linejoin="round"/></svg>