<svg id="SvgjsSvg1172" width="288" height="288" xmlns="http://www.w3.org/2000/svg" version="1.1" xmlns:xlink="http://www.w3.org/1999/xlink" xmlns:svgjs="http://svgjs.com/svgjs"><defs id="SvgjsDefs1173"></defs><g id="SvgjsG1174"><svg xmlns="http://www.w3.org/2000/svg" enable-background="new 0 0 113.4 46.6" viewBox="0 0 113.4 46.6" width="288" height="288"><rect width="113.4" height="46.3" y=".3" fill="#addfdf" class="color009fe3 svgShape"></rect><path fill="#ffffff" d="M75.7 31.9c.5 0 .5.5.8 1.1 0 .3.3.8.3 1.3.3 1.6.8 4.5 1.6 6.2.3.8.8 1.3 1.3 1.3.8 0 1.9-1.1 2.1-2.7.5-2.1 4.5-19.5 6.4-26.7 0-.3 0-.5 0-.5s0-.3.3-.3c0 0 .3 0 .3.3l0 0c0 7.5.5 20.3 1.1 21.7.3.8.8 1.1 1.3 1.1s1.3-.5 2.1-1.3c.3-.5.5-1.1 1.1-1.6 1.1-1.3 2.1-2.9 2.4-3.5.5-.5 1.1-.5 1.9 0 0 0 .3.3.5.3.8.5 2.1 1.3 3.7 1.9 1.1.3 2.4.3 3.2.3.5 0 1.3 0 1.3 0l.5-2.4c-.3 0-.8 0-1.3 0-1.1 0-2.4 0-3.2-.3-1.1-.3-1.9-1.1-2.7-1.6-.5-.3-.8-.8-1.3-1.1-.5-.5-1.1-.5-1.6-.5-.5 0-1.3.3-2.1 1.1-1.1 1.1-2.7 3.5-3.5 4.5 0 0 0 0-.3 0S91.7 30 91.7 30c0-2.7-.5-18.2-.8-22.7C90.7 5.1 90.1 4 89.3 4c-.8 0-1.9.8-2.4 3.5-1.6 6.7-5.3 21.7-6.7 29.2 0 .3-.3.3-.3 0-.3-.8-.3-1.6-.5-2.4-.5-2.4-.8-4.3-1.6-5.3-.8-1.3-2.1-1.3-3.7-.3-.3.3-.8.5-1.1.8-1.1.8-2.1 1.9-4 1.9H50.3l-.8 3.2h19.8c2.1 0 4-1.1 5.1-1.9C74.9 32.1 75.4 31.9 75.7 31.9M21.9 22.5c-3.5-.3-2.4-7.8 1.3-7.5C27.3 15.3 25.9 22.8 21.9 22.5M26.7 13.4L26.5 15c-.5-.8-1.6-1.9-3.5-1.9-3.5 0-5.3 2.7-5.6 5.9-.3 3.5 1.9 5.3 4 5.3s3.2-.8 4-1.9v.3c-.3 1.1.5 1.6 1.3 1.6h.8l1.9-10.7h-2.7V13.4z" class="colorfff svgShape"></path><path fill="#ffffff" d="M58.6 22.5c-3.5-.3-2.4-7.8 1.3-7.5C63.7 15.3 62.6 22.8 58.6 22.5M63.4 13.4L63.1 15c-.5-.8-1.6-1.9-3.5-1.9-3.5 0-5.3 2.7-5.6 5.9-.3 3.5 1.9 5.3 4 5.3 2.1 0 3.2-.8 4-1.9v.3c-.3 1.1.5 1.6 1.3 1.6h.8l1.9-10.7h-2.7V13.4zM44.1 13.4h-.5l-1.9 10.7h2.4l1.6-9.1C46 14.2 45.2 13.4 44.1 13.4M46.5 9.7c-.5-.5-1.3-.5-1.9-.3-.5.5-.8 1.3-.3 1.9.5.5 1.3.5 1.9.3C46.8 11 47.1 10.2 46.5 9.7M15.5 19.8c0-4.5-5.3-3.7-5.3-6.7 0-.5.5-1.9 2.4-1.9s2.7.8 2.9 1.1c0-.3.8-1.6 1.1-1.9-.5-.3-1.6-1.1-4-1.1-3.5 0-5.3 2.4-5.3 4.3 0 4.5 5.6 3.7 5.6 6.7 0 1.9-1.6 2.4-3.2 2.4-1.1 0-2.4-.3-3.2-1.3-.3.3-.8 1.3-1.1 1.9 1.1.8 2.7 1.3 4.3 1.3C13.1 24.4 15.5 22.5 15.5 19.8M71.1 14.7c1.3 0 1.9.5 2.4.8 0-.3.8-1.3.8-1.6-.3-.3-1.3-.8-2.9-.8l0 0c-2.9 0-4.3 1.9-4.3 3.5 0 2.9 4.3 2.7 4.3 4.5 0 .8-1.1 1.6-2.1 1.6-1.1 0-1.9-.5-2.7-.8 0 .3-.8 1.3-.8 1.6.5.3 1.6 1.1 3.7 1.1 2.7 0 4.5-1.6 4.5-3.5 0-3.2-4.3-2.9-4.3-4.5C69.3 15.5 70.3 14.7 71.1 14.7M51.1 15.3h2.7l.3-1.6c0 0-2.1 0-2.7 0l.3-1.6c.3-1.1-.5-1.6-1.6-1.6h-.5l-.5 2.9h-1.6L47.1 15c0 0 1.1 0 1.6 0l-1.1 5.9c-.5 2.4 1.1 3.5 2.9 3.5.5 0 1.3 0 1.9-.3 0-.5.3-1.9.3-1.9-.8.3-2.9.5-2.7-1.3L51.1 15.3zM36.9 24.4h2.4l1.3-6.7c.5-2.7-.8-4.3-2.9-4.3-2.1 0-2.9.8-4 1.9.3-1.1-.8-1.6-1.3-1.6h-.5L30 24.4h2.4l1.1-5.6c.5-2.9 2.1-3.5 3.5-3.5.5 0 1.9.3 1.3 2.4C37.4 20.6 36.9 24.4 36.9 24.4" class="colorfff svgShape"></path></svg></g></svg>