<svg xmlns="http://www.w3.org/2000/svg" fill="none" viewBox="0 0 100 100"><path fill="#4cbcc3" stroke="#004481" stroke-linecap="round" stroke-linejoin="round" d="M49.231 6.68088C48.299 6.68088 47.314 3.99688 47.314 2.55388C47.3254 2.05318 47.5323 1.57683 47.8905 1.22675C48.2487 0.87667 48.7296 0.680664 49.2305 0.680664C49.7313 0.680664 50.2123 0.87667 50.5704 1.22675C50.9286 1.57683 51.1355 2.05318 51.147 2.55388C51.147 3.99988 50.162 6.68088 49.231 6.68088Z"/><path fill="#4cbcc3" stroke="#004481" stroke-linecap="round" stroke-linejoin="round" d="M40.306 9.06191C39.274 9.06191 37.497 7.43591 36.884 6.37491C36.6578 5.93709 36.609 5.42899 36.7475 4.9561C36.8861 4.4832 37.2014 4.08182 37.6281 3.83529C38.0548 3.58875 38.56 3.51599 39.0389 3.63212C39.5178 3.74824 39.9336 4.04433 40.2 4.45891C40.618 5.27031 40.8834 6.1516 40.983 7.05891C41.098 8.05891 40.956 8.78491 40.604 8.98791C40.5127 9.03801 40.41 9.06351 40.306 9.06191V9.06191Z"/><path fill="#4cbcc3" stroke="#004481" stroke-linecap="round" stroke-linejoin="round" d="M33.006 15.7217C31.8769 15.6946 30.7684 15.4132 29.763 14.8987C29.3232 14.6444 29.0024 14.2258 28.8712 13.7351C28.7399 13.2443 28.8089 12.7216 29.063 12.2817C29.1886 12.0635 29.3561 11.8723 29.5558 11.7189C29.7555 11.5656 29.9834 11.4532 30.2267 11.3882C30.4699 11.3231 30.7235 11.3067 30.9731 11.34C31.2227 11.3732 31.4632 11.4553 31.681 11.5817C32.931 12.3027 34.763 14.4977 34.298 15.3047C34.14 15.5727 33.682 15.7217 33.006 15.7217Z"/><path fill="#4cbcc3" stroke="#004481" stroke-linecap="round" stroke-linejoin="round" d="M65.456 15.7219C64.78 15.7219 64.322 15.5729 64.166 15.3039C63.7 14.4969 65.532 12.3039 66.782 11.5809C67.2221 11.3266 67.7453 11.2575 68.2363 11.3888C68.7274 11.5202 69.1462 11.8413 69.4005 12.2814C69.6548 12.7215 69.7239 13.2447 69.5926 13.7357C69.4612 14.2268 69.1401 14.6456 68.7 14.8999C67.6942 15.4142 66.5854 15.6951 65.456 15.7219V15.7219Z"/><path fill="#4cbcc3" stroke="#004481" stroke-linecap="round" stroke-linejoin="round" d="M58.155 9.062C58.0504 9.06568 57.9468 9.04116 57.855 8.991C57.502 8.791 57.36 8.067 57.475 7.062C57.575 6.15479 57.8404 5.27358 58.258 4.462C58.4266 4.17042 58.6686 3.92814 58.9601 3.75934C59.2516 3.59054 59.5822 3.50112 59.919 3.5C60.2551 3.5004 60.5852 3.58923 60.8762 3.75756C61.1671 3.92589 61.4087 4.1678 61.5766 4.459C61.7444 4.7502 61.8328 5.08044 61.8327 5.41658C61.8326 5.75271 61.744 6.0829 61.576 6.374C60.964 7.436 59.187 9.062 58.155 9.062Z"/><path fill="#d9edff" d="M86.449 75.8618C89.2025 69.7696 90.385 63.0843 89.8885 56.4171C89.392 49.7499 87.2323 43.3135 83.6068 37.6963C79.9812 32.0791 75.0056 27.4602 69.1346 24.2618C63.2636 21.0635 56.6846 19.3877 49.999 19.3877C43.3133 19.3877 36.7343 21.0635 30.8634 24.2618C24.9924 27.4602 20.0167 32.0791 16.3912 37.6963C12.7657 43.3135 10.6059 49.7499 10.1094 56.4171C9.61292 63.0843 10.7955 69.7696 13.549 75.8618H86.449Z"/><path stroke="#004481" stroke-linecap="round" stroke-linejoin="round" d="M11 75.8618H89"/><path stroke="#004481" stroke-linecap="round" stroke-linejoin="round" d="M6.5 75.8618H9"/><path stroke="#004481" stroke-linecap="round" stroke-linejoin="round" d="M91 75.8618H93.5"/><path fill="#4cbcc3" stroke="#004481" stroke-linecap="round" stroke-linejoin="round" d="M67.859 82.248H86.171C86.6493 82.2592 87.1043 82.4571 87.4387 82.7993C87.773 83.1416 87.9602 83.6011 87.9602 84.0795C87.9602 84.558 87.773 85.0175 87.4387 85.3597C87.1043 85.702 86.6493 85.8999 86.171 85.911H67.859V82.248Z"/><path stroke="#004481" stroke-linecap="round" stroke-linejoin="round" d="M81.594 82.248L81.593 85.911"/><path stroke="#004481" stroke-linecap="round" stroke-linejoin="round" d="M79.3 79.959H82.51C82.8107 79.9589 83.1084 80.018 83.3863 80.1329C83.6641 80.2479 83.9165 80.4165 84.1292 80.6291C84.3419 80.8416 84.5106 81.094 84.6256 81.3718C84.7407 81.6496 84.8 81.9473 84.8 82.248"/><path fill="#d9edff" stroke="#004481" stroke-linecap="round" stroke-linejoin="round" d="M67.859 85.91L64.191 84.079L67.859 82.248V85.91Z"/><path fill="#ffffff" stroke="#004481" stroke-linecap="round" stroke-linejoin="round" d="M46.107 93.3636H25.403V92.1456L32.22 84.8376L45.617 83.6206L46.107 88.4916V93.3636Z"/><path fill="#ffffff" stroke="#004481" stroke-linecap="round" stroke-linejoin="round" d="M25.4 92.1458L33.925 79.9668C33.925 79.9668 41.232 76.3128 46.104 79.9668V92.1458C46.107 91.1998 37.582 84.4158 25.4 92.1458Z"/><path fill="#ffffff" stroke="#004481" stroke-linecap="round" stroke-linejoin="round" d="M46.107 93.3636H66.811V92.1456L59.994 84.8376L46.597 83.6206L46.107 88.4916V93.3636Z"/><path fill="#ffffff" stroke="#004481" stroke-linecap="round" stroke-linejoin="round" d="M66.811 92.1458L58.286 79.9668C58.286 79.9668 50.978 76.3128 46.107 79.9668V92.1458C46.107 91.1998 54.632 84.4158 66.811 92.1458Z"/><path fill="#4cbcc3" stroke="#004481" stroke-linecap="round" stroke-linejoin="round" d="M68.029 94.5808C68.0291 94.7408 67.9977 94.8993 67.9366 95.0472C67.8754 95.1951 67.7857 95.3295 67.6726 95.4427C67.5595 95.5559 67.4252 95.6457 67.2773 95.707C67.1295 95.7682 66.971 95.7998 66.811 95.7998H25.4C25.2372 95.8044 25.0751 95.7764 24.9233 95.7173C24.7715 95.6582 24.6331 95.5693 24.5163 95.4558C24.3994 95.3423 24.3066 95.2065 24.2432 95.0564C24.1798 94.9064 24.1471 94.7451 24.1471 94.5823C24.1471 94.4194 24.1798 94.2581 24.2432 94.1081C24.3066 93.9581 24.3994 93.8223 24.5163 93.7088C24.6331 93.5952 24.7715 93.5063 24.9233 93.4472C25.0751 93.3881 25.2372 93.3601 25.4 93.3648H66.811C67.1337 93.3648 67.4432 93.4928 67.6715 93.7208C67.8999 93.9488 68.0285 94.2581 68.029 94.5808V94.5808Z"/><path stroke="#004481" stroke-linecap="round" stroke-linejoin="round" d="M46.107 93.3638V95.7988"/><path fill="#ffffff" stroke="#004481" stroke-linecap="round" stroke-linejoin="round" d="M31.771 31.361L35.357 26.99C35.5638 26.7368 35.6764 26.4198 35.6755 26.0929C35.6747 25.766 35.5604 25.4495 35.3523 25.1975C35.1441 24.9454 34.8549 24.7734 34.5341 24.7107C34.2133 24.6481 33.8806 24.6987 33.593 24.854L30.233 26.677L31.771 31.361Z"/><path fill="#ffffff" stroke="#004481" stroke-linecap="round" stroke-linejoin="round" d="M31.827 34.5191L32.217 31.8771C32.2786 31.4608 32.2603 31.0366 32.163 30.6271L31.036 25.9001C30.9702 25.6247 31.0132 25.3346 31.156 25.0901L33.326 21.3611C33.4933 21.0748 33.5434 20.7347 33.4657 20.4123C33.3879 20.0898 33.1885 19.81 32.909 19.6313C32.6295 19.4527 32.2918 19.3891 31.9665 19.454C31.6412 19.5188 31.3536 19.707 31.164 19.9791L28.1 24.3681C27.8189 24.7701 27.6799 25.2543 27.705 25.7441L27.947 30.4941C27.9506 30.5666 27.9473 30.6393 27.937 30.7111L27.47 33.8751L31.827 34.5191Z"/><path fill="#ffffff" stroke="#004481" stroke-linecap="round" stroke-linejoin="round" d="M26.6719 35.7845L27.0424 33.6104C27.0666 33.468 27.1187 33.3317 27.1956 33.2094C27.2726 33.0871 27.3728 32.9812 27.4907 32.8976C27.6086 32.8141 27.7418 32.7545 27.8826 32.7224C28.0235 32.6904 28.1693 32.6863 28.3118 32.7106L31.5725 33.2662C31.7149 33.2905 31.8512 33.3425 31.9735 33.4195C32.0958 33.4964 32.2017 33.5967 32.2853 33.7145C32.3688 33.8324 32.4283 33.9656 32.4604 34.1065C32.4925 34.2473 32.4965 34.3932 32.4723 34.5356L32.1018 36.7097C32.0776 36.8521 32.0255 36.9884 31.9485 37.1107C31.8716 37.233 31.7714 37.339 31.6535 37.4225C31.5356 37.5061 31.4024 37.5656 31.2616 37.5977C31.1207 37.6298 30.9749 37.6338 30.8324 37.6095L27.5747 37.0544C27.287 37.0054 27.0306 36.8442 26.8619 36.6061C26.6931 36.368 26.6259 36.0727 26.6749 35.785L26.6719 35.7845Z"/><path fill="#ffffff" stroke="#004481" stroke-linecap="round" stroke-linejoin="round" d="M66.835 31.3608L63.25 26.9898C63.0423 26.737 62.9289 26.4198 62.9293 26.0925C62.9296 25.7653 63.0437 25.4483 63.252 25.1959C63.4604 24.9435 63.7499 24.7714 64.0712 24.709C64.3924 24.6466 64.7254 24.6978 65.013 24.8538L68.373 26.6768L66.835 31.3608Z"/><path fill="#ffffff" stroke="#004481" stroke-linecap="round" stroke-linejoin="round" d="M66.779 34.5191L66.389 31.8771C66.3272 31.4608 66.3458 31.0364 66.444 30.6271L67.57 25.9001C67.6357 25.6247 67.5928 25.3346 67.45 25.0901L65.28 21.3611C65.1126 21.0748 65.0626 20.7347 65.1403 20.4123C65.218 20.0898 65.4175 19.81 65.697 19.6313C65.9765 19.4527 66.3142 19.3891 66.6395 19.454C66.9648 19.5188 67.2524 19.707 67.442 19.9791L70.511 24.3681C70.7938 24.7695 70.9346 25.2537 70.911 25.7441L70.669 30.4941C70.6652 30.5666 70.6689 30.6394 70.68 30.7111L71.147 33.8751L66.779 34.5191Z"/><path fill="#ffffff" stroke="#004481" stroke-linecap="round" stroke-linejoin="round" d="M70.2943 32.7213L67.0334 33.2776C66.4335 33.3799 66.0301 33.9492 66.1325 34.5492L66.5034 36.7238C66.6058 37.3237 67.1751 37.7271 67.775 37.6248L71.0359 37.0685C71.6359 36.9661 72.0393 36.3968 71.9369 35.7969L71.566 33.6223C71.4636 33.0223 70.8943 32.6189 70.2943 32.7213Z"/><path fill="#4cbcc3" stroke="#004481" stroke-linecap="round" stroke-linejoin="round" d="M32.832 50.5051C32.5902 50.5058 32.3512 50.4533 32.1318 50.3515C31.9125 50.2497 31.7181 50.101 31.5625 49.9159C31.4069 49.7308 31.2938 49.5139 31.2311 49.2803C31.1685 49.0467 31.1579 48.8022 31.2 48.5641L33.174 37.3781C33.1996 37.2355 33.1968 37.0892 33.1656 36.9476C33.1345 36.8061 33.0757 36.6721 32.9926 36.5533C32.9096 36.4345 32.8038 36.3334 32.6815 36.2556C32.5592 36.1778 32.4228 36.125 32.28 36.1001L26.851 35.1421C26.7084 35.1167 26.5622 35.1196 26.4208 35.1508C26.2793 35.182 26.1454 35.2408 26.0268 35.3239C25.9082 35.4069 25.8071 35.5126 25.7294 35.6348C25.6517 35.7571 25.5989 35.8934 25.574 36.0361L23.6 47.2221C23.117 49.9571 23.55 53.0561 25.65 54.8751C34.71 62.7241 35.078 57.8551 35.078 75.8621H63.747C63.655 57.1201 64.574 63.2761 73.175 54.8751C74.1084 53.8593 74.7822 52.6328 75.1392 51.3002C75.4961 49.9676 75.5256 48.5685 75.225 47.2221L73.251 36.0361C73.2261 35.8934 73.1733 35.7571 73.0956 35.6348C73.0179 35.5126 72.9168 35.4069 72.7982 35.3239C72.6795 35.2408 72.5456 35.182 72.4042 35.1508C72.2628 35.1196 72.1166 35.1167 71.974 35.1421L66.545 36.1001C66.4022 36.125 66.2657 36.1778 66.1434 36.2556C66.0211 36.3334 65.9154 36.4345 65.8323 36.5533C65.7493 36.6721 65.6905 36.8061 65.6594 36.9476C65.6282 37.0892 65.6254 37.2355 65.651 37.3781L67.625 48.5641C67.667 48.8017 67.6566 49.0455 67.5943 49.2786C67.5321 49.5117 67.4196 49.7283 67.2647 49.9132C67.1099 50.0982 66.9164 50.247 66.6979 50.3493C66.4794 50.4515 66.2412 50.5047 66 50.5051C53.045 50.7501 45.784 51.4851 32.832 50.5051Z"/><path fill="#ffffff" stroke="#004481" stroke-linecap="round" stroke-linejoin="round" d="M53.383 53.3711H45.445L44.333 55.4181C44.1975 55.6647 44.1617 55.9539 44.233 56.2261L49.412 75.8621L54.6 56.2261C54.6704 55.9538 54.6346 55.665 54.5 55.4181L53.383 53.3711Z"/><path fill="#ffffff" stroke="#004481" stroke-linecap="round" stroke-linejoin="round" d="M53.383 53.371L49.414 56.017L45.445 53.371V47.418H53.383V53.371Z"/><path stroke="#004481" stroke-linecap="round" stroke-linejoin="round" d="M53.383 53.371L49.414 56.017L45.445 53.371V47.418H53.383V53.371Z"/><path fill="#4cbcc3" stroke="#004481" stroke-linecap="round" stroke-linejoin="round" d="M49.414 75.8621L52.06 65.8331L49.414 56.0171L46.759 65.7971L49.414 75.8621Z"/><path fill="#4cbcc3" stroke="#004481" stroke-linecap="round" stroke-linejoin="round" d="M45.445 50.064V53.371L44.333 55.418C44.1976 55.6646 44.1618 55.9538 44.233 56.226L49.412 75.862H46.768L40.925 67.489L43.461 62.632L38.83 58.663L40.212 54.677C40.6126 53.5221 41.3049 52.4905 42.2218 51.6822C43.1387 50.874 44.2491 50.3165 45.445 50.064V50.064Z"/><path fill="#4cbcc3" stroke="#004481" stroke-linecap="round" stroke-linejoin="round" d="M53.383 50.064V53.371L54.5 55.418C54.6354 55.6646 54.6712 55.9538 54.6 56.226L49.42 75.862H52.06L58.455 66.938L55.368 62.632L60 58.663L58.619 54.677C58.2182 53.5218 57.5254 52.4899 56.6079 51.6816C55.6904 50.8733 54.5795 50.316 53.383 50.064Z"/><path stroke="#004481" stroke-linecap="round" stroke-linejoin="round" d="M44.969 59.0081L49.414 56.0171L53.864 58.9911"/><path fill="#ffffff" stroke="#004481" stroke-linecap="round" stroke-linejoin="round" d="M60.373 35.692V32.949C60.373 30.0398 59.2173 27.2498 57.1602 25.1927C55.1032 23.1356 52.3131 21.98 49.404 21.98C46.4948 21.98 43.7048 23.1356 41.6477 25.1927C39.5906 27.2498 38.435 30.0398 38.435 32.949V35.692C38.143 35.6857 37.8527 35.7379 37.5811 35.8453C37.3095 35.9527 37.0621 36.1133 36.8534 36.3176C36.6447 36.5219 36.4789 36.7658 36.3657 37.0351C36.2525 37.3043 36.1942 37.5934 36.1942 37.8855C36.1942 38.1775 36.2525 38.4667 36.3657 38.7359C36.4789 39.0051 36.6447 39.249 36.8534 39.4533C37.0621 39.6576 37.3095 39.8182 37.5811 39.9257C37.8527 40.0331 38.143 40.0852 38.435 40.079C38.481 40.079 38.524 40.068 38.569 40.065C38.9565 42.6615 40.2635 45.0325 42.2522 46.7463C44.2408 48.4602 46.7787 49.4029 49.404 49.4029C52.0292 49.4029 54.5672 48.4602 56.5558 46.7463C58.5444 45.0325 59.8515 42.6615 60.239 40.065C60.284 40.065 60.327 40.079 60.373 40.079C60.665 40.0852 60.9553 40.0331 61.2269 39.9257C61.4985 39.8182 61.7459 39.6576 61.9546 39.4533C62.1633 39.249 62.3291 39.0051 62.4423 38.7359C62.5555 38.4667 62.6138 38.1775 62.6138 37.8855C62.6138 37.5934 62.5555 37.3043 62.4423 37.0351C62.3291 36.7658 62.1633 36.5219 61.9546 36.3176C61.7459 36.1133 61.4985 35.9527 61.2269 35.8453C60.9553 35.7379 60.665 35.6857 60.373 35.692Z"/><path stroke="#004481" stroke-linecap="round" stroke-linejoin="round" d="M52.7 44.467C51.8102 43.6196 50.6287 43.147 49.4 43.147C48.1713 43.147 46.9897 43.6196 46.1 44.467"/><path fill="#4cbcc3" d="M43.097 41.7239C43.8542 41.7239 44.468 41.1101 44.468 40.3529C44.468 39.5958 43.8542 38.9819 43.097 38.9819C42.3398 38.9819 41.726 39.5958 41.726 40.3529C41.726 41.1101 42.3398 41.7239 43.097 41.7239Z"/><path fill="#4cbcc3" d="M55.711 41.7239C56.4681 41.7239 57.082 41.1101 57.082 40.3529C57.082 39.5958 56.4681 38.9819 55.711 38.9819C54.9538 38.9819 54.34 39.5958 54.34 40.3529C54.34 41.1101 54.9538 41.7239 55.711 41.7239Z"/><path stroke="#004481" stroke-linecap="round" stroke-linejoin="round" d="M55.437 36.7878C55.3014 36.4619 55.0724 36.1834 54.7787 35.9875C54.4851 35.7916 54.14 35.687 53.787 35.687C53.434 35.687 53.0889 35.7916 52.7952 35.9875C52.5016 36.1834 52.2725 36.4619 52.137 36.7878"/><path stroke="#004481" stroke-linecap="round" stroke-linejoin="round" d="M46.671 36.7878C46.5354 36.4619 46.3064 36.1834 46.0127 35.9875C45.7191 35.7916 45.374 35.687 45.021 35.687C44.668 35.687 44.3229 35.7916 44.0292 35.9875C43.7356 36.1834 43.5065 36.4619 43.371 36.7878"/><path fill="#ffffff" stroke="#004481" stroke-linecap="round" stroke-linejoin="round" d="M49.954 20.8828C46.7539 20.8828 43.6849 22.154 41.4221 24.4169C39.1592 26.6797 37.888 29.7487 37.888 32.9488V35.6918H37.924C38.7285 35.6918 39.5123 35.4369 40.1628 34.9636C40.8134 34.4904 41.2973 33.8232 41.545 33.0578L42.482 30.1678C42.5266 30.0309 42.5978 29.9041 42.6915 29.7948C42.7853 29.6854 42.8996 29.5957 43.0281 29.5306C43.1566 29.4656 43.2967 29.4266 43.4403 29.4158C43.5839 29.405 43.7282 29.4227 43.865 29.4678C45.8291 30.1636 47.8765 30.597 49.954 30.7568C52.594 30.7568 57.084 29.1118 57.084 29.1118L58.409 33.0888C58.662 33.8462 59.1469 34.5049 59.795 34.9715C60.443 35.4381 61.2214 35.689 62.02 35.6888V35.6888V32.9488C62.02 29.7487 60.7488 26.6797 58.486 24.4169C56.2231 22.154 53.1541 20.8828 49.954 20.8828V20.8828Z"/><path fill="#ffffff" stroke="#004481" stroke-linecap="round" stroke-linejoin="round" d="M63.117 35.692C63.117 35.692 58.729 36.792 55.439 31.304C55.439 31.304 54.89 34.046 52.696 34.046C52.696 34.046 54.342 30.755 49.954 30.755C49.1553 30.7652 48.3624 30.6168 47.6215 30.3183C46.8806 30.0197 46.2064 29.577 45.6379 29.0158C45.0694 28.4546 44.6181 27.7861 44.31 27.0491C44.002 26.3121 43.8433 25.5213 43.8433 24.7225C43.8433 23.9237 44.002 23.1328 44.31 22.3958C44.6181 21.6588 45.0694 20.9903 45.6379 20.4291C46.2064 19.8679 46.8806 19.4252 47.6215 19.1267C48.3624 18.8281 49.1553 18.6797 49.954 18.69C49.954 18.69 58.729 18.69 62.568 26.368C62.568 26.368 64.214 29.659 63.117 35.692Z"/></svg>