<svg viewBox="0 0 400 400" xmlns="http://www.w3.org/2000/svg"><g transform="matrix(2,0,0,2,0,0)"><path d="M75.2,156.306c-.1-1.183-.182-2.381-.786-2.357-.669.025-.539.783-.71,2.863-.016.4.019,10.836.119,13.387.159,3.7.087,4.272.753,4.272.587,0,.611-.115.785-5.209C75.414,167.736,75.479,158.494,75.2,156.306Z" fill="#004481"></path><path d="M124.09,172.309c-.033-1.023-.033-2.034-.087-3.046-.23-4.5-.405-6.64-.86-13.021-.339-2.23-.344-2.614-.893-2.593s-.529.558-.593,2.5c-.118,1.582.651,12.018.808,13.431.512,5.123.525,5.37,1.14,5.326C124.39,174.844,123.978,173.793,124.09,172.309Z" fill="#004481"></path><path d="M143.279,76.067a72.72,72.72,0,0,1-7.264-3.563c-6.716-3.806-8.406-6.224-11.17-8.049a8.565,8.565,0,0,0-3.831-1.582,6.127,6.127,0,0,0-3.809.968,14.385,14.385,0,0,0-3.75,3.621c-8.189-4.283-16.648-10.09-25.572-15.827-2.131-1.367-5.1-3.949-8.038-5.3a8.78,8.78,0,0,0-4.4-.915,11.884,11.884,0,0,0-4.595,1.743c-4.378,2.633-2.175,2.277-18.671,14-5.772,4.058-13.448,9.483-15.474,10.89a.516.516,0,1,0,.57.861c1.775-1.119,3.562-2.228,5.337-3.357,17.275-11.031,25.2-18.31,27.861-20.167a11.992,11.992,0,0,1,5.155-2.314,8.242,8.242,0,0,1,4.67,1.356c1.955,1.092,18.377,13,33.07,20.2a.585.585,0,0,0,.732-.237,15.623,15.623,0,0,1,3.914-3.171,4.83,4.83,0,0,1,2.808-.71,7.346,7.346,0,0,1,3.11,1.323c2.868,1.938,4.8,4.625,11.364,8.039a58.3,58.3,0,0,0,7.587,3.2.557.557,0,0,0,.7-.3A.545.545,0,0,0,143.279,76.067Z" fill="#004481"></path><path d="M94.231,62.319c-.914-.484-1.84-1.012-2.733-1.55-3.644-2.107-6.556-4.112-10.955-6.521a11.1,11.1,0,0,1-2.023-1.324c-.29-.22-1.05-.92-1-1.28a.946.946,0,0,1,.334-.7.512.512,0,0,0,.064-.721.465.465,0,0,0-.688-.086,2.32,2.32,0,0,0-.894.958c-.483,1.092.232,2.226,1.109,3.045a13.2,13.2,0,0,0,2.313,1.572c3.274,1.783,7.01,4.2,9.642,5.574,1.432.753,2.917,1.409,4.4,2.012a.535.535,0,0,0,.43-.979Z" fill="#004481"></path><path d="M138.554,90.607c-2.326-.219-5.149.036-7.91-.355a6.453,6.453,0,0,1-4.229-1.84c-.238-.294-.121-.976-.054-1.259a5.335,5.335,0,0,0,.054-1.647,2.1,2.1,0,0,0-.71-1.162c-2.447-2.1-5.9-3.517-8.964-4.638-.667-.248-1.345-.463-1.991-.7-.678-.236-1.324-.473-1.948-.731a.525.525,0,0,0-.71.215.538.538,0,0,0,.226.689,36.967,36.967,0,0,0,3.562,1.861c2.618,1.167,6.268,2.4,8.749,4.563.237.215.183.517.129.818-.1,1.135-.421,2.082.377,3.056a6.779,6.779,0,0,0,3.928,2.109c3.186.712,7.042.035,9.448.086a.536.536,0,0,0,.559-.5A.547.547,0,0,0,138.554,90.607Z" fill="#004481"></path><path d="M168.843,75.013c-.437-.415-.785,0-2.594,1.657a7.42,7.42,0,0,1-1.668,1.356,4.74,4.74,0,0,1-2.809.064c-1.586-.19-1.986-.129-2.1.269-.144.625,1.143,1.1,1.754,1.292a4.864,4.864,0,0,0,3.874-.14,6.558,6.558,0,0,0,2.088-1.765c.3-.333.592-.731.925-1.173C168.85,75.818,169.273,75.382,168.843,75.013Z" fill="#004481"></path><path d="M84.942,130.805c.915.452,1.84.882,2.787,1.248,5.719,2.318,15.47,2.825,22.664-.743a27.205,27.205,0,0,0,2.55-1.442.573.573,0,0,0,.183-.742.562.562,0,0,0-.753-.183,22.4,22.4,0,0,1-2.518,1.173c-7.626,3.05-14.752,2.431-22.481.312-.678-.183-1.345-.355-2.023-.57a.523.523,0,0,0-.678.28.53.53,0,0,0,.269.667" fill="#004481"></path><path d="M117.5,129.954a55.974,55.974,0,0,0,8.523,2.087,22.6,22.6,0,0,0,15.464-2.776c3-1.862,4.488-6.339,4.38-10.966-.129-4.261-1.593-8.609-4.294-11.009a7.387,7.387,0,0,0-5.671-1.485c-2.908.233-10.147,2.466-12.225,3.153-2.109.689-4.175,1.442-6.3,2.206a.555.555,0,0,0-.312.678.536.536,0,0,0,.667.345c2.109-.689,4.208-1.367,6.317-1.991,1.5-.451,9.131-2.621,11.966-2.809a5.91,5.91,0,0,1,4.477,1.119c2.368,2.142,3.594,6.037,3.691,9.836.079,3.333-.759,7.785-3.594,9.5-4.48,2.792-9.23,3.219-14.377,2.669a66.686,66.686,0,0,1-8.458-1.55.526.526,0,0,0-.635.356.553.553,0,0,0,.376.635" fill="#004481"></path><path d="M79.937,130.219a.515.515,0,0,0-.667-.322c-3.239,1.108-6.694,2.345-10.18,3.163a28.94,28.94,0,0,1-6.909.861,7.085,7.085,0,0,1-3.185-.5,6.8,6.8,0,0,1-3.379-4.4,24.512,24.512,0,0,1-.592-9.158,13.643,13.643,0,0,1,1.108-4.627,2.824,2.824,0,0,1,1.948-1.668c.452-.1.807.258,1.076.635A6.337,6.337,0,0,1,60,115.971a44.607,44.607,0,0,1,1.453,6.834c.218,1.743.386,4.915-.355,6.5-.183.462-.4.914-.861.947a1.364,1.364,0,0,1-.947-.452,11.96,11.96,0,0,1-2.131-4.843c-.367-1.806-.466-4.847.495-5.445a4.425,4.425,0,0,1,1.077,2.227.533.533,0,0,0,.613.388.477.477,0,0,0,.377-.6,7.17,7.17,0,0,0-.689-2.1,2.535,2.535,0,0,0-.71-.883,1.141,1.141,0,0,0-1.1-.193c-1.989.634-1.971,4.648-1.55,6.908.361,1.844,1.266,4.785,2.841,6.005a2.641,2.641,0,0,0,1.862.614,2.535,2.535,0,0,0,2.023-1.453c1.131-2,.987-5.557.71-7.824a49.8,49.8,0,0,0-1.517-7.091,6.454,6.454,0,0,0-1.463-2.723,3.4,3.4,0,0,0-.258-.252,21.351,21.351,0,0,1,6.678-.906c2.553.053,4.968.161,7.576.3,1.668.076,3.336.162,5.036.334a.511.511,0,0,0,.592-.452.52.52,0,0,0-.452-.6c-1.464-.3-2.938-.548-4.4-.742-2.936-.338-5.105-.41-8.3-.506a19.167,19.167,0,0,0-7.985,1.388c-2.064.975-3.023,1.331-3.967,3.128a15.591,15.591,0,0,0-1.27,5.24,27,27,0,0,0,.678,9.8,8.391,8.391,0,0,0,4.262,5.338,8.454,8.454,0,0,0,3.863.581,30,30,0,0,0,7.242-1.055,102.285,102.285,0,0,0,10.2-3.476A.539.539,0,0,0,79.937,130.219Z" fill="#004481"></path><path d="M84.616,111.9c.624-.248,1.27-.452,1.916-.668,7.333-2.322,14.619-3.135,24.761-.936a.534.534,0,0,0,.269-1.033c-9.488-2.972-19.582-2.023-24.761.344a24.807,24.807,0,0,0-2.648,1.378.536.536,0,0,0-.236.678.518.518,0,0,0,.7.237" fill="#004481"></path><path d="M81.453,111.384c-.053,1.84-.021,3.68.054,5.531.065,1.969.183,3.95.3,5.919.193,2.991.344,5.983.376,8.953a.539.539,0,0,1-.506.56.557.557,0,0,1-.57-.517c-.172-2.529-.409-5.068-.678-7.608-.161-1.7-.3-3.4-.43-5.09a81.771,81.771,0,0,1-.183-8.6.834.834,0,0,1,.775-.786c.873-.079,1.506.025,2.41-.011a.847.847,0,0,1,.861.861c-.054,1.614-.054,3.239-.032,4.854.127,4.491.409,7.957.409,11.407-.033,1.086.086,2.2.107,3.293a13.349,13.349,0,0,1-.054,1.474.523.523,0,0,1-.538.5.532.532,0,0,1-.5-.538,11.682,11.682,0,0,0-.107-1.356c-.108-1.109-.323-2.228-.4-3.315-.209-3.135-.414-6.645-.517-9.782-.086-1.915-.108-3.82-.086-5.725C81.978,111.4,81.521,111.384,81.453,111.384Z" fill="#004481"></path><path d="M114.494,110.139a8.977,8.977,0,0,0-.033.936c0,.1-.059-1.174.226,15.324,0,1.593,0,3.185-.032,4.789a.544.544,0,0,1-1.087.011c-.06-1.785-.775-14.959-.775-20.124a13.726,13.726,0,0,1,.108-1.883.842.842,0,0,1,.807-.732,18.967,18.967,0,0,1,2.077.129.832.832,0,0,1,.753.84c-.179,6.4.787,8.608.248,18.423-.054.968-.14,1.937-.161,2.916a.54.54,0,0,1-.517.517.5.5,0,0,1-.506-.517c-.086-.979-.107-1.958-.172-2.927-.229-12.138-.383-10.5-.506-14.915-.032-.915-.054-1.84-.054-2.755Z" fill="#004481"></path><path d="M57.22,109.509a87.287,87.287,0,0,1-2.647-14.6,75.464,75.464,0,0,1,.032-14.8.856.856,0,0,0-.764-.9.823.823,0,0,0-.893.721c-.581,4.961-1.475,9.836-2.529,14.679C48.805,101.89,46.8,109.089,44.8,116.31a.838.838,0,0,0,.559,1.012,2.052,2.052,0,0,1,1,.689,8.948,8.948,0,0,1,1.646,4.379,10.233,10.233,0,0,1,.063,2,11.24,11.24,0,0,0-2.135-1.872,114.545,114.545,0,0,1-6-19.684c-.9-4.273-1.668-8.609-2.281-12.946-.947-6.618-1.571-13.247-2.034-19.661a.822.822,0,0,0-.839-.775.84.84,0,0,0-.807.8,138.487,138.487,0,0,1-2.056,17.068c-1.373,7.9-3.231,15.7-5.011,23.607-1.1-3.646-.7-7.247-.012-10.86,1.474-6.861,3.824-13.526.742-19.7-2.087-4.133-5.369-6.328-8.91-8.082-3.465-1.722-7.156-2.992-10.051-5.5a14.513,14.513,0,0,1-4.584-8.146,17.185,17.185,0,0,1-.216-5.876.544.544,0,0,0-.43-.592.527.527,0,0,0-.592.431,17.091,17.091,0,0,0-.118,6.3A14.741,14.741,0,0,0,7.6,68.012c2.97,2.615,6.8,3.971,10.4,5.757,3.207,1.6,6.263,3.562,8.147,7.318,2.909,5.772.516,11.989-.754,18.67-.846,4.693-.992,9.112,1.053,13.421A5.523,5.523,0,0,0,27.83,117a12.561,12.561,0,0,0,5.068,3.724c2.414.928,4.382.373,6.662.656a9.753,9.753,0,0,1,3.185.969,14.666,14.666,0,0,1,5.432,4.884,12.633,12.633,0,0,1,1.313,2.54,3.689,3.689,0,0,1,.143,1.956,2.746,2.746,0,0,1-.14.625.661.661,0,0,0,1.174.6,13.181,13.181,0,0,0,1.345-3.3c1.146-4.38-.469-5.937,1.076-12.117a16,16,0,0,1,3.938-7.339A.643.643,0,0,0,57.22,109.509Z" fill="#004481"></path><path d="M197.406,38.31a.543.543,0,0,0-.753-.118,54.228,54.228,0,0,0-5.155,3.831,12.714,12.714,0,0,0-2.841,3.454,15.98,15.98,0,0,0-1.635,6.113c-.313,4,.667,8.135,1.205,12.214a23.342,23.342,0,0,1-.045,7.829c-.314-.144-.733-.3-1.263-.5a14.1,14.1,0,0,0-3.887-.775,3.393,3.393,0,0,0-1,.146,82.037,82.037,0,0,1-2.685-10.2,85.161,85.161,0,0,1-1.625-19.209.818.818,0,0,0-.754-.839.842.842,0,0,0-.893.732,193.733,193.733,0,0,1-3.723,23.545A185.623,185.623,0,0,1,165.8,87.417a.81.81,0,0,0,.312.969.945.945,0,0,0,.1.055,23.986,23.986,0,0,0-1.761,3.06c-1.4-2.72-2.7-5.56-3.926-8.463a104.924,104.924,0,0,1-3.8-10.826,76.569,76.569,0,0,1-3.39-22.545.788.788,0,0,0-.743-.84.829.829,0,0,0-.893.732,163.633,163.633,0,0,1-5.434,27.915,113.808,113.808,0,0,1-11.03,26.1.8.8,0,0,0,.053.893.832.832,0,0,0,.84.323,5.226,5.226,0,0,1,1.829,0c3.384.563,7.288,3.972,8.857,7.877a12.8,12.8,0,0,1,.344,8.3.7.7,0,0,0,.247.8.73.73,0,0,0,.84.075,28.793,28.793,0,0,0,6.855-5.262,25.7,25.7,0,0,0,4.724-7.264c1.517-3.476,2.077-7.189,3.218-10.729a28.267,28.267,0,0,1,4.474-9.344,13.861,13.861,0,0,1,4.262-3.95,21.435,21.435,0,0,1,5.3-2.146c3.259-.862,8.394-1.731,11.3-7.184a15.5,15.5,0,0,0,1.733-6.123c.323-4.014-.624-8.146-1.216-12.246-.538-3.9-.786-7.77,1.022-11.482a11.063,11.063,0,0,1,2.432-3.143,53.059,53.059,0,0,1,4.94-3.9A.576.576,0,0,0,197.406,38.31ZM184.915,77.693c-.89-1.882-1.693-3.837-2.412-5.844.206.06.408.1.572.14,3.224.526,2.812.567,3.737.678.393.056.76.106,1.073.119a13.281,13.281,0,0,1-.982,2.382A8.928,8.928,0,0,1,184.915,77.693Z" fill="#004481"></path><path d="M133.881,159.608a13.216,13.216,0,0,0-3.96-7.532,11.111,11.111,0,0,0-7.188-2.745,37.059,37.059,0,0,0-.861-11.148,18.6,18.6,0,0,0-3.595-7.286.489.489,0,0,0-.7-.1.517.517,0,0,0-.108.721,18.156,18.156,0,0,1,2.885,7.027,41.388,41.388,0,0,1,.688,11.558.787.787,0,0,0,.237.635.828.828,0,0,0,.624.258,9.552,9.552,0,0,1,6.9,2.336,11.422,11.422,0,0,1,3.444,6.575,34.863,34.863,0,0,1,.5,5.8c0,2.959-.247,5.94-.452,8.91a6.112,6.112,0,0,1-5.864,5.693l-2.062.068a.524.524,0,0,0-.508-.429.507.507,0,0,0-.517.5c-.1,4.014-2.421,6.113-5.574,7.243a24.914,24.914,0,0,1-6,1.162c-.1.009-21.854,1.266-25.5.6-5.513-1.148-6.808-2.3-8.017-3.777a8.007,8.007,0,0,1-1.841-4.767.822.822,0,0,0-.236-.6.831.831,0,0,0-.625-.215c-1.07.058-3.2.483-5.262.818a5.963,5.963,0,0,1-4.476-1.108,5.867,5.867,0,0,1-2.357-4c-.551-5.429-1.248-13.356,1.162-18.337a9.575,9.575,0,0,1,8.028-5.434,18.126,18.126,0,0,1,1.905-.129.686.686,0,0,0,.516-.216.651.651,0,0,0,.194-.527c-.032-.247-.054-.5-.086-.753-.086-.538-.162-1.087-.248-1.625-.447-3.48,1.546-12.588,4.455-15.346a.523.523,0,0,0,.022-.764.516.516,0,0,0-.742-.032c-3.281,3-5.538,12.438-5.112,16.314.054.517.161,1.033.226,1.55a12.721,12.721,0,0,0-1.3.1,10.96,10.96,0,0,0-9.255,6.176c-2.571,5.143-2.037,13.5-1.4,19.242a7.613,7.613,0,0,0,8.738,6.532c5.63-.939,3.606-.589,4.272-.7a9.74,9.74,0,0,0,2.131,4.875c1.449,1.784,3.045,3.146,8.986,4.358,4.023.805,25.9-.656,26-.667a24.153,24.153,0,0,0,6.339-1.409c3.3-1.3,5.764-3.567,6.07-7.548l2.117.01a7.529,7.529,0,0,0,4.939-1.937,7.437,7.437,0,0,0,2.368-4.8c.279-3,.57-6.027.592-9.029A35.187,35.187,0,0,0,133.881,159.608Z" fill="#004481"></path><path d="M86.323,179.18c-3.783-.187-5.564-3.368-6.317-6.909a22.468,22.468,0,0,1-.409-5.746,37.677,37.677,0,0,1,1.4-8.448,15.522,15.522,0,0,1,8.986-10.449,25.558,25.558,0,0,1,13.806-1.248c4.316.677,7.017,2.421,8.717,4.831,2.561,3.573,2.9,8.728,3.078,14.334a40.808,40.808,0,0,1,.054,6.317,7.654,7.654,0,0,1-1.7,4.208c-2.053,2.211-5.747,2.312-8.533,2.615-3.778.4-7.415.8-11.095.861m-.022-1.227c3.616-.14,7.232-.6,10.955-1.065,2.375-.286,5.933-.468,7.533-2.228a6.058,6.058,0,0,0,1.27-3.357,40.028,40.028,0,0,0-.086-6.059c-.194-5.252-.4-10.094-2.809-13.441-1.474-2.1-3.852-3.551-7.64-4.132a23.7,23.7,0,0,0-12.871,1.119,13.893,13.893,0,0,0-8.071,9.373,39.063,39.063,0,0,0-1.41,8.071,23.513,23.513,0,0,0,.226,5.391c.528,3.067,1.912,5.886,5.123,6.188" fill="#004481"></path><path d="M112.1,155.973a.546.546,0,0,0-.678.355,7.226,7.226,0,0,1-2.991,3.778c-2.24,1.456-5.43,1.923-8.1,2.023a57.193,57.193,0,0,1-7.878-.4,17.624,17.624,0,0,1-5.187-1.13,5.974,5.974,0,0,1-2.668-2.024.506.506,0,0,0-.7-.161.519.519,0,0,0-.172.7,6.822,6.822,0,0,0,2.873,2.862,15.763,15.763,0,0,0,5.693,1.4,58.262,58.262,0,0,0,8.092.409,17.616,17.616,0,0,0,8.071-1.959,8.454,8.454,0,0,0,4-5.176A.563.563,0,0,0,112.1,155.973Z" fill="#004481"></path><path d="M173.4,42.988c-3.174-.86-6.317-1.872-9.438-2.959-2.862-1-5.724-2.066-8.533-3.164a7.788,7.788,0,0,0-.872-8.943,13.077,13.077,0,0,0-7.63-4.637,7.36,7.36,0,0,0,0-5.241,8.547,8.547,0,0,0-4.39-4.337,11.441,11.441,0,0,0-10.74.441A9,9,0,0,0,125.644,9.1a15.778,15.778,0,0,0-12.914,2.55,11.556,11.556,0,0,0-3.874,5.736,18.148,18.148,0,0,0-.064,8.835c-3.993-.527-6.92,1.7-8.545,4.886a13.037,13.037,0,0,0-.581,10.32,1.941,1.941,0,0,0-.979,1.367,1.686,1.686,0,0,0,.624,1.259,6.15,6.15,0,0,0,1.7.979,21.577,21.577,0,0,0,3.939,1.13,57.893,57.893,0,0,0,7.35.71c3.691.151,7.414.032,10.955-.064,8.071-.248,16.142-.485,24.2-.894s16.142-.968,24.169-1.657a.512.512,0,0,0,.474-.5c.334.086.7.183,1.022.258a.51.51,0,0,0,.646-.376A.571.571,0,0,0,173.4,42.988Zm-21.156,1.2q-5.812.227-11.612.431c-5.833.194-11.622.377-17.412.538-3.508.1-7.231.194-10.847.054a55.258,55.258,0,0,1-7.167-.7,18.147,18.147,0,0,1-4.014-1.226,5.34,5.34,0,0,1-.7-.409,5.98,5.98,0,0,1,.592-.291.82.82,0,0,0,.463-.484.752.752,0,0,0-.032-.678,10.849,10.849,0,0,1,.247-9.567c1.453-2.841,4.165-4.778,7.888-3.766a.818.818,0,0,0,1.012-1,19.353,19.353,0,0,1-.538-7.748,9.927,9.927,0,0,1,3.648-6.392,14.076,14.076,0,0,1,9.481-2.616c3.293.3,6.338,1.873,7.382,5.327a.718.718,0,0,0,.549.538.8.8,0,0,0,.753-.15c2.679-2.3,6.844-2.357,9.954-.915a6.824,6.824,0,0,1,3.584,3.5,6.052,6.052,0,0,1-.291,4.939.79.79,0,0,0,.032.678.714.714,0,0,0,.581.376,11.477,11.477,0,0,1,7.641,4.165,6.485,6.485,0,0,1,.463,8.028.669.669,0,0,0-.076.57.763.763,0,0,0,.4.42c3.077,1.162,6.187,2.292,9.34,3.347,2.314.764,4.595,1.485,6.909,2.141C164.406,43.677,158.315,43.946,152.246,44.193Z" fill="#004481"></path><path d="M14.816,40.016c.291-4.982,3.39-7.856,6.715-8.361,3.369-.517,7.124,1.377,8.556,6.144a6.751,6.751,0,0,1,8.565,5.478,4.17,4.17,0,0,1,3.939,1.259,4.126,4.126,0,0,1,.775,4.2c1.033.344,2.034.688,3.024,1.011.818.248,1.625.495,2.464.7a.55.55,0,0,1,.377.645.523.523,0,0,1-.646.4c-.215-.043-.43-.1-.656-.151a1.026,1.026,0,0,1-.162.054c-17.054,2.319-31.114,2.548-34.6,2.26A9.3,9.3,0,0,1,9.9,52.876c-1.571-.721-1.861-1.776-1.646-2.744a4.425,4.425,0,0,1,2.217-2.465,5.349,5.349,0,0,1,.323-4.767,6.188,6.188,0,0,1,4.024-2.884M45.26,50.584c-.969-.291-1.948-.6-2.895-.9a.542.542,0,0,1-.376-.355.56.56,0,0,1,.032-.506,3,3,0,0,0-.409-3.39,2.927,2.927,0,0,0-3.315-.592.623.623,0,0,1-.624-.054.65.65,0,0,1-.323-.538,5.354,5.354,0,0,0-7.533-4.7.792.792,0,0,1-.645-.043.772.772,0,0,1-.4-.517c-1.033-4.315-4.111-6.145-6.974-5.7-2.83.441-5.316,3.056-5.369,7.446a.835.835,0,0,1-.732.818,4.612,4.612,0,0,0-3.476,2.185,3.813,3.813,0,0,0,.1,3.938.847.847,0,0,1-.474,1.227,3.431,3.431,0,0,0-1.84,1.324.787.787,0,0,0-.14.516c.065.259.3.442.732.635a7.75,7.75,0,0,0,2.7.624c6.108.513,25.472-.852,31.961-1.409" fill="#004481"></path><path d="M112.648,82.617a4.735,4.735,0,0,0-2.987-2.323c.068-.678.231-2.809.251-4.018a21.511,21.511,0,0,0-.162-2.647,9.839,9.839,0,0,0-3.745-6.7,11.887,11.887,0,0,0-7.3-2.357,22.625,22.625,0,0,0-3.185.248c-4.025.591-7.931,2.109-11.978,2.141a8.034,8.034,0,0,1-1.84-.2c-1-.2-1.98-.517-2.916-.775a.871.871,0,0,0-.872.279.815.815,0,0,0-.064.894,17.354,17.354,0,0,0,2.066,3.282c.409.495.839.979,1.27,1.442-.893-.043-1.808-.162-2.669-.28a.825.825,0,0,0-.839.441.815.815,0,0,0,.107.947,14.63,14.63,0,0,0,2.023,1.787c.377.269.754.538,1.173.8-.387-.011-.764-.021-1.119-.043a.8.8,0,0,0-.807.473.858.858,0,0,0,.161.937,15.273,15.273,0,0,0,4.326,2.991,20.664,20.664,0,0,0,4.284,1.5q.009.106.021.213a.345.345,0,0,0-.046.012,4.237,4.237,0,0,0-2.949,2.873,4.675,4.675,0,0,0,.732,4.2,5.565,5.565,0,0,0,1.345,1.152,10.184,10.184,0,0,0,1.571.678,10.094,10.094,0,0,0-.021,1.28,18.829,18.829,0,0,0,.323,2.83,11.96,11.96,0,0,0,1.915,5.5,5.749,5.749,0,0,0,2.938,2.013c.288,2.578.42,3.143.516,4.111a.561.561,0,0,0,.592.495.507.507,0,0,0,.484-.56c-.028-1.464-.193-2.737-.193-4.606a.714.714,0,0,0-.527-.7,4.453,4.453,0,0,1-2.54-1.722A10.609,10.609,0,0,1,90.43,94.4a26.133,26.133,0,0,1-.279-2.626,7.866,7.866,0,0,1,.086-1.678.826.826,0,0,0-.57-.9,10.5,10.5,0,0,1-1.884-.764,3.041,3.041,0,0,1-.893-.743,3.175,3.175,0,0,1-.538-2.744A3.1,3.1,0,0,1,88,82.66c.094.534.214,1.068.347,1.6a48.4,48.4,0,0,0,1.668,4.853,45.21,45.21,0,0,0,2.841,6.156,18.087,18.087,0,0,0,2.809,3.67,2.912,2.912,0,0,0,1.861.807,15.926,15.926,0,0,0,3.971-.463.564.564,0,0,0,.431-.452,55,55,0,0,0,3.852-5.779,26.772,26.772,0,0,0,1.466-2.973,17.527,17.527,0,0,1-.785,6.171,6.271,6.271,0,0,1-3.109,3.584.753.753,0,0,0-.4.656c.051,1.628.1,1.8.345,5.133a.561.561,0,0,0,.57.506.55.55,0,0,0,.517-.57v-4.617a7.537,7.537,0,0,0,3.583-4.1,20.25,20.25,0,0,0,.926-7.694,5.914,5.914,0,0,0,3.615-3.078A4.09,4.09,0,0,0,112.648,82.617ZM102.7,70.037a.515.515,0,0,1-.722.2,9.028,9.028,0,0,0-2.862-.785,18.891,18.891,0,0,0-6.1.624,24,24,0,0,1-5.941.85,9.021,9.021,0,0,1-2.324-.473.524.524,0,0,1-.4-.6.518.518,0,0,1,.624-.4,12.025,12.025,0,0,0,1.754-.043,30.343,30.343,0,0,0,5.929-.969A16.1,16.1,0,0,1,99.356,68a9.239,9.239,0,0,1,3.131,1.313A.492.492,0,0,1,102.7,70.037Zm4.137,3.811c-.4.19-1.118-.405-1.194-.5a3.46,3.46,0,0,1-.452-.592c-.3-.7-.141-1.216.021-1.345a1.322,1.322,0,0,1,1.464.527,2.838,2.838,0,0,1,.344.646C107.057,72.68,107.258,73.594,106.84,73.848Zm4.183,11.513a4.221,4.221,0,0,1-2.941,2.273c.318-1.05.615-2.112.861-3.179q.359-1.476.573-2.969h0a3.548,3.548,0,0,1,1.668,1.743A2.729,2.729,0,0,1,111.023,85.361Z" fill="#004481"></path><path d="M76.046,133.485a.567.567,0,0,0-.764.129l-.14.173c-3.724,1.28-8.631,2.647-13.064,2.324a10.413,10.413,0,0,1-7.641-3.551.8.8,0,0,0-.624-.291.853.853,0,0,0-.624.291,48.127,48.127,0,0,0-7.845,13.376,44.347,44.347,0,0,0-3.024,15.227,19,19,0,0,0,2.4,9.643,13.33,13.33,0,0,0,7.834,6.166,13.994,13.994,0,0,0,3.185.527,29.608,29.608,0,0,0,4.66-.2.879.879,0,0,0,.6-.355.838.838,0,0,0,.108-.679,17.161,17.161,0,0,1-.409-2.109c-.129-1.108-.194-2.227-.269-3.325a37.984,37.984,0,0,1,.71-11.364,14.14,14.14,0,0,1,2.943-6c-.044-.419-.091-.834-.114-1.267a30.051,30.051,0,0,1,.236-4.423c.152-.556.517-1.637,1.087-1.55.524.1.538,1.509.538,1.615,0,.085-.247,3.714-.269,3.981-.012.112-.023.224-.035.336a11.828,11.828,0,0,1,2.114-1.149,16.2,16.2,0,0,1,3.7-1.076.719.719,0,0,0,.56-.7,26.02,26.02,0,0,1,.871-7.856,22.091,22.091,0,0,1,3.132-6.779.491.491,0,0,0,.237-.355A.59.59,0,0,0,76.046,133.485ZM53.9,140.636a63.643,63.643,0,0,0-3.346,8.609c-.789,2.521-1.537,6.1-2.024,8.534-.4,2.087-.356,2.708-1,2.636-.722-.1-.49-.97-.3-2.83a46.789,46.789,0,0,1,1.7-8.8,35.887,35.887,0,0,1,3.4-8.233c.742-1.229,1.483-2.471,2.077-2.12C54.908,138.756,54.539,139.172,53.9,140.636Z" fill="#4CBCC3"></path><path d="M154.652,153.134c-1.356-5.821-4.617-11.762-7.06-15.679a30.333,30.333,0,0,0-2.507-3.476,21.64,21.64,0,0,0-3.153-2.97.831.831,0,0,0-1.13.129c-2,2.357-5.327,3.325-8.749,3.422a20,20,0,0,1-9.588-2.119.817.817,0,0,0-.969.139.834.834,0,0,0-.14.958,21.245,21.245,0,0,1,2.023,6.747,34.959,34.959,0,0,1,.226,7.157.729.729,0,0,0,.194.581.747.747,0,0,0,.527.269,9.092,9.092,0,0,1,2.185.409,14.75,14.75,0,0,1,2.125.853c-.043-.156-.087-.314-.126-.477-.046-.256-.516-3.167-.516-3.4,0-.53.047-1.494.57-1.571.5-.08.921.929,1,1.291a26.454,26.454,0,0,1,.549,3.648,8.535,8.535,0,0,1-.025,1.316,11.139,11.139,0,0,1,4.955,6.766c1.3,4.842.248,10.686-.236,15.98a.491.491,0,0,0,.021.28.542.542,0,0,0,.571.452,29.632,29.632,0,0,0,12.149-3.131,15.86,15.86,0,0,0,6.123-5.962C155.566,161.421,155.6,157.3,154.652,153.134Z" fill="#4CBCC3"></path></g></svg>