<svg id="SvgjsSvg1122" width="288" height="288" xmlns="http://www.w3.org/2000/svg" version="1.1" xmlns:xlink="http://www.w3.org/1999/xlink" xmlns:svgjs="http://svgjs.com/svgjs"><defs id="SvgjsDefs1123"></defs><g id="SvgjsG1124"><svg xmlns="http://www.w3.org/2000/svg" enable-background="new 0 0 94.8 43.3" viewBox="0 0 94.8 43.3" width="288" height="288"><path fill="#addfdf" d="M87.6,4H80H64.6H31.2H15.8H8.2C6.4,9,5.4,15.2,5.4,21.9s1,12.9,2.8,17.8h7.6h15.4h33.3H80h7.6
		c1.8-5,2.8-11.2,2.8-17.8S89.4,9,87.6,4z" class="color679dd2 svgShape"></path><path fill="#ffffff" d="M21.6 28.7v-.5c-.5 0-.8-.4-.8-.9 0-.2 0-.7.1-1.1l.6-1.9h5.1l.8 2c.1.4.3.8.3 1.1 0 .5-.3.8-.7.8v.5c.7 0 1.5-.1 2.2-.1.7 0 1.5.1 2.2.1v-.5c-.8-.1-1-.8-1.7-2.7l-4.7-12.2h-.3L20 25c-.4 1-1.2 3.1-2.1 3.2v.5c.6 0 1.2-.1 1.9-.1C20.4 28.6 21 28.7 21.6 28.7zM24.1 17.6l2.2 5.7H22L24.1 17.6zM35.4 28.9c.7 0 1.2-.1 1.5-.3l1.2-1.1c.4.7.9 1.2 1.6 1.4.4-.5 1.2-1.1 2-1.6L41.5 27c-.1.1-.3.2-.6.2-.5 0-.7-.4-.7-1.2v-5.4c0-3.1.1-5.6.1-7.2h-.4c-.5.6-1.8 1.2-2.9 1.5v.4c.6.1 1.1.4 1.1 1.6V20c-.7-.4-1.5-.5-2.2-.5-2.8 0-4.8 1.7-4.8 4.7C31 26.9 32.8 28.9 35.4 28.9zM35.8 20.4c1.7 0 2.3.9 2.3 2.9v3.6c-.6.5-1.1.8-1.8.8-1.9 0-3-2.1-3-3.9C33.4 22.2 34.1 20.4 35.8 20.4zM46.8 28.9c.9 0 1.6-.2 2-.3l1.2-1.7-.2-.3c-.7.5-1.5.7-2.3.7-2.2 0-3.8-2-3.6-4.1h6.3c0-2.3-1.8-3.7-4-3.7-2.9 0-4.4 2.7-4.4 4.7C41.8 26.3 43.3 28.9 46.8 28.9zM45.9 20.2c1.4 0 2 .8 2 2.1H44C43.9 21.2 44.7 20.2 45.9 20.2zM55.6 26.7c0 .8-.7 1.3-1.5 1.3-1 0-1.8-.7-2-1.8h-.8l.1 2c.7.4 1.8.6 2.5.6 1.9 0 3.4-.8 3.4-2.9 0-3-4.3-2.2-4.3-4.3 0-.9.6-1.4 1.5-1.4 1.2 0 1.8.5 2 1.6h.7l.1-2c-.9-.3-1.8-.6-2.8-.6-1.8 0-3.4.9-3.4 2.9C51.1 25.5 55.6 25.1 55.6 26.7zM59.1 16.5c.1.8.2 2.4.2 3.7v7c0 .5-.2.9-.9 1v.4c.6 0 1.2-.1 1.9-.1.7 0 1.3.1 2 .1v-.4c-.7-.1-.8-.5-.8-1.2v-8.4c0-2 .1-4.1.1-5.3H61c-.6.6-2.3 1.2-3 1.3v.5C58.7 15.1 59.1 15.7 59.1 16.5zM65.6 28.9c1 0 1.6-.5 2.4-1.1.3.5.9 1 1.7 1.1l1.6-1.3L71 27.3c-.1 0-.3.1-.4.1-.5 0-.7-.3-.7-1.3v-.8c0-1.2.1-2.4.1-3.1 0-2.2-1.6-2.7-3.6-2.7-1 0-1.9.1-2.8.4V22h.5c.5-.8 1.1-1.2 2.1-1.2 1.5 0 1.6 1.3 1.6 2.5-.3 0-.7-.1-1-.1-2 0-4.2.9-4.2 3.2C62.7 28 64.1 28.9 65.6 28.9zM66.8 23.9c.4 0 .8.1 1 .1l.1 3.2c-.4.2-.8.4-1.5.4-.9 0-1.7-.8-1.7-1.8C64.8 24.5 65.8 23.9 66.8 23.9zM76.2 26.7c0 .8-.7 1.3-1.5 1.3-1 0-1.8-.7-2-1.8h-.8l.1 2c.7.4 1.8.6 2.5.6 1.9 0 3.4-.8 3.4-2.9 0-3-4.3-2.2-4.3-4.3 0-.9.6-1.4 1.5-1.4 1.2 0 1.8.5 2 1.6h.7l.1-2c-.9-.3-1.8-.6-2.8-.6-1.8 0-3.4.9-3.4 2.9C71.8 25.5 76.2 25.1 76.2 26.7z" class="colorfff svgShape"></path></svg></g></svg>