<svg xmlns="http://www.w3.org/2000/svg" version="1.1" xmlns:xlink="http://www.w3.org/1999/xlink" xmlns:svgjs="http://svgjs.com/svgjs" width="512" height="512" x="0" y="0" viewBox="0 0 512 512" style="enable-background:new 0 0 512 512" xml:space="preserve" class=""><g><circle cx="256" cy="256" r="250" fill="#004481" data-original="#fef2e2" class=""></circle><path fill="#ffffff" d="M143.175 270.809c13.116-13.201 34.375-13.201 47.577 0l65.322 65.322.086-.172 65.15-65.15c13.116-13.116 34.376-13.201 47.491 0 12.944 12.776 13.349 34.228 0 47.577l-88.982 89.068c-13.116 13.116-34.375 13.116-47.577 0l-89.067-89.068c-13.116-13.116-13.116-34.461 0-47.577z" data-original="#9ccaf2" class=""></path><path fill="#ffffff" d="M143.175 104.611c13.116-13.201 34.375-13.201 47.577 0l65.322 65.322.086-.172 65.15-65.15c13.116-13.116 34.376-13.201 47.491 0 12.944 12.776 13.349 34.228 0 47.577l-88.982 89.068c-13.116 13.116-34.375 13.116-47.577 0l-89.067-89.068c-13.116-13.116-13.116-34.461 0-47.577z" data-original="#ffffff" class=""></path><g fill="#202329"><path d="m137.47 324.088 89.088 89.088c8.151 8.096 18.83 12.144 29.502 12.144 10.687 0 21.358-4.056 29.462-12.16l88.977-89.072c16.545-16.528 16.085-43.121.016-58.964-16.224-16.322-42.582-16.343-58.909-.016l-59.578 59.57-59.57-59.57c-16.152-16.136-42.519-16.567-59.003.016-16.248 16.263-16.24 42.708.015 58.964zm11.404-47.576c.008-.008.016-.008.016-.016 9.98-10.029 26.093-10.039 36.164.016l65.319 65.319c1.827 1.835 4.442 2.583 7.041 2.174 1.796-.291 3.442-1.229 4.67-2.56l64.926-64.934c9.804-9.804 25.922-10.23 36.125.039 9.801 9.672 10.129 25.964-.039 36.133l-88.977 89.072c-9.939 9.947-26.17 9.939-36.172 0l-89.072-89.072c-9.971-9.97-9.971-26.201-.001-36.171z" fill="#ffffff" data-original="#202329" class=""></path><path d="M226.558 246.971c8.151 8.104 18.83 12.152 29.51 12.152 10.679 0 21.35-4.056 29.454-12.168l88.977-89.064c16.53-16.514 16.094-43.112.024-58.956-16.2-16.314-42.554-16.386-58.917-.024l-59.57 59.57-59.578-59.57c-16.512-16.512-42.868-16.216-59.003.016-16.239 16.263-16.239 42.701.016 58.964zm-77.684-136.656.016-.016c9.842-9.906 25.973-10.176 36.164.016l65.319 65.319c1.827 1.835 4.442 2.583 7.041 2.174 1.796-.291 3.442-1.229 4.67-2.56l64.926-64.934c9.946-9.946 26.043-10.108 36.125.039 9.801 9.672 10.129 25.964-.039 36.133l-88.977 89.064c-9.939 9.947-26.17 9.931-36.172 0l-89.072-89.064c-9.971-9.977-9.971-26.201-.001-36.171z" fill="#ffffff" data-original="#202329" class=""></path></g></g></svg>