<svg id="SvgjsSvg1019" width="288" height="288" xmlns="http://www.w3.org/2000/svg" version="1.1" xmlns:xlink="http://www.w3.org/1999/xlink" xmlns:svgjs="http://svgjs.com/svgjs"><defs id="SvgjsDefs1020"></defs><g id="SvgjsG1021"><svg xmlns="http://www.w3.org/2000/svg" enable-background="new 0 0 88.5 32.7" viewBox="0 0 88.5 32.7" width="288" height="288"><path fill="#addfdf" d="M10.9,13.9c2.6,2.5,3.6,6.7,4,8.3c0.3,1,1.3,1.5,2.2,1.3c1-0.3,1.5-1.3,1.3-2.2c-0.4-1.7-1.7-5.8-0.7-9.2
		c0.9-3.5,4-6.4,5.2-7.6c0.7-0.7,0.7-1.9,0-2.6c-0.7-0.7-1.9-0.7-2.6,0c-1.2,1.2-4.2,4.3-7.6,5.2c-3.4,1-7.6-0.3-9.2-0.7
		c-1-0.3-2,0.3-2.2,1.3c-0.3,1,0.3,2,1.3,2.2C4.2,10.3,8.4,11.3,10.9,13.9" class="colorb1132f svgShape"></path><path fill="#addfdf" d="M34.5 10.8c-.5.2-1.3.5-2.5.5-2.7 0-4.4-1.5-4.4-4.9 0-3.3 1.8-4.9 4.7-4.9 1.2 0 2.1.3 2.1.3v2.6h-1.3V3.3l-.2-.2C32.7 3 32.5 3 32.2 3c-1.9 0-2.4 1.2-2.4 3.3 0 2.4.6 3.6 2.5 3.6.2 0 .5 0 .7 0l.2-.2V8.4h1.3V10.8M39.1 9.5V8.3h-1c-.6 0-.9.3-.9.7 0 .6.2.8.8.8C38.5 9.8 38.9 9.6 39.1 9.5M42 11.2h-2.1c-.5 0-.6-.3-.6-.6v-.2h-.1c-.2.2-.9.9-1.9.9-1.5 0-2-1-2-2.1 0-1.3.9-2 2.4-2h1.5V6.6c0-.8 0-1.3-1.2-1.3-.2 0-.4 0-.6 0l-.2.2v.9h-1.3V4.3c0 0 1.1-.4 2.8-.4 1.9 0 2.5 1 2.5 2.3V10l.2.2H42V11.2zM45.2 5.1V10l.2.2h1.3v1c0 0-.9.1-1.8.1-1.2 0-1.8-.4-1.8-1.7V5.1h-.8v-1h.6l.2-.2.8-1.7h1.3v1.9h1.5v1H45.2M51 9.5V8.3h-1c-.6 0-.9.3-.9.7 0 .6.2.8.8.8C50.4 9.8 50.7 9.6 51 9.5M53.8 11.2h-2.1c-.5 0-.6-.3-.6-.6v-.2H51c-.2.2-.9.9-1.9.9-1.5 0-2-1-2-2.1 0-1.3.9-2 2.4-2H51V6.6c0-.8 0-1.3-1.2-1.3-.2 0-.4 0-.6 0L49 5.5v.9h-1.3V4.3c0 0 1.1-.4 2.8-.4 1.9 0 2.5 1 2.5 2.3V10l.2.2h.6V11.2zM56.5 1.4c.5 0 .6.3.6.6v8l.2.2h.6v1h-3.7v-1h.6L55 10V2.6l-.2-.2h-.6v-1H56.5M62.3 9.5V8.3h-1c-.6 0-.9.3-.9.7 0 .6.2.8.8.8C61.7 9.8 62.1 9.6 62.3 9.5M65.2 11.2H63c-.5 0-.6-.3-.6-.6v-.2h-.1c-.2.2-.9.9-1.9.9-1.5 0-2.1-1-2.1-2.1 0-1.3.9-2 2.4-2h1.5V6.6c0-.8 0-1.3-1.2-1.3-.2 0-.4 0-.6 0l-.2.2v.9H59V4.3c0 0 1.1-.4 2.8-.4 1.9 0 2.5 1 2.5 2.3V10l.2.2h.6V11.2zM65.6 11.2v-1h.6l.2-.2V5.3l-.2-.2h-.6v-1h2.1c.5 0 .6.3.6.6v.2h.1c.2-.2.9-.9 2-.9 1.6 0 2.1 1 2.1 2.2V10l.2.2h.6v1h-3.6v-1h.4l.2-.2V6.4c0-.4 0-1-.9-1-.5 0-.9.2-1.1.4V10l.2.2h.4v1H65.6M77.7 9.5V8.3h-1c-.6 0-.9.3-.9.7 0 .6.2.8.8.8C77.1 9.8 77.5 9.6 77.7 9.5M80.6 11.2h-2.1c-.5 0-.6-.3-.6-.6v-.2h-.1c-.2.2-.9.9-1.9.9-1.5 0-2-1-2-2.1 0-1.3.9-2 2.4-2h1.5V6.6c0-.8 0-1.3-1.2-1.3-.2 0-.4 0-.6 0l-.2.2v.9h-1.3V4.3c0 0 1.1-.4 2.8-.4 1.9 0 2.5 1 2.5 2.3V10l.2.2h.6V11.2zM29.8 31.1c-1 0-1.7-.2-1.7-.2v-1.6h.8v.8l.1.1c.2 0 .5.1.8.1.7 0 .9-.3.9-.8 0-.5-.2-.7-.9-.8-1.2-.3-1.7-.7-1.7-1.8 0-1.1.9-1.7 2.1-1.7.9 0 1.5.2 1.5.2v1.5H31v-.8l-.1-.1c-.2 0-.4-.1-.6-.1-.6 0-.9.3-.9.7 0 .4.1.6 1 .9 1.1.3 1.7.7 1.7 1.7C31.9 30.5 31.1 31.1 29.8 31.1M33.8 28.5h1.1v-.2c0-.6-.1-.9-.5-.9C34 27.4 33.9 27.8 33.8 28.5M35.9 29.1h-2.1c0 .9.4 1.2 1.2 1.2.4 0 .8-.1.9-.2v.6c-.2.1-.6.3-1.3.3-1 0-2-.6-2-2.1 0-1.6.8-2.3 1.9-2.3 1 0 1.7.7 1.7 1.7v.6L35.9 29.1zM38.5 27.3c-.4 0-.6.2-.6.7 0 .5.2.7.6.7.4 0 .6-.2.6-.7C39.1 27.5 38.8 27.3 38.5 27.3M37.7 30.9c-.1.1-.1.2-.1.5 0 .3.2.5.8.5.6 0 1.1-.2 1.1-.6 0-.3-.2-.4-.5-.4H37.7zM38.5 29.4c-.2 0-.4 0-.6-.1-.1.1-.2.2-.2.3 0 .2.1.2.3.2h1.2c.7 0 1.4.2 1.4 1.1 0 1-1 1.5-2.3 1.5-1.1 0-1.8-.2-1.8-.9 0-.3.3-.6.6-.7-.3-.1-.5-.4-.5-.8 0-.3.2-.7.7-1-.4-.2-.6-.6-.6-1.1 0-.9.8-1.4 1.7-1.4.2 0 .5 0 .7.1h1.5v.6h-.5L40 27.4c.1.2.2.4.2.6C40.2 28.9 39.4 29.4 38.5 29.4M44.7 26.7c.3 0 .4.2.4.4v3.2l.1.1h.4V31h-1.3c-.3 0-.4-.2-.4-.4v-.1h0c-.1.1-.5.6-1.1.6-1 0-1.2-.6-1.2-1.3v-2.3l-.1-.1H41v-.6h1.4c.3 0 .4.2.4.4v2.5c0 .2 0 .6.5.6.3 0 .5-.1.6-.2v-2.5l-.1-.1h-.4v-.6H44.7M47.9 30.4h.5V31H46v-.6h.4l.1-.1v-2.8l-.1-.1H46v-.6h1.3c.3 0 .4.2.4.4v.2h0c.1-.2.5-.6 1.2-.6.2 0 .3 0 .3 0v1.7h-.7v-.6l-.1-.1c-.3 0-.5.1-.6.2v2.4L47.9 30.4M51.6 27.4c-.5 0-.7.5-.7 1.5 0 1 .1 1.5.7 1.5.5 0 .7-.5.7-1.5C52.2 27.9 52.1 27.4 51.6 27.4M51.6 31.1c-1.1 0-1.9-.7-1.9-2.2 0-1.5.8-2.2 1.9-2.2 1.1 0 1.9.7 1.9 2.2C53.5 30.4 52.7 31.1 51.6 31.1M55.5 31.1c-.9 0-1.4-.2-1.4-.2v-1.2h.7v.5l.1.1c.2 0 .4 0 .6 0 .5 0 .6-.2.6-.5 0-.3-.1-.5-.8-.6-1-.2-1.2-.7-1.2-1.3 0-.9.6-1.4 1.7-1.4.7 0 1.2.1 1.2.1v1.2h-.7v-.5l-.1-.1c-.1 0-.3 0-.4 0-.4 0-.6.2-.6.4 0 .3 0 .5.6.6 1.1.2 1.4.6 1.4 1.3C57.3 30.6 56.6 31.1 55.5 31.1M31.6 15c-1.4 0-1.8 1.1-1.8 3.5s.4 3.5 1.8 3.5c1.4 0 1.8-1.1 1.8-3.5S32.9 15 31.6 15M31.6 23.3c-2.4 0-4-1.5-4-4.9 0-3.3 1.6-4.9 4-4.9s4 1.5 4 4.9C35.6 21.8 34 23.3 31.6 23.3M41.8 22.8c-.4.4-1.2.5-2 .5-1.8 0-3.4-1.1-3.4-3.6 0-2.6 1.7-3.8 3.6-3.8 1 0 1.8.3 1.8.3v2.3h-1.3v-1.1l-.2-.2-.1 0c-1.2 0-1.7.9-1.7 2.4 0 1.8.7 2.4 1.9 2.4.6 0 1.2-.2 1.4-.3V22.8M48 22.8c-.4.4-1.2.5-2 .5-1.8 0-3.4-1.1-3.4-3.6 0-2.6 1.7-3.8 3.6-3.8 1 0 1.8.3 1.8.3v2.3h-1.3v-1.1l-.2-.2-.1 0c-1.2 0-1.7.9-1.7 2.4 0 1.8.7 2.4 1.9 2.4.6 0 1.2-.2 1.4-.3V22.8M50.5 13.2c.8 0 1.1.4 1.1 1.1 0 .7-.4 1.1-1.1 1.1-.8 0-1.1-.4-1.1-1.1C49.3 13.6 49.7 13.2 50.5 13.2M51 16.1c.5 0 .6.3.6.6V22l.2.2h.6v1h-3.7v-1h.6l.2-.2v-4.7l-.2-.2h-.6v-1H51zM57.4 21.4v-3.5c-.4-.3-.8-.4-1-.4-.9 0-1.2.6-1.2 2.2 0 1.6.3 2.2 1.2 2.2C56.7 21.8 57 21.7 57.4 21.4M58.2 23.2c-.5 0-.6-.3-.6-.6v-.2h-.1c-.3.4-1 .9-1.8.9-1.4 0-2.6-1.1-2.6-3.6 0-2.6 1.2-3.8 2.6-3.8.7 0 1.4.4 1.8.8v-2.2l-.2-.2h-.6v-1h2.3c.5 0 .6.3.6.6v8l.2.2h.6v1H58.2zM62.9 19h1.9v-.4c0-1-.2-1.5-.8-1.5C63.3 17.2 63 17.8 62.9 19M66.5 20h-3.6c.1 1.5.6 2.1 1.9 2.1.7 0 1.3-.2 1.5-.3v1.1c-.4.2-1 .5-2.2.5-1.7 0-3.3-1-3.3-3.6 0-2.6 1.4-3.9 3.1-3.9 1.6 0 2.8 1.1 2.8 2.9v.9L66.5 20zM67.4 23.2v-1H68l.2-.2v-4.7L68 17.1h-.6v-1h2.1c.5 0 .6.3.6.6v.2h.1c.2-.2.9-.9 2-.9 1.6 0 2.1 1 2.1 2.2V22l.2.2h.6v1h-3.6v-1H72l.2-.2v-3.6c0-.4 0-1-.9-1-.5 0-.9.2-1.1.4V22l.2.2H71v1H67.4M78.4 17.1V22l.2.2h1.3v1c0 0-.9.1-1.8.1-1.2 0-1.8-.4-1.8-1.7v-4.6h-.8v-1h.6l.2-.2.8-1.7h1.3v1.9h1.5v1H78.4M82.4 19h1.9v-.4c0-1-.2-1.5-.8-1.5C82.8 17.2 82.5 17.8 82.4 19M86 20h-3.6c.1 1.5.6 2.1 1.9 2.1.7 0 1.3-.2 1.5-.3v1.1c-.4.2-1 .5-2.2.5-1.7 0-3.3-1-3.3-3.6 0-2.6 1.4-3.9 3.1-3.9 1.6 0 2.8 1.1 2.8 2.9v.9L86 20z" class="color777679 svgShape"></path></svg></g></svg>