<svg xmlns="http://www.w3.org/2000/svg" version="1.1" xmlns:xlink="http://www.w3.org/1999/xlink" xmlns:svgjs="http://svgjs.com/svgjs" width="512" height="512" x="0" y="0" viewBox="0 0 24 24" style="enable-background:new 0 0 512 512" xml:space="preserve" class=""><g><switch><g><path fill="#009696" d="M12 2C6.5 2 2 6.5 2 12s4.5 10 10 10 10-4.5 10-10S17.5 2 12 2zm4.3 7.6-4.6 6c-.2.2-.5.4-.8.4s-.6-.1-.8-.4l-2.4-3.1c-.3-.4-.3-1.1.2-1.4s1.1-.3 1.4.2l1.6 2.1 3.8-5c.3-.4 1-.5 1.4-.2.5.3.5.9.2 1.4z" data-original="#02bc7d" class=""></path></g></switch></g></svg>