<svg id="SvgjsSvg1016" width="288" height="288" xmlns="http://www.w3.org/2000/svg" version="1.1" xmlns:xlink="http://www.w3.org/1999/xlink" xmlns:svgjs="http://svgjs.com/svgjs"><defs id="SvgjsDefs1017"></defs><g id="SvgjsG1018"><svg xmlns="http://www.w3.org/2000/svg" enable-background="new 0 0 91.6 42.9" viewBox="0 0 91.6 42.9" width="288" height="288"><path fill="#addfdf" d="M32.5,14c2.7-0.1,5.4-0.2,8.2-0.2c0,0,0.1,0,0.1,0.2v10.8h-8.5V14.2C32.3,14.1,32.5,14,32.5,14 M3.3,18.2
		c2.5-0.7,5.3-1.3,8.1-1.8c0,0,0.1,0,0.1,0.1v3.7h2.4c3.7,0,6-1.6,6.2-5c0-0.1,0.1-0.2,0.1-0.2c2.6-0.3,5.3-0.6,8.1-0.8
		c0,0,0.1,0,0.1,0.1c0,0.1,0,0.3,0,0.4c0,3-1,5.9-2.7,7.3c-2.4,1.9-4.6,2.7-10.9,2.7H3.2v-6.5C3.2,18.3,3.2,18.2,3.3,18.2
		 M64.7,15.2c3.2,0.4,6.2,0.9,9,1.5c0,0,0.1,0.1,0.2,0.2l0.3,0.8l0.3-0.7c0-0.1,0.2-0.1,0.2-0.1c2.5,0.5,4.8,1.1,7,1.8
		c0,0,0.1,0.1,0.1,0.2l-2.6,5.9H68.7l-4.2-9.5C64.5,15.3,64.7,15.2,64.7,15.2 M41.6,13.8c3.3,0,6.6,0.1,9.7,0.2c0,0,0.1,0.1,0,0.1
		l8.8,10.6H49.4l-8-10.8C41.5,13.9,41.6,13.8,41.6,13.8" class="color93ba1f svgShape"></path><path fill="#addfdf" d="M3.2,18.4V4.6h10.3c6,0,9.9,0.5,12.6,3.3c1.4,1.4,2.4,3.7,2.5,6.5c-2.9,0.2-5.7,0.5-8.4,0.8c0-0.2,0-0.3,0-0.5
		c0-3.8-2.3-5.5-6.2-5.5h-2.4v7.3C8.6,17.1,5.8,17.7,3.2,18.4 M41.4,14l7.3-9.4h10.5l-7.9,9.6C48.2,14.1,44.8,14,41.4,14 M32.4,14.2
		V4.6h8.5V14C38,14,35.1,14.1,32.4,14.2 M74.5,17.1l4.9-12.5h8.7l-6.3,14.3C79.5,18.2,77.1,17.6,74.5,17.1 M64.5,15.4L59.7,4.6h9.4
		l4.7,12.4C70.9,16.3,67.8,15.8,64.5,15.4" class="color004941 svgShape"></path><path fill="#addfdf" d="M7.5,31c0.1-0.2,0.1-0.3,0.1-0.4c-0.4-0.4-1.3-0.6-1.9-0.6c-1.3,0-2.3,0.8-2.3,2.2c0,2.4,3.5,2,3.5,3.9
		c0,0.8-0.7,1.3-1.6,1.3c-0.5,0-1.2-0.2-1.7-0.6c-0.1,0-0.2,0-0.3,0.2l-0.1,0.1c-0.1,0.2-0.1,0.4-0.1,0.5c0.5,0.4,1.3,0.6,2.2,0.6
		c1.7,0,2.5-0.9,2.5-2.3c0-2.5-3.5-2.3-3.5-3.9c0-0.6,0.4-1.2,1.4-1.2c0.6,0,1,0.2,1.4,0.4c0.1,0,0.2,0,0.3-0.2L7.5,31z M13.4,32.4
		c-0.3,0-0.4,0-0.4,0.1L13,33c-0.3-0.4-0.8-0.7-1.5-0.7c-1.5,0-2.5,1.3-2.5,3.2c0,1.6,0.8,3,2.4,3c0.7,0,1.4-0.3,1.7-0.8l0.1,0.5
		c0,0.1,0.1,0.1,0.4,0.1h0c0.3,0,0.4,0,0.4-0.1c0-0.6-0.1-1.3-0.1-2.4v-1.6c0-0.7,0-1.4,0-1.7C13.9,32.4,13.9,32.4,13.4,32.4
		L13.4,32.4z M12.8,35.5c0,1,0,1.3-0.3,1.5c-0.3,0.3-0.7,0.4-1.1,0.4c-1.1,0-1.5-1.1-1.5-2.1c0-1.3,0.6-2.2,1.6-2.2
		c0.5,0,1,0.4,1.3,0.8V35.5z M15.9,29.7c-0.4,0-0.5,0-0.5,0.1c0.1,0.4,0.1,1.9,0.1,3.1v3.8c0,0.6,0,1,0.2,1.2
		c0.2,0.3,0.5,0.4,0.8,0.4c0.2,0,0.4,0,0.5-0.1c0.1,0,0.1-0.1,0.1-0.4v0c0-0.3,0-0.3-0.1-0.3h-0.1c-0.4,0-0.4-0.1-0.4-0.6v-3.7
		c0-1.7,0-3-0.1-3.3C16.4,29.8,16.3,29.7,15.9,29.7L15.9,29.7z M18.7,32.4c-0.4,0-0.4,0.1-0.4,0.1v3.4c0,0.9,0.2,1.5,0.5,1.9
		c0.4,0.4,0.9,0.6,1.5,0.6c0.8,0,1.4-0.3,1.8-0.7h0l0,0.5c0,0.1,0.1,0.1,0.5,0.1h0c0.4,0,0.5,0,0.5-0.1c0-0.3,0-1.1,0-1.8v-3.8
		c0-0.1-0.1-0.1-0.5-0.1h-0.1c-0.4,0-0.4,0.1-0.4,0.1v2.8c0,1.2-0.1,1.6-0.4,1.8c-0.3,0.3-0.8,0.4-1.2,0.4c-0.5,0-0.8-0.1-1-0.4
		c-0.2-0.3-0.3-0.8-0.3-1.7v-2.9C19.3,32.4,19.3,32.4,18.7,32.4L18.7,32.4z M28.9,29.7c-0.4,0-0.5,0-0.5,0.1v2.7
		c-0.3-0.2-0.8-0.4-1.3-0.4c-1.8,0-2.7,1.5-2.7,3.2c0,1.8,0.9,3,2.4,3c0.8,0,1.4-0.4,1.7-0.7h0c0.1,0.4,0.4,0.6,0.8,0.6
		c0.2,0,0.3,0,0.5-0.1c0.1,0,0.1-0.1,0.1-0.4v-0.1c0-0.2,0-0.3-0.1-0.3c-0.3,0-0.4,0-0.4-0.6v-7C29.4,29.8,29.3,29.7,28.9,29.7
		L28.9,29.7z M28.4,35.5c0,0.9-0.1,1.3-0.3,1.6c-0.3,0.3-0.7,0.4-1.1,0.4c-0.9,0-1.5-0.7-1.5-2.1c0-1.4,0.7-2.2,1.7-2.2
		c0.4,0,0.9,0.2,1.2,0.4V35.5z M34.5,32.5c0-0.1-0.2-0.1-0.6-0.1c-0.4,0-0.6,0-0.5,0.2l2.2,5.8C35.1,39.6,34.7,40,34,40
		c-0.2,0-0.4,0-0.6-0.1c-0.1,0-0.2,0-0.2,0.3l0,0.1c-0.1,0.2-0.1,0.3,0,0.4c0.2,0.1,0.6,0.2,0.9,0.2c0.6,0,1.2-0.2,1.7-0.7
		c0.3-0.4,0.7-1,0.9-1.8l2.1-5.9c0-0.1-0.1-0.2-0.5-0.2c-0.3,0-0.5,0-0.5,0.1l-1,2.9c-0.2,0.7-0.4,1.3-0.6,1.8
		c-0.2-0.6-0.3-1.1-0.6-1.9L34.5,32.5z M43.4,35.9c0-0.7,0-1.2,0-1.5c0-0.5,0.2-0.7,0.3-0.8c0.3-0.3,0.7-0.4,1.1-0.4
		c0.9,0,1.4,0.7,1.4,2c0,1.3-0.6,2.3-1.9,2.3c-0.3,0-0.7-0.1-1-0.2V35.9z M42.9,29.7c-0.4,0-0.5,0-0.5,0.1v8c0,0,0,0.1,0,0.1
		c0.5,0.2,1.2,0.4,2,0.4c1.9,0,2.8-1.2,2.8-3.2c0-0.6-0.1-1.2-0.3-1.7c-0.4-0.8-1-1.2-1.9-1.2c-0.7,0-1.3,0.3-1.7,0.7v-3
		C43.4,29.8,43.4,29.7,42.9,29.7L42.9,29.7z M49.1,32.4c-0.4,0-0.5,0-0.5,0.1v5.7c0,0.1,0,0.1,0.5,0.1h0.1c0.4,0,0.5-0.1,0.5-0.1
		v-5.7C49.6,32.4,49.6,32.4,49.1,32.4L49.1,32.4z M48.4,30.5c0,0.4,0.3,0.7,0.7,0.7c0.4,0,0.7-0.3,0.7-0.7c0-0.4-0.3-0.7-0.7-0.7
		C48.7,29.8,48.4,30.1,48.4,30.5 M55.9,35.7c0.1,0,0.1-0.1,0.1-0.4c0-0.7-0.1-1.3-0.4-1.8c-0.4-0.7-1-1.2-2-1.2
		c-1.6,0-2.7,1.3-2.7,3.2c0,1.8,0.9,2.9,2.7,2.9c0.7,0,1.4-0.2,2-0.5c0.1-0.1,0.1-0.1,0-0.4l-0.1-0.1c-0.1-0.3-0.2-0.3-0.3-0.2
		c-0.5,0.2-1,0.4-1.5,0.4c-0.6,0-1-0.1-1.3-0.4c-0.3-0.3-0.5-0.8-0.6-1.4H55.9z M52,34.8c0.2-1.2,0.8-1.7,1.6-1.7
		c0.9,0,1.4,0.8,1.4,1.7H52z M57.8,32.4c-0.4,0-0.5,0-0.5,0.1c0,0.3,0,1.1,0,1.8v3.8c0,0.1,0,0.1,0.5,0.1h0.1c0.4,0,0.5-0.1,0.5-0.1
		v-2.2c0-0.7,0-1.2,0-1.5c0-0.5,0.2-0.7,0.3-0.8c0.3-0.3,0.8-0.4,1.2-0.4c0.5,0,0.8,0.1,1.1,0.4c0.3,0.3,0.3,0.7,0.3,1.6v2.9
		c0,0.1,0,0.1,0.5,0.1h0.1c0.4,0,0.5-0.1,0.5-0.1v-3.4c0-0.9-0.2-1.5-0.6-1.9c-0.4-0.4-0.9-0.6-1.5-0.6c-0.7,0-1.4,0.3-1.8,0.8h0
		l0-0.5C58.3,32.4,58.2,32.4,57.8,32.4L57.8,32.4z M68.4,35.7c0.1,0,0.1-0.1,0.1-0.4c0-0.7-0.1-1.3-0.4-1.8c-0.4-0.7-1-1.2-2-1.2
		c-1.6,0-2.7,1.3-2.7,3.2c0,1.8,0.9,2.9,2.7,2.9c0.7,0,1.4-0.2,2-0.5c0.1-0.1,0.1-0.1,0-0.4l-0.1-0.1c-0.1-0.3-0.2-0.3-0.3-0.2
		c-0.5,0.2-1,0.4-1.5,0.4c-0.6,0-1-0.1-1.3-0.4c-0.3-0.3-0.5-0.8-0.6-1.4H68.4z M64.5,34.8c0.2-1.2,0.8-1.7,1.6-1.7
		c0.9,0,1.4,0.8,1.4,1.7H64.5z M73.4,33.3c0.2-0.2,0.1-0.3,0-0.4c-0.4-0.4-1.1-0.6-1.8-0.6c-1.1,0-2.1,0.7-2.1,1.8
		c0,0.4,0.2,0.8,0.4,1.1c0.3,0.3,0.7,0.4,1.3,0.6c0.6,0.1,1.3,0.3,1.3,0.9c0,0.7-0.7,0.9-1.2,0.9c-0.5,0-1-0.2-1.4-0.4
		c-0.1-0.1-0.2-0.1-0.3,0.2l-0.1,0.1c-0.1,0.3-0.2,0.3,0,0.4c0.4,0.3,1.1,0.6,1.8,0.6c1.2,0,2.2-0.7,2.2-1.9c0-1.2-1-1.5-1.9-1.7
		c-0.5-0.1-1.2-0.3-1.2-0.9c0-0.6,0.7-0.8,1.1-0.8c0.5,0,0.9,0.2,1.3,0.5c0.1,0.1,0.1,0.1,0.3-0.2L73.4,33.3z M75.6,30.7
		c-0.4,0-0.5,0-0.5,0.1v1.5h-0.7c-0.1,0-0.1,0.1-0.1,0.3v0.1c0,0.3,0,0.4,0.1,0.4h0.7v3.4c0,0.8,0.1,1.2,0.4,1.5
		c0.2,0.2,0.6,0.4,1.1,0.4c0.4,0,0.9-0.1,1.2-0.3c0.1-0.1,0.1-0.1,0-0.4l0-0.1c-0.1-0.2-0.1-0.3-0.2-0.2c-0.2,0.1-0.5,0.1-0.8,0.1
		c-0.3,0-0.4-0.1-0.6-0.2c-0.1-0.2-0.2-0.4-0.2-0.9v-3.3h1.4c0.1,0,0.1-0.1,0.1-0.4v-0.1c0-0.3,0-0.3-0.1-0.3h-1.4v-1.5
		C76.2,30.7,76.1,30.7,75.6,30.7L75.6,30.7z M83.1,32.4c-0.3,0-0.4,0-0.4,0.1L82.7,33c-0.3-0.4-0.8-0.7-1.5-0.7
		c-1.5,0-2.6,1.3-2.6,3.2c0,1.6,0.8,3,2.4,3c0.7,0,1.4-0.3,1.7-0.8l0.1,0.5c0,0.1,0.1,0.1,0.4,0.1h0c0.3,0,0.4,0,0.4-0.1
		c0-0.6-0.1-1.3-0.1-2.4v-1.6c0-0.7,0-1.4,0-1.7C83.6,32.4,83.6,32.4,83.1,32.4L83.1,32.4z M82.6,35.5c0,1,0,1.3-0.3,1.5
		c-0.3,0.3-0.7,0.4-1.1,0.4c-1.1,0-1.5-1.1-1.5-2.1c0-1.3,0.6-2.2,1.6-2.2c0.5,0,1,0.4,1.3,0.8V35.5z M85.7,32.4
		c-0.4,0-0.5,0-0.5,0.1c0,0.3,0,1.1,0,1.8v3.8c0,0.1,0,0.1,0.5,0.1h0.1c0.4,0,0.5-0.1,0.5-0.1v-1.3c0-0.7,0-1.3,0-1.7
		c0-0.4,0.1-0.7,0.3-1c0.3-0.5,0.7-1,1.5-1c0.1,0,0.1-0.1,0.1-0.4v-0.2c0-0.3,0-0.3-0.1-0.3c-0.1,0-0.1,0-0.2,0
		c-0.6,0-1.2,0.4-1.6,1.4l0-1.2C86.2,32.4,86.2,32.4,85.7,32.4L85.7,32.4z" class="color93ba1f svgShape"></path></svg></g></svg>