<?xml version="1.0" encoding="UTF-8"?>
<svg id="Capa_1" data-name="Capa 1" xmlns="http://www.w3.org/2000/svg" version="1.1" viewBox="0 0 165 149">
  <defs>
    <style>
      .cls-1 {
        fill: #009696;
        stroke-width: 0px;
      }
    </style>
  </defs>
  <path class="cls-1" d="M142.3,51.8h0c-1.6-1.6-3.3-3.1-5.1-4.5-1.1-12.5-5.8-23.7-14.2-32.2h0C98.3-9.6,50.3-1.9,16,32.3c-5.2,5.2-10,10.9-14.1,17l13.7,10.4c3.7-5.5,7.9-10.6,12.6-15.3C55.6,17,92.7,9.3,110.7,27.3c3.2,3.2,5.6,7,7.2,11.3-22.7-5.2-50.7,3.6-72.8,25-10.5,10.4-17.3,23.1-19.4,35.7-2.1,13.2,1.4,25.5,9.5,33.7,6.7,6.7,15.8,10,25.6,10,14.6,0,31.1-7.2,44.7-20.8,15.4-15.4,25.5-33.7,29.6-51.3,4,7.2,5.3,16.2,3.8,26.2-2.1,14.4-9.9,28.9-21.7,40.8l13.8,10.5c13.5-14.2,22.4-31.4,25-48.7,2.9-19.2-2-36.1-13.7-47.9ZM93.5,110c-15.4,15.4-36.5,20.3-46,10.8-4.3-4.3-6-11-4.7-18.8,1.5-9,6.6-18.3,14.4-26.1,19.7-19,45.5-26,63.2-18.5-1.4,17-10.8,36.4-26.9,52.6Z"/>
</svg>