<svg id="Capa_1" data-name="Capa 1" xmlns="http://www.w3.org/2000/svg" viewBox="0 0 352 335"><defs><style>.cls-1{fill:#009696;}</style></defs><path class="cls-1" d="M318,116.29h0a108.89,108.89,0,0,0-11.63-10c-2.45-28.13-13-53.46-32.13-72.61h0C218.46-22.2,110.17-4.75,32.89,72.52A270.32,270.32,0,0,0,1,110.86l30.8,23.55A237.6,237.6,0,0,1,60.34,100c62.14-62.14,145.8-79.59,186.5-38.9A71.29,71.29,0,0,1,263,86.44c-51.29-11.61-114.37,8.15-164.3,56.42-23.54,23.52-39,52.1-43.59,80.48-4.8,29.82,3,57.52,21.5,76,15.18,15.17,35.53,22.5,57.8,22.5,33,0,70.28-16.16,100.93-46.82,34.87-34.86,57.51-76,66.78-115.85,9,16.21,12,36.59,8.66,59.17-4.87,32.48-22.26,65.13-49,92l31,23.73c30.51-32,50.46-70.86,56.33-110C355.66,181.11,344.59,142.83,318,116.29ZM207.94,247.57c-34.74,34.73-82.29,45.86-103.84,24.31-9.7-9.69-13.47-24.74-10.63-42.37,3.28-20.38,14.89-41.4,32.48-59,44.43-43,102.68-58.57,142.48-41.63C265.48,167.19,244.42,211.08,207.94,247.57Z"/></svg>