<svg xmlns="http://www.w3.org/2000/svg" version="1.1" xmlns:xlink="http://www.w3.org/1999/xlink" xmlns:svgjs="http://svgjs.com/svgjs" width="512" height="512" x="0" y="0" viewBox="0 0 426.667 426.667" style="enable-background:new 0 0 512 512" xml:space="preserve" class=""><g><path d="M213.333 0C95.567.131.131 95.567 0 213.333v149.333c.039 35.33 28.67 63.961 64 64h149.333c117.821 0 213.333-95.513 213.333-213.333S331.154 0 213.333 0zm0 384H64c-11.778-.011-21.323-9.556-21.333-21.333V213.333c0-94.257 76.41-170.667 170.667-170.667S384 119.077 384 213.333 307.59 384 213.333 384z" fill="#004481" data-original="#000000" class=""></path><path d="M213.333 85.333c-11.782 0-21.333 9.551-21.333 21.333V128c0 11.782 9.551 21.333 21.333 21.333s21.333-9.551 21.333-21.333v-21.333c.001-11.782-9.551-21.334-21.333-21.334zM192 170.667h-21.333c-11.782 0-21.333 9.551-21.333 21.333s9.551 21.333 21.333 21.333H192V320c0 11.782 9.551 21.333 21.333 21.333s21.333-9.551 21.333-21.333V213.333c-.023-23.554-19.112-42.643-42.666-42.666z" fill="#004481" data-original="#000000" class=""></path></g></svg>