<svg viewBox="0 0 400 400" xmlns="http://www.w3.org/2000/svg"><g transform="matrix(4,0,0,4,0,0)"><path d="M10.000 54.108 A40.000 40.000 0 1 0 90.000 54.108 A40.000 40.000 0 1 0 10.000 54.108 Z" fill="#d9edff"></path><path d="M39.250 48.525 A11.333 2 0 1 0 61.916 48.525 A11.333 2 0 1 0 39.250 48.525 Z" fill="#4cbcc3"></path><path d="M14.584 83.025 A11.333 2 0 1 0 37.250 83.025 A11.333 2 0 1 0 14.584 83.025 Z" fill="#4cbcc3"></path><path d="M64.417 83.108 A11.333 2 0 1 0 87.083 83.108 A11.333 2 0 1 0 64.417 83.108 Z" fill="#4cbcc3"></path><path d="M38.114,78.256a12.155,12.155,0,1,0-24.31,0h0v2.315a2.315,2.315,0,0,0,2.315,2.316H35.8a2.316,2.316,0,0,0,2.315-2.316V78.256Z" fill="#4cbcc3"></path><path d="M38.114,78.256a12.155,12.155,0,1,0-24.31,0h0v2.315a2.315,2.315,0,0,0,2.315,2.316H35.8a2.316,2.316,0,0,0,2.315-2.316V78.256Z" fill="none" stroke="#004481" stroke-linecap="round" stroke-linejoin="round"></path><path d="M25.959,80.571l4.814-13.479a12.188,12.188,0,0,0-9.628,0Z" fill="#ffffff" stroke="#004481" stroke-linecap="round" stroke-linejoin="round"></path><path d="M29.222 71.435L25.959 68.856 22.696 71.435" fill="none" stroke="#004481" stroke-linecap="round" stroke-linejoin="round"></path><path d="M25.959 68.856L23.977 75.021 25.959 80.571 27.941 75.021 25.959 68.856z" fill="#4cbcc3" stroke="#004481" stroke-linecap="round" stroke-linejoin="round"></path><path d="M25.959 80.571L25.959 82.887" fill="none" stroke="#004481" stroke-linecap="round" stroke-linejoin="round"></path><path d="M25.959,80.571l6.367-7.524-1.158-2.315h2.315L32.8,68.207A12.1,12.1,0,0,0,30.772,67.1Z" fill="#4cbcc3" stroke="#004481" stroke-linecap="round" stroke-linejoin="round"></path><path d="M25.959,80.571,21.146,67.1a12.1,12.1,0,0,0-2.023,1.111l-.689,2.525H20.75l-1.158,2.315Z" fill="#4cbcc3" stroke="#004481" stroke-linecap="round" stroke-linejoin="round"></path><path d="M33.483 82.887L33.483 78.835" fill="none" stroke="#004481" stroke-linecap="round" stroke-linejoin="round"></path><path d="M18.434 82.887L18.434 78.835" fill="none" stroke="#004481" stroke-linecap="round" stroke-linejoin="round"></path><path d="M28.486 66.356L25.952 68.856 23.445 66.356 23.451 63.346 28.491 63.346 28.486 66.356z" fill="#ffffff" stroke="#004481" stroke-linecap="round" stroke-linejoin="round"></path><path d="M34.062,58.155a1.426,1.426,0,0,0-1.157-1.388V55.84a6.946,6.946,0,0,0-13.892,0v.927a1.418,1.418,0,0,0,.146,2.807,6.947,6.947,0,0,0,13.6,0A1.434,1.434,0,0,0,34.062,58.155Z" fill="#ffffff" stroke="#004481" stroke-linecap="round" stroke-linejoin="round"></path><path d="M25.959,51.788a8.174,8.174,0,0,1,6.92,3.55,6.938,6.938,0,0,0-13.84,0A8.174,8.174,0,0,1,25.959,51.788Z" fill="#ffe8e0"></path><path d="M34.062,58.155a1.426,1.426,0,0,0-1.157-1.388V55.84a6.946,6.946,0,0,0-13.892,0v.927a1.418,1.418,0,0,0,.146,2.807,6.947,6.947,0,0,0,13.6,0A1.434,1.434,0,0,0,34.062,58.155Z" fill="none" stroke="#004481" stroke-linecap="round" stroke-linejoin="round"></path><path d="M22.486 56.708 A0.868 0.868 0 1 0 24.222 56.708 A0.868 0.868 0 1 0 22.486 56.708 Z" fill="#004481"></path><path d="M27.696 56.708 A0.868 0.868 0 1 0 29.432 56.708 A0.868 0.868 0 1 0 27.696 56.708 Z" fill="#004481"></path><path d="M21.329 59.024 A0.868 0.868 0 1 0 23.065 59.024 A0.868 0.868 0 1 0 21.329 59.024 Z" fill="#4cbcc3"></path><path d="M28.853 59.024 A0.868 0.868 0 1 0 30.589 59.024 A0.868 0.868 0 1 0 28.853 59.024 Z" fill="#4cbcc3"></path><path d="M24.222,61.1a3.131,3.131,0,0,0,3.473,0" fill="none" stroke="#004481" stroke-linecap="round" stroke-linejoin="round"></path><path d="M18.434,50.631V55.84a.579.579,0,0,0,.579.579h.579l2.315-5.788Z" fill="#ffffff" stroke="#004481" stroke-linecap="round" stroke-linejoin="round"></path><path d="M33.483,51.21a4.63,4.63,0,0,0-4.63-4.631H23.644a1.156,1.156,0,0,1-1.051-.672.831.831,0,0,0-.686-.486h-.984a3.592,3.592,0,0,0-3.631,3.143,3.474,3.474,0,0,0,3.078,3.782,3.175,3.175,0,0,0,2.7,2.336h1.157a.209.209,0,0,0,.108-.389,2.356,2.356,0,0,1-1.067-1.412.4.4,0,0,1,.38-.514h4.731a1.157,1.157,0,0,1,.818.339l3.134,3.134h.579a.578.578,0,0,0,.578-.579Z" fill="#ffffff"></path><path d="M33.483,51.21a4.63,4.63,0,0,0-4.63-4.631H23.644a1.156,1.156,0,0,1-1.051-.672.831.831,0,0,0-.686-.486h-.984a3.592,3.592,0,0,0-3.631,3.143,3.474,3.474,0,0,0,3.078,3.782,3.175,3.175,0,0,0,2.7,2.336h1.157a.209.209,0,0,0,.108-.389,2.356,2.356,0,0,1-1.067-1.412.4.4,0,0,1,.38-.514h4.731a1.157,1.157,0,0,1,.818.339l3.134,3.134h.579a.578.578,0,0,0,.578-.579Z" fill="none" stroke="#004481" stroke-linecap="round" stroke-linejoin="round"></path><path d="M87.905,78.256a12.155,12.155,0,0,0-24.31,0h0v2.315a2.315,2.315,0,0,0,2.315,2.316H85.59a2.315,2.315,0,0,0,2.315-2.316V78.256Z" fill="#4cbcc3"></path><path d="M87.905,78.256a12.155,12.155,0,0,0-24.31,0h0v2.315a2.315,2.315,0,0,0,2.315,2.316H85.59a2.315,2.315,0,0,0,2.315-2.316V78.256Z" fill="none" stroke="#004481" stroke-linecap="round" stroke-linejoin="round"></path><path d="M75.75,80.571l4.814-13.479a12.188,12.188,0,0,0-9.628,0Z" fill="#ffffff" stroke="#004481" stroke-linecap="round" stroke-linejoin="round"></path><path d="M79.013 71.435L75.75 68.856 72.487 71.435" fill="none" stroke="#004481" stroke-linecap="round" stroke-linejoin="round"></path><path d="M75.75 68.856L73.768 75.021 75.75 80.571 77.732 75.021 75.75 68.856z" fill="#4cbcc3" stroke="#004481" stroke-linecap="round" stroke-linejoin="round"></path><path d="M75.75 80.571L75.75 82.887" fill="none" stroke="#004481" stroke-linecap="round" stroke-linejoin="round"></path><path d="M75.75,80.571l6.367-7.524-1.158-2.315h2.316l-.689-2.525A12.1,12.1,0,0,0,80.563,67.1Z" fill="#4cbcc3" stroke="#004481" stroke-linecap="round" stroke-linejoin="round"></path><path d="M75.75,80.571,70.938,67.1a12.067,12.067,0,0,0-2.024,1.111l-.689,2.525h2.316l-1.158,2.315Z" fill="#4cbcc3" stroke="#004481" stroke-linecap="round" stroke-linejoin="round"></path><path d="M83.275 82.887L83.275 78.835" fill="none" stroke="#004481" stroke-linecap="round" stroke-linejoin="round"></path><path d="M68.225 82.887L68.225 78.835" fill="none" stroke="#004481" stroke-linecap="round" stroke-linejoin="round"></path><path d="M78.277 66.356L75.743 68.856 73.236 66.356 73.242 63.346 78.282 63.346 78.277 66.356z" fill="#ffffff" stroke="#004481" stroke-linecap="round" stroke-linejoin="round"></path><path d="M83.914,58.1a1.438,1.438,0,0,0-1.166-1.4v-.933a7,7,0,1,0-14,0V56.7a1.428,1.428,0,0,0,.147,2.828,7,7,0,0,0,13.7,0A1.444,1.444,0,0,0,83.914,58.1Z" fill="#ffffff" stroke="#004481" stroke-linecap="round" stroke-linejoin="round"></path><path d="M71.085 58.978 A0.875 0.875 0 1 0 72.835 58.978 A0.875 0.875 0 1 0 71.085 58.978 Z" fill="#4cbcc3"></path><path d="M78.665 58.978 A0.875 0.875 0 1 0 80.415 58.978 A0.875 0.875 0 1 0 78.665 58.978 Z" fill="#4cbcc3"></path><path d="M78.9,56.937a.994.994,0,0,0-1.4,0" fill="none" stroke="#004481" stroke-linecap="round" stroke-linejoin="round"></path><path d="M72.6,56.937a.994.994,0,0,1,1.4,0" fill="none" stroke="#004481" stroke-linecap="round" stroke-linejoin="round"></path><path d="M77.5,61.019a2.915,2.915,0,0,1-3.5,0" fill="none" stroke="#004481" stroke-linecap="round" stroke-linejoin="round"></path><path d="M68.752,53.438a7,7,0,1,1,14,0V56.7a4.518,4.518,0,0,1-2.7-3.006.583.583,0,0,0-.957-.266,6.54,6.54,0,0,0-.8.879.582.582,0,0,1-.579.235,2.462,2.462,0,0,1-1.809-1.3.565.565,0,0,0-.723-.247,1.97,1.97,0,0,0-1.029,1.188.589.589,0,0,1-.7.324,2.565,2.565,0,0,1-1.257-.714.586.586,0,0,0-.971.128,6.4,6.4,0,0,1-2.474,2.787Z" fill="#ffffff"></path><path d="M68.752,53.438a7,7,0,1,1,14,0V56.7a4.518,4.518,0,0,1-2.7-3.006.583.583,0,0,0-.957-.266,6.54,6.54,0,0,0-.8.879.582.582,0,0,1-.579.235,2.462,2.462,0,0,1-1.809-1.3.565.565,0,0,0-.723-.247,1.97,1.97,0,0,0-1.029,1.188.589.589,0,0,1-.7.324,2.565,2.565,0,0,1-1.257-.714.586.586,0,0,0-.971.128,6.4,6.4,0,0,1-2.474,2.787Z" fill="none" stroke="#004481" stroke-linecap="round" stroke-linejoin="round"></path><path d="M58.815,65.3a3.718,3.718,0,0,0-.744.075l-3.952-6.916a3.674,3.674,0,0,0,.749-2.211,3.711,3.711,0,0,0-7.421,0,3.674,3.674,0,0,0,.749,2.211l-3.952,6.916a3.713,3.713,0,1,0,2.762,4.793h8.3A3.7,3.7,0,1,0,58.815,65.3ZM46.246,66.537,50.1,59.786a3.331,3.331,0,0,0,2.107,0l3.858,6.751a3.7,3.7,0,0,0-.761,1.315h-8.3A3.7,3.7,0,0,0,46.246,66.537Z" fill="#ffffff" stroke="#004481" stroke-linejoin="round"></path><path d="M64.615,43.455a14.036,14.036,0,1,0-28.072,0h0v2.673A2.674,2.674,0,0,0,39.216,48.8H61.941a2.674,2.674,0,0,0,2.674-2.674V43.455Z" fill="#4cbcc3"></path><path d="M64.615,43.455a14.036,14.036,0,1,0-28.072,0h0v2.673A2.674,2.674,0,0,0,39.216,48.8H61.941a2.674,2.674,0,0,0,2.674-2.674V43.455Z" fill="none" stroke="#004481" stroke-linecap="round" stroke-linejoin="round"></path><path d="M50.579,46.129l5.558-15.565a14.065,14.065,0,0,0-11.117,0Z" fill="#ffffff" stroke="#004481" stroke-linecap="round" stroke-linejoin="round"></path><path d="M54.347 35.578L50.579 32.601 46.811 35.578" fill="none" stroke="#004481" stroke-linecap="round" stroke-linejoin="round"></path><path d="M50.579 32.601L48.29 39.72 50.579 46.129 52.868 39.72 50.579 32.601z" fill="#4cbcc3" stroke="#004481" stroke-linecap="round" stroke-linejoin="round"></path><path d="M50.579 46.128L50.579 48.802" fill="none" stroke="#004481" stroke-linecap="round" stroke-linejoin="round"></path><path d="M50.579,46.129l7.352-8.689-1.337-2.674h2.674l-.8-2.915a14.109,14.109,0,0,0-2.336-1.283Z" fill="#4cbcc3" stroke="#004481" stroke-linecap="round" stroke-linejoin="round"></path><path d="M50.579,46.129,45.022,30.568a14.039,14.039,0,0,0-2.337,1.283l-.8,2.915h2.673L43.227,37.44Z" fill="#4cbcc3" stroke="#004481" stroke-linecap="round" stroke-linejoin="round"></path><path d="M59.268 48.802L59.268 44.123" fill="none" stroke="#004481" stroke-linecap="round" stroke-linejoin="round"></path><path d="M41.89 48.802L41.89 44.123" fill="none" stroke="#004481" stroke-linecap="round" stroke-linejoin="round"></path><path d="M53.497 29.714L50.57 32.601 47.676 29.714 47.683 26.238 53.503 26.238 53.497 29.714z" fill="#ffffff" stroke="#004481" stroke-linecap="round" stroke-linejoin="round" stroke-width="1.009"></path><path d="M60.216,16.234a9.625,9.625,0,0,1-19.249,0c0-5.322,2.717-9.5,5.481-10.291a1.34,1.34,0,0,1,1.318.344C50.756,9.3,60.216,5.545,60.216,16.234Z" fill="#ffffff"></path><path d="M60.216,16.234a9.625,9.625,0,0,1-19.249,0c0-5.322,2.717-9.5,5.481-10.291a1.34,1.34,0,0,1,1.318.344C50.756,9.3,60.216,5.545,60.216,16.234Z" fill="none" stroke="#004481" stroke-linecap="round" stroke-linejoin="round"></path><path d="M58.621,18.64l-1.616.8-1.166-4.08a1.591,1.591,0,0,0-1.872-1.128,15.457,15.457,0,0,1-3.378.4,15.442,15.442,0,0,1-3.378-.4,1.592,1.592,0,0,0-1.873,1.128l-1.166,4.08-1.592-.8c-2.289,0-2.135,4.01.4,4.01h.007a7.968,7.968,0,0,0,15.225,0h.005C60.755,22.65,60.91,18.64,58.621,18.64Z" fill="#ffffff" stroke="#004481" stroke-linecap="round" stroke-linejoin="round"></path><path d="M46.999 18.840 A1.003 1.003 0 1 0 49.005 18.840 A1.003 1.003 0 1 0 46.999 18.840 Z" fill="#004481"></path><path d="M52.212 18.840 A1.003 1.003 0 1 0 54.218 18.840 A1.003 1.003 0 1 0 52.212 18.840 Z" fill="#004481"></path><path d="M46.6,21.046a.8.8,0,1,1-.8-.8A.8.8,0,0,1,46.6,21.046Z" fill="#4cbcc3"></path><path d="M56.223,21.046a.8.8,0,1,1-.8-.8A.8.8,0,0,1,56.223,21.046Z" fill="#4cbcc3"></path><path d="M48.606,23.647a3.612,3.612,0,0,0,4.01,0" fill="none" stroke="#004481" stroke-linecap="round" stroke-linejoin="round"></path></g></svg>