<svg viewBox="0 0 100 100" height="100" width="100" xmlns="http://www.w3.org/2000/svg"><path d="M90,49.994a40,40,0,1,0-76.436,16.5H86.436A39.841,39.841,0,0,0,90,49.994Z" fill="#d9edff"/><path d="M13.564,66.494a40,40,0,0,0,72.872,0Z" fill="#ffffff"/><path d="M11 66.494L89 66.494" fill="none" stroke="#004481" stroke-linecap="round" stroke-linejoin="round"/><path d="M6.5 66.494L9 66.494" fill="none" stroke="#004481" stroke-linecap="round" stroke-linejoin="round"/><path d="M91 66.494L93.5 66.494" fill="none" stroke="#004481" stroke-linecap="round" stroke-linejoin="round"/><path d="M70.167,68.182H54.99V24.171L68.768,31.06a2.529,2.529,0,0,1,1.4,2.262Z" fill="#4cbcc3"/><path d="M59.417 54.144 L65.488 54.144 L65.488 60.215 L59.417 60.215 Z" fill="#ffffff"/><path d="M59.417 54.144 L65.488 54.144 L65.488 60.215 L59.417 60.215 Z" fill="none" stroke="#004481" stroke-linecap="round" stroke-linejoin="round"/><path d="M54.99,68.182H32.225v-51.6a1.518,1.518,0,0,1,1.518-1.518H53.472a1.517,1.517,0,0,1,1.518,1.518Z" fill="#4cbcc3"/><path d="M35.261 40.865 L41.332 40.865 L41.332 46.936 L35.261 46.936 Z" fill="#ffffff"/><path d="M35.261 40.865 L41.332 40.865 L41.332 46.936 L35.261 46.936 Z" fill="none" stroke="#004481" stroke-linecap="round" stroke-linejoin="round"/><path d="M45.884 40.865 L51.955 40.865 L51.955 46.936 L45.884 46.936 Z" fill="#ffffff"/><path d="M45.884 40.865 L51.955 40.865 L51.955 46.936 L45.884 46.936 Z" fill="none" stroke="#004481" stroke-linecap="round" stroke-linejoin="round"/><path d="M35.261 30.209 L41.332 30.209 L41.332 36.280 L35.261 36.280 Z" fill="#ffffff"/><path d="M35.261 30.209 L41.332 30.209 L41.332 36.280 L35.261 36.280 Z" fill="none" stroke="#004481" stroke-linecap="round" stroke-linejoin="round"/><path d="M45.884 30.209 L51.955 30.209 L51.955 36.280 L45.884 36.280 Z" fill="#ffffff"/><path d="M45.884 30.209 L51.955 30.209 L51.955 36.280 L45.884 36.280 Z" fill="none" stroke="#004481" stroke-linecap="round" stroke-linejoin="round"/><path d="M35.261 19.618 L41.332 19.618 L41.332 25.689 L35.261 25.689 Z" fill="#004481"/><path d="M35.261 19.618 L41.332 19.618 L41.332 25.689 L35.261 25.689 Z" fill="#ffffff" stroke="#004481" stroke-linecap="round" stroke-linejoin="round"/><path d="M45.884 19.618 L51.955 19.618 L51.955 25.689 L45.884 25.689 Z" fill="#ffffff"/><path d="M45.884 19.618 L51.955 19.618 L51.955 25.689 L45.884 25.689 Z" fill="none" stroke="#004481" stroke-linecap="round" stroke-linejoin="round"/><path d="M35.261 51.489 L41.332 51.489 L41.332 57.560 L35.261 57.560 Z" fill="#004481"/><path d="M35.261 51.489 L41.332 51.489 L41.332 57.560 L35.261 57.560 Z" fill="#ffffff" stroke="#004481" stroke-linecap="round" stroke-linejoin="round"/><path d="M45.884 51.489 L51.955 51.489 L51.955 57.560 L45.884 57.560 Z" fill="#ffffff"/><path d="M45.884 51.489 L51.955 51.489 L51.955 57.560 L45.884 57.560 Z" fill="none" stroke="#004481" stroke-linecap="round" stroke-linejoin="round"/><path d="M70.167,68.182H54.99V24.171L68.768,31.06a2.529,2.529,0,0,1,1.4,2.262Z" fill="none" stroke="#004481" stroke-linecap="round" stroke-linejoin="round"/><path d="M67.384 30.368L67.384 23.412" fill="none" stroke="#004481" stroke-linecap="round" stroke-linejoin="round"/><path d="M54.99,68.182H32.225v-51.6a1.518,1.518,0,0,1,1.518-1.518H53.472a1.517,1.517,0,0,1,1.518,1.518Z" fill="none" stroke="#004481" stroke-linecap="round" stroke-linejoin="round"/><path d="M35.134 15.065L35.134 8.994" fill="none" stroke="#004481" stroke-linecap="round" stroke-linejoin="round"/><path d="M38.296 15.065L38.296 11.271" fill="none" stroke="#004481" stroke-linecap="round" stroke-linejoin="round"/><path d="M36.778,68.182H23.12V31.441a1.2,1.2,0,0,1,1.2-1.2H35.578a1.2,1.2,0,0,1,1.2,1.2Z" fill="#4cbcc3" stroke="#004481" stroke-linecap="round" stroke-linejoin="round"/><path d="M23.12 34.668H36.779V39.094H23.12z" fill="#004481"/><path d="M23.12 34.668H36.779V39.094H23.12z" fill="#ffffff" stroke="#004481" stroke-linecap="round" stroke-linejoin="round"/><path d="M23.12 43.9H36.779V48.452999999999996H23.12z" fill="#004481"/><path d="M23.12 43.9H36.779V48.452999999999996H23.12z" fill="#ffffff" stroke="#004481" stroke-linecap="round" stroke-linejoin="round"/><path d="M23.12 53.006H36.779V57.559H23.12z" fill="#ffffff"/><path d="M23.12 53.006H36.779V57.559H23.12z" fill="none" stroke="#004481" stroke-linecap="round" stroke-linejoin="round"/><path d="M40.14 70.377L41.404 70.377" fill="none" stroke="#004481" stroke-linecap="round" stroke-linejoin="round"/><path d="M59.417 33.403 L65.488 33.403 L65.488 39.474 L59.417 39.474 Z" fill="#004481"/><path d="M59.417 33.403 L65.488 33.403 L65.488 39.474 L59.417 39.474 Z" fill="#ffffff" stroke="#004481" stroke-linecap="round" stroke-linejoin="round"/><path d="M59.417 43.774 L65.488 43.774 L65.488 49.845 L59.417 49.845 Z" fill="#ffffff"/><path d="M59.417 43.774 L65.488 43.774 L65.488 49.845 L59.417 49.845 Z" fill="none" stroke="#004481" stroke-linecap="round" stroke-linejoin="round"/><path d="M49.309,55.2c-.473-4.725-1.1-14.861,2.845-14.861A2.846,2.846,0,0,1,55,43.186v.949c0,6.955,3.017,14.227,8.853,14.227l0,14.545h-.746c-3.647,0-5.374,2.529-11.906,2.529H40.14a2.53,2.53,0,1,1,0-5.059H38.875a2.53,2.53,0,0,1,0-5.059H37.61a2.53,2.53,0,0,1,0-5.059H36.346a2.529,2.529,0,1,1,0-5.058Z" fill="#ffffff"/><path d="M51.838 55.201L49.309 55.201" fill="none" stroke="#004481" stroke-linecap="round" stroke-linejoin="round"/><path d="M38.875 65.318L40.14 65.318" fill="none" stroke="#004481" stroke-linecap="round" stroke-linejoin="round"/><path d="M37.61 60.259L38.875 60.259" fill="none" stroke="#004481" stroke-linecap="round" stroke-linejoin="round"/><path d="M67.647 55.833 L76.500 55.833 L76.500 75.436 L67.647 75.436 Z" fill="#ffffff"/><path d="M67.647 55.833 L76.500 55.833 L76.500 75.436 L67.647 75.436 Z" fill="#4cbcc3" stroke="#004481" stroke-linecap="round" stroke-linejoin="round"/><path d="M67.647,74.171H64.853a1,1,0,0,1-1-1V58.1a1,1,0,0,1,1-1h2.794Z" fill="#ffffff" stroke="#004481" stroke-linecap="round" stroke-linejoin="round"/><path d="M49.309,55.2c-.473-4.725-1.1-14.861,2.845-14.861A2.846,2.846,0,0,1,55,43.186v.949c0,6.955,3.017,14.227,8.853,14.227l0,14.545h-.746c-3.647,0-5.374,2.529-11.906,2.529H40.14a2.53,2.53,0,1,1,0-5.059H38.875a2.53,2.53,0,0,1,0-5.059H37.61a2.53,2.53,0,0,1,0-5.059H36.346a2.529,2.529,0,1,1,0-5.058Z" fill="none" stroke="#004481" stroke-linecap="round" stroke-linejoin="round"/></svg>