<svg xmlns="http://www.w3.org/2000/svg" version="1.1" xmlns:xlink="http://www.w3.org/1999/xlink" width="512" height="512" x="0" y="0" viewBox="0 0 682.667 682.667" style="enable-background:new 0 0 512 512" xml:space="preserve" class=""><g><defs><clipPath id="a" clipPathUnits="userSpaceOnUse"><path d="M0 512h512V0H0Z" fill="#004481" opacity="1" data-original="#000000"></path></clipPath></defs><g clip-path="url(#a)" transform="matrix(1.33333 0 0 -1.33333 0 682.667)"><path d="M0 0v-2.632c0-10.569-.958-21.077-2.844-31.404-25-16.508-41.498-44.856-41.498-77.067a91.84 91.84 0 0 1 1.311-15.54l-.01-.01v-76.734h-134.076l2.654 20.543c1.754 12.616-1.899 27.084-11.902 40.136l-54.154 67.406a48.12 48.12 0 0 0-14.945 34.853v80.626h10.215c8.814 0 17.094-2.269 24.284-6.252 15.45-8.552 25.918-25.03 25.918-43.949v-16.6l23.305-22.499c10.096-9.751 23.367-13.462 37.394-13.462 29.841 1.271 50.716 23.507 52.209 53.862 0 31.454-25.141 53.932-54.578 53.932-18.475 1.221-37.374-1.623-53.439-11.093-10.276-5.839-21.763-5.193-30.809-.191-9.469 5.234-16.276 15.238-16.276 27.581.383 11.981 5.687 21.107 15.893 27.39 25.645 13.302 52.682 23.316 81.958 22.438 12.233 0 22.287-.927 36.658-4.75l-49.153 137.273c-6.595 17.638 2.814 37.222 20.704 43.092a33.001 33.001 0 0 0 10.347 1.664c13.453 0 26.048-8.259 31.02-21.521l32.836-87.565 36.456-97.246C-11.03 58.331 0 26.9 0 0" style="fill-opacity:1;fill-rule:nonzero;stroke:none" transform="translate(313.62 213.387)" fill="#ffc6ae" data-original="#ffc6ae"></path><path d="m0 0 2.653 20.543C4.408 33.159.347 48.488-9.248 60.679l-54.154 67.406a48.121 48.121 0 0 0-14.946 34.853v80.626h10.216c8.814 0 17.094-2.269 24.284-6.252 15.45-8.552 25.917-25.03 25.917-43.949v-16.599l23.306-22.499c10.095-9.752 23.366-13.463 37.394-13.463 29.84 1.271 50.716 23.507 52.209 53.862 0 31.454-25.142 53.933-54.579 53.933-18.475 1.22-37.374-1.624-53.439-11.094-10.275-5.838-21.762-5.193-30.808-.191-9.469 5.234-16.277 15.238-16.277 27.582.384 11.98 5.688 21.106 15.894 27.39 25.645 13.301 52.682 23.315 81.958 22.438 12.232 0 22.287-.928 36.657-4.75L25.232 447.244c-6.595 17.638 2.813 37.222 20.704 43.092A32.997 32.997 0 0 0 56.283 492c13.452 0 26.048-8.259 31.02-21.521l32.836-87.565 36.456-97.246c9.411-23.706 20.522-55.38 20.522-82.281v-2.632a174.77 174.77 0 0 0-2.844-31.403c-25-16.509-41.499-44.857-41.499-77.067 0-5.295.444-10.489 1.311-15.541l-.009-.01V0" style="stroke-width:20;stroke-linecap:round;stroke-linejoin:round;stroke-miterlimit:10;stroke-dasharray:none;stroke-opacity:1" transform="translate(136.503 10)" fill="none" stroke="#004481" stroke-width="20" stroke-linecap="round" stroke-linejoin="round" stroke-miterlimit="10" stroke-dasharray="none" stroke-opacity="" data-original="#000000" opacity="1"></path><path d="M0 0v-50.962l36.458-97.249s20.519-48.067 20.519-82.265V0c0 15.733-12.755 28.488-28.489 28.488C12.755 28.488 0 15.733 0 0" style="fill-opacity:1;fill-rule:nonzero;stroke:none" transform="translate(256.638 443.878)" fill="#ffb192" data-original="#ffb192"></path><path d="M0 0v-50.962l36.458-97.249s20.519-48.067 20.519-82.265V0c0 15.733-12.755 28.488-28.489 28.488C12.755 28.488 0 15.733 0 0Z" style="stroke-width:20;stroke-linecap:round;stroke-linejoin:round;stroke-miterlimit:10;stroke-dasharray:none;stroke-opacity:1" transform="translate(256.638 443.878)" fill="none" stroke="#004481" stroke-width="20" stroke-linecap="round" stroke-linejoin="round" stroke-miterlimit="10" stroke-dasharray="none" stroke-opacity="" data-original="#000000" opacity="1"></path><path d="M0 0s15.78-4.155 26.949-11.416" style="stroke-width:20;stroke-linecap:round;stroke-linejoin:round;stroke-miterlimit:10;stroke-dasharray:none;stroke-opacity:1" transform="translate(210.887 319.966)" fill="none" stroke="#004481" stroke-width="20" stroke-linecap="round" stroke-linejoin="round" stroke-miterlimit="10" stroke-dasharray="none" stroke-opacity="" data-original="#000000" opacity="1"></path><path d="M0 0c0-50.967-41.317-92.284-92.284-92.284-50.966 0-92.283 41.317-92.283 92.284 0 50.967 41.317 92.283 92.283 92.283C-41.317 92.283 0 50.967 0 0" style="fill-opacity:1;fill-rule:nonzero;stroke:none" transform="translate(453.844 102.284)" fill="#ccea73" data-original="#ccea73" class=""></path><path d="M0 0c-15.501 29.181-46.2 49.056-81.546 49.056-50.967 0-92.284-41.317-92.284-92.284 0-50.966 41.317-92.283 92.284-92.283 35.291 0 65.951 19.813 81.475 48.92" style="stroke-width:20;stroke-linecap:round;stroke-linejoin:round;stroke-miterlimit:10;stroke-dasharray:none;stroke-opacity:1" transform="translate(443.107 145.511)" fill="none" stroke="#004481" stroke-width="20" stroke-linecap="round" stroke-linejoin="round" stroke-miterlimit="10" stroke-dasharray="none" stroke-opacity="" data-original="#000000" opacity="1"></path><path d="m0 0 24.134-24.134L81.38 33.112" style="stroke-width:20;stroke-linecap:round;stroke-linejoin:round;stroke-miterlimit:10;stroke-dasharray:none;stroke-opacity:1" transform="translate(320.844 96.552)" fill="none" stroke="#004481" stroke-width="20" stroke-linecap="round" stroke-linejoin="round" stroke-miterlimit="10" stroke-dasharray="none" stroke-opacity="" data-original="#000000" opacity="1"></path><path d="M0 0v0" style="stroke-width:20;stroke-linecap:round;stroke-linejoin:round;stroke-miterlimit:10;stroke-dasharray:none;stroke-opacity:1" transform="translate(453.844 102.284)" fill="none" stroke="#004481" stroke-width="20" stroke-linecap="round" stroke-linejoin="round" stroke-miterlimit="10" stroke-dasharray="none" stroke-opacity="" data-original="#000000" opacity="1"></path></g></g></svg>