<?xml version="1.0" encoding="utf-8"?>
<!-- Generator: Adobe Illustrator 22.0.1, SVG Export Plug-In . SVG Version: 6.00 Build 0)  -->
<svg version="1.1" id="SvgjsSvg1042" xmlns:svgjs="http://svgjs.com/svgjs"
	 xmlns="http://www.w3.org/2000/svg" xmlns:xlink="http://www.w3.org/1999/xlink" x="0px" y="0px" viewBox="0 0 288 288"
	 style="enable-background:new 0 0 288 288;" xml:space="preserve">
<style type="text/css">
	.st0{fill:#FFFFFF;}
	.st1{fill:#ADDFDF;}
</style>
<g id="SvgjsG1020">
	<g transform="translate(-2.834 -8.761)">
		<path class="st0" d="M56.5,64.9h180.7v169.2H56.5V64.9z"/>
		<path class="st1" d="M56.5,64.9v169.2h180.7V64.9H56.5z M188.2,222.9c-0.3-2.7-1-5.4-1.8-8l-5.7-18.2h-25.3l-4.5,6l4.1,12.3
			c0.9,2.7,1.9,5.3,3.2,7.9h-14.4l-2.4-7.9l-5.8,7.9H124l-2.5-7.8l-6.1,7.8h-11.6c0.3-0.2,0.5-0.4,0.7-0.7c2.4-2.1,4.5-4.5,6.4-7.1
			l7.4-9.7l-2.9-8.7H90.2l-19.7,26.2H58.3c2.8-2.2,5.4-4.8,7.6-7.6l37.4-49.4c0.5-0.7,1-1.4,1.4-2.1c0.8-1.3,1.4-2.6,1.7-4.1h12.1
			c0,2.1,0.3,4.2,1,6.3l8.5,26.7l4.4-5.8l-7-21.2c-0.6-2.1-1.4-4.1-2.4-6h14.7c0.3,2.1,0.8,4.3,1.4,6.3l2.7,8.3l6.3-8.4
			c1.7-1.9,3.1-4,4.3-6.3h12.9c-2.2,1.8-4.1,3.9-5.7,6.2l-14.3,18.9l2.5,7.8l20.4-26.7c0.5-0.8,1.1-1.5,1.7-2.3
			c0.8-1.2,1.4-2.6,1.8-4h12c0.1,2,0.5,4,1,5.9l15.5,49.4c0.7,2.8,1.8,5.4,3.2,7.9L188.2,222.9L188.2,222.9z"/>
		<path class="st1" d="M96,188.9h17.3L108,173L96,188.9z M131.1,202.4l2.8,8.7l4.4-5.8l-3-8.6L131.1,202.4z M161.5,188.9h16.7
			L173,173L161.5,188.9L161.5,188.9z"/>
		<path class="st0" d="M155.4,156.5H166l69.2-91.7h-10.6L155.4,156.5z"/>
	</g>
</g>
</svg>
