<svg xmlns="http://www.w3.org/2000/svg" xmlns:svg="http://www.w3.org/2000/svg" enable-background="new 0 0 578 149" version="1.1" xml:space="preserve" viewBox="193.9 25.1 382.4 55.7">
 <style type="text/css">.st0{fill:#009696;}</style>
 <g class="layer">
  <title>Layer 1</title>
  <path class="st0" d="m211.1,34.8l-17.2,0l0,-9.7l45.2,0l0,9.7l-17.1,0l0,45.2l-10.9,0l0,-45.2z" id="svg_1"/>
  <path class="st0" d="m247.8,46.4c1.9,-3.9 5.8,-6.3 10.1,-6.1c1.7,0 3.4,0.3 5,0.9l-0.8,9.3c-1.5,-0.6 -3.2,-0.9 -4.8,-0.9c-4.6,0 -9.4,2.5 -9.4,10.5l0,19.9l-10.4,0l0,-38.9l10,0l0.3,5.3z" id="svg_2"/>
  <path class="st0" d="m302.9,77.1c-4.5,2.4 -9.5,3.7 -14.6,3.6c-13.7,0 -22.5,-8.1 -22.5,-20.2c0,-11.9 8.4,-20.2 19.9,-20.2c11.9,0 21,9 18.4,23.3l-28,0c1,5.4 5.9,8 12.3,8c4.5,0 9,-1 13.1,-3l1.4,8.5zm-8.1,-20.4c-0.3,-4.3 -3.5,-7.6 -8.9,-7.6c-5.5,0 -9.3,3.2 -9.7,7.6l18.6,0z" id="svg_3"/>
  <path class="st0" d="m330.5,57c7.7,1.4 11.5,4.9 11.5,11.6c0,7.8 -6.5,12.1 -16.4,12.1c-5.8,0 -11.4,-1 -14.9,-2.8l1.1,-8.5c4.2,1.7 8.6,2.6 13,2.7c5,0 7.2,-1 7.2,-3.3c0,-2.1 -1.7,-3.1 -6.2,-3.9l-4.7,-0.9c-7.5,-1.3 -11.1,-5 -11.1,-11.5c0,-7.2 6.7,-12.2 17,-12.2c4.5,-0.1 9,0.8 13.1,2.4l-0.9,8.4c-3.8,-1.4 -7.7,-2.1 -11.7,-2.2c-5.1,0 -7.5,1.2 -7.5,3.5c0,1.9 1.7,2.9 6.3,3.7l4.2,0.9z" id="svg_4"/>
  <path class="st0" d="m384.4,47.2c3.1,-4.4 8.1,-7 13.5,-6.9c8.9,0 15.2,5.8 15.2,15.2l0,24.4l-10.4,0l0,-21.7c0,-5.4 -3.3,-8.3 -7.8,-8.3s-8.5,2.8 -8.5,8l0,22l-10.4,0l0,-21.7c0,-5.4 -3.4,-8.3 -7.7,-8.3s-8.5,2.9 -8.5,8.3l0,21.7l-10.4,0l0,-38.8l9.9,0l0.2,4.5c2,-2.7 6.2,-5.3 11.9,-5.3c5.8,0 10.7,2.5 13,6.9z" id="svg_5"/>
  <path class="st0" d="m420.4,60.5c0,-11.8 8,-20.1 18.7,-20.1c6,0 10.1,2.3 12.6,5.5l0.2,-4.7l10.1,0l0,38.8l-10.1,0l-0.2,-4.7c-2.5,3.2 -6.6,5.5 -12.6,5.5c-10.7,-0.1 -18.7,-8.6 -18.7,-20.3zm20.7,-10.9c-6.2,0 -10.4,4.7 -10.4,10.9s4.2,11.1 10.4,11.1s10.6,-4.8 10.6,-11.1s-4.4,-10.9 -10.6,-10.9z" id="svg_6"/>
  <path class="st0" d="m482,46.4c1.9,-3.9 5.8,-6.3 10.1,-6.1c1.7,0 3.4,0.3 5,0.9l-0.8,9.3c-1.5,-0.6 -3.2,-0.9 -4.8,-0.9c-4.6,0 -9.4,2.5 -9.4,10.5l0,19.9l-10.4,0l0,-38.9l10,0l0.3,5.3z" id="svg_7"/>
  <path class="st0" d="m537.2,77.1c-4.5,2.4 -9.5,3.7 -14.6,3.6c-13.7,0 -22.5,-8.1 -22.5,-20.2c0,-11.9 8.4,-20.2 19.9,-20.2c11.9,0 21,9 18.4,23.3l-28,0c1,5.4 5.9,8 12.3,8c4.5,0 9,-1 13.1,-3l1.4,8.5zm-8.2,-20.4c-0.3,-4.3 -3.6,-7.6 -8.9,-7.6c-5.5,0 -9.3,3.2 -9.7,7.6l18.6,0z" id="svg_8"/>
  <path class="st0" d="m564.8,57c7.7,1.4 11.5,4.9 11.5,11.6c0,7.8 -6.5,12.1 -16.4,12.1c-5.8,0 -11.4,-1 -15,-2.8l1.1,-8.5c4.1,1.7 8.5,2.6 13,2.7c5,0 7.2,-1 7.2,-3.3c0,-2.1 -1.7,-3.1 -6.2,-3.9l-4.6,-0.9c-7.5,-1.3 -11.1,-5.1 -11.1,-11.5c0,-7.2 6.7,-12.2 17,-12.2c4.5,-0.1 9,0.8 13.1,2.4l-0.9,8.4c-3.8,-1.4 -7.7,-2.1 -11.7,-2.2c-5.1,0 -7.6,1.2 -7.6,3.5c0,1.9 1.7,2.9 6.3,3.7l4.3,0.9z" id="svg_9"/>
 </g>
</svg>