<?xml version="1.0" encoding="UTF-8"?>
<svg id="Capa_1" data-name="Capa 1" xmlns="http://www.w3.org/2000/svg" version="1.1" viewBox="0 0 314 85">
  <defs>
    <style>
      .cls-1 {
        fill: #009595;
        stroke-width: 0px;
      }
    </style>
  </defs>
  <path class="cls-1" d="M45.9,51.6h-25.5l-4.1,10.7H4.7L26.8,7.5h12.5l22.2,54.8h-11.6l-4-10.7ZM23.5,42.9h19.2l-9.6-24-9.6,24Z"/>
  <path class="cls-1" d="M85.2,39.4c7.7,1.4,11.5,4.9,11.5,11.6s-6.5,12.1-16.4,12.1-11.4-1.1-14.9-2.8l1.1-8.5c4.1,1.7,8.5,2.6,13,2.7,5,0,7.2-1,7.2-3.3s-1.7-3.1-6.2-3.9l-4.6-.9c-7.5-1.3-11.1-5.1-11.1-11.5s6.7-12.2,17-12.2c4.5,0,9,.7,13.2,2.4l-.9,8.5c-3.8-1.4-7.7-2.1-11.7-2.2-5.1,0-7.5,1.2-7.5,3.5s1.7,2.9,6.3,3.7l4,.8Z"/>
  <path class="cls-1" d="M139.1,59.5c-4.5,2.4-9.5,3.7-14.6,3.6-13.7,0-22.5-8.1-22.5-20.2s8.4-20.2,19.9-20.2,21,9,18.4,23.3h-28c1,5.4,5.9,8,12.3,8s9-1,13.1-3l1.4,8.5ZM131,39.1c-.3-4.3-3.5-7.6-8.9-7.6s-9.2,3.2-9.7,7.6h18.6Z"/>
  <path class="cls-1" d="M146.2,42.9c0-11.8,7.8-20.1,18.8-20.1s10.2,2.3,12.8,5.5l.2-4.7h10v37.4c0,12.3-10.5,18.3-22.5,18.3-5.3,0-10.6-1-15.5-3.2l1.2-8.9c3,1.6,8.6,2.9,13.6,2.9s12.9-2.9,12.9-9.4v-2.8c-2.4,3.2-7,5.2-12.7,5.2-11,0-18.8-8.5-18.8-20.2ZM167.2,32c-6.2,0-10.5,4.6-10.5,10.8s4.3,11,10.5,11,10.5-4.8,10.5-11-4.4-10.8-10.5-10.8Z"/>
  <path class="cls-1" d="M223.5,23.5h10.3v22.8c0,9.8-7.4,16.8-18.3,16.8s-18.1-6.9-18.1-16.5v-23.1h10.4v21.8c0,4.9,3.2,8.3,7.8,8.3s8-3.3,8-8.3v-21.8h0Z"/>
  <path class="cls-1" d="M253.3,28.8c1.9-3.9,5.8-6.3,10.1-6.1,1.7,0,3.4.3,5,.9l-.8,9.2c-1.5-.6-3.2-.9-4.8-.9-4.6,0-9.4,2.5-9.4,10.5v19.9h-10.4V23.5h10l.3,5.3Z"/>
  <path class="cls-1" d="M271.3,42.8c0-11.8,8-20.1,18.7-20.1s10.1,2.3,12.6,5.5l.2-4.7h10.2v38.8h-10.1l-.2-4.7c-2.6,3.3-6.7,5.5-12.7,5.5-10.6,0-18.7-8.5-18.7-20.3ZM292,32c-6.2,0-10.4,4.7-10.4,10.9s4.2,11.1,10.4,11.1,10.6-4.8,10.6-11.1-4.4-10.9-10.6-10.9Z"/>
</svg>