<?xml version="1.0" encoding="utf-8"?>
<!-- Generator: Adobe Illustrator 22.0.1, SVG Export Plug-In . SVG Version: 6.00 Build 0)  -->
<svg version="1.1" id="SvgjsSvg1042" xmlns:svgjs="http://svgjs.com/svgjs"
	 xmlns="http://www.w3.org/2000/svg" xmlns:xlink="http://www.w3.org/1999/xlink" x="0px" y="0px" viewBox="0 0 288 288"
	 style="enable-background:new 0 0 288 288;" xml:space="preserve">
<style type="text/css">
	.st0{fill:#ADDFDF;}
</style>
<g id="SvgjsG1025">
	<g>
		<path class="st0" d="M91.1,187.7v-12.1c7.5,0,10.3-0.4,11.7,8.9h0.8v-10.3H82.8v1.4h3.6v26.8h-4v1.4h21.4v-10.9h-1
			c-1,8.3-3.2,9.5-9.1,9.5h-2.8v-12.9h1.6c2.6,0,4.2,1.6,4.8,6.1h1v-13.5h-1c0,0-0.2,5.7-4.8,5.7h-1.4L91.1,187.7z M82.6,188.1H70.9
			v1.4h4v9.5c-0.6,2.4-4.4,3.4-5.4,3.4c-7.5,0-6.9-10.9-6.9-13.9c0-2.6-0.2-13.9,6.9-13.9c5.2,0,7.7,5,8.7,9.5H79v-10.7
			c0,0-3.6,2.6-3.6,2.4c0,0-1.6-2.4-6.1-2.4c-8.7,0-12.1,8.7-12.1,14.9c0,5.5,2.6,15.3,12.1,15.3c3,0,5-1.6,6.1-3.2l3.8,3v-14.1h3.2
			v-1.2L82.6,188.1z M219.1,192.7c-1,8.3-3.2,9.5-9.1,9.5h-0.4v-26.6h3.8v-1.4h-12.3v1.4h3.8v26.8h-3L191,173.4h-1.6
			c0,0-9.1,26.2-9.1,26.4c0,0-0.6,2.2-2.2,2.6c-1.4,0-1.2-0.6-1.2-1v-5.2c0-1.4-0.2-4.4-1.4-5.7c-1.6-1.6-4.2-1.6-4.2-1.8
			c0,0,6.7-1.4,6.7-7.7c0-4.6-3.2-6.7-8.3-6.9h-14.7v1.4h3.8v26.8h-3.8v1.4h12.1v-1.4h-3.8v-12.9h5c8.7,0.8-1.6,14.3,9.9,14.3h7.1
			v-1.4c-0.4,0-3,0-3.2-1.8c-0.2-1.4,1.8-6.1,1.8-6.1h9.9c0,0,3,7.9,3.2,7.9h-3.4v1.4h26.8v-10.9H219.1z M168.2,187.9h-4.8v-12.3
			h6.1c3.6,0.6,3.8,4.8,3.8,5.9C173.4,184.7,172,187.9,168.2,187.9 M184.8,193.1l4.4-12.7l4.6,12.7H184.8z M140.5,175.4
			c7.5,0,10.5-0.4,11.7,8.9h0.8V174h-30.1v1.4h0.8c1,0,3.6,0,3.8,2.4v17L113.3,174h-7.7v1.4h1.2c1.6,0,3.6,0,3.8,2.4v21.8
			c0,2.2-3.2,3-4.6,3v1h10.5v-1c-1.4,0-4.6-0.8-4.6-3v-19.2c5.5,7.9,16.1,23.2,16.2,23.2h0.6v-25.8c0.2-2.2,2.6-2.4,3.8-2.4h3.4
			v26.8h-4v1.4h21.4v-10.9h-1c-1,8.3-3.2,9.5-9.1,9.5h-2.8v-12.9h1.6c2.6,0,4.2,1.6,4.8,6.1h1V182h-1c0,0-0.2,5.7-4.8,5.7h-1.4
			v-12.3H140.5z M221.7,174v1.6h3.8v26.6h-3.8v1.4h12.1v-1.4h-4v-26.6h4V174H221.7z M201.9,155.8l3.8-1.4c5.4-2.2,6.1-3.6,5.7-7.1
			V133c4,10.3,7.9,17.4,15.7,17.4c1,0,2.2-0.2,3.4-0.4l3-0.6l-2.2-2.4c-1.4-1.4-2-2.6-2.8-4c-0.4-0.6-0.6-1.2-1-1.8
			c-1.8-3-6.1-4-9.7-2.4c-1.6-3.2-3.2-7.3-5.2-12.5l-0.4-1c-0.4-0.8-0.6-1.6-1-2.4v-0.2c-1.2-2.8-2.6-5.4-4-7.9
			c-1.4-2.4-2.8-4.4-4.4-6.1c-4.2-4.8-9.5-7.7-16.1-8.9c-4.6-0.8-7.7-1-11.9-1.2c-0.8,0-1.8,0-2.6-0.2c-1.8-0.2-5.5-0.4-9.3-0.8
			c-2.6-0.2-5-0.4-6.9-0.6c0.2-0.6,0.2-1.2,0.2-1.8c0-0.8,0-1.6-0.2-2.2h26.2c6.7,0,11.7-3,14.5-8.9c6.7,0,11.5-3.2,14.5-8.9h1
			c6.9,0,11.9-3.2,14.9-9.5l1-1.8h-88.4c-5.7,0-10.7,3.8-12.7,9.7V74c-1.6-4.2-4.2-7.7-7.7-9.9c-5-3-10.5-4-14.9-2.6
			c-1.4,0.4-3,1-4.2,1.8c-1,0.8-2.6,1.8-3.6,3.2c-1.2,1.4-2.2,3.2-3,4.8c-0.6,0.4-1,0.8-1.2,1.2l-1,2v0.2c-1.2,2.8-2.8,4.8-4,6.3
			c-1.2,1.4-1.2,2.8-1.2,3.6c0.2,1,0.6,1.8,1.2,2.4c-0.4,0.6-0.6,1.4-0.6,2c0,2.4,2,4.2,4.6,4.2c1.8,0,3.4-0.8,5-2
			c0.6-0.4,2.4-1.6,3-1.6c0.8,0,1.4,0.6,1.4,1.4c0,2-2.4,3-4.2,3l-3.6,0.4c-2.6,0.2-3.8,1.6-3.8,2.8c0,1.2,0.6,2,1,2.4l0.2,0.2
			l1,0.8l-4.2,6.3c-2.8-2.6-5.9-4-8.7-4.2c-1.8,0-3.4,0.4-4.6,1.6c-0.4,0.4-0.6,0.6-0.8,1c-3,0-5.4,1.6-6.5,3.4
			c-1.4,2-0.8,5.4,0.8,7.9l-9.9,2.8v46H234V156h-32.1L201.9,155.8z M224.7,143.3c0.4,0.6,0.6,1.2,1,1.6c0.4,0.6,0.8,1.2,1.2,2
			c-2.8-0.2-5-1.8-6.7-4.6C221.7,141.5,223.9,142.1,224.7,143.3 M186.4,104.1c5.7,1,10.3,3.6,13.9,7.5c0.8,0.8,1.4,1.8,2.2,2.8
			c-9.5-1.2-12.9-2.6-18.2-10.7C185,103.7,185.6,103.9,186.4,104.1 M182.3,90.2h-18c1.6-1.4,2.8-3.2,3.8-5.2h24.4
			C190.4,88.6,187,90.2,182.3,90.2 M196.5,81.5h-18c1.6-1.4,3-3.2,4-5.4h24.4C204.9,79.7,201.5,81.5,196.5,81.5 M197.9,67.8h24.2
			c-2.4,3.2-5.5,4.8-10.1,4.8h-18C195.5,71.2,196.9,69.6,197.9,67.8 M99.6,68.6c0.6-0.8,1.6-1.6,2.6-2.4c0.8-0.6,2-1.2,3.2-1.4
			c1.8-0.4,3.8-0.4,5.7,0l-6.5,4c-0.8,0-1.6-0.2-2.4-0.2c-1.2,0-2.2,0-3,0.2C99.4,68.8,99.4,68.8,99.6,68.6 M92.1,97.2
			c0-0.2,0.2-0.4,0.4-0.4l3.2,0.2c3.8-0.2,7.7-1.8,8.1-5.7c0-2.8-2-5.4-4.6-5.4c-1.4,0-3.2,1-5,2.2c-1.2,0.8-2.2,1.4-2.8,1.4
			c-0.4,0-0.8-0.4-0.8-0.6v-0.2l2-2.8l-1.8-1.2c-0.4-0.2-1-0.8-1-1s0.2-0.4,0.2-0.6c0.8-0.8,1.6-1.8,2.4-3.2
			c0.6-0.8,0.8-1.2,1.6-1.2c0.8,0,1.6,0.6,1.6,1.6c0,0.6,0.6,1,1.4,1s1.2-0.6,1.6-1c0,0,1.8-1.6,0.8-2.4c-1-0.8-5.4,1-4.2-3l0.4-0.6
			c0.4-0.6,2.6-2.2,6.7-2.2c0.8,0,1.6,0,2.6,0.2h0.6l9.1-5.5c0,0.2,0.2,0.4,0.2,0.4c0.4,2.8-1.2,5.9-4,7.5l-1.2,0.6l0.8,4.2
			c-2.4,0.8-4,2.6-4,4.8c0,0.8,0.2,1.8,0.4,2.8c0.2,1.4,0.6,2.8,0.6,4.2c0,4.4-5.9,7.1-10.9,6.9h-0.2c-0.2,0-3.4-0.2-4.2-0.8
			C92.1,97.5,92.1,97.4,92.1,97.2 M69.5,110.6c0.8-1.2,2.4-2,4.4-1.8l1.6,0.2l0.6-1.4c0.2-0.4,0.4-0.8,0.6-1c0.4-0.4,1.2-0.6,2-0.6
			c2.2,0,5,1.6,7.1,4c0.8,0.8,1.6,2,2.2,3c0.2,0.2,0.2,0.4,0.4,0.6c0.2,0.2,0.4,0.6,0.4,0.6c0,0.2,1.2,1.8,1.2,2
			c0.8-1,1.6-2.2,2.2-3.2v-0.2c-0.2-0.4-0.6-1-0.8-1.4l-0.2-0.2c0,0-0.2-0.2-0.2-0.4c-0.2-0.4-0.6-1-0.8-1.2l4.8-7.5
			c1.2,0.2,2.2,0.2,2.8,0.2h0.2c6.7,0,13.7-4,13.7-10.3v-0.2c0-1.8-0.4-3.4-0.6-4.8c-0.2-1-0.4-1.8-0.4-2.2c0-0.8,1-1.6,2.4-1.6h2.2
			l-1-5.5c3-2.2,5-5.9,4.8-9.3c3.4,2.6,5.5,6.9,5.9,11.5c0.2,1.4-0.2,3.2-0.6,5.2l-0.2,0.8c-0.8,3.2-2,6.5-2.6,8.1l-0.6,1.4l1.4,0.8
			c2.4,1.4,4,2.4,4,5.5c0,3.8-3.4,6.5-6.5,7.1l-4.6,0.8l3.8,2.6c1.2,0.8,2,2.2,2,3.6c0,2.4-2,4.2-4.4,4.2h-1.4l-0.4,1.2
			c-1.4,4.4-2.8,6.5-7.5,7.1v-4.6v-2l-0.2-4.2l-3,3c-1,1-2.8,1.8-4.8,2.2v-3.6l-20.8-5.5l-7.3,2C69.5,114,69.1,111.2,69.5,110.6
			 M63.6,155.8l15.1-4l15.1,4H63.6z M95.7,152.6l-17.2-4.6l-17.2,4.6v-30.7l17.2-4.6l17.2,4.6V152.6z M103.8,146.7
			c-1.6,2.2-1.8,5.4-0.6,9.1h-3.8v-29.3c1.4-0.2,2.8-0.6,4.2-1.2c0,1.2-0.2,2.4-0.4,3.6c0,0.4-0.2,0.6-0.2,1l-0.4,2.2h2.2
			c3.2,0,5.5-0.6,7.5-1.4v12.3c0,0.4-0.2,0.6-0.6,0.6h-0.6C108,143.3,105.2,144.5,103.8,146.7 M143.4,147.5
			c-1.4,1.6-2.6,4.2-1.8,8.3h-22.4c2.4-0.2,4.2-0.8,5.4-2c1.4-1.6,1.6-3.6,1.6-5.2c0-0.2,0.2-0.6,1.4-1.2l2-0.8l-1.2-1.8
			c-2-3-1-9.3-0.4-12.9h0.2c7.5,0,12.5-1.6,17.6-3.2c1.4-0.4,2.8-0.8,4.2-1.4c1.4-0.6,1.6-0.4,3.6-1l7.3,12.1v0.2
			c0.8,1,0.8,1.8-0.6,3.2l-3.6,4l-5.9-1.2C148.2,144.3,145.2,145.5,143.4,147.5 M145.4,155.8c-0.6-2.6-0.4-4.6,0.8-5.9
			s2.8-1.6,4.2-1.6l6.9,1.2h1.2l5-5.4c0.8-1,3.4-4,0.8-7.7l-6.5-10.7c1-0.2,2.2-0.2,3.2-0.2c1,0,3.4,0,6.9,2c0.4,1,1.2,2.4,1.8,4
			c1.4,2.8,3.2,6.3,3.6,7.7c0.2,0.4,0.6,1.8-1,3.6L159.7,156h-14.3V155.8z M188.2,155.8h-23.8l10.1-10.7c2-2.2,2.8-4.8,1.8-7.1
			c-0.4-1.4-1.8-4.2-3.2-7.1c4,1.8,10.1,3.6,22.6,4.6c1.6,0.2,2,0.6,2.2,2l0.6,5.4l-6.5,1.4c-2.2,0.4-4,1.8-4.8,4
			C186.4,150.5,186.8,153.2,188.2,155.8 M190.8,149.5c0.4-1,1-1.6,2-1.8l9.7-2.2l-0.8-8.7v-0.2c-0.2-1.2-1-4.6-5.5-5
			c-17.4-1.4-21.4-4-25.8-6.7l-0.2-0.2c-4.6-3-9.1-3-9.5-3c-5,0-11.1,2-11.7,2.2c-1.6,0.4-3,1-4.4,1.4c-5.5,1.8-10.1,3.4-18,3h-1.4
			l-0.4,1.4c-0.2,1-2.6,9.9-0.4,15.5c-2,1.6-2,3.2-2,3.6c0,2-0.4,2.4-0.6,2.6c-1,1-4,1-6.5,1h-1l-0.6,0.8c-1.6,2.2-5,2.8-7.1,2.2
			c-1-3-1-5.2,0-6.5c1.2-1.6,3.4-1.8,4.4-1.8h0.6c2.4,0,4.2-2,4.2-4.2v-15.7c0.8-1,1.2-2.4,1.8-3.8c3.8-0.6,6.7-3.8,6.7-7.7
			c0-1.6-0.4-3-1.2-4.2c3.6-1.8,6.5-5.2,6.5-9.7c0-4.6-2.4-6.7-4.6-7.9c0.6-1.8,1.6-4.8,2.4-7.9l3-10.9c1.4-4.4,5-7.1,9.1-7.1h53.9
			c-2.4,3.2-5.5,4.8-10.1,4.8H151l-1.8,3.6h29.3c-2.4,3.6-5.7,5.4-10.5,5.4h-21.2l-1.8,3.6h18.8c-2.4,3.6-5.5,5.2-10.3,5.2H142
			l-1.8,3.6h12.1c0.2,0.2,0.4,0.8,0.4,2.2c0,2.4-2,4.2-4.4,4.2c-0.8,0-1.6-0.2-2.8-0.8c-0.6-0.2-1-0.4-1.6-0.6l-2.8,2.6
			c0.6,0.2,1,0.4,1.6,0.6c2.4,1,3.8,1.6,5.5,1.6c2.2,0,4.2-1,5.7-2.4c2,0.2,5.4,0.4,8.7,0.6c4,0.4,7.5,0.6,9.5,0.8
			c1,0,1.8,0,2.8,0.2c1.6,0,3.2,0.2,4.6,0.2c7.3,11.9,11.1,13.5,25.4,15.3c1,1.8,2,3.8,2.8,5.7v25c-0.6,0.6-2.8,1.6-3.4,1.8l-12.1,5
			C190.8,153.4,190.2,151.2,190.8,149.5"/>
		<path class="st0" d="M80.4,127.5l11.5,3v-3.8l-11.5-3V127.5z M76.7,123.7l-11.5,3v3.8l11.5-3V123.7z M76.7,131.2l-11.5,3v3.8
			l11.5-3V131.2z M80.4,135l11.5,3v-3.8l-11.5-3V135z M80.4,142.5l11.5,3v-3.8l-11.5-3V142.5z M76.7,138.8l-11.5,3v3.8l11.5-3V138.8
			z"/>
	</g>
</g>
</svg>
