<?xml version="1.0" encoding="utf-8"?>
<!-- Generator: Adobe Illustrator 22.0.1, SVG Export Plug-In . SVG Version: 6.00 Build 0)  -->
<svg version="1.1" id="Capa_1" xmlns="http://www.w3.org/2000/svg" xmlns:xlink="http://www.w3.org/1999/xlink" x="0px" y="0px"
	 viewBox="0 0 578 149" style="enable-background:new 0 0 578 149;" xml:space="preserve">
<style type="text/css">
	.st0{fill:#009696;}
</style>
<path class="st0" d="M211.1,34.8h-17.2v-9.7h45.2v9.7h-17.1v45.2h-10.9V34.8z"/>
<path class="st0" d="M247.8,46.4c1.9-3.9,5.8-6.3,10.1-6.1c1.7,0,3.4,0.3,5,0.9l-0.8,9.3c-1.5-0.6-3.2-0.9-4.8-0.9
	c-4.6,0-9.4,2.5-9.4,10.5v19.9h-10.4V41.1h10L247.8,46.4z"/>
<path class="st0" d="M302.9,77.1c-4.5,2.4-9.5,3.7-14.6,3.6c-13.7,0-22.5-8.1-22.5-20.2c0-11.9,8.4-20.2,19.9-20.2
	c11.9,0,21,9,18.4,23.3h-28c1,5.4,5.9,8,12.3,8c4.5,0,9-1,13.1-3L302.9,77.1z M294.8,56.7c-0.3-4.3-3.5-7.6-8.9-7.6
	c-5.5,0-9.3,3.2-9.7,7.6H294.8z"/>
<path class="st0" d="M330.5,57c7.7,1.4,11.5,4.9,11.5,11.6c0,7.8-6.5,12.1-16.4,12.1c-5.8,0-11.4-1-14.9-2.8l1.1-8.5
	c4.2,1.7,8.6,2.6,13,2.7c5,0,7.2-1,7.2-3.3c0-2.1-1.7-3.1-6.2-3.9l-4.7-0.9c-7.5-1.3-11.1-5-11.1-11.5c0-7.2,6.7-12.2,17-12.2
	c4.5-0.1,9,0.8,13.1,2.4l-0.9,8.4c-3.8-1.4-7.7-2.1-11.7-2.2c-5.1,0-7.5,1.2-7.5,3.5c0,1.9,1.7,2.9,6.3,3.7L330.5,57z"/>
<path class="st0" d="M384.4,47.2c3.1-4.4,8.1-7,13.5-6.9c8.9,0,15.2,5.8,15.2,15.2v24.4h-10.4V58.2c0-5.4-3.3-8.3-7.8-8.3
	s-8.5,2.8-8.5,8v22H376V58.2c0-5.4-3.4-8.3-7.7-8.3s-8.5,2.9-8.5,8.3v21.7h-10.4V41.1h9.9l0.2,4.5c2-2.7,6.2-5.3,11.9-5.3
	C377.2,40.3,382.1,42.8,384.4,47.2z"/>
<path class="st0" d="M420.4,60.5c0-11.8,8-20.1,18.7-20.1c6,0,10.1,2.3,12.6,5.5l0.2-4.7H462v38.8h-10.1l-0.2-4.7
	c-2.5,3.2-6.6,5.5-12.6,5.5C428.4,80.7,420.4,72.2,420.4,60.5z M441.1,49.6c-6.2,0-10.4,4.7-10.4,10.9s4.2,11.1,10.4,11.1
	s10.6-4.8,10.6-11.1S447.3,49.6,441.1,49.6z"/>
<path class="st0" d="M482,46.4c1.9-3.9,5.8-6.3,10.1-6.1c1.7,0,3.4,0.3,5,0.9l-0.8,9.3c-1.5-0.6-3.2-0.9-4.8-0.9
	c-4.6,0-9.4,2.5-9.4,10.5v19.9h-10.4V41.1h10L482,46.4z"/>
<path class="st0" d="M537.2,77.1c-4.5,2.4-9.5,3.7-14.6,3.6c-13.7,0-22.5-8.1-22.5-20.2c0-11.9,8.4-20.2,19.9-20.2
	c11.9,0,21,9,18.4,23.3h-28c1,5.4,5.9,8,12.3,8c4.5,0,9-1,13.1-3L537.2,77.1z M529,56.7c-0.3-4.3-3.6-7.6-8.9-7.6
	c-5.5,0-9.3,3.2-9.7,7.6H529z"/>
<path class="st0" d="M564.8,57c7.7,1.4,11.5,4.9,11.5,11.6c0,7.8-6.5,12.1-16.4,12.1c-5.8,0-11.4-1-15-2.8l1.1-8.5
	c4.1,1.7,8.5,2.6,13,2.7c5,0,7.2-1,7.2-3.3c0-2.1-1.7-3.1-6.2-3.9l-4.6-0.9c-7.5-1.3-11.1-5.1-11.1-11.5c0-7.2,6.7-12.2,17-12.2
	c4.5-0.1,9,0.8,13.1,2.4l-0.9,8.4c-3.8-1.4-7.7-2.1-11.7-2.2c-5.1,0-7.6,1.2-7.6,3.5c0,1.9,1.7,2.9,6.3,3.7L564.8,57z"/>
<path class="st0" d="M142.3,51.8L142.3,51.8c-1.6-1.6-3.3-3.1-5.1-4.5c-1.1-12.5-5.8-23.7-14.2-32.2l0,0
	c-24.7-24.7-72.7-17-107,17.2c-5.2,5.2-10,10.9-14.1,17l13.7,10.4c3.7-5.5,7.9-10.6,12.6-15.3C55.6,17,92.7,9.3,110.7,27.3
	c3.2,3.2,5.6,7,7.2,11.3c-22.7-5.2-50.7,3.6-72.8,25C34.6,74,27.8,86.7,25.7,99.3c-2.1,13.2,1.4,25.5,9.5,33.7
	c6.7,6.7,15.8,10,25.6,10c14.6,0,31.1-7.2,44.7-20.8c15.4-15.4,25.5-33.7,29.6-51.3c4,7.2,5.3,16.2,3.8,26.2
	c-2.1,14.4-9.9,28.9-21.7,40.8l13.8,10.5c13.5-14.2,22.4-31.4,25-48.7C158.9,80.5,154,63.6,142.3,51.8z M93.5,110
	c-15.4,15.4-36.5,20.3-46,10.8c-4.3-4.3-6-11-4.7-18.8c1.5-9,6.6-18.3,14.4-26.1c19.7-19,45.5-26,63.2-18.5
	C119,74.4,109.6,93.8,93.5,110z"/>
<path class="st0" d="M205,116.8c-6.2,0-10.4-3.8-10.4-9.4s4.1-9.3,10.2-9.3c1.9,0,3.8,0.4,5.5,1.2l-0.2,2.1
	c-1.7-0.7-3.5-1.1-5.3-1.1c-4.7,0-7.9,2.9-7.9,7.3s3.3,7.3,8.2,7.3c1.8,0,3.6-0.4,5.2-1.2l0.4,2.1C208.9,116.4,207,116.8,205,116.8z
	"/>
<path class="st0" d="M219.6,103.3c3.7,0.1,6.7,3.1,6.6,6.9c-0.1,3.7-3.1,6.7-6.9,6.6c-3.7-0.1-6.6-3.1-6.6-6.8
	c0-3.7,2.9-6.7,6.6-6.7C219.4,103.3,219.5,103.3,219.6,103.3z M219.6,114.8c2.6,0,4.7-2.1,4.8-4.7c0-2.6-2.1-4.7-4.7-4.8
	c-2.6,0-4.7,2.1-4.8,4.7c0,0,0,0,0,0c-0.1,2.6,2,4.7,4.5,4.7C219.4,114.8,219.5,114.8,219.6,114.8z"/>
<path class="st0" d="M232,105.5c0.6-1.4,2-2.2,3.5-2.2c0.6,0,1.2,0.1,1.8,0.3l-0.2,2c-0.5-0.2-1.1-0.3-1.7-0.3c-1.7,0-3.4,1.1-3.4,4
	v7.2h-2.1v-12.9h2.1V105.5z"/>
<path class="st0" d="M242.3,105.5c0.6-1.4,2-2.2,3.5-2.2c0.6,0,1.2,0.1,1.8,0.3l-0.2,2c-0.5-0.2-1.1-0.3-1.7-0.3
	c-1.7,0-3.4,1.1-3.4,4v7.2h-2.1v-12.9h2.1L242.3,105.5z"/>
<path class="st0" d="M261.2,115.5c-1.5,0.9-3.2,1.3-4.9,1.3c-4.3,0-7.3-2.8-7.3-6.8c-0.1-3.6,2.6-6.6,6.2-6.7c0.1,0,0.3,0,0.4,0
	c4.4,0,6.8,3.5,6.2,7.5h-10.6c0.4,2.5,2.5,3.9,5,3.9c1.6,0,3.2-0.4,4.6-1.2L261.2,115.5z M259.8,109.1c0-2.1-1.8-3.8-3.9-3.8
	c-0.1,0-0.1,0-0.2,0c-2.2-0.1-4.2,1.5-4.4,3.8H259.8z"/>
<path class="st0" d="M275.9,114.4c-1.2,1.6-3,2.5-5,2.4c-3.7-0.1-6.6-3.3-6.5-7c0.1-3.5,3-6.3,6.5-6.5c2-0.1,3.8,0.8,5,2.4v-8.2h2.1
	v18.9h-2.1V114.4z M275.9,110c0.1-2.6-2-4.7-4.6-4.8c-0.1,0-0.1,0-0.2,0c-2.6,0-4.8,2.1-4.8,4.8s2.1,4.8,4.8,4.8
	c2.6,0.1,4.8-2,4.8-4.6C275.9,110.1,275.9,110.1,275.9,110L275.9,110z"/>
<path class="st0" d="M291.9,103.6h2.1v7.7c0,3.2-2.3,5.5-5.9,5.5s-5.9-2.3-5.9-5.4v-7.7h2.1v7.3c-0.1,2.1,1.5,3.8,3.5,3.9
	s3.8-1.5,3.9-3.5c0-0.1,0-0.3,0-0.4L291.9,103.6z"/>
<path class="st0" d="M300.5,105.5c0.6-1.4,2-2.2,3.5-2.2c0.6,0,1.2,0.1,1.8,0.3l-0.2,2c-0.5-0.2-1.1-0.3-1.7-0.3
	c-1.7,0-3.4,1.1-3.4,4v7.2h-2.1v-12.9h2.1L300.5,105.5z"/>
<path class="st0" d="M308.6,103.6h2.1v12.9h-2.1V103.6z M310.6,101.5h-1.9l2-4.5h2.4L310.6,101.5z"/>
<path class="st0" d="M327.8,116.5h-2.1v-2.1c-1.2,1.6-3,2.5-5,2.4c-3.7-0.1-6.6-3.3-6.5-7c0.1-3.5,3-6.3,6.5-6.5
	c2-0.1,3.8,0.8,5,2.4v-2.1h2.1V116.5z M316.3,110c-0.1,2.5,1.9,4.7,4.4,4.8c0.1,0,0.1,0,0.2,0c2.6,0,4.8-2.1,4.8-4.7
	c0-0.1,0-0.1,0-0.2c0-2.6-2-4.7-4.6-4.8c-0.1,0-0.1,0-0.2,0c-2.5,0-4.6,2-4.6,4.5C316.3,109.8,316.3,109.9,316.3,110L316.3,110z"/>
<path class="st0" d="M349.3,114.4c-1.2,1.6-3,2.5-5,2.4c-3.7-0.1-6.6-3.3-6.5-7c0.1-3.5,3-6.3,6.5-6.5c2-0.1,3.8,0.8,5,2.4v-8.2h2.1
	v18.9h-2.1V114.4z M349.3,110c0.1-2.6-2-4.7-4.6-4.8c-0.1,0-0.1,0-0.2,0c-2.6,0-4.8,2.1-4.8,4.8s2.1,4.8,4.8,4.8l0,0
	c2.6,0,4.8-2,4.8-4.6C349.3,110.1,349.3,110.1,349.3,110L349.3,110z"/>
<path class="st0" d="M367.2,115.5c-1.5,0.9-3.2,1.3-4.9,1.3c-4.4,0-7.4-2.8-7.4-6.7c-0.1-3.6,2.7-6.6,6.2-6.7c0.1,0,0.3,0,0.4,0
	c4.4,0,6.8,3.5,6.1,7.5h-10.6c0.4,2.5,2.5,3.9,5,3.9c1.6,0,3.2-0.4,4.6-1.2L367.2,115.5z M365.8,109.1c0-2.1-1.8-3.8-3.9-3.8
	c-0.1,0-0.1,0-0.2,0c-2.2-0.1-4.2,1.5-4.4,3.8H365.8z"/>
<path class="st0" d="M381.6,107.7c-2.5-0.8-4.5-2-4.5-4.6c0-3.2,2.4-5.2,6.5-5.2c1.8,0,3.7,0.4,5.4,1l-0.2,2.1c-1.6-0.7-3.3-1-5-1
	c-2.7,0-4.4,1-4.4,3s1.6,2.3,3.2,2.9l2.9,0.9c3,1,4.4,2.3,4.4,4.8c0,3.1-2.6,5.2-6.6,5.2c-2.2,0-4.3-0.4-6.3-1.3l0.2-2.1
	c1.9,0.8,3.9,1.3,5.9,1.3c2.7,0,4.4-1.2,4.4-3.1c0-1.5-0.8-2.2-2.9-2.9L381.6,107.7z"/>
<path class="st0" d="M404.6,115.5c-1.5,0.9-3.2,1.3-4.9,1.3c-4.4,0-7.4-2.8-7.4-6.7c-0.1-3.6,2.7-6.6,6.2-6.7c0.1,0,0.3,0,0.4,0
	c4.4,0,6.8,3.5,6.1,7.5h-10.6c0.4,2.5,2.5,3.9,5,3.9c1.6,0,3.2-0.4,4.6-1.2L404.6,115.5z M403.2,109.1c0-2.1-1.8-3.8-3.9-3.8
	c-0.1,0-0.1,0-0.2,0c-2.2-0.1-4.2,1.5-4.4,3.8H403.2z"/>
<path class="st0" d="M414.3,116.8c-3.7-0.1-6.6-3.3-6.5-7c0.1-3.5,3-6.3,6.5-6.5c2-0.1,3.8,0.8,5,2.4v-2.1h2.1v12
	c0,3.8-2.6,6.5-7.3,6.5c-1.8,0-3.5-0.4-5.1-1.1l0.3-2c1.5,0.7,3.1,1.1,4.7,1.1c3,0,5.2-1.5,5.2-4.4v-1.4
	C418.1,115.9,416.3,116.8,414.3,116.8z M409.9,110c-0.1,2.5,1.9,4.7,4.4,4.8c0.1,0,0.1,0,0.2,0c2.6,0,4.8-2.1,4.8-4.7
	c0-0.1,0-0.1,0-0.2c0-2.6-2-4.7-4.6-4.8c-0.1,0-0.1,0-0.2,0c-2.5,0-4.6,2-4.6,4.5C409.9,109.8,409.9,109.9,409.9,110z"/>
<path class="st0" d="M435.3,103.6h2.1v7.7c0,3.2-2.3,5.5-5.9,5.5s-5.9-2.3-5.9-5.4v-7.7h2.1v7.3c-0.1,2.1,1.5,3.8,3.5,3.9
	s3.8-1.5,3.9-3.5c0-0.1,0-0.3,0-0.4L435.3,103.6z"/>
<path class="st0" d="M443.8,105.5c0.6-1.4,2-2.2,3.5-2.2c0.6,0,1.2,0.1,1.8,0.3l-0.2,2c-0.5-0.2-1.1-0.3-1.7-0.3
	c-1.7,0-3.4,1.1-3.4,4v7.2h-2.1v-12.9h2.1L443.8,105.5z"/>
<path class="st0" d="M457.4,103.3c3.7,0.1,6.7,3.1,6.6,6.9c-0.1,3.7-3.1,6.7-6.9,6.6c-3.7-0.1-6.6-3.1-6.6-6.7
	c0-3.7,2.9-6.7,6.6-6.7C457.2,103.3,457.3,103.3,457.4,103.3z M457.4,114.8c2.6,0,4.7-2.1,4.8-4.7c0-2.6-2.1-4.7-4.7-4.8
	c-2.6,0-4.7,2.1-4.8,4.7c0,0,0,0,0,0c-0.1,2.6,2,4.7,4.5,4.7C457.3,114.8,457.3,114.8,457.4,114.8z"/>
<path class="st0" d="M472.9,109.2c2.6,0.5,3.9,1.7,3.9,3.7c0,2.5-2,3.9-5.1,3.9c-1.7,0-3.3-0.3-4.8-1l0.3-1.9c1.4,0.7,2.9,1,4.4,1
	c2.1,0,3.2-0.7,3.2-1.8s-1-1.7-2.8-2l-1.7-0.3c-2.1-0.4-3.5-1.6-3.5-3.5c0-2.3,2-3.8,5.3-3.8c1.4,0,2.8,0.2,4.1,0.7l-0.3,1.9
	c-1.2-0.5-2.5-0.7-3.7-0.7c-2.1,0-3.3,0.7-3.3,1.9s0.9,1.5,2.7,1.8L472.9,109.2z"/>
</svg>
