<svg viewBox="0 0 100 100" height="100" width="100" xmlns="http://www.w3.org/2000/svg"><path d="M9.339 50.000 A40.000 40.000 0 1 0 89.339 50.000 A40.000 40.000 0 1 0 9.339 50.000 Z" fill="#d9edff"/><path d="M22.172,67.2a2.774,2.774,0,0,1,2.774-2.774h9.247a2.774,2.774,0,1,1,0,5.548H24.946A2.774,2.774,0,0,1,22.172,67.2Z" fill="#ffffff"/><path d="M7.378,67.2a2.774,2.774,0,0,1,2.774-2.774H19.4a2.774,2.774,0,0,1,0,5.548H10.152A2.774,2.774,0,0,1,7.378,67.2Z" fill="#ffffff"/><path d="M9.228,61.65A2.774,2.774,0,0,1,12,58.874h9.246a2.775,2.775,0,0,1,0,5.549H12A2.773,2.773,0,0,1,9.228,61.65Z" fill="#ffffff"/><path d="M22.172,67.2a2.774,2.774,0,0,1,2.774-2.774h9.247a2.774,2.774,0,1,1,0,5.548H24.946A2.774,2.774,0,0,1,22.172,67.2Z" fill="none" stroke="#004481" stroke-linecap="round" stroke-linejoin="round"/><path d="M7.378,67.2a2.774,2.774,0,0,1,2.774-2.774H19.4a2.774,2.774,0,0,1,0,5.548H10.152A2.774,2.774,0,0,1,7.378,67.2Z" fill="none" stroke="#004481" stroke-linecap="round" stroke-linejoin="round"/><path d="M9.228,61.65A2.774,2.774,0,0,1,12,58.874h9.246a2.775,2.775,0,0,1,0,5.549H12A2.773,2.773,0,0,1,9.228,61.65Z" fill="none" stroke="#004481" stroke-linecap="round" stroke-linejoin="round"/><path d="M8.3,56.1a2.774,2.774,0,0,1,2.774-2.774h9.247a2.774,2.774,0,1,1,0,5.547H11.076A2.773,2.773,0,0,1,8.3,56.1Z" fill="#ffffff"/><path d="M8.3,56.1a2.774,2.774,0,0,1,2.774-2.774h9.247a2.774,2.774,0,1,1,0,5.547H11.076A2.773,2.773,0,0,1,8.3,56.1Z" fill="none" stroke="#004481" stroke-linecap="round" stroke-linejoin="round"/><path d="M24.022,61.65A2.775,2.775,0,0,1,26.8,58.874h9.246a2.775,2.775,0,0,1,0,5.549H26.8A2.773,2.773,0,0,1,24.022,61.65Z" fill="none" stroke="#004481" stroke-linecap="round" stroke-linejoin="round"/><path d="M35.808,57.427a2.107,2.107,0,0,0-3.444-.712,19.966,19.966,0,0,1-11.048,5.21A2.111,2.111,0,0,0,19.545,64.8l1.608,4.079a2.106,2.106,0,0,0,2.27,1.311,31.048,31.048,0,0,0,12.418-5.109A3.7,3.7,0,0,0,37.12,60.7Z" fill="#4cbcc3" stroke="#004481" stroke-linejoin="round"/><path d="M30.2,64.025a1.582,1.582,0,1,1-1.581-1.582A1.582,1.582,0,0,1,30.2,64.025Z" fill="#ffffff"/><path d="M34.03,54.274a2.109,2.109,0,0,0-1.958-2.922A19.956,19.956,0,0,1,20.538,47.33a2.111,2.111,0,0,0-3.278.811l-1.71,4.038a2.106,2.106,0,0,0,.7,2.524,31.016,31.016,0,0,0,12.44,5.055,3.7,3.7,0,0,0,3.98-2.226Z" fill="#4cbcc3" stroke="#004481" stroke-linejoin="round"/><path d="M25.4,55.05a1.582,1.582,0,1,1-.021-2.237A1.581,1.581,0,0,1,25.4,55.05Z" fill="#ffffff"/><path d="M39.146 80.796 A10.143 1.902 0 1 0 59.432 80.796 A10.143 1.902 0 1 0 39.146 80.796 Z" fill="#4cbcc3"/><path d="M72.105,67.2a2.775,2.775,0,0,0-2.774-2.774H60.084a2.774,2.774,0,1,0,0,5.548h9.247A2.775,2.775,0,0,0,72.105,67.2Z" fill="#ffffff"/><path d="M86.9,67.2a2.774,2.774,0,0,0-2.774-2.774H74.879a2.774,2.774,0,0,0,0,5.548h9.246A2.774,2.774,0,0,0,86.9,67.2Z" fill="#ffffff"/><path d="M85.049,61.65a2.774,2.774,0,0,0-2.773-2.776H73.029a2.775,2.775,0,0,0,0,5.549h9.247A2.772,2.772,0,0,0,85.049,61.65Z" fill="#ffffff"/><path d="M70.255,61.65a2.774,2.774,0,0,0-2.773-2.776H58.235a2.775,2.775,0,0,0,0,5.549h9.247A2.772,2.772,0,0,0,70.255,61.65Z" fill="#ffffff"/><path d="M72.105,67.2a2.775,2.775,0,0,0-2.774-2.774H60.084a2.774,2.774,0,1,0,0,5.548h9.247A2.775,2.775,0,0,0,72.105,67.2Z" fill="none" stroke="#004481" stroke-linecap="round" stroke-linejoin="round"/><path d="M86.9,67.2a2.774,2.774,0,0,0-2.774-2.774H74.879a2.774,2.774,0,0,0,0,5.548h9.246A2.774,2.774,0,0,0,86.9,67.2Z" fill="none" stroke="#004481" stroke-linecap="round" stroke-linejoin="round"/><path d="M85.049,61.65a2.774,2.774,0,0,0-2.773-2.776H73.029a2.775,2.775,0,0,0,0,5.549h9.247A2.772,2.772,0,0,0,85.049,61.65Z" fill="none" stroke="#004481" stroke-linecap="round" stroke-linejoin="round"/><path d="M85.975,56.1A2.775,2.775,0,0,0,83.2,53.327H73.954a2.774,2.774,0,1,0,0,5.547H83.2A2.774,2.774,0,0,0,85.975,56.1Z" fill="#ffffff"/><path d="M85.975,56.1A2.775,2.775,0,0,0,83.2,53.327H73.954a2.774,2.774,0,1,0,0,5.547H83.2A2.774,2.774,0,0,0,85.975,56.1Z" fill="none" stroke="#004481" stroke-linecap="round" stroke-linejoin="round"/><path d="M70.255,61.65a2.774,2.774,0,0,0-2.773-2.776H58.235a2.775,2.775,0,0,0,0,5.549h9.247A2.772,2.772,0,0,0,70.255,61.65Z" fill="none" stroke="#004481" stroke-linecap="round" stroke-linejoin="round"/><path d="M50.1,14.626a1.85,1.85,0,0,0-2.221,0A44.3,44.3,0,0,1,27.461,23.09a1.844,1.844,0,0,0-1.589,1.831V41.093A36.047,36.047,0,0,0,48.287,74.457a1.847,1.847,0,0,0,1.4,0A36.047,36.047,0,0,0,72.105,41.093V24.919a1.846,1.846,0,0,0-1.592-1.829A44.292,44.292,0,0,1,50.1,14.626Z" fill="#ffffff"/><path d="M50.1,14.626a1.85,1.85,0,0,0-2.221,0A44.3,44.3,0,0,1,27.461,23.09a1.844,1.844,0,0,0-1.589,1.831V41.093A36.047,36.047,0,0,0,48.287,74.457a1.847,1.847,0,0,0,1.4,0A36.047,36.047,0,0,0,72.105,41.093V24.919a1.846,1.846,0,0,0-1.592-1.829A44.292,44.292,0,0,1,50.1,14.626Z" fill="none" stroke="#004481"/><path d="M64.522,46.77A15.535,15.535,0,1,1,48.988,31.234,15.533,15.533,0,0,1,64.522,46.77Z" fill="#4cbcc3"/><path d="M64.522,46.77A15.535,15.535,0,1,1,48.988,31.234,15.533,15.533,0,0,1,64.522,46.77Z" fill="none" stroke="#004481" stroke-linejoin="round"/><path d="M45.042,50.714a3.946,3.946,0,1,0,3.945-3.944,3.945,3.945,0,1,1,3.946-3.946" fill="none" stroke="#004481" stroke-linecap="round"/><path d="M48.987 38.88L48.987 36.263" fill="none" stroke="#004481" stroke-linecap="round"/><path d="M48.987 57.276L48.987 54.659" fill="none" stroke="#004481" stroke-linecap="round"/><path d="M87.756,29.389a3.7,3.7,0,0,1,2.772-2.772l5.564-1.284a.462.462,0,0,0,0-.9l-5.564-1.283a3.7,3.7,0,0,1-2.773-2.772l-1.283-5.561a.462.462,0,0,0-.9,0l-1.283,5.561a3.7,3.7,0,0,1-2.773,2.772l-5.56,1.283a.462.462,0,0,0,0,.9l5.56,1.284a3.7,3.7,0,0,1,2.772,2.772l1.284,5.564a.462.462,0,0,0,.9,0Z" fill="#ffffff" stroke="#004481" stroke-linecap="round" stroke-linejoin="round"/><path d="M11.863,34.763l4.353-1.451a.409.409,0,0,0,0-.775l-3.578-1.193A1.637,1.637,0,0,1,11.6,30.31l-1.193-3.577a.408.408,0,0,0-.775,0L8.444,30.31A1.637,1.637,0,0,1,7.41,31.344L3.83,32.537a.408.408,0,0,0,0,.775l3.579,1.193a1.637,1.637,0,0,1,1.034,1.034l1.193,3.58a.408.408,0,0,0,.775,0Z" fill="#ffffff" stroke="#004481" stroke-linecap="round" stroke-linejoin="round"/></svg>