<svg xmlns="http://www.w3.org/2000/svg" version="1.1" xmlns:xlink="http://www.w3.org/1999/xlink" xmlns:svgjs="http://svgjs.com/svgjs" width="512" height="512" x="0" y="0" viewBox="0 0 64 64" style="enable-background:new 0 0 512 512" xml:space="preserve" class=""><g><path d="M44.059 17.521a1.499 1.499 0 1 0-1.735 2.447 17.92 17.92 0 0 1 7.551 14.595c0 9.856-8.019 17.875-17.875 17.875s-17.875-8.019-17.875-17.875a17.917 17.917 0 0 1 7.554-14.596 1.5 1.5 0 0 0-1.735-2.448 20.923 20.923 0 0 0-8.819 17.044c0 11.511 9.364 20.875 20.875 20.875s20.875-9.364 20.875-20.875c0-6.759-3.296-13.13-8.816-17.042z" fill="#004481" data-original="#000000" class=""></path><path d="M31.562 25.063a1.5 1.5 0 0 0 1.5-1.5v-13.5a1.5 1.5 0 1 0-3 0v13.5a1.5 1.5 0 0 0 1.5 1.5z" fill="#004481" data-original="#000000" class=""></path></g></svg>