<svg id="SvgjsSvg1060" width="288" height="288" xmlns="http://www.w3.org/2000/svg" version="1.1" xmlns:xlink="http://www.w3.org/1999/xlink" xmlns:svgjs="http://svgjs.com/svgjs"><defs id="SvgjsDefs1061"></defs><g id="SvgjsG1062"><svg xmlns="http://www.w3.org/2000/svg" width="288" height="288" viewBox="0 0 193.905 47.099"><g transform="translate(-.482 -.078)" fill="#009696" class="color000 svgShape"><g data-name="Group 575" transform="translate(56.164 29.412)" fill="#009696" class="color000 svgShape"><path fill="#addfdf" d="M46.034,36.247a16.041,16.041,0,0,1-4.173-.54V31.835h1.858v2.017l.358.361a11.031,11.031,0,0,0,1.957.161c1.636,0,2.137-.76,2.137-1.858,0-1.159-.459-1.616-2.115-2.076-2.855-.776-4.154-1.8-4.154-4.45,0-2.717,2.2-4.112,5.231-4.112a13.821,13.821,0,0,1,3.773.518v3.692H49.05V24.232l-.339-.34a9.145,9.145,0,0,0-1.578-.139c-1.416,0-2.235.659-2.235,1.678,0,1.036.219,1.515,2.4,2.114,2.613.72,4.091,1.8,4.091,4.213C51.383,34.829,49.208,36.247,46.034,36.247Z" data-name="Path 903" transform="translate(-41.861 -21.877)" class="colorb1b8ba svgShape"></path><path fill="#addfdf" d="M58.424,30.405h-5.29c.1,2.238.918,3.056,2.854,3.056a6.885,6.885,0,0,0,2.215-.42v1.6a5.784,5.784,0,0,1-3.252.739c-2.576,0-4.871-1.518-4.871-5.27,0-3.873,2.076-5.71,4.571-5.71a3.972,3.972,0,0,1,4.13,4.291v1.358Zm-5.27-1.4h2.755v-.518c0-1.537-.318-2.278-1.237-2.278C53.735,26.211,53.275,27.212,53.155,29.007Z" data-name="Path 904" transform="translate(-39.02 -21.006)" class="colorb1b8ba svgShape"></path><path fill="#addfdf" d="M62.054,31.166a6.2,6.2,0,0,1-1.375-.141.926.926,0,0,0-.4.72c0,.378.24.558.818.558h3.016c1.835,0,3.392.54,3.392,2.755,0,2.534-2.554,3.714-5.649,3.714-2.675,0-4.372-.54-4.372-2.257A2.019,2.019,0,0,1,58.86,34.8a2.015,2.015,0,0,1-1.239-1.919,2.943,2.943,0,0,1,1.658-2.414,3.017,3.017,0,0,1-1.457-2.7c0-2.317,1.955-3.374,4.232-3.374a6.132,6.132,0,0,1,1.617.2h3.775v1.457H66.107l-.18.18a3.123,3.123,0,0,1,.378,1.537C66.307,30.064,64.331,31.166,62.054,31.166ZM60.278,35a1.832,1.832,0,0,0-.339,1.138c0,.817.5,1.3,1.978,1.3,1.556,0,2.6-.48,2.6-1.538,0-.76-.462-.9-1.278-.9H60.278Zm1.776-8.962c-.937,0-1.476.577-1.476,1.736,0,1.14.538,1.736,1.476,1.736.958,0,1.5-.6,1.5-1.736C63.551,26.612,63.012,26.035,62.054,26.035Z" data-name="Path 905" transform="translate(-36.461 -21.006)" class="colorb1b8ba svgShape"></path><path fill="#addfdf" d="M74.662,24.544c.8,0,.919.46.919.877v7.887l.361.359h.877v1.457H73.645c-.8,0-.918-.46-.918-.877v-.322h-.1a3.856,3.856,0,0,1-2.835,1.4c-2.376,0-3.073-1.436-3.073-3.195V26.361L66.36,26h-.879V24.544h3.353c.8,0,.919.46.919.877V31.65c0,.6.061,1.417,1.218,1.417a2.831,2.831,0,0,0,1.577-.537v-6.17L72.188,26h-.876V24.544h3.351Z" data-name="Path 906" transform="translate(-33.696 -20.955)" class="colorb1b8ba svgShape"></path><path fill="#addfdf" d="M79.333,33.718h1.118v1.457h-5.73V33.718H75.6l.361-.359V26.413l-.361-.359h-.877V24.6H77.9c.8,0,.919.46.919.877v.521h.1a3.825,3.825,0,0,1,2.876-1.6,5.521,5.521,0,0,1,.759.061v4.172h-1.8v-1.4l-.34-.319a4.928,4.928,0,0,0-1.417.518v5.93Z" data-name="Path 907" transform="translate(-30.503 -21.006)" class="colorb1b8ba svgShape"></path><path fill="#addfdf" d="M86.138,35.376c-2.693,0-4.77-1.7-4.77-5.488s2.078-5.492,4.77-5.492,4.773,1.7,4.773,5.492S88.835,35.376,86.138,35.376Zm0-9.083c-1.336,0-1.675,1.159-1.675,3.594s.339,3.59,1.675,3.59,1.678-1.157,1.678-3.59S87.477,26.293,86.138,26.293Z" data-name="Path 908" transform="translate(-28.205 -21.006)" class="colorb1b8ba svgShape"></path><path fill="#addfdf" d="M93.03,35.376a11.207,11.207,0,0,1-3.413-.458V31.965h1.657V33.3l.339.359a10.2,10.2,0,0,0,1.418.079c1.157,0,1.539-.517,1.539-1.274,0-.78-.221-1.161-1.877-1.5-2.477-.5-3.016-1.818-3.016-3.193,0-2.118,1.557-3.374,4.252-3.374a13.55,13.55,0,0,1,3.034.338V27.63H95.309V26.412l-.34-.319a8.034,8.034,0,0,0-1.038-.082c-1,0-1.6.439-1.6,1.079s.061,1.117,1.557,1.417c2.613.54,3.553,1.5,3.553,3.092C97.442,34.157,95.6,35.376,93.03,35.376Z" data-name="Path 909" transform="translate(-25.354 -21.006)" class="colorb1b8ba svgShape"></path></g><g data-name="Group 576" transform="translate(54.617 .138)" fill="#009696" class="color000 svgShape"><path fill="#addfdf" d="M42.773,3.887l-.6-.6H40.711V.865h9.905c5.619,0,9.243,2.224,9.243,7.378s-3.624,7.58-9.243,7.58H48.158v5.286l.565.6h1.761v2.426H40.711V21.709h1.461l.6-.6Zm5.385.433v8.048h2.459c2.827,0,3.659-1.3,3.659-4.024,0-2.66-.832-4.024-3.659-4.024H48.158Z" data-name="Path 910" transform="translate(-40.711 .133)" class="colorb1b8ba svgShape"></path><path fill="#addfdf" d="M61.12.123c1.33,0,1.53.764,1.53,1.461V21.366l.564.6h1.5v2.426H55.534V21.966H57l.6-.6V3.148l-.6-.6H55.534V.123Z" data-name="Path 911" transform="translate(-35.587 -.123)" class="colorb1b8ba svgShape"></path><path fill="#addfdf" d="M78.365,5.065c1.328,0,1.529.764,1.529,1.461V19.657l.6.6h1.463v2.426H76.669c-1.331,0-1.53-.763-1.53-1.464v-.53h-.167a6.42,6.42,0,0,1-4.722,2.327c-3.956,0-5.119-2.393-5.119-5.318V8.089l-.6-.6H63.07V5.065h5.586c1.328,0,1.53.764,1.53,1.461V16.9c0,1,.1,2.36,2.028,2.36a4.69,4.69,0,0,0,2.625-.9V8.089l-.6-.6H72.778V5.065Z" data-name="Path 912" transform="translate(-32.982 1.585)" class="colorb1b8ba svgShape"></path><path fill="#addfdf" d="M84.049,23.1a18.634,18.634,0,0,1-5.685-.764v-4.92h2.76v2.228l.565.6a16.581,16.581,0,0,0,2.36.133c1.928,0,2.561-.865,2.561-2.127,0-1.3-.366-1.928-3.127-2.494-4.12-.83-5.019-3.026-5.019-5.318,0-3.526,2.594-5.621,7.082-5.621a22.426,22.426,0,0,1,5.052.565V10.2H87.84V8.175l-.565-.533a13.429,13.429,0,0,0-1.731-.133c-1.661,0-2.66.732-2.66,1.8s.1,1.862,2.594,2.36c4.355.9,5.917,2.492,5.917,5.154C91.4,21.076,88.337,23.1,84.049,23.1Z" data-name="Path 913" transform="translate(-27.696 1.499)" class="colorb1b8ba svgShape"></path><path fill="#addfdf" d="M103.259,3.887l-.6-.6H101.2V.865h8.51V3.291h-1.5l-.565.6v12.6c0,5.45-3.291,7.978-8.413,7.978-4.987,0-8.41-2.529-8.41-7.978V3.887l-.6-.6H88.766V.865h9.508V3.291h-1.5l-.567.6v12.6c0,2.956,1,4.521,3.524,4.521,2.794,0,3.522-1.565,3.522-4.521Z" data-name="Path 914" transform="translate(-24.1 .133)" class="colorb1b8ba svgShape"></path><path fill="#addfdf" d="M110.88.123c1.331,0,1.53.764,1.53,1.461V21.366l.567.6h1.5v2.426h-9.176V21.966h1.464l.6-.6V3.148l-.6-.6h-1.464V.123Z" data-name="Path 915" transform="translate(-18.387 -.123)" class="colorb1b8ba svgShape"></path><path fill="#addfdf" d="M120.019,8.752v12.1l.6.6h3.224v2.426a32.813,32.813,0,0,1-4.489.332c-2.893,0-4.388-1.064-4.388-4.122V8.752H112.9V6.325h1.464l.6-.6L116.859,1.6h3.158V6.325h3.725V8.752Z" data-name="Path 916" transform="translate(-15.757 .389)" class="colorb1b8ba svgShape"></path><path fill="#addfdf" d="M129.477,20.343h1.864v2.426H121.8V20.343h1.463l.6-.6V8.174l-.6-.6H121.8V5.151h5.286c1.331,0,1.53.764,1.53,1.461v.865h.167a6.377,6.377,0,0,1,4.788-2.66,9.137,9.137,0,0,1,1.262.1v6.949h-2.993V9.538L131.274,9a8.115,8.115,0,0,0-2.36.865v9.874Z" data-name="Path 917" transform="translate(-12.682 1.5)" class="colorb1b8ba svgShape"></path><path fill="#addfdf" d="M148.882,22.77H143.6c-1.33,0-1.53-.763-1.53-1.464v-.53H141.9a6.423,6.423,0,0,1-4.723,2.327c-3.822,0-5.052-2.428-5.052-5.286,0-3.125,2.293-4.952,5.885-4.952h3.756v-1.6c0-1.928-.1-3.326-2.958-3.326a12.626,12.626,0,0,0-1.5.1l-.5.5v2.325h-3.091V5.782a24.344,24.344,0,0,1,6.882-.966c4.754,0,6.217,2.559,6.217,5.652v9.276l.6.6h1.461V22.77Zm-7.115-4.324v-2.89h-2.36c-1.53,0-2.228.666-2.228,1.761,0,1.4.467,2.029,2.029,2.029A4.648,4.648,0,0,0,141.768,18.446Z" data-name="Path 918" transform="translate(-9.112 1.499)" class="colorb1b8ba svgShape"></path></g><path fill="#addfdf" d="M19.638,24.938c5.081,4.931,7.058,13.224,7.934,16.5a3.59,3.59,0,0,0,6.936-1.86C33.63,36.3,31.2,28.131,33.132,21.323,34.86,14.455,41.055,8.6,43.449,6.2a3.588,3.588,0,1,0-5.074-5.074c-2.394,2.4-8.254,8.587-15.12,10.316h0c-6.81,1.936-14.984-.5-18.255-1.374a3.589,3.589,0,0,0-1.857,6.934c3.271.877,11.566,2.851,16.5,7.933Z" data-name="Path 919" class="colorb1b8ba svgShape"></path></g></svg></g></svg>