<svg xmlns="http://www.w3.org/2000/svg" xmlns:xlink="http://www.w3.org/1999/xlink" xmlns:svgjs="http://svgjs.com/svgjs" version="1.1" width="512" height="512" x="0" y="0" viewBox="0 0 24 24" style="enable-background:new 0 0 512 512" xml:space="preserve" class=""><g><path d="M21 13H3c-.6 0-1-.4-1-1s.4-1 1-1h18c.6 0 1 .4 1 1s-.4 1-1 1z" fill="#004481" data-original="#004481" class=""/><path d="M8 18c-.3 0-.5-.1-.7-.3l-5-5c-.4-.4-.4-1 0-1.4l5-5c.4-.4 1-.4 1.4 0s.4 1 0 1.4L4.4 12l4.3 4.3c.4.4.4 1 0 1.4-.2.2-.4.3-.7.3z" fill="#004481" data-original="#004481" class=""/></g></svg>