<svg viewBox="0 0 200 200" height="200" width="200" xmlns="http://www.w3.org/2000/svg"><path d="M155.76,70.155a47.044,47.044,0,0,0-10.5-1.029,2.356,2.356,0,0,0-.484.586c.221.168.442.479.676.491a28.61,28.61,0,0,1,6.494.633c3.22.912,3.6.5,3.283,1.179-1.519,3.307-5.1,5.312-8.438,6.8a23.613,23.613,0,0,1-6.422,1.644c-.461.066-.67-.042-.527-.574,1.981-7.361,1.86-9.833,1.86-16.51.12.173,1.525,2.523,2.189,3.594.125.2.394.5.562.472,5.668-.712,5.653-1.1,10.369-2.183.843-.2.969-.239.646-1.07a21.052,21.052,0,0,0-3.008-4.336c-1.094-.938-2.506-1.56-3.241-2.84-.9-1.567-2.272-2.978-.861-5.161a4.983,4.983,0,0,0-.048-5.346c-.108-.191.311-4.18.132-5.95a13.615,13.615,0,0,0-1.8-5.836A14.776,14.776,0,0,0,137.742,28a9.191,9.191,0,0,0-5.686.143,4.255,4.255,0,0,1-1.382.024,9.689,9.689,0,0,0-4.2.885c-.424.215-.921-.6-1.279-.927a39.25,39.25,0,0,0-16.044-9.257c-23.537-6.619-42.041,13.27-40.98,38.858.071,1.734.077,1.71,1.757,1.626.437-.024.479-.167.473-.55-.054-3.008-.1-6.022-.1-9.03a5.18,5.18,0,0,1,.3-1.758c.126-.335.927-.508.951.132.072.245.114,6.859.233,9.891.054,1.321.132,1.285,1.489,1.3.58.012.646-.179.61-.7-.618-8.529,1.245-18.132,6.554-25.05,5.663-7.373,13.09-10.728,22.395-9.239C109,25.341,114.1,28.5,118.6,32.733c.394.37.084.478-.144.687a14.969,14.969,0,0,0-4.2,5.974,46.69,46.69,0,0,0-2.542,12.379c-.233,3.265-1,6.386-3.409,8.838,2.153.006,4.3,0,6.45.015,3.238.02,2.3,1.784,2.454,6.942.008.258.036.515.042.778q.036,2.108.066,4.213c4.4-.471,2.3-.022,13.981-2.147,1.045-.188.548.663.515,1.788-.019.5-.192.646-.724.676-1.417.071-2.835.257-4.252.4a3.428,3.428,0,0,0,.251,2.625,7.466,7.466,0,0,0,2.368,3.433c.275.233.461.43.3.837A27.8,27.8,0,0,1,119.5,93.608c-.138.09-.293.155-.437.233-.042.461-.089.921-.125,1.387s.03.64.562.347a24.471,24.471,0,0,0,6.536-5.519,32.167,32.167,0,0,0,6.978-13.4,48.2,48.2,0,0,0,1.2-6.112A44.6,44.6,0,0,0,132.665,52.6c-2.822-9.7-7.935-17.91-16.043-24.081a31.623,31.623,0,0,0-15.883-6.59c-6.417-.7-18.107,4.64-18.328,4.742a14.358,14.358,0,0,1,7.451-5.125c17.459-5.827,40.819,9.177,45.387,36.071a42.875,42.875,0,0,1-2.577,24.4,30.172,30.172,0,0,1-12.534,14.758A1.852,1.852,0,0,0,119,98.757c.119,1.447.048,2.906.059,4.359,1.059-.431,2.135-.825,3.17-1.3.466-.215.675-.1.9.293,1.243,2.141,2.511,4.27,3.761,6.405.281.484.556.951,1.2.46a4.922,4.922,0,0,0-.323-.992c-1.052-1.872-2.117-3.732-3.217-5.58-.305-.514-.156-.675.329-.915,1.943-.968,3.863-1.979,5.776-3,.389-.2.592-.192.873.173,1.131,1.483,2.309,2.924,3.445,4.4.347.449.694.7,1.238.365.448-.443.173-.807-.132-1.172-1.662-2-3.313-4.019-4.987-6.01-.263-.317-.311-.5.006-.819a36.252,36.252,0,0,0,7.917-12.9.678.678,0,0,1,.766-.52,22.687,22.687,0,0,0,13-4.646,10.2,10.2,0,0,0,3.953-4.778,10.3,10.3,0,0,0,.293-1.729A6.763,6.763,0,0,0,155.76,70.155ZM71.3,46.223a1.019,1.019,0,0,1-.532-1.2C70.881,44.5,71.4,44,71.713,44c.615.143.591.717.615,1.22A1,1,0,0,1,71.3,46.223Zm59.177,31.783-.239.09c-.473-.807-.987-1.585-1.406-2.41-.573-1.16-.544-1.178.766-1.315C131.79,74.135,131.564,74.023,130.477,78.006ZM120.4,44.13a21.229,21.229,0,0,0,4.287-2.643c.443-.293.64-.329.933.18a47.928,47.928,0,0,1,6.59,25.97c-.006.251-.03.5-.048.748-.053.012-.113.018-.167.03-.443-.975-.9-1.938-1.334-2.931-.036-.089.126-.352.252-.4.34-.132.616-.221.478-.7-.144-.5-.443-.538-.873-.43a7.079,7.079,0,0,1-3.391.251,10.175,10.175,0,0,1-5.693-4.09c-2.792-3.636-3.48-7.822-3.193-12.259C118.37,45.975,118.638,44.772,120.4,44.13Zm20.2-12.205A12.5,12.5,0,0,1,146.862,42a4.642,4.642,0,0,1-.006.646c-.024.437-.15.861-.67.837-.718-.032-.565-.739-.532-1.459a11.515,11.515,0,0,0-3.492-7.349c-.658-.694-1.46-1.243-2.123-1.925C139.673,32.369,140,31.555,140.6,31.925Zm-2.177-1.465a.78.78,0,0,1,.748.664c-.078.753-.365.891-.861.873a.654.654,0,0,1-.676-.753A.73.73,0,0,1,138.424,30.46Zm-.8,15.375c.993.472,2.069,1,3.151,1.477.3.136,1.6-.684,3.05-1.214A2.85,2.85,0,0,1,147.6,48.31c.838,3.217-2.433,5.765-5.226,5.454-.945-.1-.963-.2-1.25.622a4.864,4.864,0,0,1-.58.55C139.566,51.88,138.586,48.819,137.629,45.835Z" fill="#004481"/><path d="M136.206,103.4c.454-.448.172-.807-.132-1.172-1.666-2-3.31-4.021-4.987-6.01-.263-.311-.311-.491.006-.819a36.042,36.042,0,0,0,7.917-12.9.678.678,0,0,1,.766-.52,22.778,22.778,0,0,0,13-4.646,10.188,10.188,0,0,0,3.953-4.778,9.809,9.809,0,0,0,.293-1.728c14.117,4.892,22.118,11.865,29.792,21.426.268.335.412.645-.252.669a19.778,19.778,0,0,0-5.914,1.507,15.611,15.611,0,0,0-6.327,4.694c-1.93,2.178-3.71,4.5-5.435,6.841a18.081,18.081,0,0,0-1.639,3.242c-.219.479-.418.5-.825.221-3.236-2.191-3.595-2.38-4.784-2.859-.149-.06-.359.03-.538.048.079.524-.167.455.8,1.184,1.4,1.063,2.84,2.076,4.2,3.2.514.425.87.1,1.3.033a1.341,1.341,0,0,0,.365,1.669c2.7,2.8,3.891,5.679,3.085,11.194-.5,3.444-2.134,6.506-3.827,9.514a10.264,10.264,0,0,1-5.352,4.922.77.77,0,0,1-.688-.228c-3.555-5.206-18.674-27.33-22.672-33.194-.425-.622-.9-1.058-1.711-.789C136.457,103.884,136.331,103.642,136.206,103.4Zm19.967,14.926a8.378,8.378,0,0,0,1.823-.036c.445-.079.545-.425.006-.5-.346-.078-.705-.1-1.058-.174a19.77,19.77,0,0,1-3.929-.735c-1.19-.381-3.2-1.483-4.347-2-.485-.251-.664.371-.437.832a14.364,14.364,0,0,0,1.782,1.058A13.808,13.808,0,0,0,156.173,118.329Z" fill="#4cbcc3"/><path d="M64.172,138.086c.664,0,.826.186.825.838-.012,6.506-.039,13.006,0,19.512,0,.712-.215.856-.885.855q-15.589-.013-31.185.012a1.263,1.263,0,0,0-.915.305c-.426.591-.024,1.195.753,1.2,3.367.006,24.3.012,31.4,0,.676,0,.862.191.813.837-.059.784-.027,1.579-.042,2.368A1.293,1.293,0,0,0,66.3,165.4q7.848.1,15.7.167c.67,0,.921.155.9.873-.173,5.086.617,6.285-1.657,6.285-19.452,0-48.038-.013-66.514-.024a5.879,5.879,0,0,1-1.638-.293,1.751,1.751,0,0,1-1.154-1.92c-.012-6.5.021-27.591-.012-31.627-.006-.67.137-.883.855-.879C21.356,138.024,55.621,138.1,64.172,138.086Zm-1.429,7.732c.448.054.651-.95-.425-1.088-10.584,0-21.175.029-31.759.006-1.238,0-2.027,1.091.64,1.106C31.3,145.843,61.989,145.922,62.743,145.818Zm-24.063,9.52v.024H49.36c.544-.155.687-.269.663-.873a.837.837,0,0,0-.938-.681c-1.986.023-16.08.089-21.145.1-.533,0-1.017.12-1.005.742.014.677.677.694,1.352.693Q33.48,155.34,38.68,155.338Zm14.7-4.61a.894.894,0,0,0,.64-.58.632.632,0,0,0-.49-.748c-.407-.117.163-.063-15.147-.053a3.085,3.085,0,0,0-.628.071.653.653,0,0,0,.042,1.292C38.251,150.78,52.771,150.789,53.384,150.728Zm6.763,4.622c.551,0,1.059-.1,1.071-.765s-.55-.742-1.023-.748c-2.577-.028-5.16-.021-7.738-.018-.484,0-.856.2-.807.76a.777.777,0,0,0,.9.783C52.851,155.357,60.047,155.35,60.147,155.35Zm-38,4.186c-.969.036-.5,1.154-.012,1.083.58.1,5.98.138,8.079.167.449.006.784-.209.682-.58-.149-.538-.383-.741-1.017-.712C28.926,159.459,23.646,159.339,22.145,159.536Z" fill="#4cbcc3"/><path d="M195,114.023a37.691,37.691,0,0,1-3.5,15.4,38.713,38.713,0,0,1-4.653,7.959,33.883,33.883,0,0,1-5.154,5.561c-.365.3-.467.538-.168.993a19.61,19.61,0,0,1,2.948,8.234c.382,2.7-.948,12.228-1.351,14.334a.943.943,0,0,1-.395.586c-.1.054-.417-.156-.538-.323-1.28-1.767-7.808-10.847-9.783-13.628-.268-.378-.577-.356-.825-.1a.709.709,0,0,0-.024.676c1.106,1.61,11.536,17.012,13.634,20.11.562.831.539,1.114-.191,1.836-2.15,2.126-9.077,6.22-9.993,6.68-.55.275-.869-.071-1.142-.479-1.2-1.8-11.525-17.231-15.35-23.232a4.025,4.025,0,0,0-3.086-2.2,8.281,8.281,0,0,1-2.488-1.166c-.155-.084-.215-.341-.323-.521a2.165,2.165,0,0,1,.712-.185,22.034,22.034,0,0,1,2.434.383,16.154,16.154,0,0,0,6.727-.066,32.946,32.946,0,0,0,4.138-.969,10.88,10.88,0,0,0,5.735-3.988,31.806,31.806,0,0,1,3.528-4.264,42.233,42.233,0,0,0,7.906-7.176c3.36-4.132,4.8-5.771,7.08-11.822,2.422-6.432,2.688-10.759,2.248-14.334-.725-5.905-.891-6.586-4.162-13.742-.5-1.088-1.2-2.081-1.62-3.2-.185-.491.359-1.065.951-.951.311.06.878.9.95,1.035,2.3,4.188,4.486,8.435,5.293,13.209C194.831,110.435,194.851,112.241,195,114.023Z" fill="#004481"/><path d="M136.588,104.118c.814-.264,1.287.172,1.711.789,4.013,5.851,19.073,28.018,22.672,33.194a.775.775,0,0,0,.688.228,10.2,10.2,0,0,0,5.352-4.922c1.7-3.008,3.324-6.07,3.827-9.514.82-5.616-.425-8.4-3.085-11.194a1.35,1.35,0,0,1-.365-1.669,2.4,2.4,0,0,1,2.311.936,11.842,11.842,0,0,1,2.829,6.871,20.023,20.023,0,0,1-2.1,11.374c-1.258,2.642-2.459,5.309-4.725,7.295a10.054,10.054,0,0,1-4.138,2.386,1.728,1.728,0,0,0-.813.622,7.425,7.425,0,0,1-4.216,2.691,16.994,16.994,0,0,1-4.311.67c-1.229-.01-3.633.658-4.371-1.2a2.745,2.745,0,0,0-.4-.556,7.519,7.519,0,0,0-.407-.813c-3.533-5.313-16.226-24.251-18.98-28.447-1.009-1.537-.925-1.852.209-2.984C128.929,109.22,126.821,110.779,136.588,104.118Z" fill="#004481"/><path d="M137.6,139.868a4.888,4.888,0,0,0,.736.832,14.294,14.294,0,0,0,8.341,3.073,1.007,1.007,0,0,1,1.083.855,2.9,2.9,0,0,0,1,1.471,1.411,1.411,0,0,1,.7,1.687c-.344,1.471.515,2.612,1.358,3.725a1.466,1.466,0,0,1,.293.921c-.52,5.091,4.808,4.229,5.734,5.783,1.669,2.8,3.293,5.619,4.934,8.431.191.329.185.443-.234.443-13.843-.01-12.986.052-13.275-.168-2.415-1.836-3.806-3.083-4.79-3.713a1.772,1.772,0,0,0,.084.508,8.32,8.32,0,0,0,3.02,3.337c-.925.054.93.012-14.292.042-.514,0-.741-.06-.61-.652,1.357-6.156,4.2-20.738,5.723-26.6A.489.489,0,0,0,137.6,139.868Z" fill="#004481"/><path d="M124.772,118.275c2.117.018,3.449.592,3.445,3.492q-.03,19.331.006,38.666a3.59,3.59,0,0,1-1.765,3.469,2.032,2.032,0,0,1-.944.227c-17.444,0-55.38-.037-56.9-.018-1.848.023-2.941-1.088-2.96-3.122-.034-3.677.033-29.827.054-39.222a6.352,6.352,0,0,1,.071-1.495,2.515,2.515,0,0,1,2.452-1.949C69.261,118.266,124.7,118.274,124.772,118.275Zm-57.245,6.781c-.533,0-.688.12-.676.664.042,1.914.017,3.827.024,5.741.033,10.016.1,20.038.137,30.055a1.371,1.371,0,0,0,.634,1c1.13.6,2.541.294,5.442.293q26,0,51.983.006a1.469,1.469,0,0,0,1.567-1.076c.406-1.23.257,1.689.287-35.76,0-.664-.174-.817-.819-.813C116.376,125.218,77.322,125.065,67.527,125.056Zm58.6-1.453c.143,0,1.064-.17.7-2.541-.179-1.189-.717-1.238-1.919-1.346-.287.03-37.853-.042-56.355-.054A1.368,1.368,0,0,0,67.006,121c-.095.682-.036,2.691.473,2.691C77.28,123.678,116.376,123.6,126.13,123.6Z" fill="#004481"/><path d="M137.4,139.856c-.6-.944-5.608-8.731-7.5-11.672-.772-1.2-.392-1.407-.969-9.52-.089-1.25-.562-1.609-1.794-1.639-2.481-.06-4.957-.157-7.439-.215-.52-.012-.665-.215-.664-.736q.018-6.484.024-12.976c1.059-.431,2.135-.826,3.17-1.3.466-.215.674-.1.9.293,1.243,2.145,2.515,4.268,3.761,6.405.282.484.556.945,1.2.46.155.2.3.4.457.6a3.69,3.69,0,0,1-.275.323c-1.151,1.115-1.215,1.448-.209,2.984,2.747,4.2,15.445,23.129,18.98,28.447a7.009,7.009,0,0,1,.407.813A17.215,17.215,0,0,1,138,139.952,2.137,2.137,0,0,0,137.4,139.856Z" fill="#4cbcc3"/><path d="M7.626,130.181a2.735,2.735,0,0,1-2.6-2.541c-.04-.784-.018-1.579-.018-2.363,0-44.3-.063-42.1.161-42.923A2.944,2.944,0,0,1,8.3,80.183c.583-.015,36.71-.092,37.129.042.3.095.31,1.2.03,1.3-.315.115,2.18.057-37.195.047a1.943,1.943,0,0,0-1.89,1.651c-.192,2.452,1.053,2.081,1.6,2.081,38.565.018,37.816-.046,37.847.143a4.521,4.521,0,0,1-.006,1.2c-.016.136,1.245.139-38.726.1-.646,0-.775.167-.772.783.069,12.385.009,24.775.006,37.159,0,.808-.1,1.621-.095,2.428a1.835,1.835,0,0,0,1.883,1.83c11.685-.036,48.055-.006,54.555-.006.652,0,1.027-.407,1.034-1.184.081-8.172-.091-8.626.108-8.952.12-.2,1.023-.323,1.136.03a.918.918,0,0,1,.06.49c0,2.871.025,5.741.012,8.606a2.326,2.326,0,0,1-2.32,2.3C53.641,130.244,9.151,130.253,7.626,130.181Z" fill="#004481"/><path d="M15.4,136.579c-.963,0-3.313.264-3.313-.6a21.932,21.932,0,0,1-.024-2.876c.065-.472.419-1.6,3-1.59,14.071.03,46.422-.012,48.521,0,1.587.009,1.2.163,1.393,4.449.02.424-.1.614-.556.58C64.173,136.518,33.112,136.566,15.4,136.579Zm2.942-1.949c.6-.042.54-.443.52-.64a.518.518,0,0,0-.514-.5c-.2.048-.481.1-.52.52C17.8,134.355,17.917,134.558,18.342,134.63Zm-1.979-.574a.541.541,0,0,0-1.065-.1c0,.509.281.531.437.544C15.926,134.521,16.231,134.546,16.363,134.056Zm5.28-.06c-.207-.775-1.029-.63-1.023.084a.557.557,0,0,0,.473.454C21.362,134.534,21.607,134.457,21.643,134Z" fill="#4cbcc3"/><path d="M126.823,73.264a3.437,3.437,0,0,0,.251,2.626,7.545,7.545,0,0,0,2.368,3.432c.276.233.456.431.3.837-2.114,5.468-5.3,10.148-10.249,13.437-.137.091-.293.155-.437.233-.038-15.524.007-14.749-.167-16.881a.973.973,0,0,1,.6-1.094c1.478-.65,2.936-1.351,4.449-1.914A23.077,23.077,0,0,1,126.823,73.264Z" fill="#4cbcc3"/><path d="M12.488,98.781c0-1.34.484-1.833,1.794-1.836,2.864-.007,5.734,0,8.6,0,1.291,0,1.794.5,1.794,1.764v14.848c0,1.238-.515,1.758-1.723,1.758H14.21c-1.208,0-1.722-.52-1.722-1.758Zm11.2.017c.006-.592-.144-.861-.8-.855q-4.3.042-8.6,0c-.586,0-.8.18-.8.784q.013,7.39,0,14.776c0,.634.222.825.837.819q4.262-.038,8.528,0c.616.006.844-.185.837-.819C23.667,111.526,23.669,100.762,23.688,98.8Z" fill="#004481"/><path d="M31.958,99.905a.634.634,0,0,1-.759-.574.564.564,0,0,1,.592-.515c4.413.056,8.826-.056,13.239-.065.377,0,.849-.012.849.544,0,.6-.287.653-.753.652C42.883,99.941,34.1,99.911,31.958,99.905Z" fill="#004481"/><path d="M28.191,109.664c-.425-.03-.589-.954.012-1.088.409-.092,9.418-.065,9.58-.024a.575.575,0,0,1-.018,1.124C37.665,109.681,28.316,109.729,28.191,109.664Z" fill="#004481"/><path d="M161.261,145.872a5.588,5.588,0,0,1-.472.6,7.422,7.422,0,0,1-5.25,1.98c-3.607.119-3.57.045-5.149-.8-.149-.079-.206-.491-.167-.729.084-.527.49-.228.7-.15a11.427,11.427,0,0,0,6.512.239,22.241,22.241,0,0,0,2.96-1.112,7.617,7.617,0,0,1,.748-.2A1.807,1.807,0,0,0,161.261,145.872Z" fill="#004481"/><path d="M155.5,153.1c-.756-.21-1.566-.433-2.369-.68-.449-.137-.994-.353-.742-.939.078-.179.742-.252,1.077-.155a8.138,8.138,0,0,0,3.851.424c1.166-.232,2.277-.74,3.42-1.082a6.421,6.421,0,0,1,1.154-.131,6.615,6.615,0,0,1-.634.932,6.34,6.34,0,0,1-3.223,1.424A4.459,4.459,0,0,1,155.5,153.1Z" fill="#004481"/><path d="M40.234,109.586c-.412,0-.807-.095-.8-.6s.407-.59.813-.592c1.717-.006,3.433,0,5.149-.042.55-.012.472.311.472.646s.06.659-.484.634C44.528,109.588,41.089,109.6,40.234,109.586Z" fill="#004481"/><path d="M28.149,99.845c-.221-.014-.526.1-.574-.5.06-.443.161-.485.5-.5a4.973,4.973,0,0,1,1.394.03c.46.024.532.937-.03.969C29.243,99.85,28.388,99.86,28.149,99.845Z" fill="#004481"/><path d="M117.207,67.568c-.31,0-64.469-.032-69.677-.08-.682-.012-.831.2-.825.837.023,1.507-.024,45.537.071,47.971.042,1.046.407,1.3,1.477,1.3,6.142.018,67.735.048,68.022.03a.855.855,0,0,0,.915-.957C117.2,116.052,117.313,69.069,117.207,67.568Zm-30.563,7.9c2.338-.036,4.677-.024,7.015-.018.418,0,.849.132.777.6-.03.209-.5.478-.783.49-.985.046-5.5.017-6.949.024-.46.006-.879-.113-.849-.6C85.867,75.782,86.363,75.477,86.644,75.471Zm-7.726.09c1.615-.054,3.361.065,4.976.077,1.255.269.645.921-.216.9-.759-.018-4.706-.059-4.891-.083C78.314,76.392,77.824,75.68,78.918,75.561Zm-4.413-.1c.515-.012,1.914.084,2.278,0,.658.012.557,1.118.114,1.082a21.54,21.54,0,0,1-2.488-.006C73.955,76.529,73.728,75.483,74.505,75.465ZM52.72,75.459c1.406-.054,2.9-.018,4.222-.018a.565.565,0,1,1,.018,1.118c-.711-.036-3.54.054-4.216-.03A.538.538,0,1,1,52.72,75.459Zm4.168,4.581c-.5.023-3.061.012-3.917-.048-.621.071-.681-.975-.083-1,1.369-.06,2.822-.048,4.15-.012C57.714,79.143,57.426,80.057,56.888,80.04ZM52.057,94.29c-.066-.527.442-.592.855-.6.583-.013,4.755-.007,4.855-.006.413.006.814.107.826.592s-.377.616-.8.616c-1.644,0-3.288.024-4.927-.036C52.577,94.846,52.087,94.517,52.057,94.29Zm1.273,2.84q2.109-.072,4.216-.012a.47.47,0,0,1,.006.939c-.706.06-1.423.024-2.141.024v-.018c-.693,0-1.387.042-2.069-.018C52.834,98.093,52.685,97.154,53.33,97.13Zm4.946,9.43c-.562,0-3.875.078-4.677-.012-.819.1-.657-.909-.011-.891,1.471-.059,2.948-.077,4.419-.047C58.784,105.669,58.706,106.56,58.276,106.56Zm1.961-30.539c-.03-.61.73-.568,1.16-.58,1.92-.012,8.731-.03,10.375,0,.491.009.73.144.862.419,0,.376-.138.753-.431.7-2.463.057-8.8.008-10.662-.018C61.051,76.535,60.273,76.667,60.237,76.021ZM60.8,97.662a.6.6,0,0,1,.347-.466,14.669,14.669,0,0,1,2.775.042c.107.024.412.161.418.436.006.239-.173.526-.43.509a23.92,23.92,0,0,1-2.769-.054A.562.562,0,0,1,60.8,97.662ZM82.787,94.87c-2.964.074,5.179.071-10.949.071v-.017q-5.023,0-10.04,0c-.724.2-1.764-1.178.478-1.16,4.324.036,8.568-.123,12.755-.065,5.785.079,7.2,0,7.727.113C83.421,93.955,83.343,94.846,82.787,94.87Zm8.545,2.23c.455,0,1.113-.149,1.131.532.024.754-.664.6-1.136.6-2.372,0-25.424.009-25.576-.041-.389-.132-.479-1.041.006-1.059C66.5,97.1,60.685,97.1,91.332,97.1Zm-18.166,9.46c-1.759,0-9.479-.006-11.548-.041-.567-.078-.819-.83.006-.826,3.84.02,7.727.078,11.566.03.466-.006.968-.072.962.395C74.152,106.632,73.5,106.554,73.166,106.56Zm14.005-.006c-1.866-.006-9.222.012-11.045.006-.371,0-.832.078-.814-.52.018-.532.389-.628.85-.628q5.524.018,11.038.006c.485,0,.73.162.73.64C87.93,106.6,87.535,106.554,87.171,106.554Zm13.359-.035c-.1.057.565.029-10.531.029a3.128,3.128,0,0,1-.425-.018c-.837-.137-.43-1.119-.2-1.118,1.477.008,8.952.018,10.626.018C101.229,105.412,100.751,106.387,100.53,106.519ZM106.54,80c-.2.089-45.083.065-45.645-.006-.221-.03-.3-.156-.377-.479a.516.516,0,0,1,.407-.484c.257-.09,45.525-.036,45.644-.006C107.514,79.268,107.03,80.057,106.54,80Z" fill="#4cbcc3"/><path d="M123.5,51.222c.427-1.458,1.466-4.544,1.531-4.6.2-.167.929.06.885.275-.369,1.814-1.439,5.507-1.686,7.582-.151,1.268,1.76,1.723,1.758,1.8-.039,1.581-1.989,1.031-2.643.018C122.464,55.4,123.171,52.341,123.5,51.222Z" fill="#004481"/><path d="M124.7,59.851c-.179-.1-.367-.976.293-.9a11.081,11.081,0,0,0,1.669.27c1.208-.048,2.092-2.184,2.17-2.267.238-.252.5-.608.79-.646.491-.063.668.371.688.814.062,1.447-.885,2.381-1.98,3.169C127.377,60.98,125.342,60.219,124.7,59.851Z" fill="#004481"/><path d="M123.038,44.076a.775.775,0,0,1,.735.6c.145.437-.2.742-.615.772a4.053,4.053,0,0,0-2.745,1.734c-.353.455-.718-.185-.676-.425A3.561,3.561,0,0,1,123.038,44.076Z" fill="#004481"/><path d="M123.05,50.218c.014,2.052-2.339,1.853-2.356.09-.01-1.035.43-1.726,1.106-1.735S123.044,49.321,123.05,50.218Z" fill="#004481"/><path d="M98.819,143.534a13.984,13.984,0,1,1-13.939-14.3A14.136,14.136,0,0,1,98.819,143.534Zm-1-.6a13.02,13.02,0,0,0-3-7.9c-.293-.366-.45-.4-.79-.036q-8.524,9.2-17.006,18.442c-.264.286-.319.438.036.7C85.646,160.622,97.913,154.553,97.815,142.93Zm-25.953,1.2a13.088,13.088,0,0,0,3.755,8.719c.313.333.5.443.867.024,2.389-2.7,4.812-5.373,7.194-8.079a1.369,1.369,0,0,0,.329-1q-1.2-6.211-2.422-12.42c-.106-.544-.269-.658-.837-.466C75.472,132.693,71.8,137.812,71.862,144.132Zm13.024-.921c.168-.03.2-.03.21-.042,2.714-3.1,5.437-6.206,8.132-9.334a.5.5,0,0,0-.078-.485A12.7,12.7,0,0,0,82.7,130.426a.55.55,0,0,0-.3.449C83.269,134.965,84.049,139.079,84.886,143.211Z" fill="#004481"/><path d="M120.042,133.889c.431.022.874.083.849.639-.023.5-.454.556-.855.556s-16.213.034-16.624-.029c-.454-.07-.453-1.024,0-1.131C103.85,133.821,119.922,133.882,120.042,133.889Z" fill="#004481"/><path d="M108.082,151.529a.577.577,0,0,1-.024-1.088c.411-.163,13.742-.1,13.88-.006a.584.584,0,0,1,.024,1.076C121.717,151.555,108.232,151.583,108.082,151.529Z" fill="#004481"/><path d="M111.682,137.692c.449,0,.925.042.909.64-.014.55-.478.591-.891.592q-3.928,0-7.863,0c-.419,0-.877-.054-.874-.61,0-.6.485-.622.933-.622Z" fill="#004481"/><path d="M103.6,151.469c-.616-.047-.789-.8-.239-.986.568-.036,2-.114,2.9-.072.545.126.532,1.01.293,1.064A14.369,14.369,0,0,1,103.6,151.469Z" fill="#004481"/><path d="M114.753,60.626c-2.147-.018-47.173.015-65.854,0a1.982,1.982,0,0,0-2.123,1.937c-.065,1.047-.053,2.1-.029,3.152a.631.631,0,0,0,.43.436c3.062,0,49.738-.075,70.022-.081C117.222,62.019,117.614,60.644,114.753,60.626ZM50.49,63.894a.556.556,0,1,1,.556-.556A.556.556,0,0,1,50.49,63.894Zm2.745.125a.556.556,0,1,1,.556-.556A.556.556,0,0,1,53.235,64.019Zm2.314,0a.556.556,0,1,1,.556-.556A.556.556,0,0,1,55.549,64.019Z" fill="#4cbcc3"/><path d="M69.781 121.684 A0.891 0.891 0 1 0 71.563 121.684 A0.891 0.891 0 1 0 69.781 121.684 Z" fill="#004481"/><path d="M73.130 121.678 A0.891 0.891 0 1 0 74.912 121.678 A0.891 0.891 0 1 0 73.130 121.678 Z" fill="#004481"/><path d="M76.449 121.684 A0.891 0.891 0 1 0 78.231 121.684 A0.891 0.891 0 1 0 76.449 121.684 Z" fill="#004481"/><path d="M9.115 83.490 A0.891 0.891 0 1 0 10.897 83.490 A0.891 0.891 0 1 0 9.115 83.490 Z" fill="#004481"/><path d="M12.500 83.490 A0.891 0.891 0 1 0 14.282 83.490 A0.891 0.891 0 1 0 12.500 83.490 Z" fill="#004481"/><path d="M15.884 83.490 A0.891 0.891 0 1 0 17.666 83.490 A0.891 0.891 0 1 0 15.884 83.490 Z" fill="#004481"/></svg>