<svg viewBox="0 0 400 400" xmlns="http://www.w3.org/2000/svg"><g transform="matrix(4,0,0,4,0,0)"><path d="M10.000 50.156 A40.000 40.000 0 1 0 90.000 50.156 A40.000 40.000 0 1 0 10.000 50.156 Z" fill="#d9edff"></path><path d="M74.137,21.207H66.561V13.632a3.787,3.787,0,0,0-3.787-3.788h-6.06a3.788,3.788,0,0,0-3.788,3.788v7.575H45.351A3.788,3.788,0,0,0,41.563,25v6.06a3.787,3.787,0,0,0,3.788,3.787h7.575v7.576a3.787,3.787,0,0,0,3.788,3.787h6.06a3.786,3.786,0,0,0,3.787-3.787V34.842h7.576a3.786,3.786,0,0,0,3.787-3.787V25A3.787,3.787,0,0,0,74.137,21.207Z" fill="#4cbcc3"></path><path d="M74.137,21.207H66.561V13.632a3.787,3.787,0,0,0-3.787-3.788h-6.06a3.788,3.788,0,0,0-3.788,3.788v7.575H45.351A3.788,3.788,0,0,0,41.563,25v6.06a3.787,3.787,0,0,0,3.788,3.787h7.575v7.576a3.787,3.787,0,0,0,3.788,3.787h6.06a3.786,3.786,0,0,0,3.787-3.787V34.842h7.576a3.786,3.786,0,0,0,3.787-3.787V25A3.787,3.787,0,0,0,74.137,21.207Z" fill="none" stroke="#004481" stroke-linecap="round" stroke-linejoin="round"></path><path d="M39.658 84.143 A11.025 1.654 0 1 0 61.708 84.143 A11.025 1.654 0 1 0 39.658 84.143 Z" fill="#4cbcc3"></path><path d="M38.415,66.157a101.733,101.733,0,0,0,11.8,3.046A23.221,23.221,0,0,0,63.59,67.928c4.158-1.695,9.917-4.2,16-7.346a2.537,2.537,0,0,0,1.383-2.712,2.443,2.443,0,0,0-3.063-1.859L63.122,62.37a4.479,4.479,0,0,1-1.767.364h-3.34c3.138,0,5.129-.966,5.84-2.835a1.7,1.7,0,0,0-1.6-2.278H54.519c-1.073,0-4.611-5.112-9.662-5.112H38.415Z" fill="#ffffff"></path><path d="M33.3,67.847h4.133a.979.979,0,0,0,.98-.979V51.784a.98.98,0,0,0-.98-.98H33.3Z" fill="#ffffff"></path><path d="M33.3,67.847h4.133a.979.979,0,0,0,.98-.979V51.784a.98.98,0,0,0-.98-.98H33.3Z" fill="none" stroke="#004481" stroke-linecap="round" stroke-linejoin="round"></path><path d="M23.077 49.100 L33.302 49.100 L33.302 69.552 L23.077 69.552 Z" fill="#4cbcc3"></path><path d="M23.077 49.100 L33.302 49.100 L33.302 69.552 L23.077 69.552 Z" fill="none" stroke="#004481" stroke-linecap="round" stroke-linejoin="round"></path><path d="M38.415,66.157a101.733,101.733,0,0,0,11.8,3.046A23.221,23.221,0,0,0,63.59,67.928c4.158-1.695,9.917-4.2,16-7.346a2.537,2.537,0,0,0,1.383-2.712,2.443,2.443,0,0,0-3.063-1.859L63.122,62.37a4.479,4.479,0,0,1-1.767.364h-3.34c3.138,0,5.129-.966,5.84-2.835a1.7,1.7,0,0,0-1.6-2.278H54.519c-1.073,0-4.611-5.112-9.662-5.112H38.415Z" fill="none" stroke="#004481" stroke-linecap="round" stroke-linejoin="round"></path><path d="M58.015 62.734L50.229 62.734" fill="none" stroke="#004481" stroke-linecap="round" stroke-linejoin="round"></path></g></svg>