<svg xmlns="http://www.w3.org/2000/svg" version="1.1" xmlns:xlink="http://www.w3.org/1999/xlink" width="512" height="512" x="0" y="0" viewBox="0 0 16 16" style="enable-background:new 0 0 512 512" xml:space="preserve" class=""><g><path d="M12.5 13V4h.25c.28 0 .5-.22.5-.5s-.22-.5-.5-.5H9.86l-.39-1.16A.486.486 0 0 0 9 1.5H7c-.22 0-.41.14-.47.34L6.14 3H3.25c-.28 0-.5.22-.5.5s.22.5.5.5h.25v9c0 .83.67 1.5 1.5 1.5h6c.83 0 1.5-.67 1.5-1.5zM7.36 2.5h1.28l.17.5H7.19zM11.5 13c0 .28-.22.5-.5.5H5c-.28 0-.5-.22-.5-.5V4h7z" fill="#004481" opacity="1" data-original="#000000" class=""></path><path d="M6 5.5c-.28 0-.5.22-.5.5v5.5c0 .28.22.5.5.5s.5-.22.5-.5V6c0-.28-.22-.5-.5-.5zM8 5c-.28 0-.5.22-.5.5V12c0 .28.22.5.5.5s.5-.22.5-.5V5.5c0-.28-.22-.5-.5-.5zM9.5 11.5c0 .28.22.5.5.5s.5-.22.5-.5V6c0-.28-.22-.5-.5-.5s-.5.22-.5.5z" fill="#004481" opacity="1" data-original="#000000" class=""></path></g></svg>