<svg viewBox="0 0 100 100" height="100" width="100" xmlns="http://www.w3.org/2000/svg"><path d="M10.000 50.000 A40.000 40.000 0 1 0 90.000 50.000 A40.000 40.000 0 1 0 10.000 50.000 Z" fill="#d9edff"/><path d="M50.437,46.269,18.35,36.06V32.948a15.646,15.646,0,0,1,5.341-11.772h0a15.645,15.645,0,0,1,14.434-3.314l29.022,7.952Z" fill="#ffffff"/><path d="M50.437,46.269,18.35,36.06V32.948a15.646,15.646,0,0,1,5.341-11.772h0a15.645,15.645,0,0,1,14.434-3.314l29.022,7.952Z" fill="none" stroke="#004481" stroke-linecap="round" stroke-linejoin="round"/><path d="M50.437,68.882V46.269L72.314,36.06V57.538a2.916,2.916,0,0,1-1.683,2.643l-16.91,7.891A8.754,8.754,0,0,1,50.437,68.882Z" fill="#ffffff"/><path d="M50.437,68.882V46.269L72.314,36.06V57.538a2.916,2.916,0,0,1-1.683,2.643l-16.91,7.891A8.754,8.754,0,0,1,50.437,68.882Z" fill="none" stroke="#004481" stroke-linecap="round" stroke-linejoin="round"/><path d="M50.437,68.882a8.748,8.748,0,0,1-3.407-.516L20.27,58.635a2.916,2.916,0,0,1-1.92-2.741V36.06L50.437,46.269Z" fill="#ffffff"/><path d="M50.437,68.882a8.748,8.748,0,0,1-3.407-.516L20.27,58.635a2.916,2.916,0,0,1-1.92-2.741V36.06L50.437,46.269Z" fill="none" stroke="#004481" stroke-linecap="round" stroke-linejoin="round"/><path d="M40.227,65.23V43.352c0-11.564,3.723-20.542,13.345-21.258" fill="none" stroke="#004481" stroke-linecap="round" stroke-linejoin="round"/><path d="M27.1,60.854V38.977c0-15.066,5.221-20.428,14.878-20.059" fill="none" stroke="#004481" stroke-linecap="round" stroke-linejoin="round"/><path d="M50.437 50.645L72.314 40.435 72.314 36.06 50.437 46.269 50.437 50.645z" fill="#4cbcc3" stroke="#004481" stroke-linecap="round" stroke-linejoin="round"/><path d="M18.35,36.06,50.437,46.269v4.376L36.681,46.268a.637.637,0,0,0-.829.607v1.031a1.975,1.975,0,0,1-2.6,1.873,2.6,2.6,0,0,1-1.777-2.466v-1.77a1.273,1.273,0,0,0-.887-1.213L18.35,40.435Z" fill="#4cbcc3" stroke="#004481" stroke-linecap="round" stroke-linejoin="round"/><path d="M72.314,36.06s0-13.127-10.209-10.21c-11.565,3.3-11.668,20.419-11.668,20.419Z" fill="#ffffff"/><path d="M72.314,36.06s0-13.127-10.209-10.21c-11.565,3.3-11.668,20.419-11.668,20.419Z" fill="none" stroke="#004481" stroke-linecap="round" stroke-linejoin="round"/><path d="M51.146 68.137 A17.600 17.600 0 1 0 86.346 68.137 A17.600 17.600 0 1 0 51.146 68.137 Z" fill="#4cbcc3"/><path d="M51.146 68.137 A17.600 17.600 0 1 0 86.346 68.137 A17.600 17.600 0 1 0 51.146 68.137 Z" fill="none" stroke="#004481" stroke-linecap="round" stroke-linejoin="round"/><path d="M65.2,77.309a2.547,2.547,0,0,1-1.807-.748l-5.108-5.109A2.554,2.554,0,1,1,61.9,67.84l3.3,3.3,10.4-10.4a2.554,2.554,0,1,1,3.611,3.612L67,76.561A2.542,2.542,0,0,1,65.2,77.309Z" fill="#ffffff" stroke="#004481" stroke-linejoin="round"/></svg>