<svg viewBox="0 0 100 100" height="100" width="100" xmlns="http://www.w3.org/2000/svg"><path d="M10.000 50.000 A40.000 40.000 0 1 0 90.000 50.000 A40.000 40.000 0 1 0 10.000 50.000 Z" fill="#d9edff"/><path d="M38.713 80.531 A12.53 1.79 0 1 0 63.773 80.531 A12.53 1.79 0 1 0 38.713 80.531 Z" fill="#4cbcc3" transform="translate(-1.692 1.102) rotate(-1.212)"/><path d="M49.968,78.429a2.4,2.4,0,0,0,2.46-.052c5.2-3.233,25.286-16.839,24.926-33.863l-.339-16.031a2.408,2.408,0,0,0-1.638-2.223c-9.6-3.23-17.9-5.933-24.792-11.529a1.135,1.135,0,0,0-1.468.032C42.464,20.645,34.286,23.7,24.836,27.33a2.4,2.4,0,0,0-1.542,2.29l.339,16.031C23.993,62.675,44.638,75.419,49.968,78.429Z" fill="#ffffff"/><path d="M50.1,70.894a1.837,1.837,0,0,0,1.881-.04c3.974-2.471,19.332-12.874,19.056-25.89l-.259-12.257a1.839,1.839,0,0,0-1.252-1.7c-7.259-2.443-13.547-4.492-18.786-8.679a1.135,1.135,0,0,0-1.455.032c-5.056,4.4-11.253,6.717-18.4,9.465A1.841,1.841,0,0,0,29.7,33.577l.26,12.256C30.239,58.849,46.023,68.593,50.1,70.894Z" fill="#4cbcc3"/><path d="M49.968,78.429a2.4,2.4,0,0,0,2.46-.052c5.2-3.233,25.286-16.839,24.926-33.863l-.339-16.031a2.408,2.408,0,0,0-1.638-2.223c-9.6-3.23-17.9-5.933-24.792-11.529a1.135,1.135,0,0,0-1.468.032C42.464,20.645,34.286,23.7,24.836,27.33a2.4,2.4,0,0,0-1.542,2.29l.339,16.031C23.993,62.675,44.638,75.419,49.968,78.429Z" fill="none" stroke="#004481" stroke-linecap="round" stroke-linejoin="round"/><path d="M50.1,70.894a1.837,1.837,0,0,0,1.881-.04c3.974-2.471,19.332-12.874,19.056-25.89l-.259-12.257a1.839,1.839,0,0,0-1.252-1.7c-7.259-2.443-13.547-4.492-18.786-8.679a1.135,1.135,0,0,0-1.455.032c-5.056,4.4-11.253,6.717-18.4,9.465A1.841,1.841,0,0,0,29.7,33.577l.26,12.256C30.239,58.849,46.023,68.593,50.1,70.894Z" fill="none" stroke="#004481" stroke-linecap="round" stroke-linejoin="round"/><path d="M47.408,55.28a2.853,2.853,0,0,1-2.04-.8l-5.84-5.6a2.86,2.86,0,1,1,3.958-4.129l3.776,3.619,11.4-11.89a2.86,2.86,0,0,1,4.129,3.959L49.412,54.4A2.852,2.852,0,0,1,47.408,55.28Z" fill="#ffffff" stroke="#004481" stroke-linecap="round" stroke-linejoin="round"/><path d="M54.954 63.904 A15.859 15.859 0 1 0 86.672 63.904 A15.859 15.859 0 1 0 54.954 63.904 Z" fill="#ffffff" stroke="#004481" stroke-linecap="round" stroke-linejoin="round"/><path d="M65.7,63.645a5.1,5.1,0,0,0,10.2-.216l-.054-2.551a5.1,5.1,0,1,0-10.2.216Z" fill="#ffffff" stroke="#004481" stroke-linecap="round" stroke-linejoin="round"/><path d="M81.662,75.472a15.859,15.859,0,0,1-21.194.453,11.48,11.48,0,0,1,21.181-.466" fill="#4cbcc3" stroke="#004481" stroke-linecap="round" stroke-linejoin="round"/><path d="M65.678,60.435a5.1,5.1,0,0,1,9.25-2.378A9.3,9.3,0,0,1,65.678,60.435Z" fill="#4cbcc3" stroke="#004481" stroke-linecap="round" stroke-linejoin="round"/></svg>