<svg id="SvgjsSvg1011" width="288" height="288" xmlns="http://www.w3.org/2000/svg" version="1.1" xmlns:xlink="http://www.w3.org/1999/xlink" xmlns:svgjs="http://svgjs.com/svgjs"><defs id="SvgjsDefs1012"></defs><g id="SvgjsG1013"><svg xmlns="http://www.w3.org/2000/svg" enable-background="new 0 0 87.3 22.4" viewBox="0 0 87.3 22.4" width="288" height="288"><path fill="#addfdf" fill-rule="evenodd" d="M84.8 5.5c-.7 0-1.3-.6-1.3-1.3s.6-1.3 1.3-1.3 1.3.6 1.3 1.3S85.5 5.5 84.8 5.5L84.8 5.5zM84.8 2.7c-.8 0-1.5.7-1.5 1.5 0 .8.7 1.5 1.5 1.5.8 0 1.5-.7 1.5-1.5C86.3 3.4 85.6 2.7 84.8 2.7L84.8 2.7zM84.4 4.1V3.4h.2c.2 0 .5 0 .5.3 0 .2-.2.3-.5.3L84.4 4.1 84.4 4.1zM84.9 4.2L84.9 4.2c.2 0 .4-.2.4-.4 0-.3-.2-.5-.5-.5h-.5v1.8h.2V4.3h.1c.2 0 .3.1.4.2l.3.6h.2l-.3-.7C85.1 4.3 85 4.2 84.9 4.2L84.9 4.2zM11.2 1.5c-5.5 0-9.9 4.4-9.9 9.9 0 2.3.8 4.4 2 6l8.3-10.9h-.9H9.8C8.8 6.6 8 6.7 7.3 6.8 6.9 6.9 6.6 7 6.3 7.2 6 7.4 5.6 7.9 5.3 8.4c0 .1-.1.1-.1.3L4.7 8.6l.8-3.1h10.3l-8.2 11c.5 0 .7-.1 1.2-.1.3 0 .8 0 1.5.1l1.5.1c.5 0 1 0 1.3 0 .8 0 1.2-.1 1.7-.2.4-.1.7-.3 1.1-.5.6-.4 1.1-1 1.5-1.7 0-.1.1-.2.1-.3l.4.1c-.1.5-.2.7-.4 1.2-.4 1-.9 1.6-1.6 2.2-.7.5-1.5.8-2.4.8l-.1 0c-.7 0-1.2-.1-2.8-.3-1.7-.3-2.5-.3-3.3-.3-.6 0-1.1 0-1.6.1-.7.1-1 .2-1.6.5 1.8 2 4.4 3.2 7.3 3.2 5.5 0 9.9-4.4 9.9-9.9C21.1 5.9 16.7 1.5 11.2 1.5M45.3 7.1c.1.1.1.2.1.3.1.2.1.5.1 1V12c0 .8 0 1.2-.1 1.6 0 .2-.1.5-.2.7-.2.4-.7.7-1.2.8-.2.1-.4.1-.7.1-.8 0-1.5-.3-1.8-.8-.3-.4-.3-.7-.3-1.7l0-.8V9c0-.5 0-.8 0-1.1 0-.2 0-.3.1-.4.1-.2.2-.5.4-.7 0 0 0 0 .1-.1h-3.1C38.8 6.9 38.9 7 39 7.1c.1.1.1.2.1.3 0 .1.1.3.1.4 0 .1 0 .3 0 .6v3.2c0 1 0 1.2 0 1.6.1.7.3 1.2.7 1.7.7.9 1.9 1.4 3.3 1.4.7 0 1.4-.1 1.9-.3.5-.2 1-.5 1.4-.9.4-.5.7-1.1.8-1.8 0-.4.1-.9.1-1.7V9l0-.5V8.4c0-.4 0-.6.1-.8 0-.1.1-.3.2-.4.1-.2.2-.2.4-.4h-3C45.1 6.9 45.2 7 45.3 7.1L45.3 7.1zM53.7 10.9c-.3.2-.7.3-1.2.4-.2 0-.4 0-.5 0 0 0-.1 0-.2 0V7.8c.1 0 .2 0 .2 0 .5 0 .9.1 1.3.2.2.1.5.2.6.3.3.3.5.7.5 1.1 0 .4-.1.8-.4 1C54.1 10.7 53.9 10.8 53.7 10.9L53.7 10.9zM57.3 15.4c-.3-.3-.6-.6-1.1-1.1-.3-.3-.5-.6-.7-.8l-1.5-1.7c.2-.1.3-.1.4-.1.5-.2.8-.4 1.2-.7.4-.3.6-.6.7-1.1.1-.2.1-.5.1-.7 0-.6-.2-1.1-.6-1.5-.4-.4-.9-.7-1.5-.8-.4-.1-.9-.1-1.6-.2-.3 0-.6 0-.9 0h-2.4c.2.2.2.2.3.4.1.1.1.2.2.3C50 7.7 50 8 50 8.4v6.1c0 .4 0 .7-.1.9 0 .1-.1.2-.2.3-.1.1-.1.2-.3.3h3c-.1-.1-.2-.2-.3-.3-.1-.1-.1-.2-.2-.3-.1-.2-.1-.4-.1-.9 0-.1 0-.3 0-.5v-2.1l1.7 2.1c.1.1.2.2.4.5.2.2.4.4.5.5.3.3.7.6 1 .8.3.1.5.2.9.2.2 0 .3 0 .5 0h1.2c-.2-.1-.2-.2-.3-.3C57.6 15.7 57.5 15.6 57.3 15.4L57.3 15.4zM81.4 8.5c0-.4 0-.7.1-1 0-.1.1-.2.1-.3.1-.2.2-.2.4-.4H79c.2.1.2.2.3.4.1.1.1.2.2.3.1.2.1.5.1 1v2.3h-4.2V9c0-.5 0-.9 0-1.1 0-.2 0-.3.1-.4.1-.2.2-.5.4-.6 0 0 .1-.1.1-.1h-3C73.1 7 73.2 7 73.3 7.1c.1.1.1.2.2.3.1.2.1.4.1 1l0 .6v5.1c0 .5 0 .7 0 1 0 .1 0 .2-.1.4-.1.2-.2.4-.4.5 0 0-.1.1-.1.1h3c-.1-.1-.2-.2-.3-.3-.1-.1-.1-.2-.1-.3-.1-.2-.1-.4-.1-.8 0-.2 0-.4 0-.6v-2.3h4.2v2.3c0 .5 0 .7 0 1 0 .1-.1.3-.1.4-.1.2-.2.3-.3.5 0 0-.1.1-.1.1h3c-.1-.1-.2-.2-.3-.3-.1-.1-.1-.2-.2-.3-.1-.2-.1-.4-.1-.8 0-.3 0-.4 0-.5l0-5.1V8.5zM70.3 14.7c-.6.2-1.1.3-1.6.3-1 0-1.8-.3-2.4-1-.6-.7-.9-1.6-.9-2.6 0-1 .3-1.9.9-2.5.2-.3.5-.5.9-.7.5-.3 1.1-.4 1.8-.4.6 0 1.1.1 1.7.3.3.1.5.2.8.4V6.9c-.2-.1-.3-.1-.6-.2-.5-.1-1.1-.2-1.7-.2-1 0-1.9.2-2.7.5-.5.2-.9.5-1.3.8-1.2.9-1.8 2.3-1.8 3.8 0 1.5.6 2.8 1.7 3.7.9.7 2.1 1.1 3.5 1.1.9 0 1.7-.1 2.6-.4 0 0 .1 0 .2 0v-1.7c-.2.1-.3.2-.4.3C70.7 14.6 70.5 14.7 70.3 14.7L70.3 14.7zM61.3 8.5c0-.6 0-.8.1-1 0-.1.1-.2.1-.3.1-.2.2-.2.4-.4h-3C59 6.9 59.1 7 59.2 7.1c.1.1.1.2.1.3.1.2.1.4.1 1 0 .3 0 .5 0 .6v5.6c0 .3-.1.7-.1.9 0 .1-.1.2-.2.3-.1.1-.1.2-.3.3h3c-.1-.1-.2-.2-.3-.3-.1-.1-.1-.2-.1-.3-.1-.2-.1-.5-.1-.8V9L61.3 8.5zM34.9 14.8c-.4.1-.9.1-1.5.1-.2 0-.4 0-.8 0h-1.4L37 6.8h-7.4l-.9 2c.3-.2.4-.2.7-.3.4-.2.9-.3 1.3-.4C31 8 31.4 8 32 7.9c.3 0 .5 0 .7 0h1.1L28 16.1h8.2l.9-2.1c-.3.2-.4.2-.7.4C36 14.5 35.4 14.7 34.9 14.8L34.9 14.8z" clip-rule="evenodd" class="color0067ac svgShape"></path></svg></g></svg>